$MeshFormat
4.1 0 8
$EndMeshFormat
$Entities
4 6 2 2
1 3.061616997868383e-17 -7.498798913309288e-33 0.5 0 
2 3.061616997868383e-17 -7.498798913309288e-33 -0.5 0 
3 3.061616997868383e-17 -7.498798913309288e-33 0.5 0 
4 3.061616997868383e-17 -7.498798913309288e-33 -0.5 0 
1 -1.000000000308241e-07 -1.000000000307894e-07 0.4999999 1.000000000308241e-07 1.000000000307894e-07 0.5000000999999999 0 2 1 -1 
2 -1.000000000861423e-07 -1.000000001224647e-07 -0.5000000999999999 0.5000000999999999 1e-07 0.5000000999999999 0 2 2 -1 
3 -1.000000000308241e-07 -1.000000000307894e-07 -0.5000000999999999 1.000000000308241e-07 1.000000000307894e-07 -0.4999999 0 2 2 -2 
4 -1.000000000308241e-07 -1.000000000307894e-07 0.4999999 1.000000000308241e-07 1.000000000307894e-07 0.5000000999999999 0 2 3 -3 
5 -1.000000000861423e-07 -1.000000001224647e-07 -0.5000000999999999 0.5000000999999999 1e-07 0.5000000999999999 0 2 4 -3 
6 -1.000000000308241e-07 -1.000000000307894e-07 -0.5000000999999999 1.000000000308241e-07 1.000000000307894e-07 -0.4999999 0 2 4 -4 
1 -0.5000000999999999 -0.5000000999999999 -0.5000000999999999 0.5000000999999999 0.5000000999999999 0.5000000999999999 0 4 -1 -2 3 2 
2 -0.5000000999999999 -0.5000000999999999 -0.5000000999999999 0.5000000999999999 0.5000000999999999 0.5000000999999999 0 4 -4 -5 6 5 
1 -0.5000000999999999 -0.5000000999999999 -0.5000000999999999 0.5000000999999999 0.5000000999999999 0.5000000999999999 0 1 1 
2 -0.5000000999999999 -0.5000000999999999 -0.5000000999999999 0.5000000999999999 0.5000000999999999 0.5000000999999999 0 1 2 
$EndEntities
$Nodes
14 415 1 415
0 1 0 1
1
3.061616997868383e-17 -7.498798913309288e-33 0.5
0 2 0 1
2
3.061616997868383e-17 -7.498798913309288e-33 -0.5
0 3 0 1
3
3.061616997868383e-17 -7.498798913309288e-33 0.5
0 4 0 1
4
3.061616997868383e-17 -7.498798913309288e-33 -0.5
1 1 0 0
1 2 0 9
5
6
7
8
9
10
11
12
13
0.154508497187474 -3.784366730434158e-17 -0.4755282581475767
0.2938926261462368 -7.198293278059974e-17 -0.4045084971874735
0.4045084971874742 -9.907600726170927e-17 -0.293892626146236
0.475528258147577 -1.164708318489093e-16 -0.154508497187473
0.5 -1.224646799147353e-16 7.657137397853899e-16
0.4755282581475767 -1.164708318489092e-16 0.154508497187474
0.4045084971874738 -9.907600726170918e-17 0.2938926261462365
0.293892626146237 -7.198293278059977e-17 0.4045084971874734
0.1545084971874747 -3.784366730434174e-17 0.4755282581475765
1 3 0 0
1 4 0 0
1 5 0 9
14
15
16
17
18
19
20
21
22
0.154508497187474 -3.784366730434158e-17 -0.4755282581475767
0.2938926261462368 -7.198293278059974e-17 -0.4045084971874735
0.4045084971874742 -9.907600726170927e-17 -0.293892626146236
0.475528258147577 -1.164708318489093e-16 -0.154508497187473
0.5 -1.224646799147353e-16 7.657137397853899e-16
0.4755282581475767 -1.164708318489092e-16 0.154508497187474
0.4045084971874738 -9.907600726170918e-17 0.2938926261462365
0.293892626146237 -7.198293278059977e-17 0.4045084971874734
0.1545084971874747 -3.784366730434174e-17 0.4755282581475765
1 6 0 0
2 1 0 152
23
24
25
26
27
28
29
30
31
32
33
34
35
36
37
38
39
40
41
42
43
44
45
46
47
48
49
50
51
52
53
54
55
56
57
58
59
60
61
62
63
64
65
66
67
68
69
70
71
72
73
74
75
76
77
78
79
80
81
82
83
84
85
86
87
88
89
90
91
92
93
94
95
96
97
98
99
100
101
102
103
104
105
106
107
108
109
110
111
112
113
114
115
116
117
118
119
120
121
122
123
124
125
126
127
128
129
130
131
132
133
134
135
136
137
138
139
140
141
142
143
144
145
146
147
148
149
150
151
152
153
154
155
156
157
158
159
160
161
162
163
164
165
166
167
168
169
170
171
172
173
174
0.4691171175989615 -0.1442989718626748 0.09543027137662922
0.2185763491207971 -0.1349086139510939 -0.428980239040003
0.2185763491474381 -0.1349086139656465 0.4289802390218521
0.4289802390398976 -0.1349086139510624 -0.2185763491210233
0.4766607763040919 -0.1312931054588749 -0.07454277156200488
0.4076225471962073 -0.2595209948849996 -0.1284239550519131
0.3483456479836189 -0.253997261016034 -0.2532601447666517
0.3460817621023791 -0.1239418588298958 -0.3389186179157209
0.07531627702520503 -0.1349086139510468 0.4755282581475784
0.0698331513994324 -0.1315243462511946 -0.4773098336602964
0.1330027011838447 -0.2633153769033511 -0.4037019863266059
0.2985132750176483 -0.3645766738922595 -0.1672533213179784
0.1317580645062373 -0.2611546584734535 0.4055096260203745
0.3559435901796082 -0.3500921343082191 -0.02719665614679514
0.2247485648811413 -0.4433621561615854 -0.05401926570786925
0.271731582908147 -0.2496002987189185 0.3374339012749897
0.173758504779318 -0.3639947715233672 0.2954924505304788
0.159962411989426 -0.4313196327351009 -0.1958964041726718
0.07644736378364896 -0.488358994444373 -0.07524156508082046
0.02585776689526827 -0.3598154527545551 0.3462141185021554
-0.0332186062140784 -0.2747267498828856 -0.4164393558490604
0.4289802390399462 0.1349086139507819 0.2185763491211013
0.4289802390399401 0.1349086139508837 -0.2185763491210503
0.2185763491210323 0.1349086139510531 0.428980239039896
0.2226645853075735 0.1438923421850888 -0.4239286217163163
0.005827060310227179 -0.4530567815472154 -0.2114369836670484
-0.07970614778072525 -0.486449011506387 -0.08375135348408513
-0.1485227141871298 -0.4276187478348564 -0.2123280713203924
-0.2283880537236262 -0.4380293272250601 -0.07726063297110167
-0.2876961321588345 -0.3575419358888179 -0.1984809805037318
-0.3545597030564392 -0.3479563301895259 -0.05669046877180763
-0.3978157570963938 -0.2498139259606275 -0.1712764601513037
-0.4458718207173609 -0.2249442489820204 -0.02446230447240052
-0.3823782270018117 -0.308879764538757 0.09154333713292877
-0.4528509347368716 -0.1727607609069827 0.1227996351736519
-0.3685187742851933 -0.2443844854537552 0.2333883807494325
-0.4205763600528385 -0.09778463595880256 0.2520985726558356
-0.3143147187397618 -0.1608409126061579 0.3540288948879211
-0.3530787021761795 -0.009074131494020815 0.3539111332060831
-0.151188087944464 -0.4740030981835097 0.04963088731960262
-0.313804284932849 -0.2442242399279631 -0.3031194341994456
-0.4060724721523202 -0.1241029708903863 -0.2640143935021026
-0.4921521930442174 -0.08746619494208621 0.01165691314715592
-0.4307045774495009 0.05791872635651251 0.2472629937966583
-0.350210648457615 0.1491903233391608 0.3241832030331822
-0.4058441999236472 0.2079531277198538 0.2050511693696597
-0.3019709204237086 0.2925630932387544 0.2705926822606815
-0.3432791640235712 0.3363148150373804 0.138028115736073
-0.2207863880449482 0.4034463596894066 0.196174426741692
-0.2500068876275418 0.4293555291715803 0.05612829686158313
-0.1108663012592606 0.4727828863035856 0.1191008214226152
-0.1355925654718406 0.4800057972339098 -0.03477198312727235
0.00882382131270284 0.4994845446835991 0.02091243170124334
-0.264841106189144 0.4136607731062067 -0.09350910792904596
-0.1413633930997064 0.4417416290049747 -0.1867638195565973
-0.2603385438889368 0.3563834941893916 -0.234977972659456
0.03617050959336825 0.4679834555335209 0.1722880715042719
0.1544157848071458 0.4703936787947129 0.06989672633514141
0.1226579918351036 0.4775428708562909 -0.08311331742453515
-0.3084475505716008 -0.1138108854146152 -0.3767057086208292
-0.2184472633314473 0.2222830661967427 0.3909872525098175
-0.1265106434831314 0.3621934595130576 -0.3206414741911083
-0.3633234388496651 0.3074165382187005 -0.1532682315813813
0.2616079341027068 0.4248853062989528 -0.03215222085266949
-0.2352524765222797 0.2564763891368584 -0.3589932229241286
0.2169425865181329 0.4156330441870032 -0.1737385585719734
0.1773057663569733 0.41537526034643 0.2145368460397931
0.05461231536356304 0.3927390010716607 0.3045875441443147
-0.09289209257470707 0.2491596404199893 -0.4234271279959206
0.02571351787191016 0.3708067348262702 -0.3344266442826155
-0.2251709220916496 -0.06657944589647857 0.4414354236222034
0.05397997714866068 -0.4580573937986576 0.193053324378037
-0.3784579474399253 0.01670210228620127 -0.3263290085156084
-0.2601540927398647 -0.2921115101858881 0.3114333213508434
-0.1934022120499357 0.1307583712128892 -0.4421513685740936
-0.09883963340049372 -0.1440752766327306 -0.4684794995861165
0.2976852889335752 -0.3425045629796536 0.2099383078207747
0.345173889126785 0.3391662056826596 -0.1257826346834797
0.3793229844195128 0.3246282261728389 0.02702939627424638
0.2830919267916435 0.3104767581194129 -0.2710408523692588
-0.4608475416824387 0.004566914323047701 -0.1939038076439418
-0.4326527699845267 0.2423070282795176 0.06402253252617623
0.07396384093555339 0.4473323667628309 -0.2107678910091009
-0.08724277706936402 -0.4201869428408209 0.2565767544328791
0.1890455023796871 0.3179736799914171 0.3363845074653818
0.05935548295327261 0.2756236749206594 0.4129267688908221
0.2805909641415518 0.3372481389832401 0.2398591328143576
0.3886354716267867 -0.2176999735542293 0.22708851073516
-0.4195260832104634 0.1576895471118649 -0.2216571050919467
-0.4732132024054627 0.1223790465211654 -0.1053215744362809
-0.07882091653248287 0.3317376268025061 0.3657012579694258
0.4315716505508419 0.2368421293162485 -0.08747408885931561
0.06347804213296646 0.2436456790738891 -0.4319806954431978
0.1537164626705822 0.2883126412628028 -0.3784799466181926
0.1581441040297109 0.3861216137762531 -0.2755005294649396
-0.1962361787049928 -0.2205271179431197 -0.4035581152931552
0.1388198398853275 -0.4762639630243082 0.0624635059742281
-0.06041648066245146 -0.3947764065916521 -0.3008345685970051
0.2710573508747217 -0.2294295465181243 -0.3519801069964976
0.4521901807551496 0.2027385741140608 0.06649143549978914
0.3936720444946429 -0.2903200807608118 0.1036174314024606
-0.07857685624841433 0.227220034121789 0.4384024791852905
-0.1701627066542102 0.0814903220205789 0.4630377745725456
0.06582827951838 0.1332414531873846 0.4774027155014559
0.07531627702520581 0.1349086139510521 -0.4755282581475768
0.34388663879131 0.1437581401101839 -0.3332800276237324
0.3442052215379941 0.1142170343335933 0.3442052215379935
0.3525745830757647 -0.1259540316326772 0.3314011847963511
-0.3333509396240036 0.149349003477501 -0.3414264579848365
-0.02149679768501391 -0.2496002986904949 0.4327095776417542
-0.1790243308191943 -0.2022236366441046 0.4207800966742282
-0.09687126438870088 -0.12236468714402 0.4750187801296708
0.2266217760371787 -0.3431511892862694 -0.2844113779671512
0.07242317321829655 -0.3781296653267157 -0.3190185577374749
0.2792688518893907 -0.407027421409525 0.07960896045731572
-0.005297910338769455 -0.497493193513992 0.04972378257224781
-0.2787957670160699 -0.4103613362459117 0.06226149699767126
-0.1885956425145465 -0.3368565656731553 -0.3177409916699648
-0.4704795456494144 -0.1179623856466222 -0.1213831648050019
-0.06855742348410665 0.4211807499277216 0.2605890549803327
-0.2922165196446821 -0.3565726113983099 0.1935600125215407
0.2886011025462853 0.3905850612732832 0.1189651777589314
-0.3639762281963294 0.3426919315671456 -0.009140314368350368
-0.02076024048841432 0.48274576956036 -0.1285516798273711
-0.4707599527321975 0.1185144062311659 0.1197472438900093
-0.4786420120187589 -0.02413378991741831 0.1425460785670939
-0.06224719008183847 0.1362244673632892 -0.4770410693205603
-0.128417332186317 -0.3362393233459021 0.34706210716533
-0.2703372630276865 -0.002390652359607238 -0.420609140414227
-0.1274197731120945 -0.004596133265736694 -0.483469830474525
-0.3339894922475474 0.2521716008912942 -0.2736064742877026
0.1969881888304064 -0.4268861570890627 0.1701877267814816
0.2971089375228125 0.2265264300310939 0.3322830957804405
0.4394510316367483 -0.2384297946809617 -0.005832992524605016
0.4832331312318336 0.1166437257560867 -0.05366546488773119
0.4361494024033818 -0.1025128188992611 0.2219567992752198
-0.07931461723109903 -0.4719091298459994 0.1449515942012227
-0.1896857947008039 -0.4314856302278604 0.1668515813397963
-0.1985466093765675 -0.3769890334086671 0.261645776947895
0.3831306575087815 0.2443395173925777 -0.2085883494283681
0.4850845592353151 0.093755773634793 0.0768298464245603
0.3790911031904031 0.2748260956971346 0.1753868655451502
-0.2063563944557286 -0.108978509148306 -0.4421998677193881
-0.4937856961289981 0.008756065942995109 -0.0780962073829624
-0.1885510186105578 0.3512283338048301 0.3018065123777218
-0.04346640720593286 0.4274726720444274 -0.2556908017504841
-0.4365032703857942 0.2343727050133605 -0.06733743451622219
0.2554350995077285 0.2290811423751767 -0.363695944639971
-0.4971235646066958 0.03397477013216056 0.04139899162056068
-0.2811377442046264 0.08261384352920574 0.4051376576435051
0.1747233896233416 0.2358971699155071 0.4047520998640827
-0.4784690577749881 0.1449855763668551 0.0068222721644544
2 2 0 151
175
176
177
178
179
180
181
182
183
184
185
186
187
188
189
190
191
192
193
194
195
196
197
198
199
200
201
202
203
204
205
206
207
208
209
210
211
212
213
214
215
216
217
218
219
220
221
222
223
224
225
226
227
228
229
230
231
232
233
234
235
236
237
238
239
240
241
242
243
244
245
246
247
248
249
250
251
252
253
254
255
256
257
258
259
260
261
262
263
264
265
266
267
268
269
270
271
272
273
274
275
276
277
278
279
280
281
282
283
284
285
286
287
288
289
290
291
292
293
294
295
296
297
298
299
300
301
302
303
304
305
306
307
308
309
310
311
312
313
314
315
316
317
318
319
320
321
322
323
324
325
0.4756291619527684 0.1328870378818088 0.07821723252011609
0.005507618779932836 0.1544525924430145 -0.4755145243028934
0.4328784272957212 0.1357044959418286 -0.2102392850139032
0.2185763491187113 0.1349086139461873 0.4289802390426088
0.1440619387525745 0.1447671348715048 -0.4563864968028141
0.009858045941286094 0.2625836324059547 -0.4253853017238771
0.4708961991920141 -0.1480864568928606 -0.07954351558382308
0.3404406452540871 -0.1349086139515265 0.3404406452535579
0.2288280952469642 -0.1452730520825654 -0.4201588308773987
0.1403949097294901 0.2841148286207811 -0.3867402661733486
0.0753162770251829 -0.1349086139509976 0.4755282581475959
0.3404406452538755 0.1349086139510243 -0.3404406452539684
0.3535734712534651 0.2490744539430809 -0.2508938357527564
0.4181741392876663 0.2496002986906656 -0.1132699436061925
0.3186976011972008 0.3588670441322079 -0.1401652011983069
0.3681825587077515 0.3382739951560557 0.003508228124563752
0.2482347885112652 0.4338172626511711 -0.01349342056753126
0.0003319128470062651 0.3673008075616661 -0.3392491806893716
0.2878446166702933 0.3874279988630775 0.1305565867770873
0.1532795568749275 0.4637000684383137 0.1071803338981972
0.1069725933350591 0.4873646630259886 -0.03213330840011216
0.002372224775453484 0.4937163120131955 0.07898465548259194
0.04792024078417623 0.44676430253458 0.219329224008058
-0.1043599122134783 0.4520366500885002 0.1864721847878709
-0.1498145997774788 0.4749907607066384 0.04403819861032971
-0.2478170798777228 0.4113607935475203 0.1391725276512313
-0.2828790211842844 0.4122313441244489 -0.006691658626332571
-0.3650639589778608 0.329989960781859 0.08851514920395218
-0.3942294146331923 0.2994383631359981 -0.07014153776760648
-0.3212521323667479 0.3079264001433799 0.2279877179686585
-0.4223616074269708 0.2077335262913667 0.1686933745772473
-0.3642938047449648 0.1776062011367841 0.2928242837303588
-0.4385296825197494 0.06522840966352401 0.2311643833333657
-0.3565704763837694 0.02567219204098329 0.3495689258604984
-0.4149788924080914 -0.08557209948971113 0.2654617385701313
-0.4813841192184708 -0.04600572711423553 0.1270936774074446
-0.4348081735460232 -0.1931964043408583 0.1536782403833896
-0.4777975281919899 -0.1470531607753551 0.009213574746112499
-0.408777457512444 -0.2862860484921784 0.03068042809994825
-0.429422482816712 -0.22953272985366 -0.113626832999329
-0.3394823512077509 -0.3555587623941184 -0.09126718853574997
-0.3007233169077881 -0.3959311070087829 0.05295323569695925
-0.216455441300765 -0.446799807205441 -0.05930408259531431
-0.3408389136199449 -0.2841280545168401 -0.2304345538300435
-0.163092740725161 -0.4658658139109768 0.07981103527594745
-0.06941275510827044 -0.4939693263128236 -0.03429539459365392
-0.1392847413118963 0.1662331650118904 -0.4505178084025178
-0.009500346658397836 -0.4890835440127569 0.1034747814169806
-0.4114565521133025 -0.1452165171125381 -0.2441632013239038
0.08677575951110357 -0.4921359989127251 -0.01649624610162403
0.01705260828795144 -0.4712392159738872 -0.1662612699304736
-0.2500249971828726 0.1299750032490028 0.4130302644045909
-0.2361359711316996 -0.3940876856164912 0.1973187755463902
0.1805666929537518 -0.4459120193798199 -0.1362282656733054
0.2253920746007584 -0.4462159972931171 0.009470821869038372
-0.3040011765040546 -0.1890414623052723 -0.3490653380294797
-0.3283322868202579 -0.1300067969768711 0.3539719511079861
-0.3566711064737524 -0.04174485259112199 -0.3479124733161125
-0.4448575151242283 0.006770136520102787 -0.2281577447491016
-0.3735639692886477 0.1121213703989762 -0.3128558120750929
-0.2738975703826665 0.3830392081484384 -0.1681103386454549
-0.05662667100143286 0.3849882622351579 0.3139704732493946
-0.217207317496855 -0.3160832438361863 -0.320799570124111
0.1224977088014321 -0.4070768545213674 -0.2632161580362973
0.2611946649037742 -0.3555660749974531 -0.2352660479897401
-0.1672947364624909 -0.2083252796689314 -0.4226263704536281
0.09540654695656099 0.3545415513997225 0.339408130616966
-0.01069671505152833 0.2719961425851161 0.4194087251189746
0.1197179895426235 0.4034538720697956 -0.2699862516717496
-0.02356458876893994 0.4492905794672159 -0.2181345579181898
-0.4999077257044554 0.00755032299015263 -0.005937878724211302
-0.07085540083439841 -0.3222119425222912 -0.3757112937730357
-0.01960851768315061 -0.2293429344991556 -0.4438663362202473
-0.1246135145170514 -0.0910697786091182 -0.4755815045013786
-0.4377112845785445 0.1566768254900112 -0.1840141399647674
-0.1420536641078111 0.380817329616147 -0.291202537725158
0.4075620612751401 0.2552271610647221 0.1369389004775536
0.2865623280015174 0.3181225149054723 0.2582248974838955
-0.1425696351891877 0.3057732007965006 0.3690212037223402
-0.1135417468295913 -0.4139578692163179 -0.2564120789681539
0.3731815736870192 0.1881358323171696 0.2744820971553622
0.1900251898549143 -0.2984634225264876 -0.353284605713834
0.326165486234306 -0.2361911203436498 -0.2963609796520964
0.3895215071626879 -0.2696369541870402 -0.1599028092137346
-0.2786184810344129 0.07143868886001227 -0.4089844199478005
-0.2609526448136685 0.2094135897645838 -0.3715503540392095
-0.3538094809269269 0.2616830417719013 -0.2373622481676981
-0.4756138685141769 0.1494821861064263 -0.03803319752299241
0.4245920823431772 -0.1389852053438173 -0.2245098579283805
0.4170606870286858 -0.275708747149785 -0.006713425374319603
0.4714633755692088 -0.1473920071175954 0.07744599237361446
0.3942654562405533 -0.2695009907718091 0.1480674372995009
-0.1359994778057653 0.2916713872039425 -0.3826642705075651
-0.1325942895004223 0.1927445581687699 0.4418917171527476
-0.1651127279062944 0.01451626340473138 0.4717277447639756
0.06983315141976706 -0.1315243462733799 -0.4773098336512081
0.1038434435061717 -0.2425129938187464 -0.4247399052006407
0.2238385081608594 -0.1369963043315086 0.4255917467054895
0.2465538540096002 -0.2597493212978448 0.3489147276317263
0.4273056107820459 -0.126611438648936 0.2266703743267509
0.07213704721775846 0.1519818620130129 0.4708479160384597
-0.142679027637939 0.445494091538681 -0.1765721084328372
0.1905401823838419 0.4360986125868585 -0.1533376633347115
0.1806923195437554 0.4152022754565405 0.21203149792804
-0.04880500634240748 0.4917294509421901 -0.07629035608784294
-0.1955539789872999 0.3735629063034979 0.268718061053437
0.1345916669797209 -0.4661299374556754 0.120863412938689
0.03968356075585736 -0.4370786615968786 0.2395567961515962
0.188701438130342 -0.3921919720028355 0.2461244082655513
0.08742767148174661 -0.3420523416202059 0.3540573369546432
-0.06531833611837584 -0.3677325015343847 0.3324249122463456
-0.01802939580483952 -0.2548258052275696 0.4298124589597574
-0.1676444347171952 -0.2738374062756855 0.383286340002559
-0.1167398815338869 -0.1389574221314182 0.4658998120777094
-0.2326423498063297 -0.07978037745664159 -0.4353304818749373
-0.2379255290193049 -0.3984910213676034 -0.1860009369070169
-0.09996798240127422 -0.4377333673981476 0.219990685168479
0.3167614712918194 -0.3787026630378198 -0.07903457036705787
-0.3553700974763255 -0.3086022365257842 0.1687505657203874
-0.2827747555016555 -0.2796470072769244 0.3030445329849043
-0.4792240794354153 -0.07905376427022202 -0.1187214557019366
0.3591326737479902 -0.1166202040905493 -0.327755168753291
0.4780905787566965 0.1308332325263952 -0.06566630620631264
0.2238973052156341 0.2509813060105887 0.3699707836443256
-0.4794004096673083 0.108288830760008 0.0919172254990724
0.3354433364652656 -0.3658782299835449 0.06009067186476479
0.04636803288118531 -0.3274646802819872 -0.3749891847701014
0.3061269919058134 -0.331154701237345 0.2159232008726779
0.2406200908190727 0.3343836655278319 -0.2833540825934792
0.2632788045991779 0.2166029665623616 -0.3657422944167278
0.1372919379705374 -0.2324959510181716 0.4208284169687809
0.2490872638473577 -0.4118007090437403 0.1355570397290734
-0.2523889311547444 0.3107291110395508 -0.299578448796198
-0.3745776648807534 -0.2079618731379633 0.2577662357513715
0.4431604881255231 0.23136236706948 0.008957503466662213
-0.1781657562252383 -0.355640405767371 0.3029469674618128
0.3163949735642501 0.1092612645517563 0.371424550577676
-0.262119136272102 0.2593101730549739 0.3377155497606923
-0.1287904190259848 -0.4618452916208616 -0.1418166230551006
-0.4830290561686952 0.05218445695225524 -0.1181512308415689
0.4477063908944706 0.1081834086686759 0.1945644819618262
0.3564717510704344 -0.2285552331872912 0.2658766557475125
0.002348679230457811 -0.4024135101540881 -0.296745430548371
0.07245553797925965 0.4711409570942098 -0.1509184997423711
-0.2641371324369789 -0.02582811605124477 0.4237504969781313
0.1175145069896084 0.2413930496106324 0.4218053297987924
-0.1875721002767253 0.4581920092993322 -0.06983401615272307
0.2469871048498058 0.0901874973038552 -0.4252805960398124
-0.2286897066549657 -0.1775493387794644 0.4076484396744831
-0.1750102268983574 0.05685404318715715 -0.4649075588267611
-0.438528786244307 0.2337145514163102 0.05540768982161003
3 1 0 42
326
327
328
329
330
331
332
333
334
335
336
337
338
339
340
341
342
343
344
345
346
347
348
349
350
351
352
353
354
355
356
357
358
359
360
361
362
363
364
365
366
367
-1.110223024625157e-16 4.440892098500626e-16 -1.942890293094024e-16
-0.1179333586179913 -0.1980802882106527 0.1028514025262554
-0.2450695218553182 0.02279083877491005 0.05787223592999714
-0.0006993164688337133 0.2320718268297588 -0.1007671731953593
0.2255282581475767 -0.01102690723753708 0.1149123871063396
-0.17786348965277 -0.08396360522413754 -0.1617522149958157
0.1699424712614277 -0.1012709333454847 -0.1582512719288603
0.07713596692179907 0.1924067785973083 0.1463726772283435
0.0131690792407997 -0.03903321543556308 0.2497059532273208
0.1203649622762026 -0.2236505743296761 0.0603043239230833
0.003963118651187812 0.04650927330738025 -0.2593967543255776
0.2145298350584791 0.1241673009828124 -0.08465730723595596
-0.2027623244959841 0.1376274931778906 -0.1310414069257121
-0.03663288341994918 -0.2550722035586895 -0.1038378829576867
-0.1493648508950927 0.2273191842292472 0.06953622690399835
-0.1518841206692973 0.09406815502016036 0.2350953405606429
-0.2679713582194105 -0.1555152439565836 -0.008505644712575405
0.2764924694823691 -0.1438082644600915 -0.00873596321318339
-0.2175698734382075 -0.08144048271837064 0.2127773481153058
0.01136416675725119 -0.1519155614691209 -0.2667368001066676
0.1347233083219593 0.1712330642269607 -0.2409009566328987
0.1503881584025523 0.2783886016424518 -0.001907773664053321
0.1878090387958634 0.09816575504599015 0.2543559868555812
0.162837883088606 -0.1477110535654688 0.2253341627431925
0.1544270041581234 -0.2737220367153578 -0.1091703740816652
0.2493287180764282 0.1669833475671778 0.09953318280454716
-0.01193837398826772 -0.3296296755802202 0.07927964897542923
-0.004590180943466665 0.3295474489436976 0.06940766578717969
-0.3135210476646904 0.006739443692413825 -0.1013123553313693
-0.172351643311788 0.04751716642477113 -0.2810870676767993
-0.0863092973174827 0.1936334804555257 -0.2462362899944593
-0.2930525264783189 0.1732751602900005 0.00450514940768118
0.005950249255573123 -0.230875030590002 0.2257640466967371
0.3101196512760862 -0.01411246422020721 -0.1145755604894788
0.004200382226137889 0.1472271594890022 0.3024723943186473
-0.1750406533516609 -0.2918641163580946 -0.02094351675358271
-0.1553860966148796 0.2894474949346926 -0.08409262873300523
0.1687807678775519 0.01025185481059922 -0.2881195767035574
-0.1799359125618872 -0.2429795136719068 -0.1725810795157596
-0.1092165826656008 -0.0408352896691821 0.1059032711481496
-0.09225289224521557 -0.1239337729682909 -0.03468388839235884
-0.05498431972823264 0.08593409132442596 -0.1193304241894696
3 2 0 48
368
369
370
371
372
373
374
375
376
377
378
379
380
381
382
383
384
385
386
387
388
389
390
391
392
393
394
395
396
397
398
399
400
401
402
403
404
405
406
407
408
409
410
411
412
413
414
415
-3.608224830031759e-16 9.436895709313831e-16 -2.498001805406602e-16
0.1024429720504673 -0.227478289110715 0.0428383480143428
-0.2398096104813482 -0.006603066029093704 -0.08048640319889458
-0.1708231522516734 -0.141201543744675 0.1227814996895519
0.2289750221772479 0.1029080831527897 -0.03145299429495056
-0.06729110479747097 0.1842464190883578 0.1600686189351095
0.02253269218617032 0.2403847543891704 -0.06700489621234186
0.1767613508879917 -0.02742593989526662 0.1795415939967903
-0.00704692874056502 -0.1817411105269057 -0.178052356518458
0.09270838572972639 0.04189669904466772 -0.2332457563591643
0.2214712218938243 -0.1113922120933388 -0.1177215828185859
-0.03787955001413001 -0.01910033584447989 0.2705881073675357
-0.1951736314019278 0.206055860204935 -0.02336824115164442
-0.1081951938286705 0.1405204472757725 -0.2193809592181278
-0.2452012482373598 0.0627247386095114 0.1320586635410365
0.1366299213091044 0.2301486756272258 0.1138401227892241
-0.09323709534560773 -0.2818889650106047 -0.01375034038463564
-0.004140452984879098 -0.2123592827317899 0.2157664983740394
-0.1464407677672154 -0.05552062190419255 -0.2535524172249064
0.09413148271709534 0.1230399239855302 0.2698941067280962
-0.2588016446668204 -0.1912690898838868 -0.03841734882080168
0.2746908991302752 -0.1451689807956682 0.06367628387318915
0.1676341919635136 0.2017420129007084 -0.176041620530533
0.1401173575069253 -0.2711925276087566 -0.1272034215240878
-0.05485759921790791 0.3290963494615124 0.06255550480895206
0.2703730394807893 0.06036555037097722 -0.1971810466973931
-0.1765602708841755 -0.2126486643432294 -0.1886921844389593
-0.3279267214763934 -0.06500986249481042 0.05397698235646806
-0.1097395584066483 -0.1137494334145911 -0.06146950861153219
0.1703018837474455 -0.2011369234730182 0.2023309344547155
0.2744859178552708 0.1184152876154539 0.1416006287736677
0.1336804308495539 -0.126661856138979 -0.2713523925867505
-0.115958885084273 0.2864101758086187 -0.1433433168272214
0.1591496175084039 -0.03811083691482364 0.01637082354450375
0.2139347906368521 0.2701965636772191 -0.02980693645092209
-0.159400915724672 0.0987336136365273 0.2734883537172431
0.3377638368184623 -0.02451621406476785 -0.03401315541767925
-0.0009416480771744003 -0.05053459897549374 -0.3389583861558253
0.1047670588448927 -0.09545526690284559 0.3149472772028175
-0.2256851068360271 -0.05128675700106342 0.2505718339812106
-0.2664392079794148 0.1392756864190508 -0.1609239304050765
-0.2218175868146943 0.222101365036566 0.1347056421537117
-0.001463824146557963 -0.3297601563791567 0.1077094287129216
0.04728438880732632 -0.09742920663970203 0.1174425946916468
0.01658936272067577 0.2459435532728662 -0.2305393025199044
0.07671317618532505 0.08100118681494653 0.1157257169548928
-0.3229103572877144 0.1085823444587922 -0.002517954816544168
-0.08949634556390239 0.02987992222033267 0.1282001603201372
$EndNodes
$Elements
10 2056 1 2056
0 1 15 1
1 1 
0 2 15 1
2 2 
0 3 15 1
3 3 
0 4 15 1
4 4 
1 2 1 10
5 2 5 
6 5 6 
7 6 7 
8 7 8 
9 8 9 
10 9 10 
11 10 11 
12 11 12 
13 12 13 
14 13 1 
1 5 1 10
15 4 14 
16 14 15 
17 15 16 
18 16 17 
19 17 18 
20 18 19 
21 19 20 
22 20 21 
23 21 22 
24 22 3 
2 1 2 322
25 1 31 13 
26 13 126 1 
27 1 134 31 
28 1 126 125 
29 125 134 1 
30 5 32 2 
31 2 127 5 
32 32 98 2 
33 98 152 2 
34 2 149 127 
35 2 152 149 
36 6 24 5 
37 5 47 6 
38 24 32 5 
39 5 127 47 
40 7 30 6 
41 6 128 7 
42 6 30 24 
43 47 128 6 
44 8 26 7 
45 7 45 8 
46 26 30 7 
47 7 128 45 
48 9 27 8 
49 8 157 9 
50 8 27 26 
51 45 157 8 
52 10 23 9 
53 9 163 10 
54 23 27 9 
55 157 163 9 
56 10 44 11 
57 11 158 10 
58 10 158 23 
59 10 163 44 
60 11 129 12 
61 12 130 11 
62 44 129 11 
63 130 158 11 
64 13 25 12 
65 12 46 13 
66 25 130 12 
67 12 129 46 
68 13 31 25 
69 46 126 13 
70 23 156 27 
71 110 123 23 
72 23 158 110 
73 123 156 23 
74 30 121 24 
75 24 33 32 
76 24 121 33 
77 31 35 25 
78 35 38 25 
79 38 130 25 
80 27 28 26 
81 28 29 26 
82 29 30 26 
83 27 156 28 
84 28 34 29 
85 28 36 34 
86 28 156 36 
87 29 121 30 
88 34 135 29 
89 29 135 121 
90 31 132 35 
91 31 134 132 
92 33 43 32 
93 43 98 32 
94 33 136 43 
95 121 135 33 
96 135 136 33 
97 36 37 34 
98 37 40 34 
99 40 135 34 
100 35 39 38 
101 35 42 39 
102 35 132 42 
103 36 137 37 
104 123 137 36 
105 36 156 123 
106 37 41 40 
107 37 119 41 
108 37 137 119 
109 39 99 38 
110 99 110 38 
111 110 130 38 
112 42 94 39 
113 94 154 39 
114 39 154 99 
115 41 48 40 
116 48 136 40 
117 40 136 135 
118 41 49 48 
119 41 138 49 
120 119 138 41 
121 42 106 94 
122 42 150 106 
123 132 150 42 
124 43 118 98 
125 43 140 118 
126 43 136 120 
127 120 140 43 
128 44 163 122 
129 122 164 44 
130 44 155 129 
131 44 164 155 
132 114 157 45 
133 45 162 114 
134 128 162 45 
135 46 173 126 
136 129 155 46 
137 155 173 46 
138 115 116 47 
139 47 127 115 
140 116 170 47 
141 47 170 128 
142 49 50 48 
143 50 120 48 
144 120 136 48 
145 49 51 50 
146 49 62 51 
147 49 138 62 
148 51 52 50 
149 52 140 50 
150 50 140 120 
151 51 53 52 
152 51 139 53 
153 62 139 51 
154 53 54 52 
155 54 63 52 
156 63 140 52 
157 53 55 54 
158 53 56 55 
159 53 139 56 
160 55 141 54 
161 54 64 63 
162 54 141 64 
163 56 57 55 
164 57 65 55 
165 65 141 55 
166 56 58 57 
167 56 143 58 
168 139 143 56 
169 58 59 57 
170 59 148 57 
171 57 148 65 
172 58 60 59 
173 58 96 60 
174 58 143 96 
175 60 61 59 
176 61 66 59 
177 66 148 59 
178 60 93 61 
179 60 133 93 
180 96 133 60 
181 61 67 66 
182 61 172 67 
183 93 172 61 
184 138 159 62 
185 62 160 139 
186 159 160 62 
187 64 82 63 
188 82 118 63 
189 118 140 63 
190 64 95 82 
191 64 103 95 
192 64 141 103 
193 65 166 141 
194 148 171 65 
195 65 171 166 
196 67 68 66 
197 68 147 66 
198 147 148 66 
199 67 69 68 
200 67 83 69 
201 67 172 83 
202 69 70 68 
203 70 104 68 
204 104 147 68 
205 69 71 70 
206 69 167 71 
207 83 167 69 
208 71 72 70 
209 72 145 70 
210 70 145 104 
211 71 73 72 
212 71 142 73 
213 71 167 142 
214 73 74 72 
215 74 76 72 
216 76 145 72 
217 73 75 74 
218 73 79 75 
219 73 142 79 
220 75 146 74 
221 74 77 76 
222 74 146 77 
223 79 80 75 
224 80 81 75 
225 81 146 75 
226 77 78 76 
227 78 85 76 
228 85 145 76 
229 77 84 78 
230 77 168 84 
231 146 168 77 
232 84 87 78 
233 78 153 85 
234 87 153 78 
235 79 89 80 
236 79 90 89 
237 79 142 90 
238 80 86 81 
239 80 144 86 
240 89 144 80 
241 86 88 81 
242 88 105 81 
243 105 146 81 
244 95 151 82 
245 82 165 118 
246 151 165 82 
247 83 124 113 
248 113 167 83 
249 83 125 124 
250 83 172 125 
251 84 91 87 
252 84 92 91 
253 84 168 92 
254 85 153 111 
255 111 169 85 
256 85 169 145 
257 86 100 88 
258 86 101 100 
259 86 144 101 
260 91 97 87 
261 97 131 87 
262 131 153 87 
263 100 102 88 
264 102 117 88 
265 88 117 105 
266 90 107 89 
267 107 109 89 
268 109 144 89 
269 90 108 107 
270 90 113 108 
271 90 142 113 
272 92 115 91 
273 91 149 97 
274 115 149 91 
275 105 117 92 
276 92 168 105 
277 92 116 115 
278 92 117 116 
279 93 134 125 
280 125 172 93 
281 133 134 93 
282 106 159 94 
283 94 138 119 
284 119 154 94 
285 94 159 138 
286 103 111 95 
287 111 131 95 
288 131 151 95 
289 96 150 133 
290 143 161 96 
291 96 161 150 
292 97 151 131 
293 149 152 97 
294 97 152 151 
295 118 165 98 
296 98 165 152 
297 99 123 110 
298 99 137 123 
299 99 154 137 
300 101 114 100 
301 100 162 102 
302 114 162 100 
303 101 122 114 
304 101 164 122 
305 144 164 101 
306 116 117 102 
307 102 170 116 
308 102 162 128 
309 128 170 102 
310 103 112 111 
311 103 166 112 
312 141 166 103 
313 145 169 104 
314 104 174 147 
315 169 174 104 
316 105 168 146 
317 150 161 106 
318 106 160 159 
319 106 161 160 
320 108 173 107 
321 107 155 109 
322 107 173 155 
323 113 124 108 
324 124 126 108 
325 126 173 108 
326 109 164 144 
327 155 164 109 
328 110 158 130 
329 112 169 111 
330 111 153 131 
331 166 174 112 
332 112 174 169 
333 142 167 113 
334 122 157 114 
335 127 149 115 
336 137 154 119 
337 122 163 157 
338 125 126 124 
339 132 134 133 
340 133 150 132 
341 139 160 143 
342 160 161 143 
343 147 171 148 
344 147 174 171 
345 152 165 151 
346 171 174 166 
2 2 2 320
347 3 185 22 
348 22 275 3 
349 3 288 185 
350 3 275 269 
351 269 288 3 
352 4 176 14 
353 14 270 4 
354 4 248 176 
355 4 270 248 
356 15 183 14 
357 14 322 15 
358 176 179 14 
359 179 322 14 
360 183 270 14 
361 15 186 16 
362 16 296 15 
363 15 296 183 
364 15 322 186 
365 16 177 17 
366 17 263 16 
367 16 186 177 
368 263 296 16 
369 18 181 17 
370 17 297 18 
371 177 297 17 
372 181 263 17 
373 18 175 19 
374 19 265 18 
375 18 297 175 
376 18 265 181 
377 20 274 19 
378 19 315 20 
379 175 315 19 
380 19 274 265 
381 21 182 20 
382 20 311 21 
383 182 274 20 
384 255 311 20 
385 20 315 255 
386 21 178 22 
387 22 272 21 
388 21 311 178 
389 21 272 182 
390 178 275 22 
391 185 272 22 
392 175 309 251 
393 251 315 175 
394 297 309 175 
395 176 180 179 
396 176 221 180 
397 176 324 221 
398 248 324 176 
399 186 187 177 
400 187 188 177 
401 188 297 177 
402 178 320 275 
403 178 311 298 
404 298 320 178 
405 180 184 179 
406 184 304 179 
407 304 322 179 
408 180 192 184 
409 180 267 192 
410 221 267 180 
411 258 263 181 
412 181 264 258 
413 181 265 264 
414 272 273 182 
415 273 316 182 
416 182 316 274 
417 183 257 256 
418 256 271 183 
419 183 296 257 
420 183 271 270 
421 192 243 184 
422 243 303 184 
423 303 304 184 
424 185 305 272 
425 185 288 286 
426 286 305 185 
427 186 304 187 
428 186 322 304 
429 187 189 188 
430 187 303 189 
431 187 304 303 
432 189 190 188 
433 190 309 188 
434 188 309 297 
435 189 191 190 
436 189 277 191 
437 189 303 277 
438 191 193 190 
439 193 251 190 
440 251 309 190 
441 191 194 193 
442 191 195 194 
443 191 277 195 
444 192 244 243 
445 192 250 244 
446 192 267 250 
447 194 278 193 
448 193 252 251 
449 193 278 252 
450 195 196 194 
451 196 197 194 
452 197 278 194 
453 195 279 196 
454 277 318 195 
455 195 318 279 
456 196 198 197 
457 196 199 198 
458 196 279 199 
459 198 236 197 
460 236 241 197 
461 241 278 197 
462 199 200 198 
463 200 280 198 
464 198 280 236 
465 199 201 200 
466 199 321 201 
467 279 321 199 
468 201 202 200 
469 202 204 200 
470 204 280 200 
471 201 203 202 
472 201 235 203 
473 201 321 235 
474 203 325 202 
475 202 205 204 
476 202 325 205 
477 235 261 203 
478 203 261 249 
479 249 262 203 
480 262 325 203 
481 205 206 204 
482 206 312 204 
483 204 312 280 
484 205 207 206 
485 205 299 207 
486 205 325 299 
487 207 208 206 
488 208 226 206 
489 226 312 206 
490 207 209 208 
491 207 210 209 
492 207 299 210 
493 209 231 208 
494 208 319 226 
495 231 319 208 
496 210 211 209 
497 211 308 209 
498 209 308 231 
499 210 212 211 
500 210 245 212 
501 210 299 245 
502 212 213 211 
503 213 293 211 
504 293 308 211 
505 212 214 213 
506 212 295 214 
507 245 295 212 
508 214 215 213 
509 215 216 213 
510 216 293 213 
511 214 218 215 
512 214 223 218 
513 214 295 223 
514 215 217 216 
515 215 290 217 
516 218 290 215 
517 217 219 216 
518 219 227 216 
519 227 293 216 
520 217 220 219 
521 217 313 220 
522 290 313 217 
523 223 230 218 
524 230 237 218 
525 237 290 218 
526 220 222 219 
527 222 291 219 
528 219 291 227 
529 220 224 222 
530 220 225 224 
531 220 313 225 
532 259 260 221 
533 221 324 259 
534 260 267 221 
535 224 281 222 
536 281 282 222 
537 282 291 222 
538 223 232 230 
539 223 233 232 
540 223 295 233 
541 225 228 224 
542 228 229 224 
543 229 281 224 
544 225 238 228 
545 225 317 238 
546 225 313 254 
547 254 317 225 
548 226 269 268 
549 268 312 226 
550 226 319 269 
551 291 310 227 
552 227 294 293 
553 227 310 294 
554 228 292 229 
555 238 239 228 
556 239 292 228 
557 229 306 281 
558 292 300 229 
559 300 306 229 
560 232 289 230 
561 230 240 237 
562 230 289 240 
563 231 308 294 
564 294 323 231 
565 231 323 319 
566 233 234 232 
567 234 259 232 
568 259 289 232 
569 233 249 234 
570 233 314 249 
571 295 314 233 
572 249 261 234 
573 234 260 259 
574 234 261 260 
575 235 276 250 
576 250 307 235 
577 235 307 261 
578 235 321 276 
579 236 242 241 
580 236 253 242 
581 236 280 253 
582 240 246 237 
583 246 254 237 
584 254 290 237 
585 238 256 239 
586 238 301 256 
587 238 317 301 
588 256 257 239 
589 257 258 239 
590 258 292 239 
591 240 247 246 
592 240 248 247 
593 240 289 248 
594 242 320 241 
595 252 278 241 
596 241 298 252 
597 241 320 298 
598 253 268 242 
599 268 275 242 
600 275 320 242 
601 244 318 243 
602 277 303 243 
603 243 318 277 
604 250 276 244 
605 276 279 244 
606 279 318 244 
607 245 299 262 
608 262 314 245 
609 245 314 295 
610 247 301 246 
611 246 317 254 
612 301 317 246 
613 248 270 247 
614 270 271 247 
615 271 301 247 
616 289 324 248 
617 249 314 262 
618 267 307 250 
619 252 255 251 
620 255 315 251 
621 252 298 255 
622 253 312 268 
623 280 312 253 
624 254 313 290 
625 298 311 255 
626 256 301 271 
627 257 263 258 
628 257 296 263 
629 264 292 258 
630 259 324 289 
631 261 307 260 
632 260 307 267 
633 299 325 262 
634 265 266 264 
635 266 300 264 
636 264 300 292 
637 265 274 266 
638 274 316 266 
639 266 302 300 
640 266 316 302 
641 269 275 268 
642 269 319 288 
643 272 305 273 
644 273 284 283 
645 283 302 273 
646 273 305 284 
647 302 316 273 
648 276 321 279 
649 281 283 282 
650 281 306 283 
651 283 284 282 
652 284 285 282 
653 285 291 282 
654 283 306 302 
655 284 286 285 
656 284 305 286 
657 286 287 285 
658 287 310 285 
659 285 310 291 
660 286 288 287 
661 288 323 287 
662 294 310 287 
663 287 323 294 
664 319 323 288 
665 294 308 293 
666 302 306 300 
3 1 4 678
667 113 167 142 340 
668 163 330 351 359 
669 332 337 336 367 
670 330 332 326 337 
671 56 58 143 327 
672 326 330 335 343 
673 326 335 332 343 
674 326 332 330 343 
675 326 333 340 365 
676 326 337 329 347 
677 326 329 333 347 
678 326 337 332 367 
679 326 333 330 337 
680 165 331 345 355 
681 142 340 353 360 
682 332 339 335 366 
683 326 333 337 347 
684 328 68 341 357 
685 333 341 340 365 
686 330 326 335 349 
687 58 327 56 342 
688 330 337 333 351 
689 340 341 68 357 
690 326 333 329 340 
691 332 335 326 366 
692 117 88 329 346 
693 66 328 68 341 
694 58 327 342 344 
695 88 105 117 329 
696 123 343 335 349 
697 165 331 118 345 
698 65 328 148 342 
699 161 106 160 327 
700 333 353 340 360 
701 332 337 330 359 
702 96 327 344 358 
703 163 9 330 359 
704 157 163 351 359 
705 113 167 340 360 
706 65 148 57 342 
707 110 330 158 343 
708 327 358 335 365 
709 332 330 343 359 
710 334 335 326 349 
711 88 337 100 347 
712 326 345 366 367 
713 88 346 337 347 
714 330 334 326 349 
715 123 335 99 349 
716 133 344 334 358 
717 65 171 148 328 
718 167 341 340 360 
719 113 340 142 360 
720 88 329 346 347 
721 330 333 326 334 
722 160 143 161 327 
723 326 335 334 365 
724 142 353 333 360 
725 143 56 327 361 
726 10 330 9 343 
727 69 68 340 341 
728 25 13 12 348 
729 157 351 337 359 
730 57 148 59 344 
731 332 326 345 366 
732 336 337 332 363 
733 171 328 65 354 
734 330 9 343 359 
735 329 326 340 367 
736 96 161 143 327 
737 93 341 334 344 
738 328 340 326 367 
739 10 23 330 343 
740 147 68 66 328 
741 96 143 58 327 
742 25 348 12 349 
743 327 335 326 365 
744 327 326 335 366 
745 25 13 348 349 
746 335 339 332 350 
747 152 98 336 355 
748 123 110 343 349 
749 67 66 68 341 
750 26 29 28 343 
751 147 68 328 357 
752 331 366 345 367 
753 335 358 334 365 
754 334 348 13 349 
755 328 341 66 344 
756 105 329 88 347 
757 165 345 98 355 
758 331 345 336 367 
759 11 330 130 348 
760 328 338 340 367 
761 135 332 121 345 
762 26 332 29 343 
763 110 330 343 349 
764 56 342 327 361 
765 70 340 68 357 
766 158 330 23 343 
767 148 328 66 344 
768 11 130 12 348 
769 57 58 342 344 
770 326 340 328 365 
771 54 342 331 354 
772 130 348 330 349 
773 171 147 328 357 
774 334 341 333 365 
775 54 331 64 354 
776 12 348 130 349 
777 326 334 333 365 
778 163 9 10 330 
779 328 354 171 357 
780 109 333 89 351 
781 29 28 343 350 
782 337 346 336 367 
783 58 96 327 344 
784 328 331 338 367 
785 29 343 332 350 
786 337 351 330 359 
787 327 365 326 366 
788 142 90 333 353 
789 26 332 343 359 
790 10 9 23 343 
791 106 327 161 358 
792 160 143 327 361 
793 69 68 70 340 
794 123 99 110 349 
795 332 345 339 366 
796 100 88 102 337 
797 109 89 144 351 
798 81 146 329 353 
799 165 82 118 331 
800 98 345 336 355 
801 333 334 330 348 
802 135 332 345 350 
803 110 158 23 343 
804 102 337 88 346 
805 328 366 331 367 
806 335 352 154 358 
807 147 148 171 328 
808 326 329 337 367 
809 33 135 121 345 
810 82 331 165 355 
811 119 350 41 352 
812 148 66 59 344 
813 105 81 329 347 
814 336 346 337 363 
815 110 158 330 349 
816 119 335 350 352 
817 160 327 106 352 
818 328 342 65 354 
819 152 165 98 355 
820 328 341 340 357 
821 41 350 339 352 
822 130 330 158 349 
823 329 340 333 353 
824 142 333 90 360 
825 141 342 54 354 
826 105 88 81 347 
827 174 171 354 357 
828 89 333 347 351 
829 25 334 13 349 
830 107 333 109 348 
831 141 54 64 354 
832 328 338 331 354 
833 152 98 2 336 
834 167 69 340 341 
835 171 174 147 357 
836 105 81 146 329 
837 89 347 144 351 
838 160 139 143 361 
839 158 130 11 330 
840 329 347 81 353 
841 33 121 24 345 
842 123 137 335 343 
843 66 148 147 328 
844 328 326 366 367 
845 118 345 331 364 
846 146 329 353 362 
847 335 343 36 350 
848 122 114 337 351 
849 10 23 158 330 
850 117 105 92 329 
851 165 118 98 345 
852 36 335 137 343 
853 61 66 341 344 
854 142 167 71 340 
855 57 58 56 342 
856 128 359 337 363 
857 137 99 123 335 
858 100 337 101 347 
859 157 122 337 351 
860 92 117 329 346 
861 157 122 114 337 
862 163 157 9 359 
863 54 63 64 364 
864 109 348 333 351 
865 63 331 64 364 
866 54 64 331 364 
867 143 139 56 361 
868 41 339 49 352 
869 121 135 29 332 
870 160 327 352 361 
871 98 2 336 345 
872 146 168 105 329 
873 109 107 89 333 
874 157 163 122 351 
875 331 342 54 364 
876 121 332 30 363 
877 146 353 74 362 
878 110 130 158 349 
879 329 346 337 367 
880 30 29 26 332 
881 89 333 90 353 
882 137 335 36 350 
883 158 11 10 330 
884 35 31 349 358 
885 335 349 334 358 
886 39 335 154 358 
887 121 30 24 363 
888 82 63 118 331 
889 168 356 329 362 
890 74 353 72 362 
891 39 99 154 335 
892 134 334 133 344 
893 114 101 100 337 
894 89 347 333 353 
895 154 352 94 358 
896 142 340 71 353 
897 136 345 339 350 
898 13 25 31 334 
899 93 334 134 344 
900 67 61 66 341 
901 135 29 332 350 
902 131 338 354 355 
903 72 353 340 362 
904 328 340 338 357 
905 119 335 37 350 
906 101 347 337 351 
907 41 48 339 350 
908 26 30 332 359 
909 44 163 10 330 
910 69 67 68 341 
911 118 331 63 364 
912 136 135 345 350 
913 332 359 30 363 
914 128 337 346 363 
915 123 36 137 343 
916 142 90 113 360 
917 48 136 339 350 
918 337 347 333 351 
919 81 75 146 353 
920 101 337 114 351 
921 82 95 64 331 
922 106 352 327 358 
923 168 92 105 329 
924 95 64 331 354 
925 78 338 153 356 
926 327 335 352 366 
927 336 345 32 363 
928 13 348 334 360 
929 334 349 31 358 
930 89 90 79 353 
931 119 37 41 350 
932 90 89 107 333 
933 121 29 30 332 
934 82 64 63 331 
935 340 341 333 360 
936 45 337 128 359 
937 133 334 134 358 
938 74 73 72 353 
939 328 326 365 366 
940 7 30 359 363 
941 31 334 25 349 
942 154 335 119 352 
943 39 99 335 349 
944 163 330 44 351 
945 340 341 328 365 
946 333 341 334 360 
947 2 336 32 363 
948 57 59 58 344 
949 339 352 335 366 
950 137 37 119 335 
951 125 334 93 341 
952 131 338 111 354 
953 95 331 82 355 
954 73 340 72 353 
955 339 345 120 364 
956 132 334 31 358 
957 29 34 28 350 
958 93 134 133 344 
959 133 134 132 358 
960 106 161 150 358 
961 49 352 339 361 
962 89 80 347 353 
963 7 359 128 363 
964 137 37 335 350 
965 331 95 354 355 
966 69 71 167 340 
967 132 31 35 358 
968 160 352 62 361 
969 172 341 93 344 
970 41 48 49 339 
971 36 343 28 350 
972 154 99 137 335 
973 111 354 338 357 
974 44 330 11 348 
975 135 33 136 345 
976 128 337 162 346 
977 111 112 354 357 
978 39 349 335 358 
979 171 65 166 354 
980 127 346 336 363 
981 90 333 107 360 
982 92 346 329 356 
983 157 337 45 359 
984 336 345 331 355 
985 78 153 87 356 
986 92 329 168 356 
987 32 336 2 345 
988 152 336 149 355 
989 338 362 340 367 
990 154 137 119 335 
991 145 340 357 362 
992 120 339 136 345 
993 134 334 132 358 
994 5 2 32 363 
995 11 44 10 330 
996 145 72 340 362 
997 41 40 48 350 
998 65 342 141 354 
999 73 142 71 353 
1000 73 71 340 353 
1001 131 354 95 355 
1002 162 100 102 337 
1003 145 340 70 357 
1004 328 342 331 366 
1005 50 49 339 361 
1006 340 362 329 367 
1007 339 350 335 352 
1008 114 45 157 337 
1009 48 40 136 350 
1010 335 343 330 349 
1011 117 102 88 346 
1012 108 90 107 360 
1013 39 154 94 358 
1014 54 342 53 364 
1015 62 352 49 361 
1016 337 346 329 347 
1017 146 75 74 353 
1018 34 36 28 350 
1019 327 352 339 366 
1020 137 36 37 350 
1021 329 333 347 353 
1022 333 348 107 360 
1023 145 72 70 340 
1024 41 49 138 352 
1025 339 345 332 350 
1026 133 132 150 358 
1027 123 110 23 343 
1028 78 338 356 362 
1029 136 120 48 339 
1030 162 128 45 337 
1031 61 172 93 344 
1032 169 338 85 357 
1033 32 345 24 363 
1034 166 174 171 354 
1035 127 115 149 336 
1036 331 342 328 354 
1037 26 28 27 343 
1038 25 12 130 349 
1039 330 348 44 351 
1040 169 111 338 357 
1041 153 78 85 338 
1042 27 343 9 359 
1043 26 343 27 359 
1044 69 70 71 340 
1045 332 343 335 350 
1046 336 346 115 356 
1047 149 336 115 356 
1048 127 115 336 346 
1049 1 13 334 360 
1050 2 149 152 336 
1051 122 101 114 351 
1052 140 120 345 364 
1053 342 361 53 364 
1054 140 345 118 364 
1055 102 162 337 346 
1056 131 111 95 354 
1057 167 83 69 341 
1058 155 107 109 348 
1059 330 348 334 349 
1060 173 107 348 360 
1061 45 128 7 359 
1062 61 341 172 344 
1063 35 31 25 349 
1064 331 339 345 366 
1065 332 337 359 363 
1066 48 50 49 339 
1067 73 71 72 340 
1068 169 112 111 357 
1069 160 106 159 352 
1070 162 114 100 337 
1071 149 355 336 356 
1072 129 44 11 348 
1073 61 59 66 344 
1074 26 7 30 359 
1075 85 357 338 362 
1076 147 104 68 357 
1077 174 354 112 357 
1078 89 80 144 347 
1079 60 133 96 344 
1080 342 344 327 365 
1081 80 81 347 353 
1082 50 51 49 361 
1083 93 125 134 334 
1084 78 85 338 362 
1085 104 70 68 357 
1086 141 65 55 342 
1087 1 13 31 334 
1088 50 361 339 364 
1089 27 23 9 343 
1090 142 79 90 353 
1091 162 45 114 337 
1092 89 79 80 353 
1093 129 11 12 348 
1094 84 78 356 362 
1095 328 344 342 365 
1096 80 75 81 353 
1097 98 32 2 345 
1098 334 341 125 360 
1099 55 65 57 342 
1100 172 61 67 341 
1101 56 53 342 361 
1102 111 85 169 338 
1103 111 153 85 338 
1104 84 77 78 362 
1105 2 127 149 336 
1106 329 336 346 367 
1107 327 352 335 358 
1108 31 132 134 334 
1109 160 159 62 352 
1110 155 348 109 351 
1111 330 333 348 351 
1112 141 55 54 342 
1113 50 339 120 364 
1114 153 111 131 338 
1115 62 139 160 361 
1116 331 345 339 364 
1117 145 357 85 362 
1118 336 329 356 367 
1119 50 48 120 339 
1120 138 119 41 352 
1121 127 47 346 363 
1122 112 174 166 354 
1123 52 54 53 364 
1124 86 88 100 347 
1125 332 345 336 363 
1126 331 336 355 367 
1127 170 128 102 346 
1128 46 12 13 348 
1129 334 348 333 360 
1130 329 346 336 356 
1131 154 119 94 352 
1132 77 146 74 362 
1133 70 72 71 340 
1134 86 100 101 347 
1135 145 76 72 362 
1136 24 32 33 345 
1137 1 334 125 360 
1138 93 133 60 344 
1139 144 347 101 351 
1140 115 346 92 356 
1141 62 138 49 352 
1142 339 352 327 361 
1143 43 140 120 345 
1144 140 43 118 345 
1145 5 32 24 363 
1146 82 165 151 355 
1147 56 139 53 361 
1148 108 107 173 360 
1149 135 34 29 350 
1150 6 30 7 363 
1151 99 38 110 349 
1152 328 365 342 366 
1153 56 55 57 342 
1154 54 55 53 342 
1155 58 60 96 344 
1156 1 134 125 334 
1157 331 355 338 367 
1158 149 97 355 356 
1159 83 67 69 341 
1160 331 354 338 355 
1161 95 103 64 354 
1162 102 128 162 346 
1163 340 353 329 362 
1164 156 36 123 343 
1165 334 344 341 365 
1166 51 361 50 364 
1167 156 28 36 343 
1168 39 35 349 358 
1169 338 354 328 357 
1170 136 40 135 350 
1171 52 53 361 364 
1172 123 23 156 343 
1173 166 65 141 354 
1174 152 149 97 355 
1175 149 115 91 356 
1176 56 53 55 342 
1177 92 116 117 346 
1178 76 145 85 362 
1179 46 173 348 360 
1180 327 342 365 366 
1181 327 339 361 366 
1182 124 83 113 360 
1183 338 357 340 362 
1184 87 84 78 356 
1185 94 352 106 358 
1186 51 62 49 361 
1187 88 86 81 347 
1188 103 95 111 354 
1189 141 64 103 354 
1190 108 113 90 360 
1191 84 92 168 356 
1192 125 93 172 341 
1193 27 156 23 343 
1194 39 38 99 349 
1195 1 126 13 360 
1196 1 31 134 334 
1197 28 156 27 343 
1198 58 59 60 344 
1199 61 93 60 344 
1200 6 24 30 363 
1201 122 163 44 351 
1202 86 101 144 347 
1203 157 45 8 359 
1204 152 151 165 355 
1205 44 348 155 351 
1206 7 128 6 363 
1207 43 120 136 345 
1208 37 40 41 350 
1209 361 364 342 366 
1210 34 37 36 350 
1211 155 44 129 348 
1212 339 331 364 366 
1213 47 128 170 346 
1214 130 110 38 349 
1215 43 98 118 345 
1216 5 47 127 363 
1217 87 355 97 356 
1218 331 342 364 366 
1219 74 75 73 353 
1220 53 51 52 361 
1221 72 76 74 362 
1222 104 147 174 357 
1223 92 115 116 346 
1224 52 51 50 364 
1225 155 109 164 351 
1226 109 144 164 351 
1227 341 344 328 365 
1228 151 95 82 355 
1229 104 145 70 357 
1230 52 361 51 364 
1231 35 38 39 349 
1232 127 47 115 346 
1233 25 38 35 349 
1234 130 38 25 349 
1235 81 86 80 347 
1236 149 91 97 356 
1237 8 9 157 359 
1238 47 128 346 363 
1239 52 63 54 364 
1240 60 59 61 344 
1241 67 83 172 341 
1242 142 73 79 353 
1243 80 86 144 347 
1244 8 45 7 359 
1245 39 94 42 358 
1246 8 27 9 359 
1247 327 361 342 366 
1248 42 94 106 358 
1249 26 8 7 359 
1250 144 101 164 351 
1251 111 112 103 354 
1252 164 44 155 351 
1253 33 43 136 345 
1254 39 42 35 358 
1255 155 173 107 348 
1256 132 35 42 358 
1257 78 76 85 362 
1258 79 75 80 353 
1259 106 94 159 352 
1260 131 97 87 355 
1261 26 27 8 359 
1262 129 12 46 348 
1263 169 174 112 357 
1264 118 63 140 364 
1265 339 364 361 366 
1266 50 120 140 364 
1267 117 116 102 346 
1268 91 115 92 356 
1269 355 356 338 367 
1270 159 138 62 352 
1271 77 74 76 362 
1272 91 87 97 356 
1273 145 169 85 357 
1274 47 170 116 346 
1275 116 115 47 346 
1276 116 170 102 346 
1277 43 32 98 345 
1278 132 42 150 358 
1279 336 356 355 367 
1280 51 139 62 361 
1281 6 5 24 363 
1282 76 78 77 362 
1283 122 164 101 351 
1284 106 150 42 358 
1285 91 92 84 356 
1286 94 119 138 352 
1287 51 53 139 361 
1288 33 32 43 345 
1289 37 34 40 350 
1290 79 73 75 353 
1291 46 126 173 360 
1292 166 103 112 354 
1293 40 34 135 350 
1294 152 97 151 355 
1295 166 141 103 354 
1296 47 6 128 363 
1297 122 44 164 351 
1298 91 84 87 356 
1299 125 172 83 341 
1300 5 6 47 363 
1301 131 151 97 355 
1302 131 95 151 355 
1303 104 169 145 357 
1304 159 94 138 352 
1305 126 125 124 360 
1306 46 173 155 348 
1307 1 125 126 360 
1308 46 155 129 348 
1309 113 108 124 360 
1310 104 174 169 357 
1311 140 63 52 364 
1312 52 50 140 364 
1313 173 126 108 360 
1314 126 124 108 360 
1315 342 148 344 328 
1316 342 344 148 57 
1317 358 96 133 344 
1318 358 133 96 150 
1319 358 96 161 150 
1320 358 161 96 327 
1321 332 367 345 326 
1322 345 367 332 336 
1323 168 362 146 77 
1324 146 362 168 329 
1325 363 121 345 24 
1326 363 345 121 332 
1327 360 167 83 113 
1328 360 83 167 341 
1329 363 2 127 5 
1330 363 127 2 336 
1331 356 153 355 338 
1332 356 355 153 87 
1333 131 355 153 338 
1334 131 153 355 87 
1335 362 84 168 356 
1336 362 168 84 77 
1337 365 358 344 327 
1338 365 344 358 334 
1339 367 362 356 338 
1340 367 356 362 329 
1341 360 83 125 124 
1342 360 125 83 341 
1343 360 46 13 348 
1344 360 13 46 126 
3 2 4 712
1345 227 371 310 385 
1346 368 374 372 377 
1347 368 386 377 396 
1348 370 380 368 381 
1349 373 374 368 380 
1350 227 385 310 410 
1351 368 381 377 386 
1352 368 380 374 381 
1353 377 386 376 396 
1354 368 381 386 396 
1355 227 371 385 410 
1356 372 377 374 390 
1357 368 377 376 396 
1358 374 195 392 402 
1359 227 384 371 410 
1360 368 370 381 396 
1361 227 216 371 384 
1362 384 391 369 410 
1363 374 377 368 381 
1364 374 392 383 402 
1365 368 369 376 401 
1366 223 232 370 386 
1367 223 386 370 394 
1368 197 383 373 392 
1369 310 371 287 385 
1370 216 371 384 388 
1371 373 380 368 415 
1372 194 195 383 392 
1373 383 392 195 402 
1374 224 391 384 410 
1375 370 368 380 415 
1376 233 223 232 370 
1377 369 378 376 401 
1378 223 370 388 394 
1379 287 385 371 407 
1380 227 310 291 410 
1381 225 376 254 384 
1382 376 384 225 391 
1383 370 386 232 408 
1384 194 383 195 402 
1385 370 386 381 396 
1386 224 369 391 410 
1387 232 233 370 408 
1388 293 227 216 371 
1389 293 371 216 388 
1390 313 225 254 384 
1391 225 384 224 391 
1392 240 386 376 405 
1393 310 294 287 371 
1394 368 376 369 396 
1395 292 369 389 391 
1396 19 274 375 389 
1397 368 372 374 413 
1398 240 376 386 394 
1399 246 376 240 394 
1400 292 369 300 389 
1401 368 374 373 413 
1402 242 373 387 403 
1403 19 389 375 398 
1404 197 373 236 392 
1405 295 223 370 388 
1406 310 385 291 410 
1407 254 384 376 394 
1408 317 254 225 376 
1409 242 253 373 403 
1410 292 389 378 391 
1411 264 378 292 389 
1412 300 292 229 369 
1413 368 377 372 401 
1414 247 240 246 376 
1415 317 376 225 391 
1416 306 300 229 369 
1417 247 240 376 405 
1418 229 369 292 391 
1419 376 378 369 391 
1420 371 388 293 395 
1421 287 371 294 407 
1422 294 310 227 371 
1423 175 309 297 372 
1424 295 370 314 395 
1425 370 380 382 415 
1426 236 242 253 373 
1427 241 373 197 383 
1428 274 316 182 397 
1429 293 211 308 371 
1430 287 379 288 385 
1431 19 389 398 404 
1432 211 371 293 395 
1433 21 387 375 406 
1434 281 283 306 369 
1435 223 230 386 394 
1436 308 371 211 395 
1437 227 219 384 410 
1438 211 293 388 395 
1439 264 258 292 378 
1440 308 371 395 407 
1441 245 295 314 395 
1442 314 395 370 414 
1443 234 232 386 408 
1444 306 302 300 397 
1445 306 229 281 369 
1446 225 220 224 384 
1447 236 197 241 373 
1448 313 384 254 394 
1449 280 373 253 409 
1450 21 311 375 387 
1451 318 277 374 412 
1452 372 398 309 402 
1453 274 389 316 397 
1454 295 223 233 370 
1455 295 214 223 388 
1456 245 395 314 414 
1457 224 369 229 391 
1458 377 378 376 399 
1459 198 373 280 392 
1460 268 387 379 403 
1461 241 373 383 387 
1462 274 182 375 397 
1463 195 318 277 374 
1464 227 219 216 384 
1465 309 372 175 398 
1466 198 236 280 373 
1467 274 20 19 375 
1468 384 396 371 411 
1469 188 372 390 393 
1470 223 230 232 386 
1471 370 382 371 415 
1472 286 385 379 406 
1473 195 279 318 374 
1474 370 371 396 415 
1475 295 233 314 370 
1476 213 211 293 388 
1477 177 297 188 372 
1478 304 377 322 393 
1479 295 388 370 395 
1480 274 375 389 397 
1481 242 373 241 387 
1482 372 383 374 413 
1483 229 224 281 369 
1484 283 306 369 397 
1485 301 376 391 399 
1486 369 396 384 411 
1487 376 386 377 405 
1488 309 188 297 372 
1489 232 234 233 408 
1490 373 403 253 409 
1491 244 318 279 374 
1492 368 396 369 411 
1493 314 370 233 408 
1494 376 384 369 396 
1495 20 19 375 398 
1496 188 372 309 402 
1497 188 177 372 393 
1498 197 194 383 392 
1499 259 234 232 386 
1500 290 217 384 388 
1501 195 279 374 392 
1502 377 378 372 401 
1503 308 395 209 407 
1504 236 373 198 392 
1505 280 392 373 409 
1506 287 294 323 407 
1507 188 390 372 402 
1508 184 377 390 412 
1509 292 378 258 391 
1510 297 372 177 393 
1511 308 294 293 371 
1512 371 382 370 395 
1513 175 372 297 404 
1514 259 234 386 408 
1515 236 241 242 373 
1516 281 369 224 410 
1517 290 215 217 388 
1518 195 374 277 402 
1519 224 384 220 410 
1520 236 253 280 373 
1521 294 227 293 371 
1522 369 384 410 411 
1523 374 380 373 392 
1524 259 386 381 408 
1525 290 388 384 394 
1526 311 375 387 398 
1527 277 390 374 412 
1528 283 369 281 410 
1529 21 22 387 406 
1530 377 381 374 412 
1531 318 243 277 412 
1532 244 374 279 400 
1533 371 385 379 407 
1534 246 254 317 376 
1535 21 22 178 387 
1536 290 384 313 394 
1537 188 390 187 393 
1538 372 378 377 393 
1539 370 396 368 415 
1540 181 378 264 389 
1541 374 383 373 413 
1542 223 388 218 394 
1543 308 294 371 407 
1544 246 254 376 394 
1545 288 379 286 385 
1546 200 201 392 409 
1547 308 211 209 395 
1548 179 322 304 377 
1549 211 388 213 395 
1550 184 179 377 412 
1551 322 377 15 393 
1552 182 21 375 406 
1553 184 377 179 390 
1554 179 377 304 390 
1555 242 387 268 403 
1556 3 379 387 406 
1557 244 318 374 412 
1558 301 391 256 399 
1559 21 178 311 387 
1560 175 398 372 404 
1561 380 392 201 409 
1562 369 384 376 391 
1563 301 238 256 391 
1564 374 390 277 402 
1565 296 393 15 399 
1566 372 393 297 404 
1567 296 378 393 399 
1568 370 408 314 414 
1569 292 300 264 389 
1570 216 384 217 388 
1571 283 397 369 410 
1572 375 389 401 404 
1573 247 376 301 399 
1574 287 288 286 385 
1575 184 179 304 390 
1576 380 381 370 408 
1577 309 398 251 402 
1578 304 390 377 393 
1579 15 393 377 399 
1580 374 392 279 400 
1581 368 413 373 415 
1582 375 398 389 404 
1583 317 225 238 391 
1584 280 200 392 409 
1585 207 382 209 395 
1586 3 387 22 406 
1587 312 280 253 409 
1588 264 181 258 378 
1589 285 291 310 385 
1590 246 317 301 376 
1591 194 196 195 392 
1592 381 386 324 405 
1593 312 253 403 409 
1594 220 225 313 384 
1595 373 383 374 392 
1596 375 401 398 404 
1597 374 383 372 402 
1598 227 291 219 410 
1599 246 301 247 376 
1600 374 381 380 400 
1601 247 376 399 405 
1602 277 243 390 412 
1603 215 216 217 388 
1604 295 212 388 395 
1605 198 280 200 392 
1606 369 401 368 411 
1607 271 247 301 399 
1608 190 309 251 402 
1609 223 214 218 388 
1610 263 393 378 404 
1611 378 389 181 404 
1612 293 216 213 388 
1613 288 286 379 406 
1614 209 395 382 407 
1615 296 378 263 393 
1616 378 389 369 391 
1617 370 382 380 414 
1618 221 381 324 405 
1619 197 236 198 392 
1620 19 398 175 404 
1621 295 212 214 388 
1622 283 282 385 410 
1623 377 374 390 412 
1624 374 400 244 412 
1625 290 215 388 394 
1626 299 382 207 395 
1627 290 313 254 394 
1628 311 20 21 375 
1629 274 182 20 375 
1630 368 371 396 411 
1631 375 397 182 406 
1632 380 373 409 415 
1633 194 195 191 402 
1634 372 368 401 413 
1635 207 209 382 407 
1636 283 385 397 410 
1637 21 20 182 375 
1638 380 409 382 415 
1639 377 386 381 405 
1640 278 197 194 383 
1641 17 393 263 404 
1642 242 268 253 403 
1643 188 189 390 402 
1644 321 279 392 400 
1645 217 313 290 384 
1646 371 395 370 396 
1647 20 375 311 398 
1648 188 189 187 390 
1649 370 395 388 396 
1650 311 387 298 398 
1651 186 304 322 393 
1652 4 176 248 405 
1653 368 371 411 415 
1654 210 299 207 395 
1655 188 187 177 393 
1656 259 381 260 408 
1657 371 388 395 396 
1658 321 199 201 392 
1659 197 196 194 392 
1660 210 207 209 395 
1661 252 387 383 398 
1662 296 263 16 393 
1663 184 180 179 412 
1664 297 393 177 404 
1665 246 240 237 394 
1666 265 389 19 404 
1667 224 229 228 391 
1668 369 410 385 411 
1669 182 272 21 406 
1670 258 378 257 391 
1671 199 200 201 392 
1672 371 368 396 415 
1673 240 386 230 394 
1674 257 391 378 399 
1675 15 322 14 377 
1676 310 287 285 385 
1677 299 382 395 414 
1678 324 381 259 386 
1679 379 385 371 411 
1680 374 372 390 402 
1681 286 305 385 406 
1682 17 16 263 393 
1683 224 228 225 391 
1684 17 297 177 404 
1685 379 387 373 403 
1686 305 397 385 406 
1687 19 265 274 389 
1688 307 381 267 400 
1689 223 218 230 394 
1690 176 377 381 405 
1691 190 188 309 402 
1692 217 216 219 384 
1693 17 177 393 404 
1694 283 282 284 385 
1695 267 381 180 412 
1696 380 409 202 414 
1697 256 391 239 399 
1698 307 381 400 408 
1699 381 386 370 408 
1700 325 202 409 414 
1701 208 382 206 403 
1702 398 401 372 404 
1703 299 205 207 382 
1704 176 381 377 412 
1705 267 221 180 381 
1706 382 403 208 407 
1707 239 258 257 391 
1708 379 411 371 415 
1709 181 263 378 404 
1710 15 377 14 399 
1711 373 387 379 413 
1712 263 258 181 378 
1713 241 197 278 383 
1714 235 400 380 408 
1715 207 382 208 407 
1716 235 307 400 408 
1717 193 383 194 402 
1718 296 257 378 399 
1719 207 206 208 382 
1720 298 387 252 398 
1721 299 205 382 414 
1722 370 394 386 396 
1723 373 413 379 415 
1724 205 409 382 414 
1725 325 409 205 414 
1726 283 385 284 397 
1727 239 391 257 399 
1728 377 390 372 393 
1729 247 399 271 405 
1730 285 291 385 410 
1731 305 284 385 397 
1732 325 203 202 414 
1733 288 185 286 406 
1734 260 259 221 381 
1735 195 196 279 392 
1736 272 182 397 406 
1737 388 394 370 396 
1738 220 384 219 410 
1739 267 400 381 412 
1740 246 237 254 394 
1741 308 231 294 407 
1742 259 260 234 408 
1743 249 314 233 408 
1744 19 175 18 404 
1745 193 190 251 402 
1746 316 389 266 397 
1747 376 377 399 405 
1748 202 380 201 409 
1749 305 284 286 385 
1750 287 286 285 385 
1751 307 267 250 400 
1752 244 243 318 412 
1753 201 380 235 400 
1754 15 296 16 393 
1755 379 387 375 413 
1756 176 381 221 405 
1757 256 239 257 399 
1758 288 379 185 406 
1759 206 403 382 409 
1760 289 232 230 386 
1761 285 385 282 410 
1762 206 382 205 409 
1763 289 230 240 386 
1764 203 380 202 414 
1765 263 296 257 378 
1766 321 201 235 400 
1767 218 388 215 394 
1768 380 392 374 400 
1769 311 298 255 398 
1770 307 260 381 408 
1771 222 224 220 410 
1772 212 213 388 395 
1773 378 391 376 399 
1774 369 389 378 401 
1775 232 289 259 386 
1776 14 377 179 405 
1777 203 235 380 408 
1778 302 316 266 397 
1779 19 315 175 398 
1780 207 208 209 407 
1781 379 375 411 413 
1782 369 389 401 411 
1783 242 241 320 387 
1784 193 194 191 402 
1785 377 393 378 399 
1786 375 387 379 406 
1787 369 397 389 411 
1788 205 206 207 382 
1789 389 375 401 411 
1790 178 298 311 387 
1791 285 282 291 410 
1792 240 230 237 394 
1793 176 377 179 412 
1794 231 323 294 407 
1795 282 283 281 410 
1796 187 390 304 393 
1797 321 276 279 400 
1798 373 392 380 409 
1799 372 401 398 413 
1800 212 211 213 395 
1801 200 202 201 409 
1802 185 379 3 406 
1803 186 187 304 393 
1804 235 261 307 408 
1805 389 397 375 411 
1806 251 309 175 398 
1807 183 296 15 399 
1808 301 256 271 399 
1809 195 277 191 402 
1810 14 322 179 377 
1811 267 250 400 412 
1812 307 260 267 381 
1813 321 279 199 392 
1814 222 220 219 410 
1815 324 221 259 381 
1816 314 408 249 414 
1817 257 258 263 378 
1818 272 182 273 397 
1819 274 266 316 389 
1820 276 244 279 400 
1821 252 383 193 398 
1822 245 299 395 414 
1823 322 15 186 393 
1824 292 258 239 391 
1825 384 388 371 396 
1826 290 218 215 394 
1827 313 217 220 384 
1828 373 383 387 413 
1829 217 219 220 384 
1830 378 393 372 404 
1831 175 297 18 404 
1832 14 399 377 405 
1833 398 401 375 413 
1834 288 3 185 379 
1835 369 397 385 410 
1836 189 277 390 402 
1837 319 288 323 407 
1838 299 210 245 395 
1839 184 390 243 412 
1840 379 371 407 415 
1841 228 229 292 391 
1842 20 315 19 398 
1843 383 398 372 402 
1844 325 202 205 409 
1845 283 302 306 397 
1846 372 398 383 413 
1847 384 376 394 396 
1848 181 264 265 389 
1849 216 215 213 388 
1850 213 214 212 388 
1851 382 395 371 407 
1852 181 389 265 404 
1853 201 202 203 380 
1854 242 275 268 387 
1855 210 209 211 395 
1856 214 215 218 388 
1857 284 282 285 385 
1858 379 375 406 411 
1859 245 212 295 395 
1860 312 403 206 409 
1861 184 303 243 390 
1862 252 241 278 383 
1863 387 398 375 413 
1864 201 203 235 380 
1865 193 278 194 383 
1866 268 379 269 403 
1867 372 401 378 404 
1868 176 179 180 412 
1869 225 228 238 391 
1870 265 19 18 404 
1871 272 397 273 406 
1872 203 408 380 414 
1873 252 193 251 398 
1874 373 379 403 415 
1875 260 221 267 381 
1876 176 180 381 412 
1877 383 398 387 413 
1878 179 377 176 405 
1879 277 303 189 390 
1880 203 261 235 408 
1881 379 413 411 415 
1882 376 386 394 396 
1883 181 17 263 404 
1884 277 243 303 390 
1885 384 394 388 396 
1886 198 200 199 392 
1887 370 395 382 414 
1888 286 284 285 385 
1889 382 407 371 415 
1890 182 316 273 397 
1891 183 15 14 399 
1892 3 275 22 387 
1893 222 281 224 410 
1894 324 259 289 386 
1895 266 264 300 389 
1896 379 406 385 411 
1897 22 21 272 406 
1898 226 208 206 403 
1899 299 325 205 414 
1900 255 298 252 398 
1901 238 239 256 391 
1902 241 298 320 387 
1903 308 209 231 407 
1904 380 400 381 408 
1905 381 400 374 412 
1906 197 198 196 392 
1907 380 408 370 414 
1908 250 244 400 412 
1909 266 274 265 389 
1910 221 176 180 381 
1911 187 189 303 390 
1912 204 206 205 409 
1913 249 408 203 414 
1914 204 280 312 409 
1915 291 222 219 410 
1916 290 254 237 394 
1917 271 399 270 405 
1918 184 304 303 390 
1919 307 261 260 408 
1920 269 379 288 407 
1921 382 409 380 414 
1922 190 189 188 402 
1923 385 406 397 411 
1924 247 271 270 405 
1925 200 280 204 409 
1926 385 397 369 411 
1927 286 185 305 406 
1928 305 273 284 397 
1929 208 403 319 407 
1930 16 186 15 393 
1931 262 314 249 414 
1932 214 213 215 388 
1933 20 311 255 398 
1934 234 249 233 408 
1935 204 312 206 409 
1936 176 221 324 405 
1937 199 279 196 392 
1938 296 183 257 399 
1939 245 314 262 414 
1940 273 397 305 406 
1941 397 406 375 411 
1942 237 230 218 394 
1943 269 403 379 407 
1944 17 177 16 393 
1945 14 176 4 405 
1946 266 265 264 389 
1947 262 249 203 414 
1948 303 304 187 390 
1949 250 192 244 412 
1950 202 204 205 409 
1951 267 192 250 412 
1952 186 177 187 393 
1953 226 319 208 403 
1954 379 407 403 415 
1955 298 178 320 387 
1956 248 386 240 405 
1957 368 411 413 415 
1958 270 399 14 405 
1959 290 237 218 394 
1960 234 260 261 408 
1961 321 235 276 400 
1962 267 180 192 412 
1963 20 255 315 398 
1964 403 407 382 415 
1965 228 292 239 391 
1966 252 278 193 383 
1967 210 211 212 395 
1968 378 401 389 404 
1969 18 297 17 404 
1970 272 273 305 406 
1971 245 210 212 395 
1972 256 257 183 399 
1973 273 283 284 397 
1974 312 253 268 403 
1975 243 244 192 412 
1976 18 181 265 404 
1977 22 185 3 406 
1978 22 275 178 387 
1979 269 288 319 407 
1980 282 281 222 410 
1981 226 206 312 403 
1982 202 200 204 409 
1983 250 244 276 400 
1984 401 411 375 413 
1985 368 411 401 413 
1986 193 191 190 402 
1987 250 235 307 400 
1988 184 243 192 412 
1989 315 251 175 398 
1990 14 179 176 405 
1991 242 320 275 387 
1992 325 262 203 414 
1993 189 191 277 402 
1994 302 273 316 397 
1995 199 196 198 392 
1996 203 249 261 408 
1997 16 177 186 393 
1998 183 14 270 399 
1999 245 262 299 414 
2000 3 288 269 379 
2001 248 324 386 405 
2002 291 282 222 410 
2003 247 248 240 405 
2004 238 228 239 391 
2005 208 231 209 407 
2006 181 18 17 404 
2007 235 250 276 400 
2008 271 256 183 399 
2009 240 248 289 386 
2010 302 283 273 397 
2011 255 252 251 398 
2012 183 270 271 399 
2013 269 319 403 407 
2014 231 319 323 407 
2015 184 192 180 412 
2016 190 191 189 402 
2017 289 248 324 386 
2018 248 176 324 405 
2019 325 299 262 414 
2020 268 226 312 403 
2021 22 272 185 406 
2022 320 178 275 387 
2023 255 251 315 398 
2024 4 270 14 405 
2025 234 261 249 408 
2026 231 208 319 407 
2027 272 305 185 406 
2028 226 269 319 403 
2029 226 268 269 403 
2030 247 270 248 405 
2031 4 248 270 405 
2032 407 379 287 385 
2033 376 401 377 368 
2034 377 401 376 378 
2035 300 397 369 306 
2036 369 397 300 389 
2037 391 317 301 238 
2038 391 301 317 376 
2039 407 288 287 379 
2040 407 287 288 323 
2041 410 371 411 384 
2042 410 411 371 385 
2043 409 415 403 382 
2044 403 415 409 373 
2045 400 201 392 321 
2046 400 392 201 380 
2047 398 193 402 383 
2048 398 402 193 251 
2049 387 252 241 298 
2050 387 241 252 383 
2051 266 397 300 302 
2052 300 397 266 389 
2053 268 387 269 379 
2054 268 269 387 275 
2055 3 269 387 379 
2056 3 387 269 275 
$EndElements
