# Apple ModelIO OBJ File: L_share
mtllib L_share.mtl
g 
v -0.00149 0.005 0.081652
v 0.003636 0.005 0.078287
v 0.003636 0.005 0.007559
v -0.075 0.005 0.199019
v -0.0725 0.005 0.198349
v -0.0775 0.005 0.198349
v -0.07067 0.005 0.196519
v -0.07933 0.005 0.196519
v -0.08 0.005 0.194019
v -0.08 0.005 0.15242
v -0.010104 0.005 0.091615
v -0.006584 0.005 0.086594
v 0.003636 0 0.078287
v -0.00149 0 0.081652
v -0.006584 0 0.086594
v -0.010104 0 0.091615
v -0.07067 0 0.196519
v -0.0725 0 0.198349
v -0.075 0 0.199019
v -0.0775 0 0.198349
v -0.07933 0 0.196519
v -0.08 0 0.194019
v -0.08 0.001 0.138564
v -0.08 0 0.138564
v 0 0.001117 0
v 0 0 0
v -0.002364 0.001 0.004094
v 0.003636 0.001021 0.000974
v 0.003636 0 0.000974
v 0.000126 0.001195 3.4e-05
v 0.028636 0.15 0.069115
v 0.028636 0.15 0.029115
v 0.023636 0.15 0.069115
v 0.023636 0.15 0.029115
v 0.028636 0.145 0.024115
v 0.028636 0.075 0.024115
v 0.023636 0.145 0.024115
v 0.027636 0.075 0.024115
v 0.023636 0.059545 0.024115
v 0.028636 0.145 0.074115
v 0.028636 0.025 0.074115
v 0.028636 0.025 0.010718
v 0.028636 0.14933 0.071615
v 0.028636 0.1475 0.073446
v 0.028636 0.14933 0.026615
v 0.028636 0.1475 0.024785
v 0.027636 0.026035 0.010995
v 0.027614 0.025 0.010718
v 0.023636 0.145 0.074115
v 0.023636 0.025 0.074115
v 0.023636 0.025 0.014859
v 0.023636 0.14933 0.026615
v 0.023636 0.1475 0.024785
v 0.023636 0.14933 0.071615
v 0.023636 0.1475 0.073446
v 0.007027 0.00529 0.076468
v 0.016128 0.003345 0.074424
v 0.020042 0.006136 0.074115
v 0.016761 0.009909 0.074115
v 0.007874 0.000362 0.076468
v 0.00882 0.000543 0.076135
v 0.010462 0.006201 0.075168
v 0.012168 0.001501 0.075168
v 0.013629 0.007676 0.074424
v 0.015132 0.008634 0.074224
v 0.028154 0.020123 0.0095
v 0.027065 0.019892 0.009386
v 0.026733 0.015433 0.008282
v 0.025432 0.015004 0.008051
v 0.025606 0.013071 0.007632
v 0.022809 0.010599 0.006722
v 0.024422 0.011112 0.007064
v 0.021314 0.007322 0.005846
v 0.019292 0.006837 0.005387
v 0.017524 0.004215 0.004628
v 0.016958 0.005062 0.004628
v 0.015057 0.003915 0.004054
v 0.015565 0.00303 0.00406
v 0.012812 0.002846 0.00341
v 0.013203 0.001903 0.00341
v 0.01031 0.001969 0.002724
v 0.008833 0.000548 0.002273
v 0.008314 0.001482 0.002192
v 0.008513 0.000482 0.002192
v 0.005234 0.001074 0.001388
v 0.02809 0.019802 0.074115
v 0.022927 0.019723 0.074115
v 0.025606 0.013071 0.074115
v 0.019999 0.0135 0.074115
v 0.021314 0.007322 0.074115
v 0.023617 0.024137 0.014582
v 0.022982 0.019928 0.013259
v 0.01605 0.009319 0.00926
v 0.015136 0.008637 0.008906
v 0.021452 0.015911 0.011923
v 0.019999 0.0135 0.011049
v 0.019112 0.012332 0.010594
v 0.012419 0.007032 0.007926
v 0.008914 0.005709 0.006762
v 0.004663 0.005026 0.005424
v 0.008396 0.005575 0.006596
v 0.004661 0.005025 0.005422
v 0.004643 0.005011 0.005403
vn 0 1 0
vn 0.5488 0 0.836
vn 0.6963 0 0.7178
vn 0.8189 0 0.5739
vn 0.866 0 0.5
vn 0.7071 0 0.7071
vn 0.2588 0 0.9659
vn -0.2588 0 0.9659
vn -0.7071 0 0.7071
vn -0.9659 0 0.2588
vn -1 0 0
vn -0.866 0 -0.5
vn 0.2588 0 -0.9659
vn 0 -1 -0
vn 0 0 -1
vn 1 0 0
vn 0 0.2588 -0.9659
vn 0 0 1
vn 0.4727 0 0.8812
vn 0.0486 0.0423 0.9979
vn 0.3886 0.0669 0.919
vn 0.3223 0.0554 0.945
vn 0.339 0.0622 0.9387
vn 0.2522 0.0916 0.9633
vn 0.1963 0.0713 0.978
vn 0.1459 0.0841 0.9857
vn 0.097 0.0559 0.9937
vn 0.032 0.0439 0.9985
vn 0 0.2423 -0.9702
vn 0.0485 0.2471 -0.9678
vn 0.051 0.2365 -0.9703
vn 0.0954 0.2326 -0.9679
vn 0.1004 0.2191 -0.9705
vn 0.1204 0.2203 -0.968
vn 0.1441 0.1943 -0.9703
vn 0.1444 0.1935 -0.9704
vn 0.1771 0.1779 -0.968
vn 0.1824 0.1579 -0.9705
vn 0.2087 0.1395 -0.968
vn 0.2085 0.1393 -0.968
vn 0.212 0.1149 -0.9705
vn 0.2205 0.1197 -0.968
vn 0.2229 0.0923 -0.9705
vn 0.2318 0.096 -0.968
vn 0.2318 0.0668 -0.9705
vn 0.2451 0.0522 -0.9681
vn 0.2362 0.047 -0.9706
vn 0.2463 0.049 -0.968
vn 0.2408 0.0155 -0.9704
vn 0.2506 0 -0.9681
vn 0.9945 -0.1045 -0
vn 0.9382 -0.3461 0.0036
vn 0.9571 -0.2899 -0.0005
vn 0.9951 -0.0984 0.0005
vn 0.8012 -0.5983 0.0033
vn 0.8559 -0.5171 -0
vn 0.9024 -0.4308 -0
vn 0.0851 -0.9964 -0
vn 0.0985 -0.9951 -0.0008
vn 0.1885 -0.9821 0
vn 0.2015 -0.9795 -0
vn 0.275 -0.9614 -0
vn 0.2965 -0.955 -0.0011
vn 0.4222 -0.9065 0.001
vn 0.4307 -0.9025 0.0006
vn 0.5806 -0.8142 -0.001
vn 0.5161 -0.8565 0.005
vn 0.6821 -0.7313 -0.0045
vn 0.6342 -0.7732 0
vn 0.7732 -0.6342 0
vn -0.9998 0.0216 0
vn -0.9911 0.1331 -0.0016
vn -0.9888 0.1493 -0.0004
vn -0.9048 0.4258 0.0006
vn -0.5979 0.8016 -0.0007
vn -0.6163 0.7875 -0
vn -0.9335 0.3584 -0.0079
vn -0.8566 0.516 -0
vn -0.7426 0.6697 -0
vn -0.7953 0.6062 -0.0063
vn -0.7016 0.7126 0.0012
vn -0.5378 0.8431 0
vn -0.5089 0.8608 0.0009
vn -0.3523 0.9359 -0.0027
vn -0.0851 0.9964 -0
vn -0.1297 0.9903 -0.0502
vn -0.1195 0.9928 0.0017
vn -0.2507 0.9681 -0.001
vn -0.2568 0.9665 -0.0011
vn -0.4215 0.9068 0.003
vn -0.433 0.866 -0.25
vn -0.4596 0.8629 -0.2104
vn -0.4629 0.8525 -0.2429
vn -0.444 0.8658 -0.2307
vn -0.4686 0.8569 -0.2148
vn -0.4631 0.8606 -0.2121
vn 0.0846 0.7718 -0.6303
vn 0.2169 0.7002 -0.6802
vn 0.1522 0.7168 -0.6804
vn 0.0855 0.7177 -0.6911
vn 0.1377 0.7411 -0.6571
vn 0.0255 0.6877 -0.7255
vn 0.0946 0.7514 -0.653
vn 0.0249 0.7377 -0.6747
vn -0.0637 0.7211 -0.6899
vn -0.0494 0.7304 -0.6813
vn -0.1478 0.7189 -0.6792
vn -0.2057 0.6892 -0.6948
vn -0.1796 0.7159 -0.6748
vn -0.288 0.6709 -0.6833
vn -0.2625 0.6975 -0.6668
vn -0.3319 0.6431 -0.6901
vn -0.4097 0.6204 -0.6687
vn -0.4331 0.5931 -0.6788
vn -0.5191 0.5149 -0.6822
vn -0.5152 0.5489 -0.6582
vn -0.5696 0.4465 -0.6901
vn -0.6309 0.3934 -0.6687
vn -0.6517 0.3151 -0.6899
vn -0.7003 0.2497 -0.6687
vn -0.7062 0.2304 -0.6694
vn -0.703 0.1977 -0.6831
vn -0.7071 0.183 -0.683
vn 0 0.9659 0.2588
vn 0 0.7071 0.7071
vn 0 0.2588 0.9659
vn 0 0.7071 -0.7071
vn 0 0.9659 -0.2588
usemtl material_1
f 1//1 2//1 3//1
f 4//1 5//1 6//1
f 6//1 5//1 7//1
f 6//1 7//1 8//1
f 8//1 7//1 9//1
f 9//1 7//1 10//1
f 10//1 7//1 11//1
f 10//1 11//1 3//1
f 3//1 11//1 12//1
f 3//1 12//1 1//1
f 13//2 2//2 14//2
f 14//2 2//2 1//2
f 14//3 1//3 15//3
f 15//3 1//3 12//3
f 15//4 12//4 16//4
f 16//4 12//4 11//4
f 17//5 16//5 7//5
f 7//5 16//5 11//5
f 17//6 7//6 5//6
f 17//6 5//6 18//6
f 18//7 5//7 4//7
f 18//7 4//7 19//7
f 19//8 4//8 6//8
f 19//8 6//8 20//8
f 20//9 6//9 8//9
f 20//9 8//9 21//9
f 21//10 8//10 9//10
f 21//10 9//10 22//10
f 23//11 24//11 10//11
f 10//11 24//11 22//11
f 10//11 22//11 9//11
f 25//12 26//12 27//12
f 27//12 26//12 24//12
f 27//12 24//12 23//12
f 28//13 29//13 30//13
f 30//13 29//13 26//13
f 30//13 26//13 25//13
f 20//14 21//14 22//14
f 26//14 15//14 16//14
f 29//14 13//14 26//14
f 26//14 13//14 14//14
f 26//14 14//14 15//14
f 17//14 18//14 19//14
f 19//14 20//14 17//14
f 17//14 20//14 22//14
f 17//14 22//14 16//14
f 16//14 22//14 24//14
f 16//14 24//14 26//14
f 31//1 32//1 33//1
f 33//1 32//1 34//1
f 35//15 36//15 37//15
f 37//15 36//15 38//15
f 37//15 38//15 39//15
f 35//16 40//16 36//16
f 36//16 40//16 41//16
f 36//16 41//16 42//16
f 43//16 44//16 31//16
f 31//16 44//16 40//16
f 31//16 40//16 32//16
f 32//16 40//16 35//16
f 32//16 35//16 45//16
f 45//16 35//16 46//16
f 38//17 36//17 47//17
f 47//17 36//17 42//17
f 47//17 42//17 48//17
f 49//11 37//11 50//11
f 50//11 37//11 39//11
f 50//11 39//11 51//11
f 52//11 53//11 34//11
f 34//11 53//11 37//11
f 34//11 37//11 33//11
f 33//11 37//11 49//11
f 33//11 49//11 54//11
f 54//11 49//11 55//11
f 49//18 50//18 40//18
f 40//18 50//18 41//18
f 56//19 2//19 13//19
f 57//20 58//20 59//20
f 13//21 60//21 56//21
f 56//22 60//22 61//22
f 56//23 61//23 62//23
f 62//24 61//24 63//24
f 62//25 63//25 64//25
f 64//26 63//26 57//26
f 64//27 57//27 65//27
f 65//28 57//28 59//28
f 48//29 42//29 66//29
f 48//30 66//30 67//30
f 67//31 66//31 68//31
f 67//32 68//32 69//32
f 69//33 68//33 70//33
f 69//34 70//34 71//34
f 70//35 72//35 71//35
f 71//36 72//36 73//36
f 71//37 73//37 74//37
f 74//38 73//38 75//38
f 74//39 75//39 76//39
f 76//40 75//40 77//40
f 77//41 75//41 78//41
f 77//42 78//42 79//42
f 79//43 78//43 80//43
f 79//44 80//44 81//44
f 81//45 80//45 82//45
f 81//46 82//46 83//46
f 83//47 82//47 84//47
f 83//48 84//48 85//48
f 85//49 84//49 29//49
f 85//50 29//50 28//50
f 41//18 50//18 86//18
f 86//18 50//18 87//18
f 86//18 87//18 88//18
f 88//18 87//18 89//18
f 88//18 89//18 90//18
f 90//18 89//18 59//18
f 90//18 59//18 58//18
f 42//51 41//51 86//51
f 88//52 68//52 86//52
f 86//53 68//53 66//53
f 86//54 66//54 42//54
f 90//55 72//55 88//55
f 88//56 72//56 70//56
f 88//57 70//57 68//57
f 13//58 29//58 60//58
f 60//59 29//59 84//59
f 60//60 84//60 61//60
f 61//61 84//61 82//61
f 61//62 82//62 63//62
f 63//63 82//63 80//63
f 63//64 80//64 57//64
f 57//65 80//65 78//65
f 57//66 78//66 58//66
f 58//67 78//67 75//67
f 58//68 75//68 90//68
f 90//69 75//69 73//69
f 90//70 73//70 72//70
f 50//71 51//71 91//71
f 50//72 91//72 87//72
f 87//73 91//73 92//73
f 87//74 92//74 89//74
f 93//75 94//75 59//75
f 59//76 94//76 65//76
f 92//77 95//77 89//77
f 89//78 95//78 96//78
f 89//79 96//79 59//79
f 59//80 96//80 97//80
f 59//81 97//81 93//81
f 65//82 94//82 64//82
f 64//83 94//83 98//83
f 64//84 98//84 99//84
f 3//85 2//85 56//85
f 100//86 3//86 101//86
f 101//87 3//87 56//87
f 101//88 56//88 99//88
f 99//89 56//89 62//89
f 99//90 62//90 64//90
f 3//91 27//91 10//91
f 10//91 27//91 23//91
f 3//92 100//92 102//92
f 25//93 27//93 30//93
f 30//94 27//94 3//94
f 30//95 3//95 103//95
f 103//96 3//96 102//96
f 102//97 100//97 101//97
f 30//98 103//98 28//98
f 28//99 103//99 85//99
f 85//100 103//100 83//100
f 83//101 103//101 102//101
f 83//102 102//102 81//102
f 102//103 101//103 81//103
f 81//104 101//104 99//104
f 81//105 99//105 79//105
f 79//106 99//106 98//106
f 79//107 98//107 77//107
f 77//108 98//108 76//108
f 76//109 98//109 94//109
f 76//110 94//110 74//110
f 94//111 93//111 74//111
f 74//112 93//112 97//112
f 74//113 97//113 71//113
f 71//114 97//114 96//114
f 71//115 96//115 69//115
f 96//116 95//116 69//116
f 69//117 95//117 92//117
f 69//118 92//118 67//118
f 67//119 92//119 91//119
f 67//120 91//120 48//120
f 51//121 47//121 91//121
f 91//122 47//122 48//122
f 47//123 51//123 38//123
f 38//123 51//123 39//123
f 31//124 33//124 54//124
f 31//124 54//124 43//124
f 43//125 54//125 55//125
f 43//125 55//125 44//125
f 44//126 55//126 49//126
f 44//126 49//126 40//126
f 35//17 37//17 53//17
f 35//17 53//17 46//17
f 46//127 53//127 52//127
f 46//127 52//127 45//127
f 45//128 52//128 34//128
f 45//128 34//128 32//128
s off
