solid STL generated by MeshLab
  facet normal  1.012847e-02  2.354887e-01 -9.718243e-01
    outer loop
      vertex  -2.800026e-01  4.309599e+01 -4.344058e+01
      vertex  -2.535495e+01  4.077897e+01 -4.426336e+01
      vertex  -2.105198e+01  5.729105e+01 -4.021737e+01
    endloop
  endfacet
  facet normal  2.604719e-02  7.217338e-02 -9.970520e-01
    outer loop
      vertex  -8.910984e+00  2.043400e+01 -4.530648e+01
      vertex  -2.535495e+01  4.077897e+01 -4.426336e+01
      vertex  -2.800026e-01  4.309599e+01 -4.344058e+01
    endloop
  endfacet
  facet normal -1.372954e-01 -1.062866e-01 -9.848112e-01
    outer loop
      vertex  -8.910984e+00  2.043400e+01 -4.530648e+01
      vertex  -4.811985e+00 -1.065902e+01 -4.252220e+01
      vertex  -2.105405e+01  1.725797e+01 -4.327081e+01
    endloop
  endfacet
  facet normal  4.872541e-03 -8.855180e-02 -9.960597e-01
    outer loop
      vertex  -8.910984e+00  2.043400e+01 -4.530648e+01
      vertex   1.142605e+01  6.262001e+00 -4.394708e+01
      vertex  -4.811985e+00 -1.065902e+01 -4.252220e+01
    endloop
  endfacet
  facet normal -2.439017e-01 -8.536373e-02 -9.660357e-01
    outer loop
      vertex  -2.105405e+01  1.725797e+01 -4.327081e+01
      vertex  -3.478305e+01  3.069596e+01 -4.099200e+01
      vertex  -2.535495e+01  4.077897e+01 -4.426336e+01
    endloop
  endfacet
  facet normal  1.026853e-01  4.271714e-02 -9.937963e-01
    outer loop
      vertex   1.526504e+01  2.820499e+01 -4.247444e+01
      vertex  -8.910984e+00  2.043400e+01 -4.530648e+01
      vertex  -2.800026e-01  4.309599e+01 -4.344058e+01
    endloop
  endfacet
  facet normal -1.474661e-01 -6.860149e-02 -9.866852e-01
    outer loop
      vertex  -8.910984e+00  2.043400e+01 -4.530648e+01
      vertex  -2.105405e+01  1.725797e+01 -4.327081e+01
      vertex  -2.535495e+01  4.077897e+01 -4.426336e+01
    endloop
  endfacet
  facet normal  1.006287e-01  4.908489e-02 -9.937125e-01
    outer loop
      vertex  -8.910984e+00  2.043400e+01 -4.530648e+01
      vertex   1.526504e+01  2.820499e+01 -4.247444e+01
      vertex   1.142605e+01  6.262001e+00 -4.394708e+01
    endloop
  endfacet
  facet normal  3.926675e-01  1.029104e-02 -9.196229e-01
    outer loop
      vertex   3.288894e+01 -1.236202e+01 -3.458395e+01
      vertex   2.118496e+01 -3.450594e+01 -3.982920e+01
      vertex   1.621597e+01 -1.291195e+01 -4.170926e+01
    endloop
  endfacet
  facet normal  1.478811e-01 -7.812499e-02 -9.859146e-01
    outer loop
      vertex   1.142605e+01  6.262001e+00 -4.394708e+01
      vertex   1.621597e+01 -1.291195e+01 -4.170926e+01
      vertex   8.127956e+00 -2.702596e+01 -4.180400e+01
    endloop
  endfacet
  facet normal -2.299007e-02 -6.196152e-02 -9.978137e-01
    outer loop
      vertex   8.127956e+00 -2.702596e+01 -4.180400e+01
      vertex  -4.811985e+00 -1.065902e+01 -4.252220e+01
      vertex   1.142605e+01  6.262001e+00 -4.394708e+01
    endloop
  endfacet
  facet normal -4.114780e-01  9.050973e-02 -9.069144e-01
    outer loop
      vertex  -2.535495e+01  4.077897e+01 -4.426336e+01
      vertex  -3.478305e+01  3.069596e+01 -4.099200e+01
      vertex  -3.881601e+01  4.643705e+01 -3.759124e+01
    endloop
  endfacet
  facet normal  6.368187e-02  3.086793e-01 -9.490320e-01
    outer loop
      vertex  -2.105198e+01  5.729105e+01 -4.021737e+01
      vertex   5.019798e-01  5.374699e+01 -3.992379e+01
      vertex  -2.800026e-01  4.309599e+01 -4.344058e+01
    endloop
  endfacet
  facet normal  1.913617e-01  3.235678e-02 -9.809861e-01
    outer loop
      vertex   1.526504e+01  2.820499e+01 -4.247444e+01
      vertex   2.438198e+01  1.379301e+01 -4.117135e+01
      vertex   1.142605e+01  6.262001e+00 -4.394708e+01
    endloop
  endfacet
  facet normal -3.179426e-01  3.029895e-01 -8.983929e-01
    outer loop
      vertex  -2.535495e+01  4.077897e+01 -4.426336e+01
      vertex  -3.881601e+01  4.643705e+01 -3.759124e+01
      vertex  -2.105198e+01  5.729105e+01 -4.021737e+01
    endloop
  endfacet
  facet normal  3.248132e-02 -2.017406e-01 -9.789002e-01
    outer loop
      vertex   8.127956e+00 -2.702596e+01 -4.180400e+01
      vertex   2.118496e+01 -3.450594e+01 -3.982920e+01
      vertex   1.161404e+01 -4.410799e+01 -3.816790e+01
    endloop
  endfacet
  facet normal -4.214750e-01 -2.437868e-01 -8.734569e-01
    outer loop
      vertex  -2.497397e+01  6.584023e+00 -3.840014e+01
      vertex  -2.105405e+01  1.725797e+01 -4.327081e+01
      vertex  -1.537400e+01 -6.458946e+00 -3.939212e+01
    endloop
  endfacet
  facet normal -3.606308e-01 -2.340255e-01 -9.028717e-01
    outer loop
      vertex  -4.811985e+00 -1.065902e+01 -4.252220e+01
      vertex  -1.537400e+01 -6.458946e+00 -3.939212e+01
      vertex  -2.105405e+01  1.725797e+01 -4.327081e+01
    endloop
  endfacet
  facet normal -1.928073e-01 -1.946384e-01 -9.617386e-01
    outer loop
      vertex   8.127956e+00 -2.702596e+01 -4.180400e+01
      vertex  -1.956028e+00 -2.767696e+01 -3.965063e+01
      vertex  -4.811985e+00 -1.065902e+01 -4.252220e+01
    endloop
  endfacet
  facet normal  3.012670e-01  2.789509e-01 -9.118249e-01
    outer loop
      vertex  -2.800026e-01  4.309599e+01 -4.344058e+01
      vertex   5.019798e-01  5.374699e+01 -3.992379e+01
      vertex   1.469900e+01  4.137797e+01 -3.901710e+01
    endloop
  endfacet
  facet normal -3.971279e-01 -2.562856e-01 -8.812531e-01
    outer loop
      vertex  -2.105405e+01  1.725797e+01 -4.327081e+01
      vertex  -2.497397e+01  6.584023e+00 -3.840014e+01
      vertex  -3.478305e+01  3.069596e+01 -4.099200e+01
    endloop
  endfacet
  facet normal  1.157647e-01 -5.968335e-02 -9.914819e-01
    outer loop
      vertex   2.118496e+01 -3.450594e+01 -3.982920e+01
      vertex   8.127956e+00 -2.702596e+01 -4.180400e+01
      vertex   1.621597e+01 -1.291195e+01 -4.170926e+01
    endloop
  endfacet
  facet normal  3.006187e-01  2.541809e-01 -9.192500e-01
    outer loop
      vertex   1.469900e+01  4.137797e+01 -3.901710e+01
      vertex   1.526504e+01  2.820499e+01 -4.247444e+01
      vertex  -2.800026e-01  4.309599e+01 -4.344058e+01
    endloop
  endfacet
  facet normal -1.877741e-01 -2.410038e-01 -9.521859e-01
    outer loop
      vertex  -1.956028e+00 -2.767696e+01 -3.965063e+01
      vertex   8.127956e+00 -2.702596e+01 -4.180400e+01
      vertex   1.161404e+01 -4.410799e+01 -3.816790e+01
    endloop
  endfacet
  facet normal  3.913982e-01  1.657538e-01 -9.051702e-01
    outer loop
      vertex   2.783706e+01  2.100199e+01 -3.835727e+01
      vertex   2.438198e+01  1.379301e+01 -4.117135e+01
      vertex   1.526504e+01  2.820499e+01 -4.247444e+01
    endloop
  endfacet
  facet normal  4.263563e-01  2.467253e-01 -8.702568e-01
    outer loop
      vertex   2.783706e+01  2.100199e+01 -3.835727e+01
      vertex   1.526504e+01  2.820499e+01 -4.247444e+01
      vertex   1.469900e+01  4.137797e+01 -3.901710e+01
    endloop
  endfacet
  facet normal  2.388264e-01 -5.350004e-02 -9.695874e-01
    outer loop
      vertex   2.438198e+01  1.379301e+01 -4.117135e+01
      vertex   1.621597e+01 -1.291195e+01 -4.170926e+01
      vertex   1.142605e+01  6.262001e+00 -4.394708e+01
    endloop
  endfacet
  facet normal  3.937685e-01 -1.020083e-01 -9.135320e-01
    outer loop
      vertex   3.288894e+01 -1.236202e+01 -3.458395e+01
      vertex   1.621597e+01 -1.291195e+01 -4.170926e+01
      vertex   2.438198e+01  1.379301e+01 -4.117135e+01
    endloop
  endfacet
  facet normal -5.508042e-01 -3.390284e-01 -7.626758e-01
    outer loop
      vertex  -1.956028e+00 -2.767696e+01 -3.965063e+01
      vertex  -7.925999e+00 -2.581405e+01 -3.616723e+01
      vertex  -1.537400e+01 -6.458946e+00 -3.939212e+01
    endloop
  endfacet
  facet normal -3.545566e-01 -2.131242e-01 -9.104217e-01
    outer loop
      vertex  -1.537400e+01 -6.458946e+00 -3.939212e+01
      vertex  -4.811985e+00 -1.065902e+01 -4.252220e+01
      vertex  -1.956028e+00 -2.767696e+01 -3.965063e+01
    endloop
  endfacet
  facet normal  5.685424e-01  4.809301e-02 -8.212470e-01
    outer loop
      vertex   2.438198e+01  1.379301e+01 -4.117135e+01
      vertex   2.783706e+01  2.100199e+01 -3.835727e+01
      vertex   4.009597e+01  3.532021e+00 -3.089358e+01
    endloop
  endfacet
  facet normal  1.130233e-01  6.232752e-01 -7.737918e-01
    outer loop
      vertex   5.019798e-01  5.374699e+01 -3.992379e+01
      vertex  -2.105198e+01  5.729105e+01 -4.021737e+01
      vertex  -1.039194e+01  6.904704e+01 -2.919110e+01
    endloop
  endfacet
  facet normal  5.905371e-01 -1.232068e-01 -7.975500e-01
    outer loop
      vertex   3.024002e+01 -3.050399e+01 -3.374272e+01
      vertex   2.118496e+01 -3.450594e+01 -3.982920e+01
      vertex   3.288894e+01 -1.236202e+01 -3.458395e+01
    endloop
  endfacet
  facet normal  5.274591e-01 -4.215487e-02 -8.485339e-01
    outer loop
      vertex   2.438198e+01  1.379301e+01 -4.117135e+01
      vertex   4.009597e+01  3.532021e+00 -3.089358e+01
      vertex   3.288894e+01 -1.236202e+01 -3.458395e+01
    endloop
  endfacet
  facet normal  6.666960e-01  4.097113e-01 -6.226178e-01
    outer loop
      vertex   2.783706e+01  2.100199e+01 -3.835727e+01
      vertex   1.469900e+01  4.137797e+01 -3.901710e+01
      vertex   3.159500e+01  2.178495e+01 -3.381807e+01
    endloop
  endfacet
  facet normal -7.235522e-01 -3.578039e-01 -5.902954e-01
    outer loop
      vertex  -3.478305e+01  3.069596e+01 -4.099200e+01
      vertex  -2.497397e+01  6.584023e+00 -3.840014e+01
      vertex  -3.304001e+01  6.512001e+00 -2.846957e+01
    endloop
  endfacet
  facet normal  7.281346e-01  2.360108e-01 -6.435207e-01
    outer loop
      vertex   4.009597e+01  3.532021e+00 -3.089358e+01
      vertex   2.783706e+01  2.100199e+01 -3.835727e+01
      vertex   3.159500e+01  2.178495e+01 -3.381807e+01
    endloop
  endfacet
  facet normal -7.694536e-01 -3.365423e-01 -5.428448e-01
    outer loop
      vertex  -3.478305e+01  3.069596e+01 -4.099200e+01
      vertex  -3.304001e+01  6.512001e+00 -2.846957e+01
      vertex  -3.948203e+01  1.804996e+01 -2.649144e+01
    endloop
  endfacet
  facet normal -6.756175e-01 -4.530368e-01 -5.816345e-01
    outer loop
      vertex  -2.497397e+01  6.584023e+00 -3.840014e+01
      vertex  -1.537400e+01 -6.458946e+00 -3.939212e+01
      vertex  -2.379795e+01 -4.306969e+00 -3.128317e+01
    endloop
  endfacet
  facet normal -4.975802e-01  6.858747e-01 -5.310271e-01
    outer loop
      vertex  -2.010898e+01  6.590104e+01 -2.998031e+01
      vertex  -2.105198e+01  5.729105e+01 -4.021737e+01
      vertex  -3.881601e+01  4.643705e+01 -3.759124e+01
    endloop
  endfacet
  facet normal -4.417917e-01 -4.356370e-01 -7.842451e-01
    outer loop
      vertex   1.161404e+01 -4.410799e+01 -3.816790e+01
      vertex  -2.603977e+00 -4.842696e+01 -2.775929e+01
      vertex  -1.956028e+00 -2.767696e+01 -3.965063e+01
    endloop
  endfacet
  facet normal  5.749921e-01  6.209154e-01 -5.327739e-01
    outer loop
      vertex   1.469900e+01  4.137797e+01 -3.901710e+01
      vertex   5.019798e-01  5.374699e+01 -3.992379e+01
      vertex   2.098794e+01  5.574601e+01 -1.548474e+01
    endloop
  endfacet
  facet normal  3.480155e-01 -4.856289e-01 -8.019038e-01
    outer loop
      vertex   2.699905e+01 -4.429403e+01 -3.137835e+01
      vertex   1.161404e+01 -4.410799e+01 -3.816790e+01
      vertex   2.118496e+01 -3.450594e+01 -3.982920e+01
    endloop
  endfacet
  facet normal -4.127277e-01 -4.906870e-01 -7.673866e-01
    outer loop
      vertex  -2.603977e+00 -4.842696e+01 -2.775929e+01
      vertex   1.161404e+01 -4.410799e+01 -3.816790e+01
      vertex   2.303982e+00 -5.345504e+01 -2.718388e+01
    endloop
  endfacet
  facet normal -1.954360e-01  7.593413e-01 -6.206492e-01
    outer loop
      vertex  -2.010898e+01  6.590104e+01 -2.998031e+01
      vertex  -1.039194e+01  6.904704e+01 -2.919110e+01
      vertex  -2.105198e+01  5.729105e+01 -4.021737e+01
    endloop
  endfacet
  facet normal -5.517973e-01 -4.016303e-01 -7.308986e-01
    outer loop
      vertex  -7.925999e+00 -2.581405e+01 -3.616723e+01
      vertex  -1.956028e+00 -2.767696e+01 -3.965063e+01
      vertex  -2.603977e+00 -4.842696e+01 -2.775929e+01
    endloop
  endfacet
  facet normal  6.166838e-01 -2.716166e-01 -7.388676e-01
    outer loop
      vertex   2.118496e+01 -3.450594e+01 -3.982920e+01
      vertex   3.024002e+01 -3.050399e+01 -3.374272e+01
      vertex   2.699905e+01 -4.429403e+01 -3.137835e+01
    endloop
  endfacet
  facet normal -6.935031e-01 -4.450921e-01 -5.665213e-01
    outer loop
      vertex  -3.304001e+01  6.512001e+00 -2.846957e+01
      vertex  -2.497397e+01  6.584023e+00 -3.840014e+01
      vertex  -2.379795e+01 -4.306969e+00 -3.128317e+01
    endloop
  endfacet
  facet normal  4.796564e-01 -1.103989e-01 -8.704838e-01
    outer loop
      vertex   4.849905e+01 -2.683297e+01 -2.414715e+01
      vertex   3.024002e+01 -3.050399e+01 -3.374272e+01
      vertex   3.288894e+01 -1.236202e+01 -3.458395e+01
    endloop
  endfacet
  facet normal  4.754716e-01  7.063768e-01 -5.243649e-01
    outer loop
      vertex   5.019798e-01  5.374699e+01 -3.992379e+01
      vertex  -1.039194e+01  6.904704e+01 -2.919110e+01
      vertex   6.794949e+00  6.398905e+01 -2.042042e+01
    endloop
  endfacet
  facet normal -2.246577e-02 -4.568573e-01 -8.892563e-01
    outer loop
      vertex   2.699905e+01 -4.429403e+01 -3.137835e+01
      vertex   3.023098e+01 -5.415694e+01 -2.639291e+01
      vertex   2.039602e+01 -5.831503e+01 -2.400822e+01
    endloop
  endfacet
  facet normal -6.916875e-01 -3.695500e-01 -6.204847e-01
    outer loop
      vertex  -1.537400e+01 -6.458946e+00 -3.939212e+01
      vertex  -7.925999e+00 -2.581405e+01 -3.616723e+01
      vertex  -2.379795e+01 -4.306969e+00 -3.128317e+01
    endloop
  endfacet
  facet normal  7.197227e-01  4.901942e-01 -4.916388e-01
    outer loop
      vertex   3.159500e+01  2.178495e+01 -3.381807e+01
      vertex   1.469900e+01  4.137797e+01 -3.901710e+01
      vertex   2.098794e+01  5.574601e+01 -1.548474e+01
    endloop
  endfacet
  facet normal  5.871713e-01  1.458964e-01 -7.962061e-01
    outer loop
      vertex   6.011001e+01 -5.220055e+00 -1.773773e+01
      vertex   4.009597e+01  3.532021e+00 -3.089358e+01
      vertex   3.159500e+01  2.178495e+01 -3.381807e+01
    endloop
  endfacet
  facet normal -6.769094e-01  6.525885e-01 -3.404731e-01
    outer loop
      vertex  -3.881601e+01  4.643705e+01 -3.759124e+01
      vertex  -4.680405e+01  4.877494e+01 -1.722882e+01
      vertex  -3.696994e+01  5.681303e+01 -2.137374e+01
    endloop
  endfacet
  facet normal  5.942554e-01 -1.991513e-01 -7.792299e-01
    outer loop
      vertex   4.817300e+01 -4.984103e+01 -1.381303e+01
      vertex   3.023098e+01 -5.415694e+01 -2.639291e+01
      vertex   2.699905e+01 -4.429403e+01 -3.137835e+01
    endloop
  endfacet
  facet normal  3.298702e-01 -5.562734e-01 -7.627224e-01
    outer loop
      vertex   2.039602e+01 -5.831503e+01 -2.400822e+01
      vertex   1.161404e+01 -4.410799e+01 -3.816790e+01
      vertex   2.699905e+01 -4.429403e+01 -3.137835e+01
    endloop
  endfacet
  facet normal -5.831215e-01  7.128212e-01 -3.896861e-01
    outer loop
      vertex  -3.696994e+01  5.681303e+01 -2.137374e+01
      vertex  -2.010898e+01  6.590104e+01 -2.998031e+01
      vertex  -3.881601e+01  4.643705e+01 -3.759124e+01
    endloop
  endfacet
  facet normal  5.727445e-01 -2.674631e-01 -7.748723e-01
    outer loop
      vertex   2.699905e+01 -4.429403e+01 -3.137835e+01
      vertex   3.024002e+01 -3.050399e+01 -3.374272e+01
      vertex   4.817300e+01 -4.984103e+01 -1.381303e+01
    endloop
  endfacet
  facet normal  4.947278e-01 -2.261838e-02 -8.687536e-01
    outer loop
      vertex   3.288894e+01 -1.236202e+01 -3.458395e+01
      vertex   4.009597e+01  3.532021e+00 -3.089358e+01
      vertex   5.660305e+01 -8.796959e+00 -2.117233e+01
    endloop
  endfacet
  facet normal -8.991929e-01 -1.408822e-01 -4.142515e-01
    outer loop
      vertex  -3.478305e+01  3.069596e+01 -4.099200e+01
      vertex  -3.948203e+01  1.804996e+01 -2.649144e+01
      vertex  -3.881601e+01  4.643705e+01 -3.759124e+01
    endloop
  endfacet
  facet normal -2.734750e-01  9.172950e-01 -2.894501e-01
    outer loop
      vertex  -1.039194e+01  6.904704e+01 -2.919110e+01
      vertex  -2.010898e+01  6.590104e+01 -2.998031e+01
      vertex  -1.150095e+01  7.047904e+01 -2.360513e+01
    endloop
  endfacet
  facet normal  4.999661e-01 -8.245169e-02 -8.621110e-01
    outer loop
      vertex   4.849905e+01 -2.683297e+01 -2.414715e+01
      vertex   3.288894e+01 -1.236202e+01 -3.458395e+01
      vertex   5.660305e+01 -8.796959e+00 -2.117233e+01
    endloop
  endfacet
  facet normal -9.070368e-01  1.869222e-01 -3.772854e-01
    outer loop
      vertex  -3.881601e+01  4.643705e+01 -3.759124e+01
      vertex  -4.933603e+01  4.018204e+01 -1.539891e+01
      vertex  -4.680405e+01  4.877494e+01 -1.722882e+01
    endloop
  endfacet
  facet normal -1.570743e-01 -8.789613e-01 -4.502829e-01
    outer loop
      vertex   7.636990e+00 -5.770699e+01 -2.074432e+01
      vertex   2.303982e+00 -5.345504e+01 -2.718388e+01
      vertex   2.039602e+01 -5.831503e+01 -2.400822e+01
    endloop
  endfacet
  facet normal -7.546391e-02 -7.269278e-01 -6.825550e-01
    outer loop
      vertex   2.303982e+00 -5.345504e+01 -2.718388e+01
      vertex   1.161404e+01 -4.410799e+01 -3.816790e+01
      vertex   2.039602e+01 -5.831503e+01 -2.400822e+01
    endloop
  endfacet
  facet normal  5.928675e-01  1.737709e-01 -7.863281e-01
    outer loop
      vertex   5.660305e+01 -8.796959e+00 -2.117233e+01
      vertex   4.009597e+01  3.532021e+00 -3.089358e+01
      vertex   6.011001e+01 -5.220055e+00 -1.773773e+01
    endloop
  endfacet
  facet normal -4.944915e-01  8.675877e-01 -5.262903e-02
    outer loop
      vertex  -2.010898e+01  6.590104e+01 -2.998031e+01
      vertex  -3.696994e+01  5.681303e+01 -2.137374e+01
      vertex  -2.580198e+01  6.354801e+01 -1.527969e+01
    endloop
  endfacet
  facet normal  5.569659e-01  6.477183e-01 -5.198558e-01
    outer loop
      vertex   2.098794e+01  5.574601e+01 -1.548474e+01
      vertex   5.019798e-01  5.374699e+01 -3.992379e+01
      vertex   6.794949e+00  6.398905e+01 -2.042042e+01
    endloop
  endfacet
  facet normal  5.873094e-01 -4.134133e-01 -6.958141e-01
    outer loop
      vertex   4.817300e+01 -4.984103e+01 -1.381303e+01
      vertex   3.863198e+01 -6.075704e+01 -1.538055e+01
      vertex   3.023098e+01 -5.415694e+01 -2.639291e+01
    endloop
  endfacet
  facet normal  7.136381e-01  4.194636e-01 -5.610445e-01
    outer loop
      vertex   6.011001e+01 -5.220055e+00 -1.773773e+01
      vertex   3.159500e+01  2.178495e+01 -3.381807e+01
      vertex   4.991995e+01  1.217399e+01 -1.769468e+01
    endloop
  endfacet
  facet normal -7.204859e-01 -2.946433e-01 -6.277622e-01
    outer loop
      vertex  -4.205295e+01 -1.645296e+01 -7.346653e+00
      vertex  -3.948203e+01  1.804996e+01 -2.649144e+01
      vertex  -3.304001e+01  6.512001e+00 -2.846957e+01
    endloop
  endfacet
  facet normal -6.151884e-01 -6.513264e-01 -4.442041e-01
    outer loop
      vertex  -2.603977e+00 -4.842696e+01 -2.775929e+01
      vertex   2.303982e+00 -5.345504e+01 -2.718388e+01
      vertex  -2.993992e+00 -5.164706e+01 -2.249760e+01
    endloop
  endfacet
  facet normal  4.896105e-01 -3.630172e-01 -7.927798e-01
    outer loop
      vertex   4.817300e+01 -4.984103e+01 -1.381303e+01
      vertex   3.024002e+01 -3.050399e+01 -3.374272e+01
      vertex   4.849905e+01 -2.683297e+01 -2.414715e+01
    endloop
  endfacet
  facet normal -8.740155e-01 -1.590245e-01 -4.591386e-01
    outer loop
      vertex  -4.933603e+01  4.018204e+01 -1.539891e+01
      vertex  -3.881601e+01  4.643705e+01 -3.759124e+01
      vertex  -3.948203e+01  1.804996e+01 -2.649144e+01
    endloop
  endfacet
  facet normal -4.508476e-01  8.920338e-01 -3.181446e-02
    outer loop
      vertex  -1.150095e+01  7.047904e+01 -2.360513e+01
      vertex  -2.010898e+01  6.590104e+01 -2.998031e+01
      vertex  -2.580198e+01  6.354801e+01 -1.527969e+01
    endloop
  endfacet
  facet normal  1.817346e-01 -7.761378e-01 -6.038069e-01
    outer loop
      vertex   3.023098e+01 -5.415694e+01 -2.639291e+01
      vertex   3.863198e+01 -6.075704e+01 -1.538055e+01
      vertex   2.039602e+01 -5.831503e+01 -2.400822e+01
    endloop
  endfacet
  facet normal -6.623830e-01 -3.930360e-01 -6.377864e-01
    outer loop
      vertex  -7.925999e+00 -2.581405e+01 -3.616723e+01
      vertex  -2.603977e+00 -4.842696e+01 -2.775929e+01
      vertex  -2.482297e+01 -3.116097e+01 -1.532357e+01
    endloop
  endfacet
  facet normal -6.793414e-01 -3.555703e-01 -6.419229e-01
    outer loop
      vertex  -2.379795e+01 -4.306969e+00 -3.128317e+01
      vertex  -7.925999e+00 -2.581405e+01 -3.616723e+01
      vertex  -2.482297e+01 -3.116097e+01 -1.532357e+01
    endloop
  endfacet
  facet normal  3.203941e-01  1.226945e-02 -9.472049e-01
    outer loop
      vertex   6.301602e+01 -2.072005e+01 -1.915757e+01
      vertex   4.849905e+01 -2.683297e+01 -2.414715e+01
      vertex   5.660305e+01 -8.796959e+00 -2.117233e+01
    endloop
  endfacet
  facet normal -6.385759e-01 -3.700211e-01 -6.747631e-01
    outer loop
      vertex  -4.205295e+01 -1.645296e+01 -7.346653e+00
      vertex  -3.304001e+01  6.512001e+00 -2.846957e+01
      vertex  -2.379795e+01 -4.306969e+00 -3.128317e+01
    endloop
  endfacet
  facet normal  3.423159e-01  9.379659e-01 -5.513470e-02
    outer loop
      vertex  -1.150095e+01  7.047904e+01 -2.360513e+01
      vertex   1.279495e+01  6.242301e+01 -9.809986e+00
      vertex   6.794949e+00  6.398905e+01 -2.042042e+01
    endloop
  endfacet
  facet normal  3.551528e-01  9.200673e-01 -1.653563e-01
    outer loop
      vertex  -1.150095e+01  7.047904e+01 -2.360513e+01
      vertex   6.794949e+00  6.398905e+01 -2.042042e+01
      vertex  -1.039194e+01  6.904704e+01 -2.919110e+01
    endloop
  endfacet
  facet normal  1.833154e-02 -9.512152e-01 -3.079831e-01
    outer loop
      vertex   3.863198e+01 -6.075704e+01 -1.538055e+01
      vertex   3.719705e+01 -6.385702e+01 -5.891590e+00
      vertex   2.039602e+01 -5.831503e+01 -2.400822e+01
    endloop
  endfacet
  facet normal  4.486493e-01 -4.227524e-01 -7.873971e-01
    outer loop
      vertex   6.301602e+01 -2.072005e+01 -1.915757e+01
      vertex   5.750796e+01 -3.156405e+01 -1.647387e+01
      vertex   4.849905e+01 -2.683297e+01 -2.414715e+01
    endloop
  endfacet
  facet normal -4.626236e-01 -8.662136e-01 -1.888210e-01
    outer loop
      vertex   2.303982e+00 -5.345504e+01 -2.718388e+01
      vertex   7.636990e+00 -5.770699e+01 -2.074432e+01
      vertex  -2.993992e+00 -5.164706e+01 -2.249760e+01
    endloop
  endfacet
  facet normal -8.761090e-01 -1.625992e-01 -4.538661e-01
    outer loop
      vertex  -4.933603e+01  4.018204e+01 -1.539891e+01
      vertex  -3.948203e+01  1.804996e+01 -2.649144e+01
      vertex  -4.698496e+01  2.016801e+01 -1.276714e+01
    endloop
  endfacet
  facet normal -3.944899e-01  9.150395e-01  8.414658e-02
    outer loop
      vertex  -1.150095e+01  7.047904e+01 -2.360513e+01
      vertex  -2.580198e+01  6.354801e+01 -1.527969e+01
      vertex  -2.463205e+01  6.367496e+01 -1.117548e+01
    endloop
  endfacet
  facet normal  4.858312e-01 -3.638379e-01 -7.947263e-01
    outer loop
      vertex   4.849905e+01 -2.683297e+01 -2.414715e+01
      vertex   5.750796e+01 -3.156405e+01 -1.647387e+01
      vertex   4.817300e+01 -4.984103e+01 -1.381303e+01
    endloop
  endfacet
  facet normal  5.867723e-01  1.822824e-01 -7.889686e-01
    outer loop
      vertex   6.301602e+01 -2.072005e+01 -1.915757e+01
      vertex   5.660305e+01 -8.796959e+00 -2.117233e+01
      vertex   6.011001e+01 -5.220055e+00 -1.773773e+01
    endloop
  endfacet
  facet normal -9.907375e-02 -9.735380e-01 -2.059323e-01
    outer loop
      vertex   7.636990e+00 -5.770699e+01 -2.074432e+01
      vertex   2.039602e+01 -5.831503e+01 -2.400822e+01
      vertex   3.719705e+01 -6.385702e+01 -5.891590e+00
    endloop
  endfacet
  facet normal  1.711400e-01  9.518270e-01  2.544336e-01
    outer loop
      vertex   1.279495e+01  6.242301e+01 -9.809986e+00
      vertex  -1.150095e+01  7.047904e+01 -2.360513e+01
      vertex  -8.917942e+00  6.555704e+01 -6.929523e+00
    endloop
  endfacet
  facet normal -8.759649e-01 -1.643327e-01 -4.535198e-01
    outer loop
      vertex  -4.559104e+01 -7.549667e-01 -7.878040e+00
      vertex  -4.698496e+01  2.016801e+01 -1.276714e+01
      vertex  -3.948203e+01  1.804996e+01 -2.649144e+01
    endloop
  endfacet
  facet normal -5.809202e-01  7.966998e-01  1.667366e-01
    outer loop
      vertex  -3.696994e+01  5.681303e+01 -2.137374e+01
      vertex  -4.680405e+01  4.877494e+01 -1.722882e+01
      vertex  -2.463205e+01  6.367496e+01 -1.117548e+01
    endloop
  endfacet
  facet normal  7.057629e-01  4.943668e-01 -5.074450e-01
    outer loop
      vertex   4.991995e+01  1.217399e+01 -1.769468e+01
      vertex   3.159500e+01  2.178495e+01 -3.381807e+01
      vertex   2.098794e+01  5.574601e+01 -1.548474e+01
    endloop
  endfacet
  facet normal -5.649490e-01  8.138630e-01  1.358663e-01
    outer loop
      vertex  -2.580198e+01  6.354801e+01 -1.527969e+01
      vertex  -3.696994e+01  5.681303e+01 -2.137374e+01
      vertex  -2.463205e+01  6.367496e+01 -1.117548e+01
    endloop
  endfacet
  facet normal -7.175354e-01 -5.691557e-01 -4.015030e-01
    outer loop
      vertex  -2.603977e+00 -4.842696e+01 -2.775929e+01
      vertex  -2.993992e+00 -5.164706e+01 -2.249760e+01
      vertex  -2.110105e+01 -3.895394e+01 -8.131344e+00
    endloop
  endfacet
  facet normal -8.478022e-01 -2.076003e-01 -4.879894e-01
    outer loop
      vertex  -4.205295e+01 -1.645296e+01 -7.346653e+00
      vertex  -4.559104e+01 -7.549667e-01 -7.878040e+00
      vertex  -3.948203e+01  1.804996e+01 -2.649144e+01
    endloop
  endfacet
  facet normal -6.342700e-01 -3.769442e-01 -6.749923e-01
    outer loop
      vertex  -4.205295e+01 -1.645296e+01 -7.346653e+00
      vertex  -2.379795e+01 -4.306969e+00 -3.128317e+01
      vertex  -2.482297e+01 -3.116097e+01 -1.532357e+01
    endloop
  endfacet
  facet normal -5.813920e-01  7.952031e-01  1.721489e-01
    outer loop
      vertex  -2.463205e+01  6.367496e+01 -1.117548e+01
      vertex  -4.680405e+01  4.877494e+01 -1.722882e+01
      vertex  -4.519504e+01  4.826102e+01 -9.420856e+00
    endloop
  endfacet
  facet normal  8.338308e-01 -4.875856e-01 -2.588176e-01
    outer loop
      vertex   6.301602e+01 -2.072005e+01 -1.915757e+01
      vertex   6.841605e+01 -1.764596e+01 -7.551624e+00
      vertex   5.750796e+01 -3.156405e+01 -1.647387e+01
    endloop
  endfacet
  facet normal -1.941354e-01  9.322758e-01  3.052430e-01
    outer loop
      vertex  -1.150095e+01  7.047904e+01 -2.360513e+01
      vertex  -2.463205e+01  6.367496e+01 -1.117548e+01
      vertex  -8.917942e+00  6.555704e+01 -6.929523e+00
    endloop
  endfacet
  facet normal  7.628042e-01  4.480323e-01 -4.662583e-01
    outer loop
      vertex   6.011001e+01 -5.220055e+00 -1.773773e+01
      vertex   4.991995e+01  1.217399e+01 -1.769468e+01
      vertex   6.817801e+01 -1.109603e+01 -1.018467e+01
    endloop
  endfacet
  facet normal  5.491206e-01  7.992761e-01 -2.441808e-01
    outer loop
      vertex   2.098794e+01  5.574601e+01 -1.548474e+01
      vertex   6.794949e+00  6.398905e+01 -2.042042e+01
      vertex   2.049099e+01  5.849003e+01 -7.620304e+00
    endloop
  endfacet
  facet normal  7.428417e-01  1.978568e-01 -6.395615e-01
    outer loop
      vertex   6.817801e+01 -1.109603e+01 -1.018467e+01
      vertex   6.301602e+01 -2.072005e+01 -1.915757e+01
      vertex   6.011001e+01 -5.220055e+00 -1.773773e+01
    endloop
  endfacet
  facet normal  4.827326e-01  8.635940e-01 -1.455145e-01
    outer loop
      vertex   6.794949e+00  6.398905e+01 -2.042042e+01
      vertex   1.279495e+01  6.242301e+01 -9.809986e+00
      vertex   2.049099e+01  5.849003e+01 -7.620304e+00
    endloop
  endfacet
  facet normal  7.824253e-01  4.897757e-01 -3.846171e-01
    outer loop
      vertex   6.817801e+01 -1.109603e+01 -1.018467e+01
      vertex   4.991995e+01  1.217399e+01 -1.769468e+01
      vertex   6.232901e+01 -1.161949e+00 -9.433109e+00
    endloop
  endfacet
  facet normal  8.162817e-01 -4.665110e-01 -3.406636e-01
    outer loop
      vertex   4.817300e+01 -4.984103e+01 -1.381303e+01
      vertex   5.750796e+01 -3.156405e+01 -1.647387e+01
      vertex   5.674002e+01 -3.903500e+01 -8.083134e+00
    endloop
  endfacet
  facet normal  9.417818e-01 -2.892742e-01 -1.713694e-01
    outer loop
      vertex   5.750796e+01 -3.156405e+01 -1.647387e+01
      vertex   5.991702e+01 -3.051400e+01 -5.007099e+00
      vertex   5.674002e+01 -3.903500e+01 -8.083134e+00
    endloop
  endfacet
  facet normal  7.842960e-01  5.278109e-01 -3.260299e-01
    outer loop
      vertex   6.232901e+01 -1.161949e+00 -9.433109e+00
      vertex   4.991995e+01  1.217399e+01 -1.769468e+01
      vertex   3.290298e+01  4.316703e+01 -8.455875e+00
    endloop
  endfacet
  facet normal  1.751259e-01 -9.433815e-01 -2.817132e-01
    outer loop
      vertex   4.161197e+01 -6.232796e+01 -8.267460e+00
      vertex   3.719705e+01 -6.385702e+01 -5.891590e+00
      vertex   3.863198e+01 -6.075704e+01 -1.538055e+01
    endloop
  endfacet
  facet normal  8.173009e-01 -5.635559e-01 -1.201004e-01
    outer loop
      vertex   5.991702e+01 -3.051400e+01 -5.007099e+00
      vertex   5.750796e+01 -3.156405e+01 -1.647387e+01
      vertex   6.841605e+01 -1.764596e+01 -7.551624e+00
    endloop
  endfacet
  facet normal  9.118201e-01 -1.241876e-01 -3.913587e-01
    outer loop
      vertex   6.841605e+01 -1.764596e+01 -7.551624e+00
      vertex   6.301602e+01 -2.072005e+01 -1.915757e+01
      vertex   6.817801e+01 -1.109603e+01 -1.018467e+01
    endloop
  endfacet
  facet normal  7.117223e-01 -5.614501e-01 -4.221672e-01
    outer loop
      vertex   3.863198e+01 -6.075704e+01 -1.538055e+01
      vertex   4.817300e+01 -4.984103e+01 -1.381303e+01
      vertex   4.161197e+01 -6.232796e+01 -8.267460e+00
    endloop
  endfacet
  facet normal -9.931698e-01 -1.166780e-01 -6.876123e-05
    outer loop
      vertex  -4.933603e+01  4.018204e+01 -1.539891e+01
      vertex  -4.698496e+01  2.016801e+01 -1.276714e+01
      vertex  -4.912204e+01  3.835697e+01 -9.318096e+00
    endloop
  endfacet
  facet normal -9.244272e-01  3.174087e-01  2.113910e-01
    outer loop
      vertex  -4.680405e+01  4.877494e+01 -1.722882e+01
      vertex  -4.933603e+01  4.018204e+01 -1.539891e+01
      vertex  -4.519504e+01  4.826102e+01 -9.420856e+00
    endloop
  endfacet
  facet normal  7.695333e-01  5.291095e-01 -3.575774e-01
    outer loop
      vertex   3.290298e+01  4.316703e+01 -8.455875e+00
      vertex   4.991995e+01  1.217399e+01 -1.769468e+01
      vertex   2.098794e+01  5.574601e+01 -1.548474e+01
    endloop
  endfacet
  facet normal -6.337288e-01 -6.659309e-01 -3.936037e-01
    outer loop
      vertex  -2.482297e+01 -3.116097e+01 -1.532357e+01
      vertex  -2.110105e+01 -3.895394e+01 -8.131344e+00
      vertex  -4.305295e+01 -2.244601e+01 -7.167549e-01
    endloop
  endfacet
  facet normal -6.881922e-01 -6.414918e-01 -3.389389e-01
    outer loop
      vertex  -2.482297e+01 -3.116097e+01 -1.532357e+01
      vertex  -2.603977e+00 -4.842696e+01 -2.775929e+01
      vertex  -2.110105e+01 -3.895394e+01 -8.131344e+00
    endloop
  endfacet
  facet normal -6.751757e-01 -4.936844e-01 -5.480999e-01
    outer loop
      vertex  -4.205295e+01 -1.645296e+01 -7.346653e+00
      vertex  -2.482297e+01 -3.116097e+01 -1.532357e+01
      vertex  -4.305295e+01 -2.244601e+01 -7.167549e-01
    endloop
  endfacet
  facet normal -1.709298e-01 -9.830130e-01 -6.684690e-02
    outer loop
      vertex   7.957058e+00 -5.906100e+01 -1.651524e+00
      vertex   7.636990e+00 -5.770699e+01 -2.074432e+01
      vertex   3.719705e+01 -6.385702e+01 -5.891590e+00
    endloop
  endfacet
  facet normal -9.876398e-01 -9.197468e-02 -1.269181e-01
    outer loop
      vertex  -4.698496e+01  2.016801e+01 -1.276714e+01
      vertex  -4.663205e+01  4.572060e+00 -4.211315e+00
      vertex  -4.912204e+01  3.835697e+01 -9.318096e+00
    endloop
  endfacet
  facet normal  7.611468e-01  6.258315e-01 -1.702656e-01
    outer loop
      vertex   2.098794e+01  5.574601e+01 -1.548474e+01
      vertex   2.049099e+01  5.849003e+01 -7.620304e+00
      vertex   3.290298e+01  4.316703e+01 -8.455875e+00
    endloop
  endfacet
  facet normal -9.196335e-01  3.661147e-01  1.422472e-01
    outer loop
      vertex  -4.519504e+01  4.826102e+01 -9.420856e+00
      vertex  -4.933603e+01  4.018204e+01 -1.539891e+01
      vertex  -4.912204e+01  3.835697e+01 -9.318096e+00
    endloop
  endfacet
  facet normal  8.180549e-01 -5.295246e-01 -2.244772e-01
    outer loop
      vertex   5.674002e+01 -3.903500e+01 -8.083134e+00
      vertex   4.161197e+01 -6.232796e+01 -8.267460e+00
      vertex   4.817300e+01 -4.984103e+01 -1.381303e+01
    endloop
  endfacet
  facet normal -9.856313e-01 -9.783840e-02 -1.376896e-01
    outer loop
      vertex  -4.698496e+01  2.016801e+01 -1.276714e+01
      vertex  -4.559104e+01 -7.549667e-01 -7.878040e+00
      vertex  -4.663205e+01  4.572060e+00 -4.211315e+00
    endloop
  endfacet
  facet normal -6.014163e-01 -7.971273e-01 -5.372653e-02
    outer loop
      vertex  -2.110105e+01 -3.895394e+01 -8.131344e+00
      vertex  -2.993992e+00 -5.164706e+01 -2.249760e+01
      vertex  -1.446299e+01 -4.613302e+01  2.407621e+01
    endloop
  endfacet
  facet normal  8.322567e-01  5.532455e-01 -3.561097e-02
    outer loop
      vertex   6.232901e+01 -1.161949e+00 -9.433109e+00
      vertex   3.290298e+01  4.316703e+01 -8.455875e+00
      vertex   4.473306e+01  2.616105e+01  3.820690e+00
    endloop
  endfacet
  facet normal -4.878199e-01 -8.712965e-01 -5.361200e-02
    outer loop
      vertex   7.957058e+00 -5.906100e+01 -1.651524e+00
      vertex  -2.993992e+00 -5.164706e+01 -2.249760e+01
      vertex   7.636990e+00 -5.770699e+01 -2.074432e+01
    endloop
  endfacet
  facet normal -8.134195e-01  3.275122e-01  4.807124e-01
    outer loop
      vertex  -4.519504e+01  4.826102e+01 -9.420856e+00
      vertex  -4.912204e+01  3.835697e+01 -9.318096e+00
      vertex  -4.267099e+01  3.764994e+01  2.079510e+00
    endloop
  endfacet
  facet normal  8.521165e-01  4.872617e-01  1.909803e-01
    outer loop
      vertex   6.194302e+01 -5.932945e+00  4.461674e+00
      vertex   6.817801e+01 -1.109603e+01 -1.018467e+01
      vertex   6.232901e+01 -1.161949e+00 -9.433109e+00
    endloop
  endfacet
  facet normal  7.627745e-01  6.314116e-01  1.396230e-01
    outer loop
      vertex   2.407302e+01  5.249100e+01 -2.382374e+00
      vertex   4.473306e+01  2.616105e+01  3.820690e+00
      vertex   3.290298e+01  4.316703e+01 -8.455875e+00
    endloop
  endfacet
  facet normal  7.695269e-01  6.137033e-01  1.766253e-01
    outer loop
      vertex   2.049099e+01  5.849003e+01 -7.620304e+00
      vertex   2.407302e+01  5.249100e+01 -2.382374e+00
      vertex   3.290298e+01  4.316703e+01 -8.455875e+00
    endloop
  endfacet
  facet normal -9.165785e-01 -2.179309e-01 -3.352461e-01
    outer loop
      vertex  -4.205295e+01 -1.645296e+01 -7.346653e+00
      vertex  -4.305295e+01 -2.244601e+01 -7.167549e-01
      vertex  -4.559104e+01 -7.549667e-01 -7.878040e+00
    endloop
  endfacet
  facet normal -9.476429e-01 -2.168508e-02  3.185947e-01
    outer loop
      vertex  -4.912204e+01  3.835697e+01 -9.318096e+00
      vertex  -4.663205e+01  4.572060e+00 -4.211315e+00
      vertex  -4.447995e+01  1.117899e+01  2.639690e+00
    endloop
  endfacet
  facet normal -6.196147e-01 -7.782969e-01 -1.016438e-01
    outer loop
      vertex  -4.305295e+01 -2.244601e+01 -7.167549e-01
      vertex  -2.110105e+01 -3.895394e+01 -8.131344e+00
      vertex  -3.687900e+01 -2.880196e+01  1.031541e+01
    endloop
  endfacet
  facet normal -8.662974e-01  6.966840e-02  4.946465e-01
    outer loop
      vertex  -4.912204e+01  3.835697e+01 -9.318096e+00
      vertex  -4.447995e+01  1.117899e+01  2.639690e+00
      vertex  -4.267099e+01  3.764994e+01  2.079510e+00
    endloop
  endfacet
  facet normal -5.096644e-01  7.314810e-01  4.529655e-01
    outer loop
      vertex  -2.463205e+01  6.367496e+01 -1.117548e+01
      vertex  -4.519504e+01  4.826102e+01 -9.420856e+00
      vertex  -2.029502e+01  5.860099e+01  1.898251e+00
    endloop
  endfacet
  facet normal  7.799383e-01 -5.297949e-01  3.331870e-01
    outer loop
      vertex   4.161197e+01 -6.232796e+01 -8.267460e+00
      vertex   5.187100e+01 -4.160702e+01  6.657753e-01
      vertex   4.209097e+01 -5.297201e+01  5.488010e+00
    endloop
  endfacet
  facet normal -2.179526e-01  8.832793e-01  4.151076e-01
    outer loop
      vertex  -8.917942e+00  6.555704e+01 -6.929523e+00
      vertex  -2.463205e+01  6.367496e+01 -1.117548e+01
      vertex  -2.029502e+01  5.860099e+01  1.898251e+00
    endloop
  endfacet
  facet normal  8.355708e-01 -4.334109e-01  3.376041e-01
    outer loop
      vertex   5.674002e+01 -3.903500e+01 -8.083134e+00
      vertex   5.991702e+01 -3.051400e+01 -5.007099e+00
      vertex   5.187100e+01 -4.160702e+01  6.657753e-01
    endloop
  endfacet
  facet normal  9.269564e-01  1.684476e-01  3.352271e-01
    outer loop
      vertex   6.817801e+01 -1.109603e+01 -1.018467e+01
      vertex   6.194302e+01 -5.932945e+00  4.461674e+00
      vertex   6.841605e+01 -1.764596e+01 -7.551624e+00
    endloop
  endfacet
  facet normal  1.883532e-01  8.451341e-01  5.002713e-01
    outer loop
      vertex   1.279495e+01  6.242301e+01 -9.809986e+00
      vertex  -8.917942e+00  6.555704e+01 -6.929523e+00
      vertex  -4.941990e+00  5.845805e+01  3.566227e+00
    endloop
  endfacet
  facet normal  8.009982e-01 -5.225351e-01  2.921625e-01
    outer loop
      vertex   5.187100e+01 -4.160702e+01  6.657753e-01
      vertex   4.161197e+01 -6.232796e+01 -8.267460e+00
      vertex   5.674002e+01 -3.903500e+01 -8.083134e+00
    endloop
  endfacet
  facet normal  2.452248e-01  7.915172e-01  5.597904e-01
    outer loop
      vertex  -4.941990e+00  5.845805e+01  3.566227e+00
      vertex   2.049099e+01  5.849003e+01 -7.620304e+00
      vertex   1.279495e+01  6.242301e+01 -9.809986e+00
    endloop
  endfacet
  facet normal -4.655374e-01 -8.823158e-01 -6.923668e-02
    outer loop
      vertex  -2.993992e+00 -5.164706e+01 -2.249760e+01
      vertex   7.957058e+00 -5.906100e+01 -1.651524e+00
      vertex   5.757961e+00 -5.989205e+01  2.372541e+01
    endloop
  endfacet
  facet normal  9.239777e-01  3.531037e-01  1.469112e-01
    outer loop
      vertex   6.232901e+01 -1.161949e+00 -9.433109e+00
      vertex   5.584597e+01  7.887978e+00  9.589367e+00
      vertex   6.194302e+01 -5.932945e+00  4.461674e+00
    endloop
  endfacet
  facet normal -9.911706e-01 -8.143035e-02  1.046414e-01
    outer loop
      vertex  -4.559104e+01 -7.549667e-01 -7.878040e+00
      vertex  -4.305295e+01 -2.244601e+01 -7.167549e-01
      vertex  -4.285898e+01 -1.446102e+01  7.334332e+00
    endloop
  endfacet
  facet normal -9.811556e-01 -1.932076e-01  2.133673e-03
    outer loop
      vertex  -4.663205e+01  4.572060e+00 -4.211315e+00
      vertex  -4.559104e+01 -7.549667e-01 -7.878040e+00
      vertex  -4.285898e+01 -1.446102e+01  7.334332e+00
    endloop
  endfacet
  facet normal -9.527441e-01 -4.618815e-03  3.037388e-01
    outer loop
      vertex  -4.285898e+01 -1.446102e+01  7.334332e+00
      vertex  -4.447995e+01  1.117899e+01  2.639690e+00
      vertex  -4.663205e+01  4.572060e+00 -4.211315e+00
    endloop
  endfacet
  facet normal -5.625713e-01 -8.257427e-01 -4.077292e-02
    outer loop
      vertex  -2.993992e+00 -5.164706e+01 -2.249760e+01
      vertex   5.757961e+00 -5.989205e+01  2.372541e+01
      vertex  -1.446299e+01 -4.613302e+01  2.407621e+01
    endloop
  endfacet
  facet normal  5.047720e-01 -7.218655e-01  4.734084e-01
    outer loop
      vertex   4.209097e+01 -5.297201e+01  5.488010e+00
      vertex   3.719705e+01 -6.385702e+01 -5.891590e+00
      vertex   4.161197e+01 -6.232796e+01 -8.267460e+00
    endloop
  endfacet
  facet normal  7.475824e-01 -2.221512e-01  6.259149e-01
    outer loop
      vertex   5.187100e+01 -4.160702e+01  6.657753e-01
      vertex   5.991702e+01 -3.051400e+01 -5.007099e+00
      vertex   4.890896e+01 -2.731295e+01  9.276867e+00
    endloop
  endfacet
  facet normal -6.717978e-01  4.650634e-01  5.765448e-01
    outer loop
      vertex  -3.041404e+01  3.797196e+01  1.610173e+01
      vertex  -4.519504e+01  4.826102e+01 -9.420856e+00
      vertex  -4.267099e+01  3.764994e+01  2.079510e+00
    endloop
  endfacet
  facet normal  7.052473e-01 -3.431211e-01  6.203985e-01
    outer loop
      vertex   4.890896e+01 -2.731295e+01  9.276867e+00
      vertex   5.991702e+01 -3.051400e+01 -5.007099e+00
      vertex   6.841605e+01 -1.764596e+01 -7.551624e+00
    endloop
  endfacet
  facet normal -5.218809e-01  6.424011e-01  5.612139e-01
    outer loop
      vertex  -3.041404e+01  3.797196e+01  1.610173e+01
      vertex  -2.029502e+01  5.860099e+01  1.898251e+00
      vertex  -4.519504e+01  4.826102e+01 -9.420856e+00
    endloop
  endfacet
  facet normal  6.643724e-01  6.197311e-01  4.177832e-01
    outer loop
      vertex   2.407302e+01  5.249100e+01 -2.382374e+00
      vertex   3.453299e+01  3.430595e+01  7.959202e+00
      vertex   4.473306e+01  2.616105e+01  3.820690e+00
    endloop
  endfacet
  facet normal -5.470122e-02  8.173438e-01  5.735477e-01
    outer loop
      vertex  -2.029502e+01  5.860099e+01  1.898251e+00
      vertex  -4.941990e+00  5.845805e+01  3.566227e+00
      vertex  -8.917942e+00  6.555704e+01 -6.929523e+00
    endloop
  endfacet
  facet normal -5.878001e-01 -8.068735e-01 -5.870528e-02
    outer loop
      vertex  -1.446299e+01 -4.613302e+01  2.407621e+01
      vertex  -3.687900e+01 -2.880196e+01  1.031541e+01
      vertex  -2.110105e+01 -3.895394e+01 -8.131344e+00
    endloop
  endfacet
  facet normal  8.484195e-01  5.279607e-01  3.797221e-02
    outer loop
      vertex   5.584597e+01  7.887978e+00  9.589367e+00
      vertex   6.232901e+01 -1.161949e+00 -9.433109e+00
      vertex   4.473306e+01  2.616105e+01  3.820690e+00
    endloop
  endfacet
  facet normal -6.437667e-02  7.511920e-01  6.569370e-01
    outer loop
      vertex  -4.941990e+00  5.845805e+01  3.566227e+00
      vertex  -2.029502e+01  5.860099e+01  1.898251e+00
      vertex  -1.308506e+01  5.332499e+01  8.637775e+00
    endloop
  endfacet
  facet normal  3.191474e-01  7.242503e-01  6.112335e-01
    outer loop
      vertex   2.049099e+01  5.849003e+01 -7.620304e+00
      vertex   1.410403e+01  4.873905e+01  7.268490e+00
      vertex   2.407302e+01  5.249100e+01 -2.382374e+00
    endloop
  endfacet
  facet normal  7.029586e-01 -2.814420e-01  6.531765e-01
    outer loop
      vertex   6.841605e+01 -1.764596e+01 -7.551624e+00
      vertex   6.194302e+01 -5.932945e+00  4.461674e+00
      vertex   4.890896e+01 -2.731295e+01  9.276867e+00
    endloop
  endfacet
  facet normal  2.652980e-01  7.504776e-01  6.053101e-01
    outer loop
      vertex   2.049099e+01  5.849003e+01 -7.620304e+00
      vertex  -4.941990e+00  5.845805e+01  3.566227e+00
      vertex   1.410403e+01  4.873905e+01  7.268490e+00
    endloop
  endfacet
  facet normal -1.796680e-01 -9.741171e-01 -1.371688e-01
    outer loop
      vertex   7.957058e+00 -5.906100e+01 -1.651524e+00
      vertex   3.719705e+01 -6.385702e+01 -5.891590e+00
      vertex   1.146402e+01 -6.231698e+01  1.687761e+01
    endloop
  endfacet
  facet normal -8.197229e-01  6.805281e-02  5.687032e-01
    outer loop
      vertex  -4.267099e+01  3.764994e+01  2.079510e+00
      vertex  -4.447995e+01  1.117899e+01  2.639690e+00
      vertex  -3.104197e+01  2.150602e+01  2.077330e+01
    endloop
  endfacet
  facet normal  6.658910e-01  6.345943e-01  3.922744e-01
    outer loop
      vertex   3.453299e+01  3.430595e+01  7.959202e+00
      vertex   5.045999e+01  1.171696e+01  1.746580e+01
      vertex   4.473306e+01  2.616105e+01  3.820690e+00
    endloop
  endfacet
  facet normal  1.919766e-01  6.547079e-01  7.310967e-01
    outer loop
      vertex   2.735012e+00  4.182096e+01  1.644910e+01
      vertex   1.410403e+01  4.873905e+01  7.268490e+00
      vertex  -4.941990e+00  5.845805e+01  3.566227e+00
    endloop
  endfacet
  facet normal -8.950279e-01 -3.057062e-01  3.247596e-01
    outer loop
      vertex  -3.687900e+01 -2.880196e+01  1.031541e+01
      vertex  -4.285898e+01 -1.446102e+01  7.334332e+00
      vertex  -4.305295e+01 -2.244601e+01 -7.167549e-01
    endloop
  endfacet
  facet normal  8.032351e-02  6.331778e-01  7.698272e-01
    outer loop
      vertex  -4.941990e+00  5.845805e+01  3.566227e+00
      vertex  -1.308506e+01  5.332499e+01  8.637775e+00
      vertex   2.735012e+00  4.182096e+01  1.644910e+01
    endloop
  endfacet
  facet normal -8.871121e-01  2.826752e-02  4.606877e-01
    outer loop
      vertex  -4.285898e+01 -1.446102e+01  7.334332e+00
      vertex  -3.842600e+01 -5.093956e+00  1.529584e+01
      vertex  -4.447995e+01  1.117899e+01  2.639690e+00
    endloop
  endfacet
  facet normal  7.848011e-01  5.606581e-01  2.641017e-01
    outer loop
      vertex   4.473306e+01  2.616105e+01  3.820690e+00
      vertex   5.045999e+01  1.171696e+01  1.746580e+01
      vertex   5.584597e+01  7.887978e+00  9.589367e+00
    endloop
  endfacet
  facet normal -6.403119e-01 -7.638269e-01  8.105026e-02
    outer loop
      vertex  -3.687900e+01 -2.880196e+01  1.031541e+01
      vertex  -1.446299e+01 -4.613302e+01  2.407621e+01
      vertex  -3.046103e+01 -3.299105e+01  2.154010e+01
    endloop
  endfacet
  facet normal  5.500236e-01 -7.088878e-01  4.415339e-01
    outer loop
      vertex   4.209097e+01 -5.297201e+01  5.488010e+00
      vertex   1.911795e+01 -6.118002e+01  2.092770e+01
      vertex   3.719705e+01 -6.385702e+01 -5.891590e+00
    endloop
  endfacet
  facet normal -7.385131e-01  2.099429e-01  6.407202e-01
    outer loop
      vertex  -3.041404e+01  3.797196e+01  1.610173e+01
      vertex  -4.267099e+01  3.764994e+01  2.079510e+00
      vertex  -3.104197e+01  2.150602e+01  2.077330e+01
    endloop
  endfacet
  facet normal -4.589787e-01 -8.857808e-01 -6.878180e-02
    outer loop
      vertex   7.957058e+00 -5.906100e+01 -1.651524e+00
      vertex   1.146402e+01 -6.231698e+01  1.687761e+01
      vertex   5.757961e+00 -5.989205e+01  2.372541e+01
    endloop
  endfacet
  facet normal -2.355014e-01  6.268687e-01  7.426808e-01
    outer loop
      vertex  -2.029502e+01  5.860099e+01  1.898251e+00
      vertex  -3.041404e+01  3.797196e+01  1.610173e+01
      vertex  -1.308506e+01  5.332499e+01  8.637775e+00
    endloop
  endfacet
  facet normal  7.305821e-01 -3.912436e-01  5.596231e-01
    outer loop
      vertex   4.209097e+01 -5.297201e+01  5.488010e+00
      vertex   5.187100e+01 -4.160702e+01  6.657753e-01
      vertex   3.909097e+01 -4.830001e+01  1.267076e+01
    endloop
  endfacet
  facet normal  7.281684e-01 -2.366221e-01  6.432579e-01
    outer loop
      vertex   5.187100e+01 -4.160702e+01  6.657753e-01
      vertex   4.890896e+01 -2.731295e+01  9.276867e+00
      vertex   3.909097e+01 -4.830001e+01  1.267076e+01
    endloop
  endfacet
  facet normal  6.962023e-01 -2.751018e-01  6.630395e-01
    outer loop
      vertex   4.890896e+01 -2.731295e+01  9.276867e+00
      vertex   6.194302e+01 -5.932945e+00  4.461674e+00
      vertex   4.128201e+01 -1.633199e+01  2.184140e+01
    endloop
  endfacet
  facet normal  8.592607e-01  2.052158e-01  4.685695e-01
    outer loop
      vertex   6.194302e+01 -5.932945e+00  4.461674e+00
      vertex   5.584597e+01  7.887978e+00  9.589367e+00
      vertex   5.175003e+01  6.354042e+00  1.777230e+01
    endloop
  endfacet
  facet normal  8.518036e-01  2.317506e-01  4.698109e-01
    outer loop
      vertex   5.175003e+01  6.354042e+00  1.777230e+01
      vertex   5.584597e+01  7.887978e+00  9.589367e+00
      vertex   5.045999e+01  1.171696e+01  1.746580e+01
    endloop
  endfacet
  facet normal  2.191715e-01  6.292935e-01  7.456230e-01
    outer loop
      vertex   1.410403e+01  4.873905e+01  7.268490e+00
      vertex   2.735012e+00  4.182096e+01  1.644910e+01
      vertex   2.029800e+01  2.756803e+01  2.331580e+01
    endloop
  endfacet
  facet normal  4.093234e-01  6.241760e-01  6.654763e-01
    outer loop
      vertex   1.410403e+01  4.873905e+01  7.268490e+00
      vertex   2.029800e+01  2.756803e+01  2.331580e+01
      vertex   2.407302e+01  5.249100e+01 -2.382374e+00
    endloop
  endfacet
  facet normal  4.215641e-01  6.192146e-01  6.624628e-01
    outer loop
      vertex   3.453299e+01  3.430595e+01  7.959202e+00
      vertex   2.407302e+01  5.249100e+01 -2.382374e+00
      vertex   2.029800e+01  2.756803e+01  2.331580e+01
    endloop
  endfacet
  facet normal  6.820057e-01 -2.930190e-01  6.700807e-01
    outer loop
      vertex   3.554702e+01 -2.929903e+01  2.200811e+01
      vertex   4.890896e+01 -2.731295e+01  9.276867e+00
      vertex   4.128201e+01 -1.633199e+01  2.184140e+01
    endloop
  endfacet
  facet normal  6.863689e-01 -1.908380e-01  7.017682e-01
    outer loop
      vertex   5.175003e+01  6.354042e+00  1.777230e+01
      vertex   4.128201e+01 -1.633199e+01  2.184140e+01
      vertex   6.194302e+01 -5.932945e+00  4.461674e+00
    endloop
  endfacet
  facet normal -9.430558e-02  5.193536e-01  8.493398e-01
    outer loop
      vertex  -1.308506e+01  5.332499e+01  8.637775e+00
      vertex  -3.041404e+01  3.797196e+01  1.610173e+01
      vertex  -8.726048e+00  3.007902e+01  2.333620e+01
    endloop
  endfacet
  facet normal -3.333240e-02  5.296589e-01  8.475555e-01
    outer loop
      vertex  -8.726048e+00  3.007902e+01  2.333620e+01
      vertex   2.735012e+00  4.182096e+01  1.644910e+01
      vertex  -1.308506e+01  5.332499e+01  8.637775e+00
    endloop
  endfacet
  facet normal -8.286865e-01  1.173451e-01  5.472740e-01
    outer loop
      vertex  -3.104197e+01  2.150602e+01  2.077330e+01
      vertex  -4.447995e+01  1.117899e+01  2.639690e+00
      vertex  -3.842600e+01 -5.093956e+00  1.529584e+01
    endloop
  endfacet
  facet normal  6.905283e-01 -2.111644e-01  6.917949e-01
    outer loop
      vertex   4.890896e+01 -2.731295e+01  9.276867e+00
      vertex   3.554702e+01 -2.929903e+01  2.200811e+01
      vertex   3.909097e+01 -4.830001e+01  1.267076e+01
    endloop
  endfacet
  facet normal  5.941248e-01 -5.379267e-01  5.980389e-01
    outer loop
      vertex   1.911795e+01 -6.118002e+01  2.092770e+01
      vertex   4.209097e+01 -5.297201e+01  5.488010e+00
      vertex   3.909097e+01 -4.830001e+01  1.267076e+01
    endloop
  endfacet
  facet normal  4.426568e-01  5.945867e-01  6.712090e-01
    outer loop
      vertex   5.045999e+01  1.171696e+01  1.746580e+01
      vertex   3.453299e+01  3.430595e+01  7.959202e+00
      vertex   2.029800e+01  2.756803e+01  2.331580e+01
    endloop
  endfacet
  facet normal  6.963582e-02 -9.869116e-01  1.454519e-01
    outer loop
      vertex   1.146402e+01 -6.231698e+01  1.687761e+01
      vertex   3.719705e+01 -6.385702e+01 -5.891590e+00
      vertex   1.911795e+01 -6.118002e+01  2.092770e+01
    endloop
  endfacet
  facet normal -8.417328e-01 -4.358540e-01  3.186175e-01
    outer loop
      vertex  -3.687900e+01 -2.880196e+01  1.031541e+01
      vertex  -3.046103e+01 -3.299105e+01  2.154010e+01
      vertex  -3.427597e+01 -2.522506e+01  2.208520e+01
    endloop
  endfacet
  facet normal -9.020922e-01 -3.148011e-01  2.951781e-01
    outer loop
      vertex  -4.285898e+01 -1.446102e+01  7.334332e+00
      vertex  -3.687900e+01 -2.880196e+01  1.031541e+01
      vertex  -3.427597e+01 -2.522506e+01  2.208520e+01
    endloop
  endfacet
  facet normal -8.678717e-01 -1.141035e-02  4.966574e-01
    outer loop
      vertex  -3.842600e+01 -5.093956e+00  1.529584e+01
      vertex  -4.285898e+01 -1.446102e+01  7.334332e+00
      vertex  -3.427597e+01 -2.522506e+01  2.208520e+01
    endloop
  endfacet
  facet normal -7.449389e-01  7.017799e-02  6.634314e-01
    outer loop
      vertex  -3.427597e+01 -2.522506e+01  2.208520e+01
      vertex  -3.104197e+01  2.150602e+01  2.077330e+01
      vertex  -3.842600e+01 -5.093956e+00  1.529584e+01
    endloop
  endfacet
  facet normal  5.933205e-01 -5.338187e-01  6.025017e-01
    outer loop
      vertex   1.785305e+01 -5.639901e+01  2.640931e+01
      vertex   1.911795e+01 -6.118002e+01  2.092770e+01
      vertex   3.909097e+01 -4.830001e+01  1.267076e+01
    endloop
  endfacet
  facet normal  5.927804e-01 -2.634341e-01  7.610610e-01
    outer loop
      vertex   3.554702e+01 -2.929903e+01  2.200811e+01
      vertex   1.785305e+01 -5.639901e+01  2.640931e+01
      vertex   3.909097e+01 -4.830001e+01  1.267076e+01
    endloop
  endfacet
  facet normal -2.557337e-02 -9.488484e-01  3.146944e-01
    outer loop
      vertex   1.146402e+01 -6.231698e+01  1.687761e+01
      vertex   1.911795e+01 -6.118002e+01  2.092770e+01
      vertex   5.757961e+00 -5.989205e+01  2.372541e+01
    endloop
  endfacet
  facet normal  4.957228e-01 -7.352485e-02  8.653629e-01
    outer loop
      vertex   5.175003e+01  6.354042e+00  1.777230e+01
      vertex   3.423697e+01  4.180069e-01  2.730030e+01
      vertex   4.128201e+01 -1.633199e+01  2.184140e+01
    endloop
  endfacet
  facet normal  2.636334e-02  4.864857e-01  8.732907e-01
    outer loop
      vertex   2.735012e+00  4.182096e+01  1.644910e+01
      vertex  -8.726048e+00  3.007902e+01  2.333620e+01
      vertex   1.299099e+01  2.070194e+01  2.790430e+01
    endloop
  endfacet
  facet normal  7.002600e-02  5.016812e-01  8.622136e-01
    outer loop
      vertex   1.299099e+01  2.070194e+01  2.790430e+01
      vertex   2.029800e+01  2.756803e+01  2.331580e+01
      vertex   2.735012e+00  4.182096e+01  1.644910e+01
    endloop
  endfacet
  facet normal  4.312319e-01  1.545352e-01  8.889083e-01
    outer loop
      vertex   5.175003e+01  6.354042e+00  1.777230e+01
      vertex   5.045999e+01  1.171696e+01  1.746580e+01
      vertex   3.423697e+01  4.180069e-01  2.730030e+01
    endloop
  endfacet
  facet normal  3.461687e-01  2.818316e-01  8.948398e-01
    outer loop
      vertex   5.045999e+01  1.171696e+01  1.746580e+01
      vertex   1.853103e+01  1.851200e+01  2.767740e+01
      vertex   3.423697e+01  4.180069e-01  2.730030e+01
    endloop
  endfacet
  facet normal  6.743424e-02 -7.441493e-01  6.646008e-01
    outer loop
      vertex   1.785305e+01 -5.639901e+01  2.640931e+01
      vertex   5.757961e+00 -5.989205e+01  2.372541e+01
      vertex   1.911795e+01 -6.118002e+01  2.092770e+01
    endloop
  endfacet
  facet normal  3.520716e-01  3.494883e-01  8.682761e-01
    outer loop
      vertex   5.045999e+01  1.171696e+01  1.746580e+01
      vertex   2.029800e+01  2.756803e+01  2.331580e+01
      vertex   1.853103e+01  1.851200e+01  2.767740e+01
    endloop
  endfacet
  facet normal  4.259923e-01 -1.769991e-01  8.872439e-01
    outer loop
      vertex   3.554702e+01 -2.929903e+01  2.200811e+01
      vertex   4.128201e+01 -1.633199e+01  2.184140e+01
      vertex   2.918704e+01 -1.486605e+01  2.794101e+01
    endloop
  endfacet
  facet normal  1.929131e-01  3.949616e-01  8.982148e-01
    outer loop
      vertex   2.029800e+01  2.756803e+01  2.331580e+01
      vertex   1.299099e+01  2.070194e+01  2.790430e+01
      vertex   1.853103e+01  1.851200e+01  2.767740e+01
    endloop
  endfacet
  facet normal -3.958706e-01  2.645825e-01  8.793648e-01
    outer loop
      vertex  -3.104197e+01  2.150602e+01  2.077330e+01
      vertex  -2.071006e+01  1.071098e+01  2.867250e+01
      vertex  -3.041404e+01  3.797196e+01  1.610173e+01
    endloop
  endfacet
  facet normal  4.802958e-01 -1.440098e-01  8.652036e-01
    outer loop
      vertex   2.918704e+01 -1.486605e+01  2.794101e+01
      vertex   1.826004e+01 -3.201302e+01  3.115281e+01
      vertex   3.554702e+01 -2.929903e+01  2.200811e+01
    endloop
  endfacet
  facet normal  4.817124e-01 -1.750647e-01  8.586649e-01
    outer loop
      vertex   1.785305e+01 -5.639901e+01  2.640931e+01
      vertex   3.554702e+01 -2.929903e+01  2.200811e+01
      vertex   1.826004e+01 -3.201302e+01  3.115281e+01
    endloop
  endfacet
  facet normal  4.373249e-01 -1.070639e-01  8.929077e-01
    outer loop
      vertex   2.918704e+01 -1.486605e+01  2.794101e+01
      vertex   4.128201e+01 -1.633199e+01  2.184140e+01
      vertex   3.423697e+01  4.180069e-01  2.730030e+01
    endloop
  endfacet
  facet normal -1.744862e-01  3.604296e-01  9.163215e-01
    outer loop
      vertex  -2.071006e+01  1.071098e+01  2.867250e+01
      vertex  -8.726048e+00  3.007902e+01  2.333620e+01
      vertex  -3.041404e+01  3.797196e+01  1.610173e+01
    endloop
  endfacet
  facet normal -4.666610e-01 -6.996229e-01  5.410687e-01
    outer loop
      vertex  -1.446299e+01 -4.613302e+01  2.407621e+01
      vertex   5.757961e+00 -5.989205e+01  2.372541e+01
      vertex   5.246975e+00 -5.371102e+01  3.127700e+01
    endloop
  endfacet
  facet normal  8.115203e-02 -7.685834e-01  6.345816e-01
    outer loop
      vertex   1.785305e+01 -5.639901e+01  2.640931e+01
      vertex   5.246975e+00 -5.371102e+01  3.127700e+01
      vertex   5.757961e+00 -5.989205e+01  2.372541e+01
    endloop
  endfacet
  facet normal -6.531894e-01 -3.673451e-01  6.621187e-01
    outer loop
      vertex  -1.841001e+01 -2.659005e+01  3.697990e+01
      vertex  -3.427597e+01 -2.522506e+01  2.208520e+01
      vertex  -3.046103e+01 -3.299105e+01  2.154010e+01
    endloop
  endfacet
  facet normal  1.049459e-01  1.638597e-01  9.808854e-01
    outer loop
      vertex   1.853103e+01  1.851200e+01  2.767740e+01
      vertex   1.299099e+01  2.070194e+01  2.790430e+01
      vertex   1.738296e+01  5.032021e+00  3.005210e+01
    endloop
  endfacet
  facet normal -5.829830e-01 -6.050321e-01  5.422795e-01
    outer loop
      vertex  -1.193796e+01 -3.554000e+01  3.860960e+01
      vertex  -3.046103e+01 -3.299105e+01  2.154010e+01
      vertex  -1.446299e+01 -4.613302e+01  2.407621e+01
    endloop
  endfacet
  facet normal  1.582251e-01 -1.088935e-02  9.873430e-01
    outer loop
      vertex   3.423697e+01  4.180069e-01  2.730030e+01
      vertex   1.738296e+01  5.032021e+00  3.005210e+01
      vertex   2.918704e+01 -1.486605e+01  2.794101e+01
    endloop
  endfacet
  facet normal -6.797806e-01  6.754591e-02  7.302985e-01
    outer loop
      vertex  -1.841001e+01 -2.659005e+01  3.697990e+01
      vertex  -3.104197e+01  2.150602e+01  2.077330e+01
      vertex  -3.427597e+01 -2.522506e+01  2.208520e+01
    endloop
  endfacet
  facet normal  2.000066e-01  1.534416e-01  9.677050e-01
    outer loop
      vertex   1.738296e+01  5.032021e+00  3.005210e+01
      vertex   3.423697e+01  4.180069e-01  2.730030e+01
      vertex   1.853103e+01  1.851200e+01  2.767740e+01
    endloop
  endfacet
  facet normal  2.656055e-01 -3.680216e-01  8.910745e-01
    outer loop
      vertex   5.246975e+00 -5.371102e+01  3.127700e+01
      vertex   1.785305e+01 -5.639901e+01  2.640931e+01
      vertex   3.728054e+00 -4.482198e+01  3.540100e+01
    endloop
  endfacet
  facet normal  4.189247e-01 -1.801080e-01  8.899793e-01
    outer loop
      vertex   1.785305e+01 -5.639901e+01  2.640931e+01
      vertex   1.826004e+01 -3.201302e+01  3.115281e+01
      vertex   3.728054e+00 -4.482198e+01  3.540100e+01
    endloop
  endfacet
  facet normal  4.633537e-01  1.828787e-01  8.670979e-01
    outer loop
      vertex   2.918704e+01 -1.486605e+01  2.794101e+01
      vertex   1.738296e+01  5.032021e+00  3.005210e+01
      vertex   2.114798e+01 -1.305599e+01  3.185511e+01
    endloop
  endfacet
  facet normal  4.179219e-01 -9.713043e-02  9.032757e-01
    outer loop
      vertex   1.826004e+01 -3.201302e+01  3.115281e+01
      vertex   2.918704e+01 -1.486605e+01  2.794101e+01
      vertex   2.114798e+01 -1.305599e+01  3.185511e+01
    endloop
  endfacet
  facet normal -4.679838e-01 -6.734869e-01  5.721945e-01
    outer loop
      vertex  -1.446299e+01 -4.613302e+01  2.407621e+01
      vertex   5.246975e+00 -5.371102e+01  3.127700e+01
      vertex  -1.193796e+01 -3.554000e+01  3.860960e+01
    endloop
  endfacet
  facet normal  3.660097e-01  1.674338e-01  9.154249e-01
    outer loop
      vertex   1.738296e+01  5.032021e+00  3.005210e+01
      vertex   9.820950e+00 -6.601036e+00  3.520330e+01
      vertex   2.114798e+01 -1.305599e+01  3.185511e+01
    endloop
  endfacet
  facet normal -4.819872e-02  3.450136e-01  9.373593e-01
    outer loop
      vertex  -8.430027e+00 -2.103966e+00  3.519700e+01
      vertex   1.299099e+01  2.070194e+01  2.790430e+01
      vertex  -8.726048e+00  3.007902e+01  2.333620e+01
    endloop
  endfacet
  facet normal  1.564719e-03  3.032451e-01  9.529113e-01
    outer loop
      vertex  -3.775974e+00 -1.596798e+01  3.960131e+01
      vertex   1.299099e+01  2.070194e+01  2.790430e+01
      vertex  -8.430027e+00 -2.103966e+00  3.519700e+01
    endloop
  endfacet
  facet normal -1.377324e-01  3.413945e-01  9.297739e-01
    outer loop
      vertex  -8.726048e+00  3.007902e+01  2.333620e+01
      vertex  -2.071006e+01  1.071098e+01  2.867250e+01
      vertex  -8.430027e+00 -2.103966e+00  3.519700e+01
    endloop
  endfacet
  facet normal -5.248365e-01  1.448002e-01  8.387965e-01
    outer loop
      vertex  -3.104197e+01  2.150602e+01  2.077330e+01
      vertex  -1.841001e+01 -2.659005e+01  3.697990e+01
      vertex  -1.380906e+01 -1.279501e+01  3.747731e+01
    endloop
  endfacet
  facet normal -5.192561e-01  1.428017e-01  8.426036e-01
    outer loop
      vertex  -1.841001e+01 -2.659005e+01  3.697990e+01
      vertex  -1.155906e+01 -3.016805e+01  4.180820e+01
      vertex  -1.380906e+01 -1.279501e+01  3.747731e+01
    endloop
  endfacet
  facet normal -4.655989e-01  1.872974e-01  8.649493e-01
    outer loop
      vertex  -3.104197e+01  2.150602e+01  2.077330e+01
      vertex  -1.380906e+01 -1.279501e+01  3.747731e+01
      vertex  -2.071006e+01  1.071098e+01  2.867250e+01
    endloop
  endfacet
  facet normal  1.453275e-01  2.397397e-01  9.598983e-01
    outer loop
      vertex   1.299099e+01  2.070194e+01  2.790430e+01
      vertex  -3.775974e+00 -1.596798e+01  3.960131e+01
      vertex   9.820950e+00 -6.601036e+00  3.520330e+01
    endloop
  endfacet
  facet normal -6.592602e-01 -3.561526e-01  6.622170e-01
    outer loop
      vertex  -1.841001e+01 -2.659005e+01  3.697990e+01
      vertex  -3.046103e+01 -3.299105e+01  2.154010e+01
      vertex  -1.193796e+01 -3.554000e+01  3.860960e+01
    endloop
  endfacet
  facet normal -1.895755e-01  2.951213e-01  9.364638e-01
    outer loop
      vertex  -2.071006e+01  1.071098e+01  2.867250e+01
      vertex  -1.380906e+01 -1.279501e+01  3.747731e+01
      vertex  -8.430027e+00 -2.103966e+00  3.519700e+01
    endloop
  endfacet
  facet normal  4.186523e-01 -1.797312e-01  8.901836e-01
    outer loop
      vertex   3.728054e+00 -4.482198e+01  3.540100e+01
      vertex   1.826004e+01 -3.201302e+01  3.115281e+01
      vertex  -1.469460e-01 -3.000900e+01  4.021421e+01
    endloop
  endfacet
  facet normal -7.018644e-02 -4.296611e-01  9.002584e-01
    outer loop
      vertex   5.246975e+00 -5.371102e+01  3.127700e+01
      vertex   3.728054e+00 -4.482198e+01  3.540100e+01
      vertex  -1.193796e+01 -3.554000e+01  3.860960e+01
    endloop
  endfacet
  facet normal  3.050650e-01  2.127369e-01  9.282663e-01
    outer loop
      vertex   1.738296e+01  5.032021e+00  3.005210e+01
      vertex   1.299099e+01  2.070194e+01  2.790430e+01
      vertex   9.820950e+00 -6.601036e+00  3.520330e+01
    endloop
  endfacet
  facet normal  4.308163e-01 -9.886258e-02  8.970081e-01
    outer loop
      vertex  -1.469460e-01 -3.000900e+01  4.021421e+01
      vertex   1.826004e+01 -3.201302e+01  3.115281e+01
      vertex   2.114798e+01 -1.305599e+01  3.185511e+01
    endloop
  endfacet
  facet normal  3.178163e-01  6.712323e-02  9.457734e-01
    outer loop
      vertex   2.114798e+01 -1.305599e+01  3.185511e+01
      vertex   9.820950e+00 -6.601036e+00  3.520330e+01
      vertex  -1.469460e-01 -3.000900e+01  4.021421e+01
    endloop
  endfacet
  facet normal -6.550319e-01 -3.519250e-01  6.686419e-01
    outer loop
      vertex  -1.155906e+01 -3.016805e+01  4.180820e+01
      vertex  -1.841001e+01 -2.659005e+01  3.697990e+01
      vertex  -1.193796e+01 -3.554000e+01  3.860960e+01
    endloop
  endfacet
  facet normal -1.216670e-01 -5.014532e-01  8.565874e-01
    outer loop
      vertex   3.728054e+00 -4.482198e+01  3.540100e+01
      vertex  -1.155906e+01 -3.016805e+01  4.180820e+01
      vertex  -1.193796e+01 -3.554000e+01  3.860960e+01
    endloop
  endfacet
  facet normal -1.191087e-01  2.640729e-01  9.571199e-01
    outer loop
      vertex  -1.380906e+01 -1.279501e+01  3.747731e+01
      vertex  -3.775974e+00 -1.596798e+01  3.960131e+01
      vertex  -8.430027e+00 -2.103966e+00  3.519700e+01
    endloop
  endfacet
  facet normal  1.367946e-01 -2.735738e-01  9.520739e-01
    outer loop
      vertex   3.728054e+00 -4.482198e+01  3.540100e+01
      vertex  -1.469460e-01 -3.000900e+01  4.021421e+01
      vertex  -1.155906e+01 -3.016805e+01  4.180820e+01
    endloop
  endfacet
  facet normal  2.403440e-01  1.042452e-01  9.650739e-01
    outer loop
      vertex  -3.775974e+00 -1.596798e+01  3.960131e+01
      vertex  -1.469460e-01 -3.000900e+01  4.021421e+01
      vertex   9.820950e+00 -6.601036e+00  3.520330e+01
    endloop
  endfacet
  facet normal -1.337585e-01  2.233678e-01  9.655131e-01
    outer loop
      vertex  -1.155906e+01 -3.016805e+01  4.180820e+01
      vertex  -3.775974e+00 -1.596798e+01  3.960131e+01
      vertex  -1.380906e+01 -1.279501e+01  3.747731e+01
    endloop
  endfacet
  facet normal  1.368334e-01  7.847005e-02  9.874811e-01
    outer loop
      vertex  -3.775974e+00 -1.596798e+01  3.960131e+01
      vertex  -1.155906e+01 -3.016805e+01  4.180820e+01
      vertex  -1.469460e-01 -3.000900e+01  4.021421e+01
    endloop
  endfacet
endsolid vcg
