solid Created by Gmsh
facet normal -0.0788882 -0.210006 -0.974512
  outer loop
    vertex 0.1396663028336856 -0.2630486925403432 -0.95461966730504
    vertex -0.1974936008145907 -0.01797331388490176 -0.9801393970376264
    vertex 6.123233995736766e-17 -1.499759782661858e-32 -1
  endloop
endfacet
facet normal 0.462106 -0.668519 0.5827
  outer loop
    vertex 0.5890535921777957 -0.6761323624627626 0.4425617402950218
    vertex 0.5295235226596147 -0.5164631709340242 0.6729566345753086
    vertex 0.3117816431630935 -0.7775079526897599 0.5461442945693925
  endloop
endfacet
facet normal -0.407437 -0.457897 -0.790142
  outer loop
    vertex -0.586906704135277 -0.3381728348074117 -0.7356491381354194
    vertex -0.2874458362075484 -0.3106353328996858 -0.9060246029778908
    vertex -0.2901763100549222 -0.6326965664569602 -0.7179782474953423
  endloop
endfacet
facet normal -0.0717319 -0.320661 -0.944474
  outer loop
    vertex 0.1396663028336856 -0.2630486925403432 -0.95461966730504
    vertex -0.02377662515185475 -0.5157431217726366 -0.856413278995955
    vertex -0.2874458362075484 -0.3106353328996858 -0.9060246029778908
  endloop
endfacet
facet normal -0.471082 -0.517471 -0.714357
  outer loop
    vertex -0.2901763100549222 -0.6326965664569602 -0.7179782474953423
    vertex -0.583389644552942 -0.5975596603597558 -0.5500717907138352
    vertex -0.586906704135277 -0.3381728348074117 -0.7356491381354194
  endloop
endfacet
facet normal -0.659275 -0.0227408 -0.751558
  outer loop
    vertex -0.7094724652191212 0.1708060825668143 -0.6837207787204375
    vertex -0.4891376057157114 -0.06305062955857987 -0.8699247213333853
    vertex -0.7804698320236669 -0.1254550223662682 -0.6124768392878447
  endloop
endfacet
facet normal 0.381 -0.641327 0.665987
  outer loop
    vertex 0.3117816431630935 -0.7775079526897599 0.5461442945693925
    vertex 0.5295235226596147 -0.5164631709340242 0.6729566345753086
    vertex 0.2638453370238925 -0.5509677607510044 0.7917197513917236
  endloop
endfacet
facet normal 0.114386 -0.829537 0.546611
  outer loop
    vertex 0.06559221590464186 -0.7079770878812783 0.7031828384196129
    vertex -0.08359698476323346 -0.8584135210752629 0.5061005542119715
    vertex 0.3117816431630935 -0.7775079526897599 0.5461442945693925
  endloop
endfacet
facet normal 0.12554 -0.85909 0.49619
  outer loop
    vertex 0.3117816431630935 -0.7775079526897599 0.5461442945693925
    vertex -0.08359698476323346 -0.8584135210752629 0.5061005542119715
    vertex 0.1139530268318324 -0.9452742723017686 0.3057306948937664
  endloop
endfacet
facet normal 0.768022 0.205385 -0.606596
  outer loop
    vertex 0.8090169943749473 -1.981520145234183e-16 -0.5877852522924734
    vertex 0.6212581076243342 0.2996097381118902 -0.7240665498001932
    vertex 0.8539081250314586 0.2881095793316712 -0.4333979514286912
  endloop
endfacet
facet normal 0.302912 0.855403 0.420155
  outer loop
    vertex 0.4584956572932652 0.75007089598523 0.4766291884044985
    vertex 0.3614773657017701 0.9013269637635222 0.2386290394695063
    vertex 0.1126205564410104 0.8802690066429831 0.4609154870588456
  endloop
endfacet
facet normal 0.0180909 0.379879 -0.924859
  outer loop
    vertex 0.1447229480018513 0.5037247431484604 -0.8516552421383144
    vertex 0.1174872124459976 0.2217891460545683 -0.967990872686336
    vertex -0.1564274088846163 0.302184293722956 -0.9403271337023107
  endloop
endfacet
facet normal 0.00801982 0.587438 0.80923
  outer loop
    vertex -0.04258719683122064 0.7270629128164411 0.6852487515296405
    vertex -0.1576459552978101 0.4976031734679104 0.852958870364161
    vertex 0.1842730793993998 0.5131522717845968 0.8382828747928529
  endloop
endfacet
facet normal -0.638108 -0.142522 -0.756641
  outer loop
    vertex -0.7804698320236669 -0.1254550223662682 -0.6124768392878447
    vertex -0.4891376057157114 -0.06305062955857987 -0.8699247213333853
    vertex -0.586906704135277 -0.3381728348074117 -0.7356491381354194
  endloop
endfacet
facet normal -0.867791 0.482472 -0.118993
  outer loop
    vertex -0.7740615080683967 0.5954009426464659 -0.2152359152710795
    vertex -0.8894561909060145 0.3773405785354876 -0.257840594650003
    vertex -0.880691292009071 0.4704142175811193 0.05561755187831041
  endloop
endfacet
facet normal 0.250732 0.234003 0.939349
  outer loop
    vertex 0.4591859126961744 0.2991870813999084 0.8364421007486327
    vertex 0.01218432910432368 0.2226556722048743 0.9748210060104743
    vertex 0.3090169943749477 -7.568733460868307e-17 0.9510565162951535
  endloop
endfacet
facet normal 0.205628 0.356244 -0.911486
  outer loop
    vertex 0.3569270192488652 0.280553875011349 -0.8910065241883678
    vertex 0.1174872124459976 0.2217891460545683 -0.967990872686336
    vertex 0.1447229480018513 0.5037247431484604 -0.8516552421383144
  endloop
endfacet
facet normal 0.523336 -0.833187 -0.178655
  outer loop
    vertex 0.4510904091995698 -0.8919852412503512 -0.02966095277831711
    vertex 0.4112686118186692 -0.8564624839927475 -0.3119777915905516
    vertex 0.6642710186457712 -0.7292579741071549 -0.164093939523791
  endloop
endfacet
facet normal 0.236037 0.295307 0.925786
  outer loop
    vertex 0.1842730793993998 0.5131522717845968 0.8382828747928529
    vertex 0.01218432910432368 0.2226556722048743 0.9748210060104743
    vertex 0.4591859126961744 0.2991870813999084 0.8364421007486327
  endloop
endfacet
facet normal 0.733662 0.36564 -0.572754
  outer loop
    vertex 0.6212581076243342 0.2996097381118902 -0.7240665498001932
    vertex 0.6630374949904815 0.5433039574977478 -0.5149777568051194
    vertex 0.8539081250314586 0.2881095793316712 -0.4333979514286912
  endloop
endfacet
facet normal 0.112157 0.654105 0.748043
  outer loop
    vertex 0.1842730793993998 0.5131522717845968 0.8382828747928529
    vertex 0.2662911212245138 0.7001973556647143 0.6624293938806858
    vertex -0.04258719683122064 0.7270629128164411 0.6852487515296405
  endloop
endfacet
facet normal -0.920546 0.380752 -0.0873146
  outer loop
    vertex -0.880691292009071 0.4704142175811193 0.05561755187831041
    vertex -0.8894561909060145 0.3773405785354876 -0.257840594650003
    vertex -0.9723941669173718 0.2153358051085961 -0.08988923841763963
  endloop
endfacet
facet normal -0.640587 0.73519 0.221683
  outer loop
    vertex -0.6940677384537383 0.7177055830940001 0.05629094450632831
    vertex -0.7413013194110225 0.6074606259191361 0.2854188882982496
    vertex -0.5163762322759494 0.7894226499539434 0.3319148482369966
  endloop
endfacet
facet normal 0.605905 -0.571961 0.552938
  outer loop
    vertex 0.5890535921777957 -0.6761323624627626 0.4425617402950218
    vertex 0.7099975785291497 -0.4623801206273911 0.5311384589081675
    vertex 0.5295235226596147 -0.5164631709340242 0.6729566345753086
  endloop
endfacet
facet normal -0.597724 0.780723 0.182202
  outer loop
    vertex -0.5163762322759494 0.7894226499539434 0.3319148482369966
    vertex -0.5055099356865277 0.8605256948475378 0.0628906465968103
    vertex -0.6940677384537383 0.7177055830940001 0.05629094450632831
  endloop
endfacet
facet normal -0.797637 0.602051 -0.0361944
  outer loop
    vertex -0.880691292009071 0.4704142175811193 0.05561755187831041
    vertex -0.6940677384537383 0.7177055830940001 0.05629094450632831
    vertex -0.7740615080683967 0.5954009426464659 -0.2152359152710795
  endloop
endfacet
facet normal 0.56404 -0.767404 -0.304876
  outer loop
    vertex 0.6642710186457712 -0.7292579741071549 -0.164093939523791
    vertex 0.4112686118186692 -0.8564624839927475 -0.3119777915905516
    vertex 0.6134454888566395 -0.6587663452917503 -0.4355588760574042
  endloop
endfacet
facet normal -0.793345 -0.556225 0.247422
  outer loop
    vertex -0.869120088654961 -0.4822071471751607 0.1100297173930104
    vertex -0.7042295029117271 -0.6874913836595252 0.1772467337431444
    vertex -0.7550496302922407 -0.5112339455450076 0.4105361235239051
  endloop
endfacet
facet normal 0.701945 0.120605 -0.701945
  outer loop
    vertex 0.5877852522924729 -1.439658655611993e-16 -0.8090169943749476
    vertex 0.6212581076243342 0.2996097381118902 -0.7240665498001932
    vertex 0.8090169943749473 -1.981520145234183e-16 -0.5877852522924734
  endloop
endfacet
facet normal 0.282565 0.812233 0.510328
  outer loop
    vertex 0.1126205564410104 0.8802690066429831 0.4609154870588456
    vertex 0.2662911212245138 0.7001973556647143 0.6624293938806858
    vertex 0.4584956572932652 0.75007089598523 0.4766291884044985
  endloop
endfacet
facet normal 0.563626 0.385785 0.730408
  outer loop
    vertex 0.6808812905078324 0.2698172279020885 0.6808812905078397
    vertex 0.490602140627777 0.5356517506918747 0.6873039659365955
    vertex 0.4591859126961744 0.2991870813999084 0.8364421007486327
  endloop
endfacet
facet normal -0.297371 0.155289 -0.942049
  outer loop
    vertex -0.4721536226082722 0.213363126983617 -0.8553052862584554
    vertex -0.1564274088846163 0.302184293722956 -0.9403271337023107
    vertex -0.1974936008145907 -0.01797331388490176 -0.9801393970376264
  endloop
endfacet
facet normal -0.0388273 -0.975065 0.218495
  outer loop
    vertex 0.1139530268318324 -0.9452742723017686 0.3057306948937664
    vertex -0.2088672003503079 -0.9423199890743119 0.2615483335997634
    vertex -0.02459465811404384 -0.9988056103275327 0.04221913749116845
  endloop
endfacet
facet normal 0.515975 0.179821 -0.837516
  outer loop
    vertex 0.3569270192488652 0.280553875011349 -0.8910065241883678
    vertex 0.6212581076243342 0.2996097381118902 -0.7240665498001932
    vertex 0.5877852522924729 -1.439658655611993e-16 -0.8090169943749476
  endloop
endfacet
facet normal -0.0435754 0.456169 -0.888825
  outer loop
    vertex -0.1564274088846163 0.302184293722956 -0.9403271337023107
    vertex -0.09738517292101892 0.6143167669779216 -0.7830268436681703
    vertex 0.1447229480018513 0.5037247431484604 -0.8516552421383144
  endloop
endfacet
facet normal -0.194123 0.640442 0.743068
  outer loop
    vertex -0.349066276173546 0.6748080705817704 0.6502205800465272
    vertex -0.1576459552978101 0.4976031734679104 0.852958870364161
    vertex -0.04258719683122064 0.7270629128164411 0.6852487515296405
  endloop
endfacet
facet normal -0.837743 -0.473338 0.272281
  outer loop
    vertex -0.7550496302922407 -0.5112339455450076 0.4105361235239051
    vertex -0.9018498761012305 -0.3216259688771641 0.2884848992928759
    vertex -0.869120088654961 -0.4822071471751607 0.1100297173930104
  endloop
endfacet
facet normal -0.116171 0.201891 -0.972494
  outer loop
    vertex -0.1974936008145907 -0.01797331388490176 -0.9801393970376264
    vertex 0.1174872124459976 0.2217891460545683 -0.967990872686336
    vertex 6.123233995736766e-17 -1.499759782661858e-32 -1
  endloop
endfacet
facet normal 0.580927 0.17687 0.794507
  outer loop
    vertex 0.5877852522924734 -1.439658655611994e-16 0.8090169943749472
    vertex 0.6808812905078324 0.2698172279020885 0.6808812905078397
    vertex 0.4591859126961744 0.2991870813999084 0.8364421007486327
  endloop
endfacet
facet normal 0.45111 0.112466 -0.885354
  outer loop
    vertex 0.3090169943749472 -7.568733460868295e-17 -0.9510565162951536
    vertex 0.3569270192488652 0.280553875011349 -0.8910065241883678
    vertex 0.5877852522924729 -1.439658655611993e-16 -0.8090169943749476
  endloop
endfacet
facet normal 0.240984 -0.689461 0.683059
  outer loop
    vertex 0.2638453370238925 -0.5509677607510044 0.7917197513917236
    vertex 0.06559221590464186 -0.7079770878812783 0.7031828384196129
    vertex 0.3117816431630935 -0.7775079526897599 0.5461442945693925
  endloop
endfacet
facet normal -0.319999 0.54276 0.776538
  outer loop
    vertex -0.4527489007974952 0.4145062462453632 0.7894320772873611
    vertex -0.1576459552978101 0.4976031734679104 0.852958870364161
    vertex -0.349066276173546 0.6748080705817704 0.6502205800465272
  endloop
endfacet
facet normal 0.786176 0.45396 -0.419343
  outer loop
    vertex 0.8539081250314586 0.2881095793316712 -0.4333979514286912
    vertex 0.6630374949904815 0.5433039574977478 -0.5149777568051194
    vertex 0.8191868774837212 0.5145087655850809 -0.2534040052852104
  endloop
endfacet
facet normal -0.461039 -0.251497 -0.850995
  outer loop
    vertex -0.586906704135277 -0.3381728348074117 -0.7356491381354194
    vertex -0.4891376057157114 -0.06305062955857987 -0.8699247213333853
    vertex -0.2874458362075484 -0.3106353328996858 -0.9060246029778908
  endloop
endfacet
facet normal 0.615518 0.669509 0.415807
  outer loop
    vertex 0.6995631570233685 0.5202020855244907 0.4898991524298325
    vertex 0.6316441510257458 0.7364241821191347 0.2422913338630342
    vertex 0.4584956572932652 0.75007089598523 0.4766291884044985
  endloop
endfacet
facet normal -0.593333 0.0788261 -0.801089
  outer loop
    vertex -0.4721536226082722 0.213363126983617 -0.8553052862584554
    vertex -0.4891376057157114 -0.06305062955857987 -0.8699247213333853
    vertex -0.7094724652191212 0.1708060825668143 -0.6837207787204375
  endloop
endfacet
facet normal 0.723711 0.605811 0.330507
  outer loop
    vertex 0.832320148137211 0.5084244202144457 0.220788994142498
    vertex 0.6316441510257458 0.7364241821191347 0.2422913338630342
    vertex 0.6995631570233685 0.5202020855244907 0.4898991524298325
  endloop
endfacet
facet normal -0.965029 0.128048 -0.22874
  outer loop
    vertex -0.9134703685690765 0.1330860880326306 -0.3845256544347159
    vertex -0.9885900041457016 -0.01405603458860648 -0.1499741030806503
    vertex -0.9723941669173718 0.2153358051085961 -0.08988923841763963
  endloop
endfacet
facet normal -0.942166 0.222585 -0.250558
  outer loop
    vertex -0.9723941669173718 0.2153358051085961 -0.08988923841763963
    vertex -0.8894561909060145 0.3773405785354876 -0.257840594650003
    vertex -0.9134703685690765 0.1330860880326306 -0.3845256544347159
  endloop
endfacet
facet normal -0.524278 -0.768039 -0.367762
  outer loop
    vertex -0.6636138481414587 -0.6825133701441212 -0.3062550573123628
    vertex -0.4137752211773498 -0.7589741627137143 -0.5027407748260048
    vertex -0.408742496521345 -0.8677393107262823 -0.2827685628880533
  endloop
endfacet
facet normal -0.222727 -0.490151 -0.842701
  outer loop
    vertex -0.2874458362075484 -0.3106353328996858 -0.9060246029778908
    vertex -0.02377662515185475 -0.5157431217726366 -0.856413278995955
    vertex -0.2901763100549222 -0.6326965664569602 -0.7179782474953423
  endloop
endfacet
facet normal 0.0201377 0.415491 0.909374
  outer loop
    vertex -0.1576459552978101 0.4976031734679104 0.852958870364161
    vertex 0.01218432910432368 0.2226556722048743 0.9748210060104743
    vertex 0.1842730793993998 0.5131522717845968 0.8382828747928529
  endloop
endfacet
facet normal 0.155609 0.102588 0.982477
  outer loop
    vertex 0.3090169943749477 -7.568733460868307e-17 0.9510565162951535
    vertex 0.01218432910432368 0.2226556722048743 0.9748210060104743
    vertex 6.123233995736766e-17 -1.499759782661858e-32 1
  endloop
endfacet
facet normal -0.362244 0.0714104 -0.929344
  outer loop
    vertex -0.4721536226082722 0.213363126983617 -0.8553052862584554
    vertex -0.1974936008145907 -0.01797331388490176 -0.9801393970376264
    vertex -0.4891376057157114 -0.06305062955857987 -0.8699247213333853
  endloop
endfacet
facet normal 0.349149 -0.922371 -0.165307
  outer loop
    vertex 0.4510904091995698 -0.8919852412503512 -0.02966095277831711
    vertex 0.1846026924680796 -0.9713367090602713 -0.1497559466782458
    vertex 0.4112686118186692 -0.8564624839927475 -0.3119777915905516
  endloop
endfacet
facet normal -0.959276 -0.226075 0.169349
  outer loop
    vertex -0.9733262581579614 -0.2293237295066958 0.006828049894474405
    vertex -0.9018498761012305 -0.3216259688771641 0.2884848992928759
    vertex -0.9605329656756549 -0.09210767682153262 0.2624739943706255
  endloop
endfacet
facet normal -0.559974 -0.79853 -0.22086
  outer loop
    vertex -0.5937830902325303 -0.8032682027276441 -0.04671012995707847
    vertex -0.6636138481414587 -0.6825133701441212 -0.3062550573123628
    vertex -0.408742496521345 -0.8677393107262823 -0.2827685628880533
  endloop
endfacet
facet normal 0.364666 0.461584 0.808677
  outer loop
    vertex 0.490602140627777 0.5356517506918747 0.6873039659365955
    vertex 0.1842730793993998 0.5131522717845968 0.8382828747928529
    vertex 0.4591859126961744 0.2991870813999084 0.8364421007486327
  endloop
endfacet
facet normal 0.562048 0.620969 0.546351
  outer loop
    vertex 0.6995631570233685 0.5202020855244907 0.4898991524298325
    vertex 0.4584956572932652 0.75007089598523 0.4766291884044985
    vertex 0.490602140627777 0.5356517506918747 0.6873039659365955
  endloop
endfacet
facet normal -0.33206 -0.134376 -0.933638
  outer loop
    vertex -0.4891376057157114 -0.06305062955857987 -0.8699247213333853
    vertex -0.1974936008145907 -0.01797331388490176 -0.9801393970376264
    vertex -0.2874458362075484 -0.3106353328996858 -0.9060246029778908
  endloop
endfacet
facet normal -0.556211 -0.710747 -0.43066
  outer loop
    vertex -0.583389644552942 -0.5975596603597558 -0.5500717907138352
    vertex -0.4137752211773498 -0.7589741627137143 -0.5027407748260048
    vertex -0.6636138481414587 -0.6825133701441212 -0.3062550573123628
  endloop
endfacet
facet normal -0.0564264 -0.935141 0.349753
  outer loop
    vertex 0.1139530268318324 -0.9452742723017686 0.3057306948937664
    vertex -0.08359698476323346 -0.8584135210752629 0.5061005542119715
    vertex -0.2088672003503079 -0.9423199890743119 0.2615483335997634
  endloop
endfacet
facet normal 0.712758 -0.634821 -0.298292
  outer loop
    vertex 0.8168856169729821 -0.4993851513833302 -0.2886388043221472
    vertex 0.6642710186457712 -0.7292579741071549 -0.164093939523791
    vertex 0.6134454888566395 -0.6587663452917503 -0.4355588760574042
  endloop
endfacet
facet normal 0.6341 0.438488 0.636903
  outer loop
    vertex 0.6808812905078324 0.2698172279020885 0.6808812905078397
    vertex 0.6995631570233685 0.5202020855244907 0.4898991524298325
    vertex 0.490602140627777 0.5356517506918747 0.6873039659365955
  endloop
endfacet
facet normal 0.932798 -0.180351 0.312029
  outer loop
    vertex 0.9510565162951536 -2.329416636978185e-16 0.3090169943749472
    vertex 0.8527104539816098 -0.2459350607989368 0.4608696426759959
    vertex 0.9503583486325037 -0.269666382128176 0.1552386921305421
  endloop
endfacet
facet normal 0.0662698 0.997222 0.033999
  outer loop
    vertex -0.09729691730941342 0.99466771692823 0.03419711658704067
    vertex 0.1230077261175963 0.9748590704237372 0.1857926051487127
    vertex 0.1455982778304166 0.9833877819908466 -0.1083956259446839
  endloop
endfacet
facet normal 0.65199 0.751157 -0.103305
  outer loop
    vertex 0.6323358448619669 0.7272148569586818 -0.2670391939795849
    vertex 0.5533451438142504 0.8329458310949337 0.003224015936175839
    vertex 0.7564984234436742 0.6537610027337104 -0.01751247075226208
  endloop
endfacet
facet normal -0.934286 -0.332734 0.128054
  outer loop
    vertex -0.869120088654961 -0.4822071471751607 0.1100297173930104
    vertex -0.9018498761012305 -0.3216259688771641 0.2884848992928759
    vertex -0.9733262581579614 -0.2293237295066958 0.006828049894474405
  endloop
endfacet
facet normal 0.19408 0.980029 0.043315
  outer loop
    vertex 0.1230077261175963 0.9748590704237372 0.1857926051487127
    vertex 0.3437731746302133 0.9390233740736451 0.007423432360566436
    vertex 0.1455982778304166 0.9833877819908466 -0.1083956259446839
  endloop
endfacet
facet normal 0.888385 -0.338523 0.310121
  outer loop
    vertex 0.9503583486325037 -0.269666382128176 0.1552386921305421
    vertex 0.8527104539816098 -0.2459350607989368 0.4608696426759959
    vertex 0.8095060499362805 -0.5008035450071964 0.3064241577042925
  endloop
endfacet
facet normal 0.983692 -0.0898697 -0.155801
  outer loop
    vertex 1 -2.449293598294706e-16 -2.449293598294706e-16
    vertex 0.9509980539041696 -0.26748511456887 -0.1550948579243064
    vertex 0.9510565162951535 -2.329416636978185e-16 -0.3090169943749477
  endloop
endfacet
facet normal 0.474289 0.379617 -0.794318
  outer loop
    vertex 0.3569270192488652 0.280553875011349 -0.8910065241883678
    vertex 0.4211760878804098 0.5402091203289076 -0.7285497987860687
    vertex 0.6212581076243342 0.2996097381118902 -0.7240665498001932
  endloop
endfacet
facet normal 0.314169 0.446464 -0.837835
  outer loop
    vertex 0.3569270192488652 0.280553875011349 -0.8910065241883678
    vertex 0.1447229480018513 0.5037247431484604 -0.8516552421383144
    vertex 0.4211760878804098 0.5402091203289076 -0.7285497987860687
  endloop
endfacet
facet normal 0.313032 -0.188922 -0.930763
  outer loop
    vertex 0.4557230592119721 -0.2804055822079268 -0.8448012800470386
    vertex 0.1396663028336856 -0.2630486925403432 -0.95461966730504
    vertex 0.3090169943749472 -7.568733460868295e-17 -0.9510565162951536
  endloop
endfacet
facet normal 0.451733 -0.0996105 -0.886575
  outer loop
    vertex 0.5877852522924729 -1.439658655611993e-16 -0.8090169943749476
    vertex 0.4557230592119721 -0.2804055822079268 -0.8448012800470386
    vertex 0.3090169943749472 -7.568733460868295e-17 -0.9510565162951536
  endloop
endfacet
facet normal -0.14352 -0.72937 -0.668896
  outer loop
    vertex -0.195661994850799 -0.8283824467224509 -0.5248798964840736
    vertex -0.2901763100549222 -0.6326965664569602 -0.7179782474953423
    vertex 0.03514175063508495 -0.7120882946141532 -0.7012098958484603
  endloop
endfacet
facet normal -0.0196331 -0.822627 -0.568242
  outer loop
    vertex 0.1025899543426217 -0.8868147624476246 -0.4505939173723298
    vertex -0.195661994850799 -0.8283824467224509 -0.5248798964840736
    vertex 0.03514175063508495 -0.7120882946141532 -0.7012098958484603
  endloop
endfacet
facet normal 0.289844 -0.352343 -0.889857
  outer loop
    vertex 0.4557230592119721 -0.2804055822079268 -0.8448012800470386
    vertex 0.2533321381291593 -0.5194986426167724 -0.816053912502256
    vertex 0.1396663028336856 -0.2630486925403432 -0.95461966730504
  endloop
endfacet
facet normal 0.209585 -0.664937 -0.716891
  outer loop
    vertex 0.3299386131026945 -0.7304111183526599 -0.5980301913538204
    vertex 0.03514175063508495 -0.7120882946141532 -0.7012098958484603
    vertex 0.2533321381291593 -0.5194986426167724 -0.816053912502256
  endloop
endfacet
facet normal 0.158497 -0.789424 -0.593033
  outer loop
    vertex 0.3299386131026945 -0.7304111183526599 -0.5980301913538204
    vertex 0.1025899543426217 -0.8868147624476246 -0.4505939173723298
    vertex 0.03514175063508495 -0.7120882946141532 -0.7012098958484603
  endloop
endfacet
facet normal -0.0759235 -0.908881 -0.410087
  outer loop
    vertex 0.1025899543426217 -0.8868147624476246 -0.4505939173723298
    vertex -0.1218289319262456 -0.9631105566685917 -0.2399495092289745
    vertex -0.195661994850799 -0.8283824467224509 -0.5248798964840736
  endloop
endfacet
facet normal -0.24499 -0.899477 -0.36183
  outer loop
    vertex -0.1218289319262456 -0.9631105566685917 -0.2399495092289745
    vertex -0.408742496521345 -0.8677393107262823 -0.2827685628880533
    vertex -0.195661994850799 -0.8283824467224509 -0.5248798964840736
  endloop
endfacet
facet normal 0.378482 -0.595251 -0.708822
  outer loop
    vertex 0.5334972857945512 -0.5064666913889904 -0.6774010160631116
    vertex 0.3299386131026945 -0.7304111183526599 -0.5980301913538204
    vertex 0.2533321381291593 -0.5194986426167724 -0.816053912502256
  endloop
endfacet
facet normal -0.116219 -0.637149 -0.761928
  outer loop
    vertex -0.2901763100549222 -0.6326965664569602 -0.7179782474953423
    vertex -0.02377662515185475 -0.5157431217726366 -0.856413278995955
    vertex 0.03514175063508495 -0.7120882946141532 -0.7012098958484603
  endloop
endfacet
facet normal 0.413644 -0.445606 -0.793936
  outer loop
    vertex 0.4557230592119721 -0.2804055822079268 -0.8448012800470386
    vertex 0.5334972857945512 -0.5064666913889904 -0.6774010160631116
    vertex 0.2533321381291593 -0.5194986426167724 -0.816053912502256
  endloop
endfacet
facet normal -0.286256 -0.941359 -0.178609
  outer loop
    vertex -0.1218289319262456 -0.9631105566685917 -0.2399495092289745
    vertex -0.3305212877992896 -0.9437693985665505 -0.007416241691776725
    vertex -0.408742496521345 -0.8677393107262823 -0.2827685628880533
  endloop
endfacet
facet normal -0.454322 -0.883402 -0.114862
  outer loop
    vertex -0.3305212877992896 -0.9437693985665505 -0.007416241691776725
    vertex -0.5937830902325303 -0.8032682027276441 -0.04671012995707847
    vertex -0.408742496521345 -0.8677393107262823 -0.2827685628880533
  endloop
endfacet
facet normal -0.166082 -0.983818 -0.0672242
  outer loop
    vertex -0.1218289319262456 -0.9631105566685917 -0.2399495092289745
    vertex -0.02459465811404384 -0.9988056103275327 0.04221913749116845
    vertex -0.3305212877992896 -0.9437693985665505 -0.007416241691776725
  endloop
endfacet
facet normal 0.574955 -0.180593 0.798006
  outer loop
    vertex 0.5877852522924734 -1.439658655611994e-16 0.8090169943749472
    vertex 0.4278242477509794 -0.2630486925031206 0.8647379940818533
    vertex 0.6808812905082128 -0.2698172279030871 0.6808812905070636
  endloop
endfacet
facet normal 0.704144 -0.0914433 0.704144
  outer loop
    vertex 0.5877852522924734 -1.439658655611994e-16 0.8090169943749472
    vertex 0.6808812905082128 -0.2698172279030871 0.6808812905070636
    vertex 0.8090169943749476 -1.981520145234184e-16 0.5877852522924729
  endloop
endfacet
facet normal -0.476571 -0.877364 0.0557898
  outer loop
    vertex -0.3305212877992896 -0.9437693985665505 -0.007416241691776725
    vertex -0.4935889320777637 -0.8405174140750914 0.2233840700830163
    vertex -0.5937830902325303 -0.8032682027276441 -0.04671012995707847
  endloop
endfacet
facet normal 0.886186 0.103882 -0.451534
  outer loop
    vertex 0.8090169943749473 -1.981520145234183e-16 -0.5877852522924734
    vertex 0.8539081250314586 0.2881095793316712 -0.4333979514286912
    vertex 0.9510565162951535 -2.329416636978185e-16 -0.3090169943749477
  endloop
endfacet
facet normal 0.983556 -0.0913806 0.15578
  outer loop
    vertex 0.9510565162951536 -2.329416636978185e-16 0.3090169943749472
    vertex 0.9503583486325037 -0.269666382128176 0.1552386921305421
    vertex 1 -2.449293598294706e-16 -2.449293598294706e-16
  endloop
endfacet
facet normal 0.886866 0.0962908 0.451881
  outer loop
    vertex 0.9510565162951536 -2.329416636978185e-16 0.3090169943749472
    vertex 0.8648834737502075 0.2759037868561467 0.4193491114002891
    vertex 0.8090169943749476 -1.981520145234184e-16 0.5877852522924729
  endloop
endfacet
facet normal 0.704144 0.0914433 0.704144
  outer loop
    vertex 0.8090169943749476 -1.981520145234184e-16 0.5877852522924729
    vertex 0.6808812905078324 0.2698172279020885 0.6808812905078397
    vertex 0.5877852522924734 -1.439658655611994e-16 0.8090169943749472
  endloop
endfacet
facet normal 0.155779 -0.0914433 0.98355
  outer loop
    vertex 6.123233995736766e-17 -1.499759782661858e-32 1
    vertex 0.1506325540503649 -0.2698172279019947 0.9510565162951921
    vertex 0.3090169943749477 -7.568733460868307e-17 0.9510565162951535
  endloop
endfacet
facet normal -0.0440273 0.83892 0.542471
  outer loop
    vertex -0.04258719683122064 0.7270629128164411 0.6852487515296405
    vertex 0.1126205564410104 0.8802690066429831 0.4609154870588456
    vertex -0.1999425342265953 0.8680280270329278 0.4544780823014125
  endloop
endfacet
facet normal -0.919201 -0.392376 -0.0333234
  outer loop
    vertex -0.8707444767183674 -0.4527632833458307 -0.1918579305589412
    vertex -0.869120088654961 -0.4822071471751607 0.1100297173930104
    vertex -0.9733262581579614 -0.2293237295066958 0.006828049894474405
  endloop
endfacet
facet normal -0.724797 -0.300557 -0.619947
  outer loop
    vertex -0.7804698320236669 -0.1254550223662682 -0.6124768392878447
    vertex -0.586906704135277 -0.3381728348074117 -0.7356491381354194
    vertex -0.7703517280523094 -0.415396306777861 -0.4837397269215481
  endloop
endfacet
facet normal -0.200497 0.769288 0.606628
  outer loop
    vertex -0.349066276173546 0.6748080705817704 0.6502205800465272
    vertex -0.04258719683122064 0.7270629128164411 0.6852487515296405
    vertex -0.1999425342265953 0.8680280270329278 0.4544780823014125
  endloop
endfacet
facet normal -0.944483 -0.278261 -0.174708
  outer loop
    vertex -0.8707444767183674 -0.4527632833458307 -0.1918579305589412
    vertex -0.9733262581579614 -0.2293237295066958 0.006828049894474405
    vertex -0.921551667581872 -0.1872138454071742 -0.3401374723033755
  endloop
endfacet
facet normal -0.383033 0.786464 0.48452
  outer loop
    vertex -0.349066276173546 0.6748080705817704 0.6502205800465272
    vertex -0.1999425342265953 0.8680280270329278 0.4544780823014125
    vertex -0.5163762322759494 0.7894226499539434 0.3319148482369966
  endloop
endfacet
facet normal -0.86778 -0.358309 -0.344344
  outer loop
    vertex -0.7703517280523094 -0.415396306777861 -0.4837397269215481
    vertex -0.8707444767183674 -0.4527632833458307 -0.1918579305589412
    vertex -0.921551667581872 -0.1872138454071742 -0.3401374723033755
  endloop
endfacet
facet normal -0.496344 0.7003 0.513053
  outer loop
    vertex -0.349066276173546 0.6748080705817704 0.6502205800465272
    vertex -0.5163762322759494 0.7894226499539434 0.3319148482369966
    vertex -0.620658154716303 0.5474289297627005 0.5613421611130042
  endloop
endfacet
facet normal -0.836591 -0.246436 -0.48927
  outer loop
    vertex -0.7804698320236669 -0.1254550223662682 -0.6124768392878447
    vertex -0.7703517280523094 -0.415396306777861 -0.4837397269215481
    vertex -0.921551667581872 -0.1872138454071742 -0.3401374723033755
  endloop
endfacet
facet normal -0.883164 -0.042455 -0.467139
  outer loop
    vertex -0.7804698320236669 -0.1254550223662682 -0.6124768392878447
    vertex -0.921551667581872 -0.1872138454071742 -0.3401374723033755
    vertex -0.9134703685690765 0.1330860880326306 -0.3845256544347159
  endloop
endfacet
facet normal -0.482088 0.554706 0.678154
  outer loop
    vertex -0.4527489007974952 0.4145062462453632 0.7894320772873611
    vertex -0.349066276173546 0.6748080705817704 0.6502205800465272
    vertex -0.620658154716303 0.5474289297627005 0.5613421611130042
  endloop
endfacet
facet normal -0.950682 0.302381 0.069065
  outer loop
    vertex -0.880691292009071 0.4704142175811193 0.05561755187831041
    vertex -0.9723941669173718 0.2153358051085961 -0.08988923841763963
    vertex -0.9603502133315699 0.1850401651302911 0.2085368193930336
  endloop
endfacet
facet normal -0.828272 0.0646452 -0.556584
  outer loop
    vertex -0.7094724652191212 0.1708060825668143 -0.6837207787204375
    vertex -0.7804698320236669 -0.1254550223662682 -0.6124768392878447
    vertex -0.9134703685690765 0.1330860880326306 -0.3845256544347159
  endloop
endfacet
facet normal -0.902743 0.369779 0.219814
  outer loop
    vertex -0.8352709848378799 0.3757287925014158 0.4014352455544807
    vertex -0.880691292009071 0.4704142175811193 0.05561755187831041
    vertex -0.9603502133315699 0.1850401651302911 0.2085368193930336
  endloop
endfacet
facet normal -0.600146 0.415139 0.683728
  outer loop
    vertex -0.6974136861889446 0.262996355750038 0.666668633714342
    vertex -0.4527489007974952 0.4145062462453632 0.7894320772873611
    vertex -0.620658154716303 0.5474289297627005 0.5613421611130042
  endloop
endfacet
facet normal -0.594537 0.286856 -0.751158
  outer loop
    vertex -0.5678849965945657 0.4501507571832795 -0.6891087914474102
    vertex -0.4721536226082722 0.213363126983617 -0.8553052862584554
    vertex -0.7094724652191212 0.1708060825668143 -0.6837207787204375
  endloop
endfacet
facet normal -0.819242 0.215519 -0.531407
  outer loop
    vertex -0.7094724652191212 0.1708060825668143 -0.6837207787204375
    vertex -0.9134703685690765 0.1330860880326306 -0.3845256544347159
    vertex -0.7813379463048546 0.3978764662980961 -0.4808381549235169
  endloop
endfacet
facet normal -0.731663 0.401449 0.550916
  outer loop
    vertex -0.6974136861889446 0.262996355750038 0.666668633714342
    vertex -0.620658154716303 0.5474289297627005 0.5613421611130042
    vertex -0.8352709848378799 0.3757287925014158 0.4014352455544807
  endloop
endfacet
facet normal -0.902259 0.211985 0.375487
  outer loop
    vertex -0.8352709848378799 0.3757287925014158 0.4014352455544807
    vertex -0.9603502133315699 0.1850401651302911 0.2085368193930336
    vertex -0.8706410101588626 0.07513712279218804 0.4861467311502433
  endloop
endfacet
facet normal -0.69788 0.341583 -0.629511
  outer loop
    vertex -0.5678849965945657 0.4501507571832795 -0.6891087914474102
    vertex -0.7094724652191212 0.1708060825668143 -0.6837207787204375
    vertex -0.7813379463048546 0.3978764662980961 -0.4808381549235169
  endloop
endfacet
facet normal -0.736085 0.552655 -0.390835
  outer loop
    vertex -0.7813379463048546 0.3978764662980961 -0.4808381549235169
    vertex -0.7740615080683967 0.5954009426464659 -0.2152359152710795
    vertex -0.5990849630739861 0.6516981376954805 -0.4651738861360162
  endloop
endfacet
facet normal -0.814042 0.244285 0.526934
  outer loop
    vertex -0.6974136861889446 0.262996355750038 0.666668633714342
    vertex -0.8352709848378799 0.3757287925014158 0.4014352455544807
    vertex -0.8706410101588626 0.07513712279218804 0.4861467311502433
  endloop
endfacet
facet normal -0.661718 0.509104 -0.550402
  outer loop
    vertex -0.5678849965945657 0.4501507571832795 -0.6891087914474102
    vertex -0.7813379463048546 0.3978764662980961 -0.4808381549235169
    vertex -0.5990849630739861 0.6516981376954805 -0.4651738861360162
  endloop
endfacet
facet normal -0.767463 0.0990276 0.633399
  outer loop
    vertex -0.6964608362196082 -0.04593781395436929 0.716122909046609
    vertex -0.6974136861889446 0.262996355750038 0.666668633714342
    vertex -0.8706410101588626 0.07513712279218804 0.4861467311502433
  endloop
endfacet
facet normal -0.510432 0.602593 -0.613466
  outer loop
    vertex -0.3495385719338127 0.6720822134961276 -0.6527850220651638
    vertex -0.5678849965945657 0.4501507571832795 -0.6891087914474102
    vertex -0.5990849630739861 0.6516981376954805 -0.4651738861360162
  endloop
endfacet
facet normal -0.812525 -0.069588 0.578757
  outer loop
    vertex -0.6964608362196082 -0.04593781395436929 0.716122909046609
    vertex -0.8706410101588626 0.07513712279218804 0.4861467311502433
    vertex -0.830376268688759 -0.2345294314589901 0.5054415873056517
  endloop
endfacet
facet normal -0.732585 -0.390622 0.557435
  outer loop
    vertex -0.830376268688759 -0.2345294314589901 0.5054415873056517
    vertex -0.7550496302922407 -0.5112339455450076 0.4105361235239051
    vertex -0.6178945356347441 -0.3485674389121161 0.7047744911409409
  endloop
endfacet
facet normal -0.176028 0.977377 -0.117254
  outer loop
    vertex -0.3410410815251558 0.9350375081412572 -0.09693213647258836
    vertex -0.09729691730941342 0.99466771692823 0.03419711658704067
    vertex -0.09933786750481562 0.957868738120737 -0.2694799966798699
  endloop
endfacet
facet normal -0.444838 0.734943 -0.511838
  outer loop
    vertex -0.3495385719338127 0.6720822134961276 -0.6527850220651638
    vertex -0.5990849630739861 0.6516981376954805 -0.4651738861360162
    vertex -0.3639363569384502 0.8447805196974201 -0.3922960637555848
  endloop
endfacet
facet normal -0.558608 -0.0130669 0.829329
  outer loop
    vertex -0.4510095322574815 -0.1500839197621499 0.8798097628701993
    vertex -0.5007874048457137 0.1574647935982509 0.85112679074563
    vertex -0.6964608362196082 -0.04593781395436929 0.716122909046609
  endloop
endfacet
facet normal -0.726868 -0.213185 0.652852
  outer loop
    vertex -0.6964608362196082 -0.04593781395436929 0.716122909046609
    vertex -0.830376268688759 -0.2345294314589901 0.5054415873056517
    vertex -0.6178945356347441 -0.3485674389121161 0.7047744911409409
  endloop
endfacet
facet normal 0.272229 -0.87971 0.389874
  outer loop
    vertex 0.3117816431630935 -0.7775079526897599 0.5461442945693925
    vertex 0.1139530268318324 -0.9452742723017686 0.3057306948937664
    vertex 0.4171453449538718 -0.8690047478710571 0.266121230571474
  endloop
endfacet
facet normal -0.274131 0.925443 -0.261547
  outer loop
    vertex -0.3639363569384502 0.8447805196974201 -0.3922960637555848
    vertex -0.3410410815251558 0.9350375081412572 -0.09693213647258836
    vertex -0.09933786750481562 0.957868738120737 -0.2694799966798699
  endloop
endfacet
facet normal -0.274506 0.794393 -0.541837
  outer loop
    vertex -0.09649402759961119 0.8271140815198144 -0.5536887201210074
    vertex -0.3495385719338127 0.6720822134961276 -0.6527850220651638
    vertex -0.3639363569384502 0.8447805196974201 -0.3922960637555848
  endloop
endfacet
facet normal -0.598298 -0.184565 0.779728
  outer loop
    vertex -0.4510095322574815 -0.1500839197621499 0.8798097628701993
    vertex -0.6964608362196082 -0.04593781395436929 0.716122909046609
    vertex -0.6178945356347441 -0.3485674389121161 0.7047744911409409
  endloop
endfacet
facet normal 0.527506 -0.840183 0.125816
  outer loop
    vertex 0.4171453449538718 -0.8690047478710571 0.266121230571474
    vertex 0.4510904091995698 -0.8919852412503512 -0.02966095277831711
    vertex 0.6692746057126154 -0.7292052968929534 0.1425872965291184
  endloop
endfacet
facet normal 0.446673 -0.787163 0.425272
  outer loop
    vertex 0.5890535921777957 -0.6761323624627626 0.4425617402950218
    vertex 0.3117816431630935 -0.7775079526897599 0.5461442945693925
    vertex 0.4171453449538718 -0.8690047478710571 0.266121230571474
  endloop
endfacet
facet normal -0.189713 0.891247 -0.411931
  outer loop
    vertex -0.09649402759961119 0.8271140815198144 -0.5536887201210074
    vertex -0.3639363569384502 0.8447805196974201 -0.3922960637555848
    vertex -0.09933786750481562 0.957868738120737 -0.2694799966798699
  endloop
endfacet
facet normal -0.479402 -0.31818 0.817884
  outer loop
    vertex -0.4510095322574815 -0.1500839197621499 0.8798097628701993
    vertex -0.6178945356347441 -0.3485674389121161 0.7047744911409409
    vertex -0.3456309907405604 -0.4401854167585889 0.8287195044843376
  endloop
endfacet
facet normal -0.290988 -0.103167 0.951148
  outer loop
    vertex -0.1587909685296326 -0.2269691626539387 0.9608696204572144
    vertex -0.2488070049529986 0.07262422975425314 0.9658264831422464
    vertex -0.4510095322574815 -0.1500839197621499 0.8798097628701993
  endloop
endfacet
facet normal 0.568501 -0.770493 0.288351
  outer loop
    vertex 0.5890535921777957 -0.6761323624627626 0.4425617402950218
    vertex 0.4171453449538718 -0.8690047478710571 0.266121230571474
    vertex 0.6692746057126154 -0.7292052968929534 0.1425872965291184
  endloop
endfacet
facet normal -0.00675292 0.733044 -0.680148
  outer loop
    vertex 0.1739745176294798 0.7215561315977838 -0.6701414896641094
    vertex -0.09738517292101892 0.6143167669779216 -0.7830268436681703
    vertex -0.09649402759961119 0.8271140815198144 -0.5536887201210074
  endloop
endfacet
facet normal -0.00774967 0.908411 -0.418006
  outer loop
    vertex -0.09649402759961119 0.8271140815198144 -0.5536887201210074
    vertex -0.09933786750481562 0.957868738120737 -0.2694799966798699
    vertex 0.172986342490581 0.8954130775877713 -0.4102574140664948
  endloop
endfacet
facet normal -0.32382 -0.276951 0.904676
  outer loop
    vertex -0.1587909685296326 -0.2269691626539387 0.9608696204572144
    vertex -0.4510095322574815 -0.1500839197621499 0.8798097628701993
    vertex -0.3456309907405604 -0.4401854167585889 0.8287195044843376
  endloop
endfacet
facet normal -0.204746 -0.552488 0.807983
  outer loop
    vertex -0.3456309907405604 -0.4401854167585889 0.8287195044843376
    vertex -0.2177147929545573 -0.6899241418357557 0.6903658069755123
    vertex -0.04078294352823754 -0.5000378079804714 0.8650427400465586
  endloop
endfacet
facet normal 0.700602 -0.646605 0.30176
  outer loop
    vertex 0.8095060499362805 -0.5008035450071964 0.3064241577042925
    vertex 0.5890535921777957 -0.6761323624627626 0.4425617402950218
    vertex 0.6692746057126154 -0.7292052968929534 0.1425872965291184
  endloop
endfacet
facet normal 0.0114639 -0.991529 -0.129381
  outer loop
    vertex -0.1218289319262456 -0.9631105566685917 -0.2399495092289745
    vertex 0.1846026924680796 -0.9713367090602713 -0.1497559466782458
    vertex -0.02459465811404384 -0.9988056103275327 0.04221913749116845
  endloop
endfacet
facet normal 0.344105 0.854253 -0.389671
  outer loop
    vertex 0.172986342490581 0.8954130775877713 -0.4102574140664948
    vertex 0.3994766390471272 0.8887252301900078 -0.2249130500422972
    vertex 0.4342905637249772 0.7491311053130928 -0.5001942555765965
  endloop
endfacet
facet normal 0.0848283 0.828315 -0.553803
  outer loop
    vertex 0.1739745176294798 0.7215561315977838 -0.6701414896641094
    vertex -0.09649402759961119 0.8271140815198144 -0.5536887201210074
    vertex 0.172986342490581 0.8954130775877713 -0.4102574140664948
  endloop
endfacet
facet normal -0.184861 -0.395592 0.899629
  outer loop
    vertex -0.1587909685296326 -0.2269691626539387 0.9608696204572144
    vertex -0.3456309907405604 -0.4401854167585889 0.8287195044843376
    vertex -0.04078294352823754 -0.5000378079804714 0.8650427400465586
  endloop
endfacet
facet normal 0.78989 -0.594083 0.152115
  outer loop
    vertex 0.8095060499362805 -0.5008035450071964 0.3064241577042925
    vertex 0.6692746057126154 -0.7292052968929534 0.1425872965291184
    vertex 0.852583363144894 -0.5225860288129365 -0.00233481863673884
  endloop
endfacet
facet normal -0.0615023 0.130933 -0.989482
  outer loop
    vertex -0.1564274088846163 0.302184293722956 -0.9403271337023107
    vertex 0.1174872124459976 0.2217891460545683 -0.967990872686336
    vertex -0.1974936008145907 -0.01797331388490176 -0.9801393970376264
  endloop
endfacet
facet normal 0.576546 -0.34879 -0.738877
  outer loop
    vertex 0.4557230592119721 -0.2804055822079268 -0.8448012800470386
    vertex 0.6960448696791585 -0.2371008564340707 -0.6777202396797322
    vertex 0.5334972857945512 -0.5064666913889904 -0.6774010160631116
  endloop
endfacet
facet normal 0.264653 0.801991 -0.535509
  outer loop
    vertex 0.1739745176294798 0.7215561315977838 -0.6701414896641094
    vertex 0.172986342490581 0.8954130775877713 -0.4102574140664948
    vertex 0.4342905637249772 0.7491311053130928 -0.5001942555765965
  endloop
endfacet
facet normal -0.0168988 -0.337576 0.941147
  outer loop
    vertex 0.1506325540503649 -0.2698172279019947 0.9510565162951921
    vertex -0.1587909685296326 -0.2269691626539387 0.9608696204572144
    vertex -0.04078294352823754 -0.5000378079804714 0.8650427400465586
  endloop
endfacet
facet normal 0.88536 -0.438498 0.154459
  outer loop
    vertex 0.9503583486325037 -0.269666382128176 0.1552386921305421
    vertex 0.8095060499362805 -0.5008035450071964 0.3064241577042925
    vertex 0.852583363144894 -0.5225860288129365 -0.00233481863673884
  endloop
endfacet
facet normal 0.890498 -0.430943 -0.145953
  outer loop
    vertex 0.852583363144894 -0.5225860288129365 -0.00233481863673884
    vertex 0.8168856169729821 -0.4993851513833302 -0.2886388043221472
    vertex 0.9509980539041696 -0.26748511456887 -0.1550948579243064
  endloop
endfacet
facet normal 0.983552 -0.180621 0.000757895
  outer loop
    vertex 1 -2.449293598294706e-16 -2.449293598294706e-16
    vertex 0.9503583486325037 -0.269666382128176 0.1552386921305421
    vertex 0.9509980539041696 -0.26748511456887 -0.1550948579243064
  endloop
endfacet
facet normal 0.113295 0.782231 0.612601
  outer loop
    vertex -0.04258719683122064 0.7270629128164411 0.6852487515296405
    vertex 0.2662911212245138 0.7001973556647143 0.6624293938806858
    vertex 0.1126205564410104 0.8802690066429831 0.4609154870588456
  endloop
endfacet
facet normal 0.347985 0.681653 -0.643627
  outer loop
    vertex 0.4211760878804098 0.5402091203289076 -0.7285497987860687
    vertex 0.1739745176294798 0.7215561315977838 -0.6701414896641094
    vertex 0.4342905637249772 0.7491311053130928 -0.5001942555765965
  endloop
endfacet
facet normal 0.0581028 -0.956862 -0.284675
  outer loop
    vertex 0.1025899543426217 -0.8868147624476246 -0.4505939173723298
    vertex 0.1846026924680796 -0.9713367090602713 -0.1497559466782458
    vertex -0.1218289319262456 -0.9631105566685917 -0.2399495092289745
  endloop
endfacet
facet normal 0.138407 -0.44554 0.884499
  outer loop
    vertex 0.1506325540503649 -0.2698172279019947 0.9510565162951921
    vertex -0.04078294352823754 -0.5000378079804714 0.8650427400465586
    vertex 0.2638453370238925 -0.5509677607510044 0.7917197513917236
  endloop
endfacet
facet normal 0.932856 -0.360249 -0.000609171
  outer loop
    vertex 0.9503583486325037 -0.269666382128176 0.1552386921305421
    vertex 0.852583363144894 -0.5225860288129365 -0.00233481863673884
    vertex 0.9509980539041696 -0.26748511456887 -0.1550948579243064
  endloop
endfacet
facet normal 0.983858 0.0879784 0.155828
  outer loop
    vertex 1 -2.449293598294706e-16 -2.449293598294706e-16
    vertex 0.9529387214958008 0.2647834144647352 0.1476398878973596
    vertex 0.9510565162951536 -2.329416636978185e-16 0.3090169943749472
  endloop
endfacet
facet normal 0.938784 0.174401 0.297102
  outer loop
    vertex 0.9510565162951536 -2.329416636978185e-16 0.3090169943749472
    vertex 0.9529387214958008 0.2647834144647352 0.1476398878973596
    vertex 0.8648834737502075 0.2759037868561467 0.4193491114002891
  endloop
endfacet
facet normal 0.155841 -0.0870025 -0.983943
  outer loop
    vertex 0.3090169943749472 -7.568733460868295e-17 -0.9510565162951536
    vertex 0.1396663028336856 -0.2630486925403432 -0.95461966730504
    vertex 6.123233995736766e-17 -1.499759782661858e-32 -1
  endloop
endfacet
facet normal 0.452269 -0.0870025 0.887628
  outer loop
    vertex 0.3090169943749477 -7.568733460868307e-17 0.9510565162951535
    vertex 0.4278242477509794 -0.2630486925031206 0.8647379940818533
    vertex 0.5877852522924734 -1.439658655611994e-16 0.8090169943749472
  endloop
endfacet
facet normal 0.801773 0.184647 0.568388
  outer loop
    vertex 0.8648834737502075 0.2759037868561467 0.4193491114002891
    vertex 0.6808812905078324 0.2698172279020885 0.6808812905078397
    vertex 0.8090169943749476 -1.981520145234184e-16 0.5877852522924729
  endloop
endfacet
facet normal 0.892006 0.359225 0.274378
  outer loop
    vertex 0.9529387214958008 0.2647834144647352 0.1476398878973596
    vertex 0.832320148137211 0.5084244202144457 0.220788994142498
    vertex 0.8648834737502075 0.2759037868561467 0.4193491114002891
  endloop
endfacet
facet normal 0.0907752 -0.984172 0.152203
  outer loop
    vertex -0.02459465811404384 -0.9988056103275327 0.04221913749116845
    vertex 0.236068047429839 -0.9678287907661047 0.08705922551276733
    vertex 0.1139530268318324 -0.9452742723017686 0.3057306948937664
  endloop
endfacet
facet normal 0.890578 -0.343077 -0.298613
  outer loop
    vertex 0.8168856169729821 -0.4993851513833302 -0.2886388043221472
    vertex 0.8661092531030125 -0.2422987088950956 -0.4372025815993217
    vertex 0.9509980539041696 -0.26748511456887 -0.1550948579243064
  endloop
endfacet
facet normal -0.697875 0.707254 -0.112971
  outer loop
    vertex -0.6940677384537383 0.7177055830940001 0.05629094450632831
    vertex -0.5716706622656619 0.80135146469234 -0.1761490389987435
    vertex -0.7740615080683967 0.5954009426464659 -0.2152359152710795
  endloop
endfacet
facet normal 0.491229 0.811811 0.315685
  outer loop
    vertex 0.4584956572932652 0.75007089598523 0.4766291884044985
    vertex 0.6316441510257458 0.7364241821191347 0.2422913338630342
    vertex 0.3614773657017701 0.9013269637635222 0.2386290394695063
  endloop
endfacet
facet normal 0.744567 0.642436 -0.181375
  outer loop
    vertex 0.8191868774837212 0.5145087655850809 -0.2534040052852104
    vertex 0.6323358448619669 0.7272148569586818 -0.2670391939795849
    vertex 0.7564984234436742 0.6537610027337104 -0.01751247075226208
  endloop
endfacet
facet normal -0.155127 0.467832 -0.870097
  outer loop
    vertex -0.1564274088846163 0.302184293722956 -0.9403271337023107
    vertex -0.3270286120240827 0.4743115088779296 -0.8173621470704059
    vertex -0.09738517292101892 0.6143167669779216 -0.7830268436681703
  endloop
endfacet
facet normal 0.330892 0.565303 0.755608
  outer loop
    vertex 0.490602140627777 0.5356517506918747 0.6873039659365955
    vertex 0.2662911212245138 0.7001973556647143 0.6624293938806858
    vertex 0.1842730793993998 0.5131522717845968 0.8382828747928529
  endloop
endfacet
facet normal 0.516575 0.616757 -0.593937
  outer loop
    vertex 0.4211760878804098 0.5402091203289076 -0.7285497987860687
    vertex 0.4342905637249772 0.7491311053130928 -0.5001942555765965
    vertex 0.6630374949904815 0.5433039574977478 -0.5149777568051194
  endloop
endfacet
facet normal 0.712507 0.602888 -0.35897
  outer loop
    vertex 0.6630374949904815 0.5433039574977478 -0.5149777568051194
    vertex 0.6323358448619669 0.7272148569586818 -0.2670391939795849
    vertex 0.8191868774837212 0.5145087655850809 -0.2534040052852104
  endloop
endfacet
facet normal -0.645175 -0.500388 0.577374
  outer loop
    vertex -0.7550496302922407 -0.5112339455450076 0.4105361235239051
    vertex -0.4840018260608622 -0.6058963699684708 0.6313729652343223
    vertex -0.6178945356347441 -0.3485674389121161 0.7047744911409409
  endloop
endfacet
facet normal -0.652474 -0.446774 -0.612103
  outer loop
    vertex -0.586906704135277 -0.3381728348074117 -0.7356491381354194
    vertex -0.583389644552942 -0.5975596603597558 -0.5500717907138352
    vertex -0.7703517280523094 -0.415396306777861 -0.4837397269215481
  endloop
endfacet
facet normal -0.180118 0.721408 -0.668677
  outer loop
    vertex -0.09649402759961119 0.8271140815198144 -0.5536887201210074
    vertex -0.09738517292101892 0.6143167669779216 -0.7830268436681703
    vertex -0.3495385719338127 0.6720822134961276 -0.6527850220651638
  endloop
endfacet
facet normal -0.408938 0.018902 0.912366
  outer loop
    vertex -0.2488070049529986 0.07262422975425314 0.9658264831422464
    vertex -0.5007874048457137 0.1574647935982509 0.85112679074563
    vertex -0.4510095322574815 -0.1500839197621499 0.8798097628701993
  endloop
endfacet
facet normal -0.644636 0.118902 0.755187
  outer loop
    vertex -0.6964608362196082 -0.04593781395436929 0.716122909046609
    vertex -0.5007874048457137 0.1574647935982509 0.85112679074563
    vertex -0.6974136861889446 0.262996355750038 0.666668633714342
  endloop
endfacet
facet normal 0.107765 -0.596408 -0.795415
  outer loop
    vertex 0.03514175063508495 -0.7120882946141532 -0.7012098958484603
    vertex -0.02377662515185475 -0.5157431217726366 -0.856413278995955
    vertex 0.2533321381291593 -0.5194986426167724 -0.816053912502256
  endloop
endfacet
facet normal 0.259055 0.597537 -0.758841
  outer loop
    vertex 0.4211760878804098 0.5402091203289076 -0.7285497987860687
    vertex 0.1447229480018513 0.5037247431484604 -0.8516552421383144
    vertex 0.1739745176294798 0.7215561315977838 -0.6701414896641094
  endloop
endfacet
facet normal 0.984321 0.176368 -0.00254594
  outer loop
    vertex 0.9541280028686342 0.253720184329125 -0.1589522639219286
    vertex 0.9529387214958008 0.2647834144647352 0.1476398878973596
    vertex 1 -2.449293598294706e-16 -2.449293598294706e-16
  endloop
endfacet
facet normal -0.190678 -0.977378 0.0915115
  outer loop
    vertex -0.02459465811404384 -0.9988056103275327 0.04221913749116845
    vertex -0.2088672003503079 -0.9423199890743119 0.2615483335997634
    vertex -0.3305212877992896 -0.9437693985665505 -0.007416241691776725
  endloop
endfacet
facet normal -0.703868 -0.566235 -0.428892
  outer loop
    vertex -0.583389644552942 -0.5975596603597558 -0.5500717907138352
    vertex -0.6636138481414587 -0.6825133701441212 -0.3062550573123628
    vertex -0.7703517280523094 -0.415396306777861 -0.4837397269215481
  endloop
endfacet
facet normal -0.792191 0.597505 0.124183
  outer loop
    vertex -0.880691292009071 0.4704142175811193 0.05561755187831041
    vertex -0.7413013194110225 0.6074606259191361 0.2854188882982496
    vertex -0.6940677384537383 0.7177055830940001 0.05629094450632831
  endloop
endfacet
facet normal 0.580675 0.470508 -0.664408
  outer loop
    vertex 0.4211760878804098 0.5402091203289076 -0.7285497987860687
    vertex 0.6630374949904815 0.5433039574977478 -0.5149777568051194
    vertex 0.6212581076243342 0.2996097381118902 -0.7240665498001932
  endloop
endfacet
facet normal -0.260337 0.964453 0.0453377
  outer loop
    vertex -0.3410410815251558 0.9350375081412572 -0.09693213647258836
    vertex -0.3233588473930813 0.9261219098086758 0.1942608143320438
    vertex -0.09729691730941342 0.99466771692823 0.03419711658704067
  endloop
endfacet
facet normal 0.890241 0.359203 -0.280081
  outer loop
    vertex 0.8539081250314586 0.2881095793316712 -0.4333979514286912
    vertex 0.8191868774837212 0.5145087655850809 -0.2534040052852104
    vertex 0.9541280028686342 0.253720184329125 -0.1589522639219286
  endloop
endfacet
facet normal 0.984498 0.0803074 -0.155929
  outer loop
    vertex 0.9510565162951535 -2.329416636978185e-16 -0.3090169943749477
    vertex 0.9541280028686342 0.253720184329125 -0.1589522639219286
    vertex 1 -2.449293598294706e-16 -2.449293598294706e-16
  endloop
endfacet
facet normal -0.776665 -0.5332 -0.335395
  outer loop
    vertex -0.7703517280523094 -0.415396306777861 -0.4837397269215481
    vertex -0.6636138481414587 -0.6825133701441212 -0.3062550573123628
    vertex -0.8707444767183674 -0.4527632833458307 -0.1918579305589412
  endloop
endfacet
facet normal 0.00703762 -0.174673 0.984601
  outer loop
    vertex 6.123233995736766e-17 -1.499759782661858e-32 1
    vertex -0.1587909685296326 -0.2269691626539387 0.9608696204572144
    vertex 0.1506325540503649 -0.2698172279019947 0.9510565162951921
  endloop
endfacet
facet normal 0.283053 -0.384087 0.878839
  outer loop
    vertex 0.1506325540503649 -0.2698172279019947 0.9510565162951921
    vertex 0.2638453370238925 -0.5509677607510044 0.7917197513917236
    vertex 0.4278242477509794 -0.2630486925031206 0.8647379940818533
  endloop
endfacet
facet normal -0.351535 -0.921704 0.163968
  outer loop
    vertex -0.3305212877992896 -0.9437693985665505 -0.007416241691776725
    vertex -0.2088672003503079 -0.9423199890743119 0.2615483335997634
    vertex -0.4935889320777637 -0.8405174140750914 0.2233840700830163
  endloop
endfacet
facet normal 0.296652 -0.174137 0.938975
  outer loop
    vertex 0.1506325540503649 -0.2698172279019947 0.9510565162951921
    vertex 0.4278242477509794 -0.2630486925031206 0.8647379940818533
    vertex 0.3090169943749477 -7.568733460868307e-17 0.9510565162951535
  endloop
endfacet
facet normal 0.748801 0.644465 0.154799
  outer loop
    vertex 0.832320148137211 0.5084244202144457 0.220788994142498
    vertex 0.7564984234436742 0.6537610027337104 -0.01751247075226208
    vertex 0.6316441510257458 0.7364241821191347 0.2422913338630342
  endloop
endfacet
facet normal 0.785636 -0.601053 -0.146664
  outer loop
    vertex 0.852583363144894 -0.5225860288129365 -0.00233481863673884
    vertex 0.6642710186457712 -0.7292579741071549 -0.164093939523791
    vertex 0.8168856169729821 -0.4993851513833302 -0.2886388043221472
  endloop
endfacet
facet normal 0.939046 -0.171624 -0.29789
  outer loop
    vertex 0.9509980539041696 -0.26748511456887 -0.1550948579243064
    vertex 0.8661092531030125 -0.2422987088950956 -0.4372025815993217
    vertex 0.9510565162951535 -2.329416636978185e-16 -0.3090169943749477
  endloop
endfacet
facet normal 0.743789 -0.668307 -0.0120203
  outer loop
    vertex 0.6692746057126154 -0.7292052968929534 0.1425872965291184
    vertex 0.6642710186457712 -0.7292579741071549 -0.164093939523791
    vertex 0.852583363144894 -0.5225860288129365 -0.00233481863673884
  endloop
endfacet
facet normal 0.931463 0.176802 -0.31799
  outer loop
    vertex 0.8539081250314586 0.2881095793316712 -0.4333979514286912
    vertex 0.9541280028686342 0.253720184329125 -0.1589522639219286
    vertex 0.9510565162951535 -2.329416636978185e-16 -0.3090169943749477
  endloop
endfacet
facet normal -0.0244161 0.992461 -0.1201
  outer loop
    vertex -0.09729691730941342 0.99466771692823 0.03419711658704067
    vertex 0.1455982778304166 0.9833877819908466 -0.1083956259446839
    vertex -0.09933786750481562 0.957868738120737 -0.2694799966798699
  endloop
endfacet
facet normal 0.888445 -0.0757664 0.452686
  outer loop
    vertex 0.8090169943749476 -1.981520145234184e-16 0.5877852522924729
    vertex 0.8527104539816098 -0.2459350607989368 0.4608696426759959
    vertex 0.9510565162951536 -2.329416636978185e-16 0.3090169943749472
  endloop
endfacet
facet normal -0.135844 0.330111 0.934116
  outer loop
    vertex -0.1576459552978101 0.4976031734679104 0.852958870364161
    vertex -0.3149439645523642 0.2826720997432859 0.9060390627444056
    vertex 0.01218432910432368 0.2226556722048743 0.9748210060104743
  endloop
endfacet
facet normal 0.60286 -0.797788 -0.00969879
  outer loop
    vertex 0.4510904091995698 -0.8919852412503512 -0.02966095277831711
    vertex 0.6642710186457712 -0.7292579741071549 -0.164093939523791
    vertex 0.6692746057126154 -0.7292052968929534 0.1425872965291184
  endloop
endfacet
facet normal 0.306678 -0.95036 -0.0525706
  outer loop
    vertex 0.4510904091995698 -0.8919852412503512 -0.02966095277831711
    vertex 0.236068047429839 -0.9678287907661047 0.08705922551276733
    vertex 0.1846026924680796 -0.9713367090602713 -0.1497559466782458
  endloop
endfacet
facet normal 0.58306 -0.17331 -0.793728
  outer loop
    vertex 0.5877852522924729 -1.439658655611993e-16 -0.8090169943749476
    vertex 0.6960448696791585 -0.2371008564340707 -0.6777202396797322
    vertex 0.4557230592119721 -0.2804055822079268 -0.8448012800470386
  endloop
endfacet
facet normal -0.701057 -0.634056 0.32633
  outer loop
    vertex -0.7042295029117271 -0.6874913836595252 0.1772467337431444
    vertex -0.580334658141303 -0.7160395204000539 0.3879421216950766
    vertex -0.7550496302922407 -0.5112339455450076 0.4105361235239051
  endloop
endfacet
facet normal 0.0791669 0.958952 -0.272294
  outer loop
    vertex -0.09933786750481562 0.957868738120737 -0.2694799966798699
    vertex 0.1455982778304166 0.9833877819908466 -0.1083956259446839
    vertex 0.172986342490581 0.8954130775877713 -0.4102574140664948
  endloop
endfacet
facet normal -0.354017 0.862943 0.360557
  outer loop
    vertex -0.1999425342265953 0.8680280270329278 0.4544780823014125
    vertex -0.3233588473930813 0.9261219098086758 0.1942608143320438
    vertex -0.5163762322759494 0.7894226499539434 0.3319148482369966
  endloop
endfacet
facet normal 0.451096 0.11274 0.885326
  outer loop
    vertex 0.5877852522924734 -1.439658655611994e-16 0.8090169943749472
    vertex 0.4591859126961744 0.2991870813999084 0.8364421007486327
    vertex 0.3090169943749477 -7.568733460868307e-17 0.9510565162951535
  endloop
endfacet
facet normal 0.234659 -0.917305 -0.321693
  outer loop
    vertex 0.4112686118186692 -0.8564624839927475 -0.3119777915905516
    vertex 0.1846026924680796 -0.9713367090602713 -0.1497559466782458
    vertex 0.1025899543426217 -0.8868147624476246 -0.4505939173723298
  endloop
endfacet
facet normal 0.266912 0.157907 -0.950696
  outer loop
    vertex 0.3090169943749472 -7.568733460868295e-17 -0.9510565162951536
    vertex 0.1174872124459976 0.2217891460545683 -0.967990872686336
    vertex 0.3569270192488652 0.280553875011349 -0.8910065241883678
  endloop
endfacet
facet normal 0.494089 -0.652677 -0.574359
  outer loop
    vertex 0.5334972857945512 -0.5064666913889904 -0.6774010160631116
    vertex 0.6134454888566395 -0.6587663452917503 -0.4355588760574042
    vertex 0.3299386131026945 -0.7304111183526599 -0.5980301913538204
  endloop
endfacet
facet normal 0.541998 0.824215 -0.164034
  outer loop
    vertex 0.3994766390471272 0.8887252301900078 -0.2249130500422972
    vertex 0.5533451438142504 0.8329458310949337 0.003224015936175839
    vertex 0.6323358448619669 0.7272148569586818 -0.2670391939795849
  endloop
endfacet
facet normal 0.0978024 -0.579665 0.808964
  outer loop
    vertex -0.04078294352823754 -0.5000378079804714 0.8650427400465586
    vertex 0.06559221590464186 -0.7079770878812783 0.7031828384196129
    vertex 0.2638453370238925 -0.5509677607510044 0.7917197513917236
  endloop
endfacet
facet normal 0.234242 0.938851 -0.252366
  outer loop
    vertex 0.172986342490581 0.8954130775877713 -0.4102574140664948
    vertex 0.1455982778304166 0.9833877819908466 -0.1083956259446839
    vertex 0.3994766390471272 0.8887252301900078 -0.2249130500422972
  endloop
endfacet
facet normal 0.586857 0.683395 -0.434246
  outer loop
    vertex 0.4342905637249772 0.7491311053130928 -0.5001942555765965
    vertex 0.6323358448619669 0.7272148569586818 -0.2670391939795849
    vertex 0.6630374949904815 0.5433039574977478 -0.5149777568051194
  endloop
endfacet
facet normal -0.426164 0.873859 -0.233998
  outer loop
    vertex -0.3639363569384502 0.8447805196974201 -0.3922960637555848
    vertex -0.5716706622656619 0.80135146469234 -0.1761490389987435
    vertex -0.3410410815251558 0.9350375081412572 -0.09693213647258836
  endloop
endfacet
facet normal -0.651587 0.697099 -0.299145
  outer loop
    vertex -0.7740615080683967 0.5954009426464659 -0.2152359152710795
    vertex -0.5716706622656619 0.80135146469234 -0.1761490389987435
    vertex -0.5990849630739861 0.6516981376954805 -0.4651738861360162
  endloop
endfacet
facet normal 0.759898 0.357438 0.542948
  outer loop
    vertex 0.8648834737502075 0.2759037868561467 0.4193491114002891
    vertex 0.6995631570233685 0.5202020855244907 0.4898991524298325
    vertex 0.6808812905078324 0.2698172279020885 0.6808812905078397
  endloop
endfacet
facet normal -0.898936 -0.0901736 0.428699
  outer loop
    vertex -0.8706410101588626 0.07513712279218804 0.4861467311502433
    vertex -0.9605329656756549 -0.09210767682153262 0.2624739943706255
    vertex -0.830376268688759 -0.2345294314589901 0.5054415873056517
  endloop
endfacet
facet normal -0.464727 0.375083 -0.802086
  outer loop
    vertex -0.5678849965945657 0.4501507571832795 -0.6891087914474102
    vertex -0.3270286120240827 0.4743115088779296 -0.8173621470704059
    vertex -0.4721536226082722 0.213363126983617 -0.8553052862584554
  endloop
endfacet
facet normal -0.461389 0.862172 0.209236
  outer loop
    vertex -0.3233588473930813 0.9261219098086758 0.1942608143320438
    vertex -0.5055099356865277 0.8605256948475378 0.0628906465968103
    vertex -0.5163762322759494 0.7894226499539434 0.3319148482369966
  endloop
endfacet
facet normal -0.436997 -0.643479 -0.628465
  outer loop
    vertex -0.2901763100549222 -0.6326965664569602 -0.7179782474953423
    vertex -0.4137752211773498 -0.7589741627137143 -0.5027407748260048
    vertex -0.583389644552942 -0.5975596603597558 -0.5500717907138352
  endloop
endfacet
facet normal -0.49167 -0.465703 0.735786
  outer loop
    vertex -0.6178945356347441 -0.3485674389121161 0.7047744911409409
    vertex -0.4840018260608622 -0.6058963699684708 0.6313729652343223
    vertex -0.3456309907405604 -0.4401854167585889 0.8287195044843376
  endloop
endfacet
facet normal -0.852138 0.465377 0.239342
  outer loop
    vertex -0.8352709848378799 0.3757287925014158 0.4014352455544807
    vertex -0.7413013194110225 0.6074606259191361 0.2854188882982496
    vertex -0.880691292009071 0.4704142175811193 0.05561755187831041
  endloop
endfacet
facet normal -0.622317 0.662873 0.416318
  outer loop
    vertex -0.5163762322759494 0.7894226499539434 0.3319148482369966
    vertex -0.7413013194110225 0.6074606259191361 0.2854188882982496
    vertex -0.620658154716303 0.5474289297627005 0.5613421611130042
  endloop
endfacet
facet normal -0.0752779 -0.636199 0.767844
  outer loop
    vertex -0.2177147929545573 -0.6899241418357557 0.6903658069755123
    vertex 0.06559221590464186 -0.7079770878812783 0.7031828384196129
    vertex -0.04078294352823754 -0.5000378079804714 0.8650427400465586
  endloop
endfacet
facet normal 0.727158 -0.552053 -0.408019
  outer loop
    vertex 0.6134454888566395 -0.6587663452917503 -0.4355588760574042
    vertex 0.7383552949632731 -0.4356623338363689 -0.51481044013884
    vertex 0.8168856169729821 -0.4993851513833302 -0.2886388043221472
  endloop
endfacet
facet normal 0.812891 0.439847 0.381764
  outer loop
    vertex 0.832320148137211 0.5084244202144457 0.220788994142498
    vertex 0.6995631570233685 0.5202020855244907 0.4898991524298325
    vertex 0.8648834737502075 0.2759037868561467 0.4193491114002891
  endloop
endfacet
facet normal -0.828054 -0.369917 0.421294
  outer loop
    vertex -0.830376268688759 -0.2345294314589901 0.5054415873056517
    vertex -0.9018498761012305 -0.3216259688771641 0.2884848992928759
    vertex -0.7550496302922407 -0.5112339455450076 0.4105361235239051
  endloop
endfacet
facet normal 0.286589 -0.843981 -0.45339
  outer loop
    vertex 0.3299386131026945 -0.7304111183526599 -0.5980301913538204
    vertex 0.4112686118186692 -0.8564624839927475 -0.3119777915905516
    vertex 0.1025899543426217 -0.8868147624476246 -0.4505939173723298
  endloop
endfacet
facet normal -0.327903 0.312019 -0.891697
  outer loop
    vertex -0.4721536226082722 0.213363126983617 -0.8553052862584554
    vertex -0.3270286120240827 0.4743115088779296 -0.8173621470704059
    vertex -0.1564274088846163 0.302184293722956 -0.9403271337023107
  endloop
endfacet
facet normal -0.948468 -0.0198962 -0.316247
  outer loop
    vertex -0.921551667581872 -0.1872138454071742 -0.3401374723033755
    vertex -0.9885900041457016 -0.01405603458860648 -0.1499741030806503
    vertex -0.9134703685690765 0.1330860880326306 -0.3845256544347159
  endloop
endfacet
facet normal -0.526904 0.774127 -0.350856
  outer loop
    vertex -0.5990849630739861 0.6516981376954805 -0.4651738861360162
    vertex -0.5716706622656619 0.80135146469234 -0.1761490389987435
    vertex -0.3639363569384502 0.8447805196974201 -0.3922960637555848
  endloop
endfacet
facet normal 0.212206 0.92164 0.324881
  outer loop
    vertex 0.3614773657017701 0.9013269637635222 0.2386290394695063
    vertex 0.1230077261175963 0.9748590704237372 0.1857926051487127
    vertex 0.1126205564410104 0.8802690066429831 0.4609154870588456
  endloop
endfacet
facet normal 0.888693 -0.0720107 -0.452812
  outer loop
    vertex 0.9510565162951535 -2.329416636978185e-16 -0.3090169943749477
    vertex 0.8661092531030125 -0.2422987088950956 -0.4372025815993217
    vertex 0.8090169943749473 -1.981520145234183e-16 -0.5877852522924734
  endloop
endfacet
facet normal -0.941752 0.0648433 0.329997
  outer loop
    vertex -0.9603502133315699 0.1850401651302911 0.2085368193930336
    vertex -0.9605329656756549 -0.09210767682153262 0.2624739943706255
    vertex -0.8706410101588626 0.07513712279218804 0.4861467311502433
  endloop
endfacet
facet normal 0.0705843 0.632951 -0.770968
  outer loop
    vertex 0.1447229480018513 0.5037247431484604 -0.8516552421383144
    vertex -0.09738517292101892 0.6143167669779216 -0.7830268436681703
    vertex 0.1739745176294798 0.7215561315977838 -0.6701414896641094
  endloop
endfacet
facet normal 0.785708 -0.167686 0.595436
  outer loop
    vertex 0.6808812905082128 -0.2698172279030871 0.6808812905070636
    vertex 0.8527104539816098 -0.2459350607989368 0.4608696426759959
    vertex 0.8090169943749476 -1.981520145234184e-16 0.5877852522924729
  endloop
endfacet
facet normal -0.435806 0.545889 -0.715596
  outer loop
    vertex -0.3495385719338127 0.6720822134961276 -0.6527850220651638
    vertex -0.3270286120240827 0.4743115088779296 -0.8173621470704059
    vertex -0.5678849965945657 0.4501507571832795 -0.6891087914474102
  endloop
endfacet
facet normal -0.566878 0.290931 0.77072
  outer loop
    vertex -0.6974136861889446 0.262996355750038 0.666668633714342
    vertex -0.5007874048457137 0.1574647935982509 0.85112679074563
    vertex -0.4527489007974952 0.4145062462453632 0.7894320772873611
  endloop
endfacet
facet normal 0.124543 -0.428375 -0.894977
  outer loop
    vertex 0.2533321381291593 -0.5194986426167724 -0.816053912502256
    vertex -0.02377662515185475 -0.5157431217726366 -0.856413278995955
    vertex 0.1396663028336856 -0.2630486925403432 -0.95461966730504
  endloop
endfacet
facet normal 0.492586 0.799717 -0.343238
  outer loop
    vertex 0.3994766390471272 0.8887252301900078 -0.2249130500422972
    vertex 0.6323358448619669 0.7272148569586818 -0.2670391939795849
    vertex 0.4342905637249772 0.7491311053130928 -0.5001942555765965
  endloop
endfacet
facet normal -0.871163 0.290828 -0.395593
  outer loop
    vertex -0.9134703685690765 0.1330860880326306 -0.3845256544347159
    vertex -0.8894561909060145 0.3773405785354876 -0.257840594650003
    vertex -0.7813379463048546 0.3978764662980961 -0.4808381549235169
  endloop
endfacet
facet normal -0.982838 -0.137493 0.122983
  outer loop
    vertex -0.9605329656756549 -0.09210767682153262 0.2624739943706255
    vertex -0.9981698767065044 -0.003862278655073669 0.06034881970107187
    vertex -0.9733262581579614 -0.2293237295066958 0.006828049894474405
  endloop
endfacet
facet normal 0.119927 -0.992718 -0.0113579
  outer loop
    vertex 0.1846026924680796 -0.9713367090602713 -0.1497559466782458
    vertex 0.236068047429839 -0.9678287907661047 0.08705922551276733
    vertex -0.02459465811404384 -0.9988056103275327 0.04221913749116845
  endloop
endfacet
facet normal 0.511492 0.841825 0.172357
  outer loop
    vertex 0.6316441510257458 0.7364241821191347 0.2422913338630342
    vertex 0.5533451438142504 0.8329458310949337 0.003224015936175839
    vertex 0.3614773657017701 0.9013269637635222 0.2386290394695063
  endloop
endfacet
facet normal 0.705444 -0.0685422 -0.705444
  outer loop
    vertex 0.8090169943749473 -1.981520145234183e-16 -0.5877852522924734
    vertex 0.6960448696791585 -0.2371008564340707 -0.6777202396797322
    vertex 0.5877852522924729 -1.439658655611993e-16 -0.8090169943749476
  endloop
endfacet
facet normal -0.346895 -0.584177 0.733758
  outer loop
    vertex -0.3456309907405604 -0.4401854167585889 0.8287195044843376
    vertex -0.4840018260608622 -0.6058963699684708 0.6313729652343223
    vertex -0.2177147929545573 -0.6899241418357557 0.6903658069755123
  endloop
endfacet
facet normal -0.737456 0.516764 0.434872
  outer loop
    vertex -0.620658154716303 0.5474289297627005 0.5613421611130042
    vertex -0.7413013194110225 0.6074606259191361 0.2854188882982496
    vertex -0.8352709848378799 0.3757287925014158 0.4014352455544807
  endloop
endfacet
facet normal 0.627994 -0.547909 -0.552647
  outer loop
    vertex 0.5334972857945512 -0.5064666913889904 -0.6774010160631116
    vertex 0.7383552949632731 -0.4356623338363689 -0.51481044013884
    vertex 0.6134454888566395 -0.6587663452917503 -0.4355588760574042
  endloop
endfacet
facet normal -0.356712 -0.877985 0.319216
  outer loop
    vertex -0.2088672003503079 -0.9423199890743119 0.2615483335997634
    vertex -0.3620162585990726 -0.8031635511456069 0.4731517078285858
    vertex -0.4935889320777637 -0.8405174140750914 0.2233840700830163
  endloop
endfacet
facet normal 0.651095 -0.393669 -0.648922
  outer loop
    vertex 0.6960448696791585 -0.2371008564340707 -0.6777202396797322
    vertex 0.7383552949632731 -0.4356623338363689 -0.51481044013884
    vertex 0.5334972857945512 -0.5064666913889904 -0.6774010160631116
  endloop
endfacet
facet normal 0.421109 0.66698 0.614658
  outer loop
    vertex 0.4584956572932652 0.75007089598523 0.4766291884044985
    vertex 0.2662911212245138 0.7001973556647143 0.6624293938806858
    vertex 0.490602140627777 0.5356517506918747 0.6873039659365955
  endloop
endfacet
facet normal -0.6001 -0.791845 0.113408
  outer loop
    vertex -0.4935889320777637 -0.8405174140750914 0.2233840700830163
    vertex -0.7042295029117271 -0.6874913836595252 0.1772467337431444
    vertex -0.5937830902325303 -0.8032682027276441 -0.04671012995707847
  endloop
endfacet
facet normal -0.304467 0.432426 0.84871
  outer loop
    vertex -0.4527489007974952 0.4145062462453632 0.7894320772873611
    vertex -0.3149439645523642 0.2826720997432859 0.9060390627444056
    vertex -0.1576459552978101 0.4976031734679104 0.852958870364161
  endloop
endfacet
facet normal 0.903535 0.407697 0.13194
  outer loop
    vertex 0.9529387214958008 0.2647834144647352 0.1476398878973596
    vertex 0.8910226969869487 0.4537897006624157 -0.01238793876395299
    vertex 0.832320148137211 0.5084244202144457 0.220788994142498
  endloop
endfacet
facet normal -0.986512 0.154009 0.0554486
  outer loop
    vertex -0.9723941669173718 0.2153358051085961 -0.08988923841763963
    vertex -0.9981698767065044 -0.003862278655073669 0.06034881970107187
    vertex -0.9603502133315699 0.1850401651302911 0.2085368193930336
  endloop
endfacet
facet normal -0.153687 -0.0624929 0.986141
  outer loop
    vertex 6.123233995736766e-17 -1.499759782661858e-32 1
    vertex -0.2488070049529986 0.07262422975425314 0.9658264831422464
    vertex -0.1587909685296326 -0.2269691626539387 0.9608696204572144
  endloop
endfacet
facet normal 0.385529 -0.915455 0.11537
  outer loop
    vertex 0.4171453449538718 -0.8690047478710571 0.266121230571474
    vertex 0.236068047429839 -0.9678287907661047 0.08705922551276733
    vertex 0.4510904091995698 -0.8919852412503512 -0.02966095277831711
  endloop
endfacet
facet normal 0.266499 -0.932184 0.244972
  outer loop
    vertex 0.1139530268318324 -0.9452742723017686 0.3057306948937664
    vertex 0.236068047429839 -0.9678287907661047 0.08705922551276733
    vertex 0.4171453449538718 -0.8690047478710571 0.266121230571474
  endloop
endfacet
facet normal -0.296664 -0.739525 -0.604229
  outer loop
    vertex -0.195661994850799 -0.8283824467224509 -0.5248798964840736
    vertex -0.4137752211773498 -0.7589741627137143 -0.5027407748260048
    vertex -0.2901763100549222 -0.6326965664569602 -0.7179782474953423
  endloop
endfacet
facet normal -0.0441453 0.907249 0.418271
  outer loop
    vertex 0.1126205564410104 0.8802690066429831 0.4609154870588456
    vertex -0.08776978722607069 0.9593415982169948 0.2682539140082629
    vertex -0.1999425342265953 0.8680280270329278 0.4544780823014125
  endloop
endfacet
facet normal -0.224144 -0.880822 0.417028
  outer loop
    vertex -0.2088672003503079 -0.9423199890743119 0.2615483335997634
    vertex -0.08359698476323346 -0.8584135210752629 0.5061005542119715
    vertex -0.3620162585990726 -0.8031635511456069 0.4731517078285858
  endloop
endfacet
facet normal 0.803488 -0.165982 -0.571714
  outer loop
    vertex 0.8090169943749473 -1.981520145234183e-16 -0.5877852522924734
    vertex 0.8661092531030125 -0.2422987088950956 -0.4372025815993217
    vertex 0.6960448696791585 -0.2371008564340707 -0.6777202396797322
  endloop
endfacet
facet normal -0.0776545 -0.763267 0.641399
  outer loop
    vertex -0.2177147929545573 -0.6899241418357557 0.6903658069755123
    vertex -0.08359698476323346 -0.8584135210752629 0.5061005542119715
    vertex 0.06559221590464186 -0.7079770878812783 0.7031828384196129
  endloop
endfacet
facet normal 0.709308 -0.572027 0.411907
  outer loop
    vertex 0.8095060499362805 -0.5008035450071964 0.3064241577042925
    vertex 0.7099975785291497 -0.4623801206273911 0.5311384589081675
    vertex 0.5890535921777957 -0.6761323624627626 0.4425617402950218
  endloop
endfacet
facet normal -0.602826 0.797289 -0.0305204
  outer loop
    vertex -0.6940677384537383 0.7177055830940001 0.05629094450632831
    vertex -0.5055099356865277 0.8605256948475378 0.0628906465968103
    vertex -0.5716706622656619 0.80135146469234 -0.1761490389987435
  endloop
endfacet
facet normal 0.826323 0.557864 0.077317
  outer loop
    vertex 0.832320148137211 0.5084244202144457 0.220788994142498
    vertex 0.8910226969869487 0.4537897006624157 -0.01238793876395299
    vertex 0.7564984234436742 0.6537610027337104 -0.01751247075226208
  endloop
endfacet
facet normal -0.967283 -0.190571 -0.167468
  outer loop
    vertex -0.9733262581579614 -0.2293237295066958 0.006828049894474405
    vertex -0.9885900041457016 -0.01405603458860648 -0.1499741030806503
    vertex -0.921551667581872 -0.1872138454071742 -0.3401374723033755
  endloop
endfacet
facet normal 0.636187 -0.411377 0.652714
  outer loop
    vertex 0.5295235226596147 -0.5164631709340242 0.6729566345753086
    vertex 0.7099975785291497 -0.4623801206273911 0.5311384589081675
    vertex 0.6808812905082128 -0.2698172279030871 0.6808812905070636
  endloop
endfacet
facet normal 0.542677 -0.357443 0.76009
  outer loop
    vertex 0.4278242477509794 -0.2630486925031206 0.8647379940818533
    vertex 0.5295235226596147 -0.5164631709340242 0.6729566345753086
    vertex 0.6808812905082128 -0.2698172279030871 0.6808812905070636
  endloop
endfacet
facet normal 0.812272 -0.396772 0.427535
  outer loop
    vertex 0.8527104539816098 -0.2459350607989368 0.4608696426759959
    vertex 0.7099975785291497 -0.4623801206273911 0.5311384589081675
    vertex 0.8095060499362805 -0.5008035450071964 0.3064241577042925
  endloop
endfacet
facet normal -0.253479 0.601553 -0.75755
  outer loop
    vertex -0.09738517292101892 0.6143167669779216 -0.7830268436681703
    vertex -0.3270286120240827 0.4743115088779296 -0.8173621470704059
    vertex -0.3495385719338127 0.6720822134961276 -0.6527850220651638
  endloop
endfacet
facet normal -0.477919 0.874362 -0.0841711
  outer loop
    vertex -0.5716706622656619 0.80135146469234 -0.1761490389987435
    vertex -0.5055099356865277 0.8605256948475378 0.0628906465968103
    vertex -0.3410410815251558 0.9350375081412572 -0.09693213647258836
  endloop
endfacet
facet normal 0.899081 0.405126 -0.165911
  outer loop
    vertex 0.8191868774837212 0.5145087655850809 -0.2534040052852104
    vertex 0.8910226969869487 0.4537897006624157 -0.01238793876395299
    vertex 0.9541280028686342 0.253720184329125 -0.1589522639219286
  endloop
endfacet
facet normal -0.624048 -0.589005 0.513457
  outer loop
    vertex -0.7550496302922407 -0.5112339455450076 0.4105361235239051
    vertex -0.580334658141303 -0.7160395204000539 0.3879421216950766
    vertex -0.4840018260608622 -0.6058963699684708 0.6313729652343223
  endloop
endfacet
facet normal -0.358285 -0.708866 0.607569
  outer loop
    vertex -0.4840018260608622 -0.6058963699684708 0.6313729652343223
    vertex -0.3620162585990726 -0.8031635511456069 0.4731517078285858
    vertex -0.2177147929545573 -0.6899241418357557 0.6903658069755123
  endloop
endfacet
facet normal 0.663949 0.743201 0.0826064
  outer loop
    vertex 0.7564984234436742 0.6537610027337104 -0.01751247075226208
    vertex 0.5533451438142504 0.8329458310949337 0.003224015936175839
    vertex 0.6316441510257458 0.7364241821191347 0.2422913338630342
  endloop
endfacet
facet normal 0.457684 -0.758274 -0.464268
  outer loop
    vertex 0.6134454888566395 -0.6587663452917503 -0.4355588760574042
    vertex 0.4112686118186692 -0.8564624839927475 -0.3119777915905516
    vertex 0.3299386131026945 -0.7304111183526599 -0.5980301913538204
  endloop
endfacet
facet normal 0.264421 0.95485 0.135434
  outer loop
    vertex 0.3614773657017701 0.9013269637635222 0.2386290394695063
    vertex 0.3437731746302133 0.9390233740736451 0.007423432360566436
    vertex 0.1230077261175963 0.9748590704237372 0.1857926051487127
  endloop
endfacet
facet normal -0.161257 0.22288 0.961416
  outer loop
    vertex 0.01218432910432368 0.2226556722048743 0.9748210060104743
    vertex -0.3149439645523642 0.2826720997432859 0.9060390627444056
    vertex -0.2488070049529986 0.07262422975425314 0.9658264831422464
  endloop
endfacet
facet normal -0.675833 -0.720881 -0.153561
  outer loop
    vertex -0.5937830902325303 -0.8032682027276441 -0.04671012995707847
    vertex -0.7674351030977614 -0.6388044991748539 -0.05451765188718585
    vertex -0.6636138481414587 -0.6825133701441212 -0.3062550573123628
  endloop
endfacet
facet normal -0.858843 -0.510245 -0.0451443
  outer loop
    vertex -0.8707444767183674 -0.4527632833458307 -0.1918579305589412
    vertex -0.7674351030977614 -0.6388044991748539 -0.05451765188718585
    vertex -0.869120088654961 -0.4822071471751607 0.1100297173930104
  endloop
endfacet
facet normal -0.224454 -0.794995 0.563563
  outer loop
    vertex -0.3620162585990726 -0.8031635511456069 0.4731517078285858
    vertex -0.08359698476323346 -0.8584135210752629 0.5061005542119715
    vertex -0.2177147929545573 -0.6899241418357557 0.6903658069755123
  endloop
endfacet
facet normal 0.952104 0.305685 -0.00733725
  outer loop
    vertex 0.9541280028686342 0.253720184329125 -0.1589522639219286
    vertex 0.8910226969869487 0.4537897006624157 -0.01238793876395299
    vertex 0.9529387214958008 0.2647834144647352 0.1476398878973596
  endloop
endfacet
facet normal 0.826236 0.553084 -0.106925
  outer loop
    vertex 0.7564984234436742 0.6537610027337104 -0.01751247075226208
    vertex 0.8910226969869487 0.4537897006624157 -0.01238793876395299
    vertex 0.8191868774837212 0.5145087655850809 -0.2534040052852104
  endloop
endfacet
facet normal 0.778248 -0.290801 -0.556565
  outer loop
    vertex 0.6960448696791585 -0.2371008564340707 -0.6777202396797322
    vertex 0.8661092531030125 -0.2422987088950956 -0.4372025815993217
    vertex 0.7383552949632731 -0.4356623338363689 -0.51481044013884
  endloop
endfacet
facet normal -0.800857 0.490835 -0.343087
  outer loop
    vertex -0.7813379463048546 0.3978764662980961 -0.4808381549235169
    vertex -0.8894561909060145 0.3773405785354876 -0.257840594650003
    vertex -0.7740615080683967 0.5954009426464659 -0.2152359152710795
  endloop
endfacet
facet normal 0.450622 0.885919 0.109937
  outer loop
    vertex 0.5533451438142504 0.8329458310949337 0.003224015936175839
    vertex 0.3437731746302133 0.9390233740736451 0.007423432360566436
    vertex 0.3614773657017701 0.9013269637635222 0.2386290394695063
  endloop
endfacet
facet normal 0.156157 0.0595723 -0.985934
  outer loop
    vertex 6.123233995736766e-17 -1.499759782661858e-32 -1
    vertex 0.1174872124459976 0.2217891460545683 -0.967990872686336
    vertex 0.3090169943749472 -7.568733460868295e-17 -0.9510565162951536
  endloop
endfacet
facet normal -0.313872 -0.853943 -0.41505
  outer loop
    vertex -0.408742496521345 -0.8677393107262823 -0.2827685628880533
    vertex -0.4137752211773498 -0.7589741627137143 -0.5027407748260048
    vertex -0.195661994850799 -0.8283824467224509 -0.5248798964840736
  endloop
endfacet
facet normal -0.604292 -0.755538 0.252969
  outer loop
    vertex -0.4935889320777637 -0.8405174140750914 0.2233840700830163
    vertex -0.580334658141303 -0.7160395204000539 0.3879421216950766
    vertex -0.7042295029117271 -0.6874913836595252 0.1772467337431444
  endloop
endfacet
facet normal -0.776332 -0.591628 -0.217451
  outer loop
    vertex -0.6636138481414587 -0.6825133701441212 -0.3062550573123628
    vertex -0.7674351030977614 -0.6388044991748539 -0.05451765188718585
    vertex -0.8707444767183674 -0.4527632833458307 -0.1918579305589412
  endloop
endfacet
facet normal 0.830746 -0.389098 -0.398075
  outer loop
    vertex 0.7383552949632731 -0.4356623338363689 -0.51481044013884
    vertex 0.8661092531030125 -0.2422987088950956 -0.4372025815993217
    vertex 0.8168856169729821 -0.4993851513833302 -0.2886388043221472
  endloop
endfacet
facet normal -0.995309 0.083203 -0.0493673
  outer loop
    vertex -0.9885900041457016 -0.01405603458860648 -0.1499741030806503
    vertex -0.9981698767065044 -0.003862278655073669 0.06034881970107187
    vertex -0.9723941669173718 0.2153358051085961 -0.08988923841763963
  endloop
endfacet
facet normal -0.101458 0.117269 0.987904
  outer loop
    vertex 6.123233995736766e-17 -1.499759782661858e-32 1
    vertex 0.01218432910432368 0.2226556722048743 0.9748210060104743
    vertex -0.2488070049529986 0.07262422975425314 0.9658264831422464
  endloop
endfacet
facet normal -0.18523 0.97055 0.154024
  outer loop
    vertex -0.3233588473930813 0.9261219098086758 0.1942608143320438
    vertex -0.08776978722607069 0.9593415982169948 0.2682539140082629
    vertex -0.09729691730941342 0.99466771692823 0.03419711658704067
  endloop
endfacet
facet normal 0.0583006 0.943382 0.326545
  outer loop
    vertex 0.1230077261175963 0.9748590704237372 0.1857926051487127
    vertex -0.08776978722607069 0.9593415982169948 0.2682539140082629
    vertex 0.1126205564410104 0.8802690066429831 0.4609154870588456
  endloop
endfacet
facet normal 0.413669 -0.438011 0.798138
  outer loop
    vertex 0.2638453370238925 -0.5509677607510044 0.7917197513917236
    vertex 0.5295235226596147 -0.5164631709340242 0.6729566345753086
    vertex 0.4278242477509794 -0.2630486925031206 0.8647379940818533
  endloop
endfacet
facet normal 0.763014 -0.32094 0.561077
  outer loop
    vertex 0.6808812905082128 -0.2698172279030871 0.6808812905070636
    vertex 0.7099975785291497 -0.4623801206273911 0.5311384589081675
    vertex 0.8527104539816098 -0.2459350607989368 0.4608696426759959
  endloop
endfacet
facet normal -0.483272 -0.70984 0.512421
  outer loop
    vertex -0.4840018260608622 -0.6058963699684708 0.6313729652343223
    vertex -0.580334658141303 -0.7160395204000539 0.3879421216950766
    vertex -0.3620162585990726 -0.8031635511456069 0.4731517078285858
  endloop
endfacet
facet normal -0.464518 -0.80669 0.365343
  outer loop
    vertex -0.3620162585990726 -0.8031635511456069 0.4731517078285858
    vertex -0.580334658141303 -0.7160395204000539 0.3879421216950766
    vertex -0.4935889320777637 -0.8405174140750914 0.2233840700830163
  endloop
endfacet
facet normal -0.907438 -0.189512 0.375023
  outer loop
    vertex -0.9605329656756549 -0.09210767682153262 0.2624739943706255
    vertex -0.9018498761012305 -0.3216259688771641 0.2884848992928759
    vertex -0.830376268688759 -0.2345294314589901 0.5054415873056517
  endloop
endfacet
facet normal -0.444011 0.286734 0.848904
  outer loop
    vertex -0.5007874048457137 0.1574647935982509 0.85112679074563
    vertex -0.3149439645523642 0.2826720997432859 0.9060390627444056
    vertex -0.4527489007974952 0.4145062462453632 0.7894320772873611
  endloop
endfacet
facet normal 0.291066 0.947094 -0.135251
  outer loop
    vertex 0.1455982778304166 0.9833877819908466 -0.1083956259446839
    vertex 0.3437731746302133 0.9390233740736451 0.007423432360566436
    vertex 0.3994766390471272 0.8887252301900078 -0.2249130500422972
  endloop
endfacet
facet normal -0.370675 0.927367 0.0509023
  outer loop
    vertex -0.3410410815251558 0.9350375081412572 -0.09693213647258836
    vertex -0.5055099356865277 0.8605256948475378 0.0628906465968103
    vertex -0.3233588473930813 0.9261219098086758 0.1942608143320438
  endloop
endfacet
facet normal -0.228592 0.921448 0.314132
  outer loop
    vertex -0.1999425342265953 0.8680280270329278 0.4544780823014125
    vertex -0.08776978722607069 0.9593415982169948 0.2682539140082629
    vertex -0.3233588473930813 0.9261219098086758 0.1942608143320438
  endloop
endfacet
facet normal -0.979092 0.039481 0.19955
  outer loop
    vertex -0.9603502133315699 0.1850401651302911 0.2085368193930336
    vertex -0.9981698767065044 -0.003862278655073669 0.06034881970107187
    vertex -0.9605329656756549 -0.09210767682153262 0.2624739943706255
  endloop
endfacet
facet normal -0.790508 -0.606058 0.0882683
  outer loop
    vertex -0.869120088654961 -0.4822071471751607 0.1100297173930104
    vertex -0.7674351030977614 -0.6388044991748539 -0.05451765188718585
    vertex -0.7042295029117271 -0.6874913836595252 0.1772467337431444
  endloop
endfacet
facet normal -0.688045 -0.724805 0.0353798
  outer loop
    vertex -0.7042295029117271 -0.6874913836595252 0.1772467337431444
    vertex -0.7674351030977614 -0.6388044991748539 -0.05451765188718585
    vertex -0.5937830902325303 -0.8032682027276441 -0.04671012995707847
  endloop
endfacet
facet normal -0.369019 0.145112 0.918024
  outer loop
    vertex -0.2488070049529986 0.07262422975425314 0.9658264831422464
    vertex -0.3149439645523642 0.2826720997432859 0.9060390627444056
    vertex -0.5007874048457137 0.1574647935982509 0.85112679074563
  endloop
endfacet
facet normal 0.448614 0.88967 -0.0850465
  outer loop
    vertex 0.3994766390471272 0.8887252301900078 -0.2249130500422972
    vertex 0.3437731746302133 0.9390233740736451 0.007423432360566436
    vertex 0.5533451438142504 0.8329458310949337 0.003224015936175839
  endloop
endfacet
facet normal -0.0141811 0.988616 0.149789
  outer loop
    vertex -0.09729691730941342 0.99466771692823 0.03419711658704067
    vertex -0.08776978722607069 0.9593415982169948 0.2682539140082629
    vertex 0.1230077261175963 0.9748590704237372 0.1857926051487127
  endloop
endfacet
facet normal -0.994171 -0.0999483 -0.0404387
  outer loop
    vertex -0.9733262581579614 -0.2293237295066958 0.006828049894474405
    vertex -0.9981698767065044 -0.003862278655073669 0.06034881970107187
    vertex -0.9885900041457016 -0.01405603458860648 -0.1499741030806503
  endloop
endfacet
facet normal -0.0860942 -0.219634 -0.971776
  outer loop
    vertex -0.2874458362075484 -0.3106353328996858 -0.9060246029778908
    vertex -0.1974936008145907 -0.01797331388490176 -0.9801393970376264
    vertex 0.1396663028336856 -0.2630486925403432 -0.95461966730504
  endloop
endfacet
endsolid Created by Gmsh
