solid Created by Gmsh
facet normal -0.106707 0.217272 0.970261
  outer loop
    vertex 3.061616997868383e-17 -7.498798913309288e-33 0.5
    vertex 0.06582827951838 0.1332414531873846 0.4774027155014559
    vertex -0.1701627066542102 0.0814903220205789 0.4630377745725456
  endloop
endfacet
facet normal -0.255269 -0.584784 -0.769977
  outer loop
    vertex -0.0332186062140784 -0.2747267498828856 -0.4164393558490604
    vertex -0.1885956425145465 -0.3368565656731553 -0.3177409916699648
    vertex -0.1962361787049928 -0.2205271179431197 -0.4035581152931552
  endloop
endfacet
facet normal -0.200257 -0.655677 -0.728001
  outer loop
    vertex -0.06041648066245146 -0.3947764065916521 -0.3008345685970051
    vertex -0.1885956425145465 -0.3368565656731553 -0.3177409916699648
    vertex -0.0332186062140784 -0.2747267498828856 -0.4164393558490604
  endloop
endfacet
facet normal 0.711594 0.665727 0.22459
  outer loop
    vertex 0.2886011025462853 0.3905850612732832 0.1189651777589314
    vertex 0.3790911031904031 0.2748260956971346 0.1753868655451502
    vertex 0.3793229844195128 0.3246282261728389 0.02702939627424638
  endloop
endfacet
facet normal -0.222604 -0.0227503 0.974643
  outer loop
    vertex -0.1701627066542102 0.0814903220205789 0.4630377745725456
    vertex -0.09687126438870088 -0.12236468714402 0.4750187801296708
    vertex 3.061616997868383e-17 -7.498798913309288e-33 0.5
  endloop
endfacet
facet normal -0.830372 0.457187 -0.318533
  outer loop
    vertex -0.4195260832104634 0.1576895471118649 -0.2216571050919467
    vertex -0.4365032703857942 0.2343727050133605 -0.06733743451622219
    vertex -0.3633234388496651 0.3074165382187005 -0.1532682315813813
  endloop
endfacet
facet normal 0.65237 0.676507 0.341691
  outer loop
    vertex 0.2805909641415518 0.3372481389832401 0.2398591328143576
    vertex 0.3790911031904031 0.2748260956971346 0.1753868655451502
    vertex 0.2886011025462853 0.3905850612732832 0.1189651777589314
  endloop
endfacet
facet normal -0.269383 -0.0403005 0.96219
  outer loop
    vertex -0.2251709220916496 -0.06657944589647857 0.4414354236222034
    vertex -0.09687126438870088 -0.12236468714402 0.4750187801296708
    vertex -0.1701627066542102 0.0814903220205789 0.4630377745725456
  endloop
endfacet
facet normal 0.857712 -0.42711 0.286194
  outer loop
    vertex 0.3886354716267867 -0.2176999735542293 0.22708851073516
    vertex 0.3936720444946429 -0.2903200807608118 0.1036174314024606
    vertex 0.4691171175989615 -0.1442989718626748 0.09543027137662922
  endloop
endfacet
facet normal 0.10221 -0.624835 -0.774038
  outer loop
    vertex 0.1330027011838447 -0.2633153769033511 -0.4037019863266059
    vertex 0.07242317321829655 -0.3781296653267157 -0.3190185577374749
    vertex -0.0332186062140784 -0.2747267498828856 -0.4164393558490604
  endloop
endfacet
facet normal 0.12365 -0.96867 0.215382
  outer loop
    vertex 0.05397997714866068 -0.4580573937986576 0.193053324378037
    vertex -0.005297910338769455 -0.497493193513992 0.04972378257224781
    vertex 0.1388198398853275 -0.4762639630243082 0.0624635059742281
  endloop
endfacet
facet normal -0.0120408 -0.692179 -0.721625
  outer loop
    vertex -0.0332186062140784 -0.2747267498828856 -0.4164393558490604
    vertex 0.07242317321829655 -0.3781296653267157 -0.3190185577374749
    vertex -0.06041648066245146 -0.3947764065916521 -0.3008345685970051
  endloop
endfacet
facet normal -0.876879 0.385039 -0.287798
  outer loop
    vertex -0.4732132024054627 0.1223790465211654 -0.1053215744362809
    vertex -0.4365032703857942 0.2343727050133605 -0.06733743451622219
    vertex -0.4195260832104634 0.1576895471118649 -0.2216571050919467
  endloop
endfacet
facet normal 0.416344 0.650238 -0.635491
  outer loop
    vertex 0.1537164626705822 0.2883126412628028 -0.3784799466181926
    vertex 0.1581441040297109 0.3861216137762531 -0.2755005294649396
    vertex 0.2830919267916435 0.3104767581194129 -0.2710408523692588
  endloop
endfacet
facet normal 0.874041 -0.345309 0.34178
  outer loop
    vertex 0.4691171175989615 -0.1442989718626748 0.09543027137662922
    vertex 0.4361494024033818 -0.1025128188992611 0.2219567992752198
    vertex 0.3886354716267867 -0.2176999735542293 0.22708851073516
  endloop
endfacet
facet normal 0.742146 0.424678 0.518525
  outer loop
    vertex 0.4289802390399462 0.1349086139507819 0.2185763491211013
    vertex 0.3790911031904031 0.2748260956971346 0.1753868655451502
    vertex 0.2971089375228125 0.2265264300310939 0.3322830957804405
  endloop
endfacet
facet normal 0.00524878 -0.964711 0.26326
  outer loop
    vertex 0.05397997714866068 -0.4580573937986576 0.193053324378037
    vertex -0.07931461723109903 -0.4719091298459994 0.1449515942012227
    vertex -0.005297910338769455 -0.497493193513992 0.04972378257224781
  endloop
endfacet
facet normal 0.668899 0.461474 -0.582765
  outer loop
    vertex 0.2830919267916435 0.3104767581194129 -0.2710408523692588
    vertex 0.3831306575087815 0.2443395173925777 -0.2085883494283681
    vertex 0.34388663879131 0.1437581401101839 -0.3332800276237324
  endloop
endfacet
facet normal -0.776982 0.478499 -0.409069
  outer loop
    vertex -0.3633234388496651 0.3074165382187005 -0.1532682315813813
    vertex -0.3339894922475474 0.2521716008912942 -0.2736064742877026
    vertex -0.4195260832104634 0.1576895471118649 -0.2216571050919467
  endloop
endfacet
facet normal 0.740653 0.370115 0.560756
  outer loop
    vertex 0.4289802390399462 0.1349086139507819 0.2185763491211013
    vertex 0.2971089375228125 0.2265264300310939 0.3322830957804405
    vertex 0.3442052215379941 0.1142170343335933 0.3442052215379935
  endloop
endfacet
facet normal 0.921909 0.385532 -0.0380631
  outer loop
    vertex 0.4521901807551496 0.2027385741140608 0.06649143549978914
    vertex 0.4832331312318336 0.1166437257560867 -0.05366546488773119
    vertex 0.4315716505508419 0.2368421293162485 -0.08747408885931561
  endloop
endfacet
facet normal 0.95567 0.292023 0.03766
  outer loop
    vertex 0.4521901807551496 0.2027385741140608 0.06649143549978914
    vertex 0.4850845592353151 0.093755773634793 0.0768298464245603
    vertex 0.4832331312318336 0.1166437257560867 -0.05366546488773119
  endloop
endfacet
facet normal -0.219207 -0.454073 -0.863578
  outer loop
    vertex -0.0332186062140784 -0.2747267498828856 -0.4164393558490604
    vertex -0.1962361787049928 -0.2205271179431197 -0.4035581152931552
    vertex -0.09883963340049372 -0.1440752766327306 -0.4684794995861165
  endloop
endfacet
facet normal 0.696024 -0.707487 0.122526
  outer loop
    vertex 0.3936720444946429 -0.2903200807608118 0.1036174314024606
    vertex 0.2792688518893907 -0.407027421409525 0.07960896045731572
    vertex 0.3559435901796082 -0.3500921343082191 -0.02719665614679514
  endloop
endfacet
facet normal 0.663977 -0.703182 0.254304
  outer loop
    vertex 0.2976852889335752 -0.3425045629796536 0.2099383078207747
    vertex 0.2792688518893907 -0.407027421409525 0.07960896045731572
    vertex 0.3936720444946429 -0.2903200807608118 0.1036174314024606
  endloop
endfacet
facet normal 0.303312 0.414778 -0.857882
  outer loop
    vertex 0.06347804213296646 0.2436456790738891 -0.4319806954431978
    vertex 0.1537164626705822 0.2883126412628028 -0.3784799466181926
    vertex 0.2226645853075735 0.1438923421850888 -0.4239286217163163
  endloop
endfacet
facet normal 0.465778 0.740825 -0.483971
  outer loop
    vertex 0.2830919267916435 0.3104767581194129 -0.2710408523692588
    vertex 0.1581441040297109 0.3861216137762531 -0.2755005294649396
    vertex 0.2169425865181329 0.4156330441870032 -0.1737385585719734
  endloop
endfacet
facet normal 0.652362 0.462142 -0.600707
  outer loop
    vertex 0.34388663879131 0.1437581401101839 -0.3332800276237324
    vertex 0.2554350995077285 0.2290811423751767 -0.363695944639971
    vertex 0.2830919267916435 0.3104767581194129 -0.2710408523692588
  endloop
endfacet
facet normal -0.286064 0.546716 0.786937
  outer loop
    vertex -0.2184472633314473 0.2222830661967427 0.3909872525098175
    vertex -0.07857685624841433 0.227220034121789 0.4384024791852905
    vertex -0.07882091653248287 0.3317376268025061 0.3657012579694258
  endloop
endfacet
facet normal -0.190758 -0.409645 0.892078
  outer loop
    vertex -0.02149679768501391 -0.2496002986904949 0.4327095776417542
    vertex -0.09687126438870088 -0.12236468714402 0.4750187801296708
    vertex -0.1790243308191943 -0.2022236366441046 0.4207800966742282
  endloop
endfacet
facet normal 0.815928 0.54771 0.185136
  outer loop
    vertex 0.3793229844195128 0.3246282261728389 0.02702939627424638
    vertex 0.3790911031904031 0.2748260956971346 0.1753868655451502
    vertex 0.4521901807551496 0.2027385741140608 0.06649143549978914
  endloop
endfacet
facet normal -0.0268104 -0.32969 0.943708
  outer loop
    vertex 0.07531627702520503 -0.1349086139510468 0.4755282581475784
    vertex -0.09687126438870088 -0.12236468714402 0.4750187801296708
    vertex -0.02149679768501391 -0.2496002986904949 0.4327095776417542
  endloop
endfacet
facet normal 0.760289 0.36744 -0.535676
  outer loop
    vertex 0.34388663879131 0.1437581401101839 -0.3332800276237324
    vertex 0.3831306575087815 0.2443395173925777 -0.2085883494283681
    vertex 0.4289802390399401 0.1349086139508837 -0.2185763491210503
  endloop
endfacet
facet normal 0.303949 -0.664149 -0.683023
  outer loop
    vertex 0.2266217760371787 -0.3431511892862694 -0.2844113779671512
    vertex 0.07242317321829655 -0.3781296653267157 -0.3190185577374749
    vertex 0.1330027011838447 -0.2633153769033511 -0.4037019863266059
  endloop
endfacet
facet normal 0.295249 0.183315 0.937669
  outer loop
    vertex 0.2185763491210323 0.1349086139510531 0.428980239039896
    vertex 0.06582827951838 0.1332414531873846 0.4774027155014559
    vertex 0.1545084971874747 -3.784366730434174e-17 0.4755282581475765
  endloop
endfacet
facet normal 0.300229 -0.779258 -0.550109
  outer loop
    vertex 0.159962411989426 -0.4313196327351009 -0.1958964041726718
    vertex 0.07242317321829655 -0.3781296653267157 -0.3190185577374749
    vertex 0.2266217760371787 -0.3431511892862694 -0.2844113779671512
  endloop
endfacet
facet normal 0.284429 0.382949 -0.878891
  outer loop
    vertex 0.2226645853075735 0.1438923421850888 -0.4239286217163163
    vertex 0.07531627702520581 0.1349086139510521 -0.4755282581475768
    vertex 0.06347804213296646 0.2436456790738891 -0.4319806954431978
  endloop
endfacet
facet normal 0.0664999 0.836641 -0.543699
  outer loop
    vertex 0.02571351787191016 0.3708067348262702 -0.3344266442826155
    vertex -0.04346640720593286 0.4274726720444274 -0.2556908017504841
    vertex 0.07396384093555339 0.4473323667628309 -0.2107678910091009
  endloop
endfacet
facet normal 0.910775 0.317052 -0.264514
  outer loop
    vertex 0.4315716505508419 0.2368421293162485 -0.08747408885931561
    vertex 0.4832331312318336 0.1166437257560867 -0.05366546488773119
    vertex 0.4289802390399401 0.1349086139508837 -0.2185763491210503
  endloop
endfacet
facet normal -0.759559 0.133346 0.636623
  outer loop
    vertex -0.3530787021761795 -0.009074131494020815 0.3539111332060831
    vertex -0.350210648457615 0.1491903233391608 0.3241832030331822
    vertex -0.4307045774495009 0.05791872635651251 0.2472629937966583
  endloop
endfacet
facet normal -0.818457 -0.0354291 0.573474
  outer loop
    vertex -0.3530787021761795 -0.009074131494020815 0.3539111332060831
    vertex -0.4307045774495009 0.05791872635651251 0.2472629937966583
    vertex -0.4205763600528385 -0.09778463595880256 0.2520985726558356
  endloop
endfacet
facet normal 0.452088 -0.0914433 0.887273
  outer loop
    vertex 0.1545084971874747 -3.784366730434174e-17 0.4755282581475765
    vertex 0.2185763491474381 -0.1349086139656465 0.4289802390218521
    vertex 0.293892626146237 -7.198293278059977e-17 0.4045084971874734
  endloop
endfacet
facet normal -0.939032 -0.335673 0.0744454
  outer loop
    vertex -0.4528509347368716 -0.1727607609069827 0.1227996351736519
    vertex -0.4921521930442174 -0.08746619494208621 0.01165691314715592
    vertex -0.4458718207173609 -0.2249442489820204 -0.02446230447240052
  endloop
endfacet
facet normal -0.809791 0.279343 0.515953
  outer loop
    vertex -0.350210648457615 0.1491903233391608 0.3241832030331822
    vertex -0.4058441999236472 0.2079531277198538 0.2050511693696597
    vertex -0.4307045774495009 0.05791872635651251 0.2472629937966583
  endloop
endfacet
facet normal -0.353513 0.431359 -0.830035
  outer loop
    vertex -0.09289209257470707 0.2491596404199893 -0.4234271279959206
    vertex -0.1934022120499357 0.1307583712128892 -0.4421513685740936
    vertex -0.2352524765222797 0.2564763891368584 -0.3589932229241286
  endloop
endfacet
facet normal -0.748216 -0.338515 0.570597
  outer loop
    vertex -0.3685187742851933 -0.2443844854537552 0.2333883807494325
    vertex -0.3143147187397618 -0.1608409126061579 0.3540288948879211
    vertex -0.4205763600528385 -0.09778463595880256 0.2520985726558356
  endloop
endfacet
facet normal 0.364485 0.930653 -0.0321667
  outer loop
    vertex 0.1544157848071458 0.4703936787947129 0.06989672633514141
    vertex 0.2616079341027068 0.4248853062989528 -0.03215222085266949
    vertex 0.1226579918351036 0.4775428708562909 -0.08311331742453515
  endloop
endfacet
facet normal -0.424621 0.661156 -0.618523
  outer loop
    vertex -0.1265106434831314 0.3621934595130576 -0.3206414741911083
    vertex -0.2352524765222797 0.2564763891368584 -0.3589932229241286
    vertex -0.2603385438889368 0.3563834941893916 -0.234977972659456
  endloop
endfacet
facet normal -0.643154 -0.463211 0.609744
  outer loop
    vertex -0.3685187742851933 -0.2443844854537552 0.2333883807494325
    vertex -0.2601540927398647 -0.2921115101858881 0.3114333213508434
    vertex -0.3143147187397618 -0.1608409126061579 0.3540288948879211
  endloop
endfacet
facet normal -0.735621 -0.187386 0.650959
  outer loop
    vertex -0.3143147187397618 -0.1608409126061579 0.3540288948879211
    vertex -0.3530787021761795 -0.009074131494020815 0.3539111332060831
    vertex -0.4205763600528385 -0.09778463595880256 0.2520985726558356
  endloop
endfacet
facet normal -0.708033 0.443606 0.549457
  outer loop
    vertex -0.350210648457615 0.1491903233391608 0.3241832030331822
    vertex -0.3019709204237086 0.2925630932387544 0.2705926822606815
    vertex -0.4058441999236472 0.2079531277198538 0.2050511693696597
  endloop
endfacet
facet normal 0.407331 0.893949 -0.186915
  outer loop
    vertex 0.2616079341027068 0.4248853062989528 -0.03215222085266949
    vertex 0.2169425865181329 0.4156330441870032 -0.1737385585719734
    vertex 0.1226579918351036 0.4775428708562909 -0.08311331742453515
  endloop
endfacet
facet normal 0.194142 0.980958 0.00553897
  outer loop
    vertex 0.1544157848071458 0.4703936787947129 0.06989672633514141
    vertex 0.1226579918351036 0.4775428708562909 -0.08311331742453515
    vertex 0.00882382131270284 0.4994845446835991 0.02091243170124334
  endloop
endfacet
facet normal 0.0988654 -0.44869 -0.888202
  outer loop
    vertex 0.1330027011838447 -0.2633153769033511 -0.4037019863266059
    vertex -0.0332186062140784 -0.2747267498828856 -0.4164393558490604
    vertex 0.0698331513994324 -0.1315243462511946 -0.4773098336602964
  endloop
endfacet
facet normal 0.280599 -0.361997 -0.888944
  outer loop
    vertex 0.2185763491207971 -0.1349086139510939 -0.428980239040003
    vertex 0.1330027011838447 -0.2633153769033511 -0.4037019863266059
    vertex 0.0698331513994324 -0.1315243462511946 -0.4773098336602964
  endloop
endfacet
facet normal -0.0222524 0.604363 -0.796398
  outer loop
    vertex 0.02571351787191016 0.3708067348262702 -0.3344266442826155
    vertex 0.06347804213296646 0.2436456790738891 -0.4319806954431978
    vertex -0.09289209257470707 0.2491596404199893 -0.4234271279959206
  endloop
endfacet
facet normal 0.283643 0.903265 -0.321961
  outer loop
    vertex 0.2169425865181329 0.4156330441870032 -0.1737385585719734
    vertex 0.07396384093555339 0.4473323667628309 -0.2107678910091009
    vertex 0.1226579918351036 0.4775428708562909 -0.08311331742453515
  endloop
endfacet
facet normal -0.604145 -0.153703 0.78191
  outer loop
    vertex -0.3143147187397618 -0.1608409126061579 0.3540288948879211
    vertex -0.2251709220916496 -0.06657944589647857 0.4414354236222034
    vertex -0.3530787021761795 -0.009074131494020815 0.3539111332060831
  endloop
endfacet
facet normal -0.717433 0.563526 0.409545
  outer loop
    vertex -0.3019709204237086 0.2925630932387544 0.2705926822606815
    vertex -0.3432791640235712 0.3363148150373804 0.138028115736073
    vertex -0.4058441999236472 0.2079531277198538 0.2050511693696597
  endloop
endfacet
facet normal -0.58955 0.449268 0.671259
  outer loop
    vertex -0.350210648457615 0.1491903233391608 0.3241832030331822
    vertex -0.2184472633314473 0.2222830661967427 0.3909872525098175
    vertex -0.3019709204237086 0.2925630932387544 0.2705926822606815
  endloop
endfacet
facet normal 0.560277 0.796087 -0.228769
  outer loop
    vertex 0.2616079341027068 0.4248853062989528 -0.03215222085266949
    vertex 0.345173889126785 0.3391662056826596 -0.1257826346834797
    vertex 0.2169425865181329 0.4156330441870032 -0.1737385585719734
  endloop
endfacet
facet normal -0.0347417 0.420892 -0.906445
  outer loop
    vertex 0.06347804213296646 0.2436456790738891 -0.4319806954431978
    vertex -0.06224719008183847 0.1362244673632892 -0.4770410693205603
    vertex -0.09289209257470707 0.2491596404199893 -0.4234271279959206
  endloop
endfacet
facet normal -0.58055 0.701955 0.412578
  outer loop
    vertex -0.3019709204237086 0.2925630932387544 0.2705926822606815
    vertex -0.2207863880449482 0.4034463596894066 0.196174426741692
    vertex -0.3432791640235712 0.3363148150373804 0.138028115736073
  endloop
endfacet
facet normal -0.0202593 -0.378729 -0.925286
  outer loop
    vertex -0.0332186062140784 -0.2747267498828856 -0.4164393558490604
    vertex -0.09883963340049372 -0.1440752766327306 -0.4684794995861165
    vertex 0.0698331513994324 -0.1315243462511946 -0.4773098336602964
  endloop
endfacet
facet normal -0.840182 -0.351098 0.41331
  outer loop
    vertex -0.3685187742851933 -0.2443844854537552 0.2333883807494325
    vertex -0.4205763600528385 -0.09778463595880256 0.2520985726558356
    vertex -0.4528509347368716 -0.1727607609069827 0.1227996351736519
  endloop
endfacet
facet normal 0.669148 0.738893 -0.0792397
  outer loop
    vertex 0.2616079341027068 0.4248853062989528 -0.03215222085266949
    vertex 0.3793229844195128 0.3246282261728389 0.02702939627424638
    vertex 0.345173889126785 0.3391662056826596 -0.1257826346834797
  endloop
endfacet
facet normal -0.556481 0.788476 0.261981
  outer loop
    vertex -0.2207863880449482 0.4034463596894066 0.196174426741692
    vertex -0.2500068876275418 0.4293555291715803 0.05612829686158313
    vertex -0.3432791640235712 0.3363148150373804 0.138028115736073
  endloop
endfacet
facet normal 0.025272 0.679402 0.733331
  outer loop
    vertex 0.05461231536356304 0.3927390010716607 0.3045875441443147
    vertex -0.07882091653248287 0.3317376268025061 0.3657012579694258
    vertex 0.05935548295327261 0.2756236749206594 0.4129267688908221
  endloop
endfacet
facet normal 0.203213 0.669321 0.714643
  outer loop
    vertex 0.05461231536356304 0.3927390010716607 0.3045875441443147
    vertex 0.05935548295327261 0.2756236749206594 0.4129267688908221
    vertex 0.1890455023796871 0.3179736799914171 0.3363845074653818
  endloop
endfacet
facet normal 0.574749 0.720526 -0.387951
  outer loop
    vertex 0.345173889126785 0.3391662056826596 -0.1257826346834797
    vertex 0.2830919267916435 0.3104767581194129 -0.2710408523692588
    vertex 0.2169425865181329 0.4156330441870032 -0.1737385585719734
  endloop
endfacet
facet normal -0.388283 0.888279 0.245351
  outer loop
    vertex -0.2207863880449482 0.4034463596894066 0.196174426741692
    vertex -0.1108663012592606 0.4727828863035856 0.1191008214226152
    vertex -0.2500068876275418 0.4293555291715803 0.05612829686158313
  endloop
endfacet
facet normal -0.796315 0.535252 0.281759
  outer loop
    vertex -0.3432791640235712 0.3363148150373804 0.138028115736073
    vertex -0.4326527699845267 0.2423070282795176 0.06402253252617623
    vertex -0.4058441999236472 0.2079531277198538 0.2050511693696597
  endloop
endfacet
facet normal -0.336673 0.936501 0.0980611
  outer loop
    vertex -0.1108663012592606 0.4727828863035856 0.1191008214226152
    vertex -0.1355925654718406 0.4800057972339098 -0.03477198312727235
    vertex -0.2500068876275418 0.4293555291715803 0.05612829686158313
  endloop
endfacet
facet normal -0.271375 0.875252 0.400362
  outer loop
    vertex -0.2207863880449482 0.4034463596894066 0.196174426741692
    vertex -0.06855742348410665 0.4211807499277216 0.2605890549803327
    vertex -0.1108663012592606 0.4727828863035856 0.1191008214226152
  endloop
endfacet
facet normal -0.0486694 0.570276 0.82001
  outer loop
    vertex -0.07882091653248287 0.3317376268025061 0.3657012579694258
    vertex -0.07857685624841433 0.227220034121789 0.4384024791852905
    vertex 0.05935548295327261 0.2756236749206594 0.4129267688908221
  endloop
endfacet
facet normal 0.286128 0.761707 0.58132
  outer loop
    vertex 0.05461231536356304 0.3927390010716607 0.3045875441443147
    vertex 0.1890455023796871 0.3179736799914171 0.3363845074653818
    vertex 0.1773057663569733 0.41537526034643 0.2145368460397931
  endloop
endfacet
facet normal 0.182857 0.865328 0.46666
  outer loop
    vertex 0.03617050959336825 0.4679834555335209 0.1722880715042719
    vertex 0.05461231536356304 0.3927390010716607 0.3045875441443147
    vertex 0.1773057663569733 0.41537526034643 0.2145368460397931
  endloop
endfacet
facet normal 0.779868 0.615148 -0.115755
  outer loop
    vertex 0.3793229844195128 0.3246282261728389 0.02702939627424638
    vertex 0.4315716505508419 0.2368421293162485 -0.08747408885931561
    vertex 0.345173889126785 0.3391662056826596 -0.1257826346834797
  endloop
endfacet
facet normal -0.160539 0.984399 0.072006
  outer loop
    vertex -0.1108663012592606 0.4727828863035856 0.1191008214226152
    vertex 0.00882382131270284 0.4994845446835991 0.02091243170124334
    vertex -0.1355925654718406 0.4800057972339098 -0.03477198312727235
  endloop
endfacet
facet normal 0.452088 -0.0914433 -0.887273
  outer loop
    vertex 0.2938926261462368 -7.198293278059974e-17 -0.4045084971874735
    vertex 0.2185763491207971 -0.1349086139510939 -0.428980239040003
    vertex 0.154508497187474 -3.784366730434158e-17 -0.4755282581475767
  endloop
endfacet
facet normal 0.418286 0.728722 0.542219
  outer loop
    vertex 0.1890455023796871 0.3179736799914171 0.3363845074653818
    vertex 0.2805909641415518 0.3372481389832401 0.2398591328143576
    vertex 0.1773057663569733 0.41537526034643 0.2145368460397931
  endloop
endfacet
facet normal -0.81592 -0.492112 0.30348
  outer loop
    vertex -0.3823782270018117 -0.308879764538757 0.09154333713292877
    vertex -0.3685187742851933 -0.2443844854537552 0.2333883807494325
    vertex -0.4528509347368716 -0.1727607609069827 0.1227996351736519
  endloop
endfacet
facet normal -0.437722 0.897677 -0.0507597
  outer loop
    vertex -0.1355925654718406 0.4800057972339098 -0.03477198312727235
    vertex -0.264841106189144 0.4136607731062067 -0.09350910792904596
    vertex -0.2500068876275418 0.4293555291715803 0.05612829686158313
  endloop
endfacet
facet normal 0.887273 -0.0914433 -0.452088
  outer loop
    vertex 0.475528258147577 -1.164708318489093e-16 -0.154508497187473
    vertex 0.4289802390398976 -0.1349086139510624 -0.2185763491210233
    vertex 0.4045084971874742 -9.907600726170927e-17 -0.293892626146236
  endloop
endfacet
facet normal 0.452088 0.0914433 0.887273
  outer loop
    vertex 0.293892626146237 -7.198293278059977e-17 0.4045084971874734
    vertex 0.2185763491210323 0.1349086139510531 0.428980239039896
    vertex 0.1545084971874747 -3.784366730434174e-17 0.4755282581475765
  endloop
endfacet
facet normal -0.367399 0.905128 -0.213918
  outer loop
    vertex -0.1355925654718406 0.4800057972339098 -0.03477198312727235
    vertex -0.1413633930997064 0.4417416290049747 -0.1867638195565973
    vertex -0.264841106189144 0.4136607731062067 -0.09350910792904596
  endloop
endfacet
facet normal 0.451533 0.103911 -0.886183
  outer loop
    vertex 0.154508497187474 -3.784366730434158e-17 -0.4755282581475767
    vertex 0.2226645853075735 0.1438923421850888 -0.4239286217163163
    vertex 0.2938926261462368 -7.198293278059974e-17 -0.4045084971874735
  endloop
endfacet
facet normal 0.155779 0.0914433 -0.98355
  outer loop
    vertex 3.061616997868383e-17 -7.498798913309288e-33 -0.5
    vertex 0.07531627702520581 0.1349086139510521 -0.4755282581475768
    vertex 0.154508497187474 -3.784366730434158e-17 -0.4755282581475767
  endloop
endfacet
facet normal -0.449566 0.822891 -0.347477
  outer loop
    vertex -0.1413633930997064 0.4417416290049747 -0.1867638195565973
    vertex -0.2603385438889368 0.3563834941893916 -0.234977972659456
    vertex -0.264841106189144 0.4136607731062067 -0.09350910792904596
  endloop
endfacet
facet normal 0.155779 -0.0914433 0.98355
  outer loop
    vertex 3.061616997868383e-17 -7.498798913309288e-33 0.5
    vertex 0.07531627702520503 -0.1349086139510468 0.4755282581475784
    vertex 0.1545084971874747 -3.784366730434174e-17 0.4755282581475765
  endloop
endfacet
facet normal 0.0231049 0.413274 0.910314
  outer loop
    vertex -0.07857685624841433 0.227220034121789 0.4384024791852905
    vertex 0.06582827951838 0.1332414531873846 0.4774027155014559
    vertex 0.05935548295327261 0.2756236749206594 0.4129267688908221
  endloop
endfacet
facet normal 0.300217 -0.180593 -0.936619
  outer loop
    vertex 0.2185763491207971 -0.1349086139510939 -0.428980239040003
    vertex 0.0698331513994324 -0.1315243462511946 -0.4773098336602964
    vertex 0.154508497187474 -3.784366730434158e-17 -0.4755282581475767
  endloop
endfacet
facet normal -0.912805 0.179873 -0.36665
  outer loop
    vertex -0.4608475416824387 0.004566914323047701 -0.1939038076439418
    vertex -0.4732132024054627 0.1223790465211654 -0.1053215744362809
    vertex -0.4195260832104634 0.1576895471118649 -0.2216571050919467
  endloop
endfacet
facet normal 0.796844 0.177819 -0.577425
  outer loop
    vertex 0.4045084971874742 -9.907600726170927e-17 -0.293892626146236
    vertex 0.34388663879131 0.1437581401101839 -0.3332800276237324
    vertex 0.4289802390399401 0.1349086139508837 -0.2185763491210503
  endloop
endfacet
facet normal -0.502028 -0.447312 0.740189
  outer loop
    vertex -0.2601540927398647 -0.2921115101858881 0.3114333213508434
    vertex -0.1790243308191943 -0.2022236366441046 0.4207800966742282
    vertex -0.3143147187397618 -0.1608409126061579 0.3540288948879211
  endloop
endfacet
facet normal 0.887273 0.0914433 -0.452088
  outer loop
    vertex 0.4045084971874742 -9.907600726170927e-17 -0.293892626146236
    vertex 0.4289802390399401 0.1349086139508837 -0.2185763491210503
    vertex 0.475528258147577 -1.164708318489093e-16 -0.154508497187473
  endloop
endfacet
facet normal -0.757591 -0.418986 -0.500507
  outer loop
    vertex -0.3978157570963938 -0.2498139259606275 -0.1712764601513037
    vertex -0.4060724721523202 -0.1241029708903863 -0.2640143935021026
    vertex -0.313804284932849 -0.2442242399279631 -0.3031194341994456
  endloop
endfacet
facet normal 0.887273 0.0914433 0.452088
  outer loop
    vertex 0.4755282581475767 -1.164708318489092e-16 0.154508497187474
    vertex 0.4289802390399462 0.1349086139507819 0.2185763491211013
    vertex 0.4045084971874738 -9.907600726170918e-17 0.2938926261462365
  endloop
endfacet
facet normal -0.846789 0.135271 -0.514442
  outer loop
    vertex -0.4608475416824387 0.004566914323047701 -0.1939038076439418
    vertex -0.4195260832104634 0.1576895471118649 -0.2216571050919467
    vertex -0.3784579474399253 0.01670210228620127 -0.3263290085156084
  endloop
endfacet
facet normal -0.104899 0.651802 -0.751099
  outer loop
    vertex -0.1265106434831314 0.3621934595130576 -0.3206414741911083
    vertex 0.02571351787191016 0.3708067348262702 -0.3344266442826155
    vertex -0.09289209257470707 0.2491596404199893 -0.4234271279959206
  endloop
endfacet
facet normal -0.698449 -0.329715 -0.635182
  outer loop
    vertex -0.4060724721523202 -0.1241029708903863 -0.2640143935021026
    vertex -0.3084475505716008 -0.1138108854146152 -0.3767057086208292
    vertex -0.313804284932849 -0.2442242399279631 -0.3031194341994456
  endloop
endfacet
facet normal -0.8683 -0.479076 0.128614
  outer loop
    vertex -0.3823782270018117 -0.308879764538757 0.09154333713292877
    vertex -0.4528509347368716 -0.1727607609069827 0.1227996351736519
    vertex -0.4458718207173609 -0.2249442489820204 -0.02446230447240052
  endloop
endfacet
facet normal -0.308173 0.588229 -0.747674
  outer loop
    vertex -0.1265106434831314 0.3621934595130576 -0.3206414741911083
    vertex -0.09289209257470707 0.2491596404199893 -0.4234271279959206
    vertex -0.2352524765222797 0.2564763891368584 -0.3589932229241286
  endloop
endfacet
facet normal 0.249363 0.917596 0.309574
  outer loop
    vertex 0.03617050959336825 0.4679834555335209 0.1722880715042719
    vertex 0.1773057663569733 0.41537526034643 0.2145368460397931
    vertex 0.1544157848071458 0.4703936787947129 0.06989672633514141
  endloop
endfacet
facet normal -0.0445392 0.976419 0.211238
  outer loop
    vertex -0.1108663012592606 0.4727828863035856 0.1191008214226152
    vertex 0.03617050959336825 0.4679834555335209 0.1722880715042719
    vertex 0.00882382131270284 0.4994845446835991 0.02091243170124334
  endloop
endfacet
facet normal -0.844138 -0.0697026 -0.531576
  outer loop
    vertex -0.4060724721523202 -0.1241029708903863 -0.2640143935021026
    vertex -0.4608475416824387 0.004566914323047701 -0.1939038076439418
    vertex -0.3784579474399253 0.01670210228620127 -0.3263290085156084
  endloop
endfacet
facet normal -0.550163 -0.39311 -0.73674
  outer loop
    vertex -0.3084475505716008 -0.1138108854146152 -0.3767057086208292
    vertex -0.1962361787049928 -0.2205271179431197 -0.4035581152931552
    vertex -0.313804284932849 -0.2442242399279631 -0.3031194341994456
  endloop
endfacet
facet normal -0.35796 0.784748 -0.505999
  outer loop
    vertex -0.1413633930997064 0.4417416290049747 -0.1867638195565973
    vertex -0.1265106434831314 0.3621934595130576 -0.3206414741911083
    vertex -0.2603385438889368 0.3563834941893916 -0.234977972659456
  endloop
endfacet
facet normal 0.134696 0.974677 0.178496
  outer loop
    vertex 0.03617050959336825 0.4679834555335209 0.1722880715042719
    vertex 0.1544157848071458 0.4703936787947129 0.06989672633514141
    vertex 0.00882382131270284 0.4994845446835991 0.02091243170124334
  endloop
endfacet
facet normal -0.802071 -0.597188 0.00690551
  outer loop
    vertex -0.3545597030564392 -0.3479563301895259 -0.05669046877180763
    vertex -0.3823782270018117 -0.308879764538757 0.09154333713292877
    vertex -0.4458718207173609 -0.2249442489820204 -0.02446230447240052
  endloop
endfacet
facet normal -0.53554 -0.636214 -0.555363
  outer loop
    vertex -0.313804284932849 -0.2442242399279631 -0.3031194341994456
    vertex -0.1885956425145465 -0.3368565656731553 -0.3177409916699648
    vertex -0.2876961321588345 -0.3575419358888179 -0.1984809805037318
  endloop
endfacet
facet normal -0.600324 0.734475 -0.316478
  outer loop
    vertex -0.2603385438889368 0.3563834941893916 -0.234977972659456
    vertex -0.3633234388496651 0.3074165382187005 -0.1532682315813813
    vertex -0.264841106189144 0.4136607731062067 -0.09350910792904596
  endloop
endfacet
facet normal -0.741296 -0.144672 -0.655401
  outer loop
    vertex -0.4060724721523202 -0.1241029708903863 -0.2640143935021026
    vertex -0.3784579474399253 0.01670210228620127 -0.3263290085156084
    vertex -0.3084475505716008 -0.1138108854146152 -0.3767057086208292
  endloop
endfacet
facet normal -0.812038 -0.5579 -0.171295
  outer loop
    vertex -0.3545597030564392 -0.3479563301895259 -0.05669046877180763
    vertex -0.4458718207173609 -0.2249442489820204 -0.02446230447240052
    vertex -0.3978157570963938 -0.2498139259606275 -0.1712764601513037
  endloop
endfacet
facet normal -0.677353 -0.577215 -0.456087
  outer loop
    vertex -0.3978157570963938 -0.2498139259606275 -0.1712764601513037
    vertex -0.313804284932849 -0.2442242399279631 -0.3031194341994456
    vertex -0.2876961321588345 -0.3575419358888179 -0.1984809805037318
  endloop
endfacet
facet normal -0.705022 -0.647775 -0.288672
  outer loop
    vertex -0.3545597030564392 -0.3479563301895259 -0.05669046877180763
    vertex -0.3978157570963938 -0.2498139259606275 -0.1712764601513037
    vertex -0.2876961321588345 -0.3575419358888179 -0.1984809805037318
  endloop
endfacet
facet normal -0.590135 -0.775057 -0.225891
  outer loop
    vertex -0.2283880537236262 -0.4380293272250601 -0.07726063297110167
    vertex -0.3545597030564392 -0.3479563301895259 -0.05669046877180763
    vertex -0.2876961321588345 -0.3575419358888179 -0.1984809805037318
  endloop
endfacet
facet normal -0.450498 -0.829426 -0.330309
  outer loop
    vertex -0.2283880537236262 -0.4380293272250601 -0.07726063297110167
    vertex -0.2876961321588345 -0.3575419358888179 -0.1984809805037318
    vertex -0.1485227141871298 -0.4276187478348564 -0.2123280713203924
  endloop
endfacet
facet normal -0.311798 -0.94688 -0.0787447
  outer loop
    vertex -0.07970614778072525 -0.486449011506387 -0.08375135348408513
    vertex -0.151188087944464 -0.4740030981835097 0.04963088731960262
    vertex -0.2283880537236262 -0.4380293272250601 -0.07726063297110167
  endloop
endfacet
facet normal -0.141349 -0.873949 -0.465009
  outer loop
    vertex -0.1485227141871298 -0.4276187478348564 -0.2123280713203924
    vertex -0.06041648066245146 -0.3947764065916521 -0.3008345685970051
    vertex 0.005827060310227179 -0.4530567815472154 -0.2114369836670484
  endloop
endfacet
facet normal -0.30952 -0.916437 -0.253655
  outer loop
    vertex -0.07970614778072525 -0.486449011506387 -0.08375135348408513
    vertex -0.2283880537236262 -0.4380293272250601 -0.07726063297110167
    vertex -0.1485227141871298 -0.4276187478348564 -0.2123280713203924
  endloop
endfacet
facet normal -0.150793 -0.926991 -0.343438
  outer loop
    vertex -0.07970614778072525 -0.486449011506387 -0.08375135348408513
    vertex -0.1485227141871298 -0.4276187478348564 -0.2123280713203924
    vertex 0.005827060310227179 -0.4530567815472154 -0.2114369836670484
  endloop
endfacet
facet normal 0.0018864 -0.96777 -0.251827
  outer loop
    vertex 0.07644736378364896 -0.488358994444373 -0.07524156508082046
    vertex -0.07970614778072525 -0.486449011506387 -0.08375135348408513
    vertex 0.005827060310227179 -0.4530567815472154 -0.2114369836670484
  endloop
endfacet
facet normal 0.296594 -0.953664 -0.0505769
  outer loop
    vertex 0.2247485648811413 -0.4433621561615854 -0.05401926570786925
    vertex 0.1388198398853275 -0.4762639630243082 0.0624635059742281
    vertex 0.07644736378364896 -0.488358994444373 -0.07524156508082046
  endloop
endfacet
facet normal 0.164186 -0.930858 -0.326415
  outer loop
    vertex 0.07644736378364896 -0.488358994444373 -0.07524156508082046
    vertex 0.005827060310227179 -0.4530567815472154 -0.2114369836670484
    vertex 0.159962411989426 -0.4313196327351009 -0.1958964041726718
  endloop
endfacet
facet normal 0.462608 -0.777479 -0.426052
  outer loop
    vertex 0.159962411989426 -0.4313196327351009 -0.1958964041726718
    vertex 0.2266217760371787 -0.3431511892862694 -0.2844113779671512
    vertex 0.2985132750176483 -0.3645766738922595 -0.1672533213179784
  endloop
endfacet
facet normal 0.311982 -0.924052 -0.220896
  outer loop
    vertex 0.2247485648811413 -0.4433621561615854 -0.05401926570786925
    vertex 0.07644736378364896 -0.488358994444373 -0.07524156508082046
    vertex 0.159962411989426 -0.4313196327351009 -0.1958964041726718
  endloop
endfacet
facet normal -0.111559 -0.753318 0.648126
  outer loop
    vertex 0.02585776689526827 -0.3598154527545551 0.3462141185021554
    vertex -0.128417332186317 -0.3362393233459021 0.34706210716533
    vertex -0.08724277706936402 -0.4201869428408209 0.2565767544328791
  endloop
endfacet
facet normal 0.463099 -0.83999 -0.282766
  outer loop
    vertex 0.2247485648811413 -0.4433621561615854 -0.05401926570786925
    vertex 0.159962411989426 -0.4313196327351009 -0.1958964041726718
    vertex 0.2985132750176483 -0.3645766738922595 -0.1672533213179784
  endloop
endfacet
facet normal 0.0186431 -0.840019 0.542237
  outer loop
    vertex 0.02585776689526827 -0.3598154527545551 0.3462141185021554
    vertex -0.08724277706936402 -0.4201869428408209 0.2565767544328791
    vertex 0.05397997714866068 -0.4580573937986576 0.193053324378037
  endloop
endfacet
facet normal 0.593552 -0.788352 -0.161855
  outer loop
    vertex 0.3559435901796082 -0.3500921343082191 -0.02719665614679514
    vertex 0.2247485648811413 -0.4433621561615854 -0.05401926570786925
    vertex 0.2985132750176483 -0.3645766738922595 -0.1672533213179784
  endloop
endfacet
facet normal 0.166894 -0.815709 0.553864
  outer loop
    vertex 0.02585776689526827 -0.3598154527545551 0.3462141185021554
    vertex 0.05397997714866068 -0.4580573937986576 0.193053324378037
    vertex 0.173758504779318 -0.3639947715233672 0.2954924505304788
  endloop
endfacet
facet normal 0.649085 -0.545828 0.529868
  outer loop
    vertex 0.2976852889335752 -0.3425045629796536 0.2099383078207747
    vertex 0.3886354716267867 -0.2176999735542293 0.22708851073516
    vertex 0.271731582908147 -0.2496002987189185 0.3374339012749897
  endloop
endfacet
facet normal 0.716185 -0.660524 -0.225361
  outer loop
    vertex 0.4076225471962073 -0.2595209948849996 -0.1284239550519131
    vertex 0.3559435901796082 -0.3500921343082191 -0.02719665614679514
    vertex 0.2985132750176483 -0.3645766738922595 -0.1672533213179784
  endloop
endfacet
facet normal 0.22456 -0.667637 0.709812
  outer loop
    vertex 0.1317580645062373 -0.2611546584734535 0.4055096260203745
    vertex 0.02585776689526827 -0.3598154527545551 0.3462141185021554
    vertex 0.173758504779318 -0.3639947715233672 0.2954924505304788
  endloop
endfacet
facet normal 0.507038 -0.644204 0.572638
  outer loop
    vertex 0.173758504779318 -0.3639947715233672 0.2954924505304788
    vertex 0.2976852889335752 -0.3425045629796536 0.2099383078207747
    vertex 0.271731582908147 -0.2496002987189185 0.3374339012749897
  endloop
endfacet
facet normal 0.710007 -0.602933 -0.363816
  outer loop
    vertex 0.4076225471962073 -0.2595209948849996 -0.1284239550519131
    vertex 0.2985132750176483 -0.3645766738922595 -0.1672533213179784
    vertex 0.3483456479836189 -0.253997261016034 -0.2532601447666517
  endloop
endfacet
facet normal 0.755924 -0.350864 -0.552697
  outer loop
    vertex 0.3483456479836189 -0.253997261016034 -0.2532601447666517
    vertex 0.3460817621023791 -0.1239418588298958 -0.3389186179157209
    vertex 0.4289802390398976 -0.1349086139510624 -0.2185763491210233
  endloop
endfacet
facet normal 0.39121 -0.593065 0.703725
  outer loop
    vertex 0.1317580645062373 -0.2611546584734535 0.4055096260203745
    vertex 0.173758504779318 -0.3639947715233672 0.2954924505304788
    vertex 0.271731582908147 -0.2496002987189185 0.3374339012749897
  endloop
endfacet
facet normal -0.326639 0.587685 0.740226
  outer loop
    vertex -0.07882091653248287 0.3317376268025061 0.3657012579694258
    vertex -0.1885510186105578 0.3512283338048301 0.3018065123777218
    vertex -0.2184472633314473 0.2222830661967427 0.3909872525098175
  endloop
endfacet
facet normal 0.858517 0.512783 -0.0013875
  outer loop
    vertex 0.3793229844195128 0.3246282261728389 0.02702939627424638
    vertex 0.4521901807551496 0.2027385741140608 0.06649143549978914
    vertex 0.4315716505508419 0.2368421293162485 -0.08747408885931561
  endloop
endfacet
facet normal 0.156797 0.811281 -0.563238
  outer loop
    vertex 0.07396384093555339 0.4473323667628309 -0.2107678910091009
    vertex 0.1581441040297109 0.3861216137762531 -0.2755005294649396
    vertex 0.02571351787191016 0.3708067348262702 -0.3344266442826155
  endloop
endfacet
facet normal 0.808096 -0.429866 -0.402735
  outer loop
    vertex 0.4076225471962073 -0.2595209948849996 -0.1284239550519131
    vertex 0.3483456479836189 -0.253997261016034 -0.2532601447666517
    vertex 0.4289802390398976 -0.1349086139510624 -0.2185763491210233
  endloop
endfacet
facet normal -0.400127 0.0835412 -0.912644
  outer loop
    vertex -0.1934022120499357 0.1307583712128892 -0.4421513685740936
    vertex -0.1274197731120945 -0.004596133265736694 -0.483469830474525
    vertex -0.2703372630276865 -0.002390652359607238 -0.420609140414227
  endloop
endfacet
facet normal 0.155802 0.0898567 0.983693
  outer loop
    vertex 0.1545084971874747 -3.784366730434174e-17 0.4755282581475765
    vertex 0.06582827951838 0.1332414531873846 0.4774027155014559
    vertex 3.061616997868383e-17 -7.498798913309288e-33 0.5
  endloop
endfacet
facet normal 0.124997 -0.437893 0.890295
  outer loop
    vertex 0.07531627702520503 -0.1349086139510468 0.4755282581475784
    vertex -0.02149679768501391 -0.2496002986904949 0.4327095776417542
    vertex 0.1317580645062373 -0.2611546584734535 0.4055096260203745
  endloop
endfacet
facet normal 0.422178 -0.437893 0.793736
  outer loop
    vertex 0.1317580645062373 -0.2611546584734535 0.4055096260203745
    vertex 0.271731582908147 -0.2496002987189185 0.3374339012749897
    vertex 0.2185763491474381 -0.1349086139656465 0.4289802390218521
  endloop
endfacet
facet normal 0.981985 -0.107306 0.155531
  outer loop
    vertex 0.4755282581475767 -1.164708318489092e-16 0.154508497187474
    vertex 0.4691171175989615 -0.1442989718626748 0.09543027137662922
    vertex 0.5 -1.224646799147353e-16 7.657137397853899e-16
  endloop
endfacet
facet normal 0.169983 -0.854887 -0.490177
  outer loop
    vertex 0.005827060310227179 -0.4530567815472154 -0.2114369836670484
    vertex 0.07242317321829655 -0.3781296653267157 -0.3190185577374749
    vertex 0.159962411989426 -0.4313196327351009 -0.1958964041726718
  endloop
endfacet
facet normal 0.862752 0.390765 -0.320877
  outer loop
    vertex 0.4289802390399401 0.1349086139508837 -0.2185763491210503
    vertex 0.3831306575087815 0.2443395173925777 -0.2085883494283681
    vertex 0.4315716505508419 0.2368421293162485 -0.08747408885931561
  endloop
endfacet
facet normal 0.681602 -0.416288 0.601767
  outer loop
    vertex 0.3886354716267867 -0.2176999735542293 0.22708851073516
    vertex 0.3525745830757647 -0.1259540316326772 0.3314011847963511
    vertex 0.271731582908147 -0.2496002987189185 0.3374339012749897
  endloop
endfacet
facet normal 0.304055 -0.178482 0.935786
  outer loop
    vertex 0.1545084971874747 -3.784366730434174e-17 0.4755282581475765
    vertex 0.07531627702520503 -0.1349086139510468 0.4755282581475784
    vertex 0.2185763491474381 -0.1349086139656465 0.4289802390218521
  endloop
endfacet
facet normal 0.314764 0.184769 -0.931012
  outer loop
    vertex 0.154508497187474 -3.784366730434158e-17 -0.4755282581475767
    vertex 0.07531627702520581 0.1349086139510521 -0.4755282581475768
    vertex 0.2226645853075735 0.1438923421850888 -0.4239286217163163
  endloop
endfacet
facet normal 0.703281 0.103881 -0.703281
  outer loop
    vertex 0.2938926261462368 -7.198293278059974e-17 -0.4045084971874735
    vertex 0.34388663879131 0.1437581401101839 -0.3332800276237324
    vertex 0.4045084971874742 -9.907600726170927e-17 -0.293892626146236
  endloop
endfacet
facet normal 0.155841 -0.0870025 -0.983943
  outer loop
    vertex 0.154508497187474 -3.784366730434158e-17 -0.4755282581475767
    vertex 0.0698331513994324 -0.1315243462511946 -0.4773098336602964
    vertex 3.061616997868383e-17 -7.498798913309288e-33 -0.5
  endloop
endfacet
facet normal 0.983992 -0.086434 -0.155849
  outer loop
    vertex 0.5 -1.224646799147353e-16 7.657137397853899e-16
    vertex 0.4766607763040919 -0.1312931054588749 -0.07454277156200488
    vertex 0.475528258147577 -1.164708318489093e-16 -0.154508497187473
  endloop
endfacet
facet normal 0.888813 -0.358687 -0.285227
  outer loop
    vertex 0.4766607763040919 -0.1312931054588749 -0.07454277156200488
    vertex 0.4076225471962073 -0.2595209948849996 -0.1284239550519131
    vertex 0.4289802390398976 -0.1349086139510624 -0.2185763491210233
  endloop
endfacet
facet normal -0.556606 0.190794 -0.808571
  outer loop
    vertex -0.1934022120499357 0.1307583712128892 -0.4421513685740936
    vertex -0.2703372630276865 -0.002390652359607238 -0.420609140414227
    vertex -0.3333509396240036 0.149349003477501 -0.3414264579848365
  endloop
endfacet
facet normal -0.962224 -0.192547 0.192486
  outer loop
    vertex -0.4528509347368716 -0.1727607609069827 0.1227996351736519
    vertex -0.4786420120187589 -0.02413378991741831 0.1425460785670939
    vertex -0.4921521930442174 -0.08746619494208621 0.01165691314715592
  endloop
endfacet
facet normal 0.935526 -0.177835 -0.30523
  outer loop
    vertex 0.475528258147577 -1.164708318489093e-16 -0.154508497187473
    vertex 0.4766607763040919 -0.1312931054588749 -0.07454277156200488
    vertex 0.4289802390398976 -0.1349086139510624 -0.2185763491210233
  endloop
endfacet
facet normal 0.981192 -0.190854 0.0289432
  outer loop
    vertex 0.4691171175989615 -0.1442989718626748 0.09543027137662922
    vertex 0.4766607763040919 -0.1312931054588749 -0.07454277156200488
    vertex 0.5 -1.224646799147353e-16 7.657137397853899e-16
  endloop
endfacet
facet normal 0.372829 0.435792 -0.819197
  outer loop
    vertex 0.1537164626705822 0.2883126412628028 -0.3784799466181926
    vertex 0.2554350995077285 0.2290811423751767 -0.363695944639971
    vertex 0.2226645853075735 0.1438923421850888 -0.4239286217163163
  endloop
endfacet
facet normal -0.325634 -0.33573 -0.883882
  outer loop
    vertex -0.1962361787049928 -0.2205271179431197 -0.4035581152931552
    vertex -0.2063563944557286 -0.108978509148306 -0.4421998677193881
    vertex -0.09883963340049372 -0.1440752766327306 -0.4684794995861165
  endloop
endfacet
facet normal 0.0981776 -0.587942 0.802923
  outer loop
    vertex 0.1317580645062373 -0.2611546584734535 0.4055096260203745
    vertex -0.02149679768501391 -0.2496002986904949 0.4327095776417542
    vertex 0.02585776689526827 -0.3598154527545551 0.3462141185021554
  endloop
endfacet
facet normal 0.287963 -0.362796 0.88626
  outer loop
    vertex 0.07531627702520503 -0.1349086139510468 0.4755282581475784
    vertex 0.1317580645062373 -0.2611546584734535 0.4055096260203745
    vertex 0.2185763491474381 -0.1349086139656465 0.4289802390218521
  endloop
endfacet
facet normal -0.517511 0.345528 -0.782811
  outer loop
    vertex -0.1934022120499357 0.1307583712128892 -0.4421513685740936
    vertex -0.3333509396240036 0.149349003477501 -0.3414264579848365
    vertex -0.2352524765222797 0.2564763891368584 -0.3589932229241286
  endloop
endfacet
facet normal -0.31217 0.345772 0.884868
  outer loop
    vertex -0.2184472633314473 0.2222830661967427 0.3909872525098175
    vertex -0.1701627066542102 0.0814903220205789 0.4630377745725456
    vertex -0.07857685624841433 0.227220034121789 0.4384024791852905
  endloop
endfacet
facet normal 0.594571 -0.6432 -0.482472
  outer loop
    vertex 0.2985132750176483 -0.3645766738922595 -0.1672533213179784
    vertex 0.2266217760371787 -0.3431511892862694 -0.2844113779671512
    vertex 0.3483456479836189 -0.253997261016034 -0.2532601447666517
  endloop
endfacet
facet normal -0.43056 -0.758407 -0.489323
  outer loop
    vertex -0.2876961321588345 -0.3575419358888179 -0.1984809805037318
    vertex -0.1885956425145465 -0.3368565656731553 -0.3177409916699648
    vertex -0.1485227141871298 -0.4276187478348564 -0.2123280713203924
  endloop
endfacet
facet normal -0.480698 -0.540791 -0.690271
  outer loop
    vertex -0.1962361787049928 -0.2205271179431197 -0.4035581152931552
    vertex -0.1885956425145465 -0.3368565656731553 -0.3177409916699648
    vertex -0.313804284932849 -0.2442242399279631 -0.3031194341994456
  endloop
endfacet
facet normal -0.102886 0.924186 0.367825
  outer loop
    vertex -0.1108663012592606 0.4727828863035856 0.1191008214226152
    vertex -0.06855742348410665 0.4211807499277216 0.2605890549803327
    vertex 0.03617050959336825 0.4679834555335209 0.1722880715042719
  endloop
endfacet
facet normal -0.493591 -0.292633 0.818984
  outer loop
    vertex -0.3143147187397618 -0.1608409126061579 0.3540288948879211
    vertex -0.1790243308191943 -0.2022236366441046 0.4207800966742282
    vertex -0.2251709220916496 -0.06657944589647857 0.4414354236222034
  endloop
endfacet
facet normal -0.253963 0.3577 -0.89864
  outer loop
    vertex -0.09289209257470707 0.2491596404199893 -0.4234271279959206
    vertex -0.06224719008183847 0.1362244673632892 -0.4770410693205603
    vertex -0.1934022120499357 0.1307583712128892 -0.4421513685740936
  endloop
endfacet
facet normal 0.939962 -0.164242 0.299158
  outer loop
    vertex 0.4755282581475767 -1.164708318489092e-16 0.154508497187474
    vertex 0.4361494024033818 -0.1025128188992611 0.2219567992752198
    vertex 0.4691171175989615 -0.1442989718626748 0.09543027137662922
  endloop
endfacet
facet normal 0.725656 -0.579738 0.370576
  outer loop
    vertex 0.2976852889335752 -0.3425045629796536 0.2099383078207747
    vertex 0.3936720444946429 -0.2903200807608118 0.1036174314024606
    vertex 0.3886354716267867 -0.2176999735542293 0.22708851073516
  endloop
endfacet
facet normal -0.950836 -0.297297 -0.0867461
  outer loop
    vertex -0.4921521930442174 -0.08746619494208621 0.01165691314715592
    vertex -0.4704795456494144 -0.1179623856466222 -0.1213831648050019
    vertex -0.4458718207173609 -0.2249442489820204 -0.02446230447240052
  endloop
endfacet
facet normal 0.628306 0.775349 0.0637565
  outer loop
    vertex 0.2616079341027068 0.4248853062989528 -0.03215222085266949
    vertex 0.2886011025462853 0.3905850612732832 0.1189651777589314
    vertex 0.3793229844195128 0.3246282261728389 0.02702939627424638
  endloop
endfacet
facet normal 0.803841 -0.172076 -0.569412
  outer loop
    vertex 0.4289802390398976 -0.1349086139510624 -0.2185763491210233
    vertex 0.3460817621023791 -0.1239418588298958 -0.3389186179157209
    vertex 0.4045084971874742 -9.907600726170927e-17 -0.293892626146236
  endloop
endfacet
facet normal -0.915105 -0.204933 0.347255
  outer loop
    vertex -0.4205763600528385 -0.09778463595880256 0.2520985726558356
    vertex -0.4786420120187589 -0.02413378991741831 0.1425460785670939
    vertex -0.4528509347368716 -0.1727607609069827 0.1227996351736519
  endloop
endfacet
facet normal 0.4772 0.871554 0.112584
  outer loop
    vertex 0.1544157848071458 0.4703936787947129 0.06989672633514141
    vertex 0.2886011025462853 0.3905850612732832 0.1189651777589314
    vertex 0.2616079341027068 0.4248853062989528 -0.03215222085266949
  endloop
endfacet
facet normal 0.787904 -0.301073 0.53718
  outer loop
    vertex 0.3886354716267867 -0.2176999735542293 0.22708851073516
    vertex 0.4361494024033818 -0.1025128188992611 0.2219567992752198
    vertex 0.3525745830757647 -0.1259540316326772 0.3314011847963511
  endloop
endfacet
facet normal 0.581534 -0.813363 -0.0161049
  outer loop
    vertex 0.3559435901796082 -0.3500921343082191 -0.02719665614679514
    vertex 0.2792688518893907 -0.407027421409525 0.07960896045731572
    vertex 0.2247485648811413 -0.4433621561615854 -0.05401926570786925
  endloop
endfacet
facet normal 0.58864 0.18518 -0.7869
  outer loop
    vertex 0.2226645853075735 0.1438923421850888 -0.4239286217163163
    vertex 0.34388663879131 0.1437581401101839 -0.3332800276237324
    vertex 0.2938926261462368 -7.198293278059974e-17 -0.4045084971874735
  endloop
endfacet
facet normal 0.446673 0.601834 -0.662027
  outer loop
    vertex 0.2830919267916435 0.3104767581194129 -0.2710408523692588
    vertex 0.2554350995077285 0.2290811423751767 -0.363695944639971
    vertex 0.1537164626705822 0.2883126412628028 -0.3784799466181926
  endloop
endfacet
facet normal -0.887045 -0.404939 -0.221758
  outer loop
    vertex -0.4458718207173609 -0.2249442489820204 -0.02446230447240052
    vertex -0.4704795456494144 -0.1179623856466222 -0.1213831648050019
    vertex -0.3978157570963938 -0.2498139259606275 -0.1712764601513037
  endloop
endfacet
facet normal -0.211363 0.949703 -0.231064
  outer loop
    vertex -0.1355925654718406 0.4800057972339098 -0.03477198312727235
    vertex -0.02076024048841432 0.48274576956036 -0.1285516798273711
    vertex -0.1413633930997064 0.4417416290049747 -0.1867638195565973
  endloop
endfacet
facet normal -0.347286 -0.255542 0.90227
  outer loop
    vertex -0.1790243308191943 -0.2022236366441046 0.4207800966742282
    vertex -0.09687126438870088 -0.12236468714402 0.4750187801296708
    vertex -0.2251709220916496 -0.06657944589647857 0.4414354236222034
  endloop
endfacet
facet normal -0.0165582 -0.1874 0.982144
  outer loop
    vertex 3.061616997868383e-17 -7.498798913309288e-33 0.5
    vertex -0.09687126438870088 -0.12236468714402 0.4750187801296708
    vertex 0.07531627702520503 -0.1349086139510468 0.4755282581475784
  endloop
endfacet
facet normal 0.673295 0.530421 0.5151
  outer loop
    vertex 0.2971089375228125 0.2265264300310939 0.3322830957804405
    vertex 0.3790911031904031 0.2748260956971346 0.1753868655451502
    vertex 0.2805909641415518 0.3372481389832401 0.2398591328143576
  endloop
endfacet
facet normal 0.40684 -0.578854 -0.706689
  outer loop
    vertex 0.2710573508747217 -0.2294295465181243 -0.3519801069964976
    vertex 0.2266217760371787 -0.3431511892862694 -0.2844113779671512
    vertex 0.1330027011838447 -0.2633153769033511 -0.4037019863266059
  endloop
endfacet
facet normal 0.143815 -0.989365 0.021759
  outer loop
    vertex 0.1388198398853275 -0.4762639630243082 0.0624635059742281
    vertex -0.005297910338769455 -0.497493193513992 0.04972378257224781
    vertex 0.07644736378364896 -0.488358994444373 -0.07524156508082046
  endloop
endfacet
facet normal -0.444907 -0.895419 0.0168268
  outer loop
    vertex -0.151188087944464 -0.4740030981835097 0.04963088731960262
    vertex -0.2787957670160699 -0.4103613362459117 0.06226149699767126
    vertex -0.2283880537236262 -0.4380293272250601 -0.07726063297110167
  endloop
endfacet
facet normal 0.880986 -0.446387 0.156852
  outer loop
    vertex 0.3936720444946429 -0.2903200807608118 0.1036174314024606
    vertex 0.4394510316367483 -0.2384297946809617 -0.005832992524605016
    vertex 0.4691171175989615 -0.1442989718626748 0.09543027137662922
  endloop
endfacet
facet normal 0.434586 -0.898142 0.066902
  outer loop
    vertex 0.2247485648811413 -0.4433621561615854 -0.05401926570786925
    vertex 0.2792688518893907 -0.407027421409525 0.07960896045731572
    vertex 0.1388198398853275 -0.4762639630243082 0.0624635059742281
  endloop
endfacet
facet normal -0.0983734 0.990934 -0.0915051
  outer loop
    vertex 0.00882382131270284 0.4994845446835991 0.02091243170124334
    vertex -0.02076024048841432 0.48274576956036 -0.1285516798273711
    vertex -0.1355925654718406 0.4800057972339098 -0.03477198312727235
  endloop
endfacet
facet normal -0.595951 0.802628 -0.0251046
  outer loop
    vertex -0.264841106189144 0.4136607731062067 -0.09350910792904596
    vertex -0.3639762281963294 0.3426919315671456 -0.009140314368350368
    vertex -0.2500068876275418 0.4293555291715803 0.05612829686158313
  endloop
endfacet
facet normal 0.407397 -0.430097 -0.805633
  outer loop
    vertex 0.2185763491207971 -0.1349086139510939 -0.428980239040003
    vertex 0.2710573508747217 -0.2294295465181243 -0.3519801069964976
    vertex 0.1330027011838447 -0.2633153769033511 -0.4037019863266059
  endloop
endfacet
facet normal -0.00793963 -0.996917 -0.0780622
  outer loop
    vertex 0.07644736378364896 -0.488358994444373 -0.07524156508082046
    vertex -0.005297910338769455 -0.497493193513992 0.04972378257224781
    vertex -0.07970614778072525 -0.486449011506387 -0.08375135348408513
  endloop
endfacet
facet normal -0.585783 -0.808847 -0.0512379
  outer loop
    vertex -0.2283880537236262 -0.4380293272250601 -0.07726063297110167
    vertex -0.2787957670160699 -0.4103613362459117 0.06226149699767126
    vertex -0.3545597030564392 -0.3479563301895259 -0.05669046877180763
  endloop
endfacet
facet normal -0.669076 0.721181 -0.17954
  outer loop
    vertex -0.3633234388496651 0.3074165382187005 -0.1532682315813813
    vertex -0.3639762281963294 0.3426919315671456 -0.009140314368350368
    vertex -0.264841106189144 0.4136607731062067 -0.09350910792904596
  endloop
endfacet
facet normal -0.644458 0.754627 0.123333
  outer loop
    vertex -0.2500068876275418 0.4293555291715803 0.05612829686158313
    vertex -0.3639762281963294 0.3426919315671456 -0.009140314368350368
    vertex -0.3432791640235712 0.3363148150373804 0.138028115736073
  endloop
endfacet
facet normal 0.570344 0.172743 0.803036
  outer loop
    vertex 0.293892626146237 -7.198293278059977e-17 0.4045084971874734
    vertex 0.3442052215379941 0.1142170343335933 0.3442052215379935
    vertex 0.2185763491210323 0.1349086139510531 0.428980239039896
  endloop
endfacet
facet normal 0.803036 0.172743 0.570344
  outer loop
    vertex 0.4289802390399462 0.1349086139507819 0.2185763491211013
    vertex 0.3442052215379941 0.1142170343335933 0.3442052215379935
    vertex 0.4045084971874738 -9.907600726170918e-17 0.2938926261462365
  endloop
endfacet
facet normal 0.219883 0.702591 -0.676769
  outer loop
    vertex 0.02571351787191016 0.3708067348262702 -0.3344266442826155
    vertex 0.1581441040297109 0.3861216137762531 -0.2755005294649396
    vertex 0.1537164626705822 0.2883126412628028 -0.3784799466181926
  endloop
endfacet
facet normal 0.247843 -0.92441 0.289895
  outer loop
    vertex 0.1388198398853275 -0.4762639630243082 0.0624635059742281
    vertex 0.1969881888304064 -0.4268861570890627 0.1701877267814816
    vertex 0.05397997714866068 -0.4580573937986576 0.193053324378037
  endloop
endfacet
facet normal -0.769067 0.6247 0.135227
  outer loop
    vertex -0.3432791640235712 0.3363148150373804 0.138028115736073
    vertex -0.3639762281963294 0.3426919315671456 -0.009140314368350368
    vertex -0.4326527699845267 0.2423070282795176 0.06402253252617623
  endloop
endfacet
facet normal -0.689714 -0.721527 0.0607687
  outer loop
    vertex -0.3545597030564392 -0.3479563301895259 -0.05669046877180763
    vertex -0.2787957670160699 -0.4103613362459117 0.06226149699767126
    vertex -0.3823782270018117 -0.308879764538757 0.09154333713292877
  endloop
endfacet
facet normal -0.158965 -0.98726 0.00692899
  outer loop
    vertex -0.07970614778072525 -0.486449011506387 -0.08375135348408513
    vertex -0.005297910338769455 -0.497493193513992 0.04972378257224781
    vertex -0.151188087944464 -0.4740030981835097 0.04963088731960262
  endloop
endfacet
facet normal -0.0373004 -0.189087 -0.981252
  outer loop
    vertex 0.0698331513994324 -0.1315243462511946 -0.4773098336602964
    vertex -0.09883963340049372 -0.1440752766327306 -0.4684794995861165
    vertex 3.061616997868383e-17 -7.498798913309288e-33 -0.5
  endloop
endfacet
facet normal -0.624089 -0.601506 0.498701
  outer loop
    vertex -0.3685187742851933 -0.2443844854537552 0.2333883807494325
    vertex -0.2922165196446821 -0.3565726113983099 0.1935600125215407
    vertex -0.2601540927398647 -0.2921115101858881 0.3114333213508434
  endloop
endfacet
facet normal 0.0757312 0.989165 -0.125768
  outer loop
    vertex 0.1226579918351036 0.4775428708562909 -0.08311331742453515
    vertex -0.02076024048841432 0.48274576956036 -0.1285516798273711
    vertex 0.00882382131270284 0.4994845446835991 0.02091243170124334
  endloop
endfacet
facet normal 0.800815 -0.158175 0.577647
  outer loop
    vertex 0.3525745830757647 -0.1259540316326772 0.3314011847963511
    vertex 0.4361494024033818 -0.1025128188992611 0.2219567992752198
    vertex 0.4045084971874738 -9.907600726170918e-17 0.2938926261462365
  endloop
endfacet
facet normal -0.879881 0.258057 0.399018
  outer loop
    vertex -0.4058441999236472 0.2079531277198538 0.2050511693696597
    vertex -0.4707599527321975 0.1185144062311659 0.1197472438900093
    vertex -0.4307045774495009 0.05791872635651251 0.2472629937966583
  endloop
endfacet
facet normal -0.222125 -0.532983 0.816449
  outer loop
    vertex -0.1790243308191943 -0.2022236366441046 0.4207800966742282
    vertex -0.128417332186317 -0.3362393233459021 0.34706210716533
    vertex -0.02149679768501391 -0.2496002986904949 0.4327095776417542
  endloop
endfacet
facet normal 0.419977 0.868337 0.263836
  outer loop
    vertex 0.1773057663569733 0.41537526034643 0.2145368460397931
    vertex 0.2886011025462853 0.3905850612732832 0.1189651777589314
    vertex 0.1544157848071458 0.4703936787947129 0.06989672633514141
  endloop
endfacet
facet normal 0.120815 0.954678 -0.272018
  outer loop
    vertex 0.07396384093555339 0.4473323667628309 -0.2107678910091009
    vertex -0.02076024048841432 0.48274576956036 -0.1285516798273711
    vertex 0.1226579918351036 0.4775428708562909 -0.08311331742453515
  endloop
endfacet
facet normal 0.939098 0.187145 -0.28822
  outer loop
    vertex 0.4289802390399401 0.1349086139508837 -0.2185763491210503
    vertex 0.4832331312318336 0.1166437257560867 -0.05366546488773119
    vertex 0.475528258147577 -1.164708318489093e-16 -0.154508497187473
  endloop
endfacet
facet normal 0.704799 -0.0807198 0.704799
  outer loop
    vertex 0.293892626146237 -7.198293278059977e-17 0.4045084971874734
    vertex 0.3525745830757647 -0.1259540316326772 0.3314011847963511
    vertex 0.4045084971874738 -9.907600726170918e-17 0.2938926261462365
  endloop
endfacet
facet normal 0.577878 -0.178145 -0.796443
  outer loop
    vertex 0.2938926261462368 -7.198293278059974e-17 -0.4045084971874735
    vertex 0.3460817621023791 -0.1239418588298958 -0.3389186179157209
    vertex 0.2185763491207971 -0.1349086139510939 -0.428980239040003
  endloop
endfacet
facet normal -0.713901 -0.608538 0.346449
  outer loop
    vertex -0.3823782270018117 -0.308879764538757 0.09154333713292877
    vertex -0.2922165196446821 -0.3565726113983099 0.1935600125215407
    vertex -0.3685187742851933 -0.2443844854537552 0.2333883807494325
  endloop
endfacet
facet normal -0.864333 -0.334087 -0.375918
  outer loop
    vertex -0.3978157570963938 -0.2498139259606275 -0.1712764601513037
    vertex -0.4704795456494144 -0.1179623856466222 -0.1213831648050019
    vertex -0.4060724721523202 -0.1241029708903863 -0.2640143935021026
  endloop
endfacet
facet normal -0.0934884 -0.639215 0.763324
  outer loop
    vertex -0.02149679768501391 -0.2496002986904949 0.4327095776417542
    vertex -0.128417332186317 -0.3362393233459021 0.34706210716533
    vertex 0.02585776689526827 -0.3598154527545551 0.3462141185021554
  endloop
endfacet
facet normal 0.932188 0.16983 0.319661
  outer loop
    vertex 0.4755282581475767 -1.164708318489092e-16 0.154508497187474
    vertex 0.4850845592353151 0.093755773634793 0.0768298464245603
    vertex 0.4289802390399462 0.1349086139507819 0.2185763491211013
  endloop
endfacet
facet normal -0.130685 0.91754 -0.375556
  outer loop
    vertex -0.02076024048841432 0.48274576956036 -0.1285516798273711
    vertex -0.04346640720593286 0.4274726720444274 -0.2556908017504841
    vertex -0.1413633930997064 0.4417416290049747 -0.1867638195565973
  endloop
endfacet
facet normal 0.795673 -0.603941 0.0464726
  outer loop
    vertex 0.3559435901796082 -0.3500921343082191 -0.02719665614679514
    vertex 0.4394510316367483 -0.2384297946809617 -0.005832992524605016
    vertex 0.3936720444946429 -0.2903200807608118 0.1036174314024606
  endloop
endfacet
facet normal 0.142071 0.628724 -0.76454
  outer loop
    vertex 0.02571351787191016 0.3708067348262702 -0.3344266442826155
    vertex 0.1537164626705822 0.2883126412628028 -0.3784799466181926
    vertex 0.06347804213296646 0.2436456790738891 -0.4319806954431978
  endloop
endfacet
facet normal 0.45322 -0.760165 0.465553
  outer loop
    vertex 0.173758504779318 -0.3639947715233672 0.2954924505304788
    vertex 0.1969881888304064 -0.4268861570890627 0.1701877267814816
    vertex 0.2976852889335752 -0.3425045629796536 0.2099383078207747
  endloop
endfacet
facet normal -0.882549 0.389955 0.262758
  outer loop
    vertex -0.4326527699845267 0.2423070282795176 0.06402253252617623
    vertex -0.4707599527321975 0.1185144062311659 0.1197472438900093
    vertex -0.4058441999236472 0.2079531277198538 0.2050511693696597
  endloop
endfacet
facet normal -0.901427 -0.165832 -0.399912
  outer loop
    vertex -0.4060724721523202 -0.1241029708903863 -0.2640143935021026
    vertex -0.4704795456494144 -0.1179623856466222 -0.1213831648050019
    vertex -0.4608475416824387 0.004566914323047701 -0.1939038076439418
  endloop
endfacet
facet normal 0.805941 -0.581847 -0.109144
  outer loop
    vertex 0.4076225471962073 -0.2595209948849996 -0.1284239550519131
    vertex 0.4394510316367483 -0.2384297946809617 -0.005832992524605016
    vertex 0.3559435901796082 -0.3500921343082191 -0.02719665614679514
  endloop
endfacet
facet normal -0.894736 -0.0444 0.444383
  outer loop
    vertex -0.4307045774495009 0.05791872635651251 0.2472629937966583
    vertex -0.4786420120187589 -0.02413378991741831 0.1425460785670939
    vertex -0.4205763600528385 -0.09778463595880256 0.2520985726558356
  endloop
endfacet
facet normal 0.498015 0.780718 0.37744
  outer loop
    vertex 0.2805909641415518 0.3372481389832401 0.2398591328143576
    vertex 0.2886011025462853 0.3905850612732832 0.1189651777589314
    vertex 0.1773057663569733 0.41537526034643 0.2145368460397931
  endloop
endfacet
facet normal 0.523229 0.590755 0.614199
  outer loop
    vertex 0.1890455023796871 0.3179736799914171 0.3363845074653818
    vertex 0.2971089375228125 0.2265264300310939 0.3322830957804405
    vertex 0.2805909641415518 0.3372481389832401 0.2398591328143576
  endloop
endfacet
facet normal -0.788286 0.201904 -0.581239
  outer loop
    vertex -0.4195260832104634 0.1576895471118649 -0.2216571050919467
    vertex -0.3333509396240036 0.149349003477501 -0.3414264579848365
    vertex -0.3784579474399253 0.01670210228620127 -0.3263290085156084
  endloop
endfacet
facet normal -0.00276404 0.91726 -0.39828
  outer loop
    vertex 0.07396384093555339 0.4473323667628309 -0.2107678910091009
    vertex -0.04346640720593286 0.4274726720444274 -0.2556908017504841
    vertex -0.02076024048841432 0.48274576956036 -0.1285516798273711
  endloop
endfacet
facet normal -0.64664 0.621133 -0.442776
  outer loop
    vertex -0.2603385438889368 0.3563834941893916 -0.234977972659456
    vertex -0.3339894922475474 0.2521716008912942 -0.2736064742877026
    vertex -0.3633234388496651 0.3074165382187005 -0.1532682315813813
  endloop
endfacet
facet normal 0.705049 -0.0762308 -0.705049
  outer loop
    vertex 0.4045084971874742 -9.907600726170927e-17 -0.293892626146236
    vertex 0.3460817621023791 -0.1239418588298958 -0.3389186179157209
    vertex 0.2938926261462368 -7.198293278059974e-17 -0.4045084971874735
  endloop
endfacet
facet normal -0.30432 0.813769 0.495146
  outer loop
    vertex -0.2207863880449482 0.4034463596894066 0.196174426741692
    vertex -0.1885510186105578 0.3512283338048301 0.3018065123777218
    vertex -0.06855742348410665 0.4211807499277216 0.2605890549803327
  endloop
endfacet
facet normal -0.479029 0.571732 0.666073
  outer loop
    vertex -0.2184472633314473 0.2222830661967427 0.3909872525098175
    vertex -0.1885510186105578 0.3512283338048301 0.3018065123777218
    vertex -0.3019709204237086 0.2925630932387544 0.2705926822606815
  endloop
endfacet
facet normal 0.913238 0.301626 0.273896
  outer loop
    vertex 0.4289802390399462 0.1349086139507819 0.2185763491211013
    vertex 0.4850845592353151 0.093755773634793 0.0768298464245603
    vertex 0.4521901807551496 0.2027385741140608 0.06649143549978914
  endloop
endfacet
facet normal -0.568723 -0.013255 0.822422
  outer loop
    vertex -0.2251709220916496 -0.06657944589647857 0.4414354236222034
    vertex -0.2811377442046264 0.08261384352920574 0.4051376576435051
    vertex -0.3530787021761795 -0.009074131494020815 0.3539111332060831
  endloop
endfacet
facet normal -0.566217 0.330642 0.755032
  outer loop
    vertex -0.350210648457615 0.1491903233391608 0.3241832030331822
    vertex -0.2811377442046264 0.08261384352920574 0.4051376576435051
    vertex -0.2184472633314473 0.2222830661967427 0.3909872525098175
  endloop
endfacet
facet normal 0.027122 -0.828085 -0.559946
  outer loop
    vertex -0.06041648066245146 -0.3947764065916521 -0.3008345685970051
    vertex 0.07242317321829655 -0.3781296653267157 -0.3190185577374749
    vertex 0.005827060310227179 -0.4530567815472154 -0.2114369836670484
  endloop
endfacet
facet normal -0.0559971 -0.907418 0.416481
  outer loop
    vertex -0.08724277706936402 -0.4201869428408209 0.2565767544328791
    vertex -0.07931461723109903 -0.4719091298459994 0.1449515942012227
    vertex 0.05397997714866068 -0.4580573937986576 0.193053324378037
  endloop
endfacet
facet normal 0.204626 0.411488 0.888147
  outer loop
    vertex 0.06582827951838 0.1332414531873846 0.4774027155014559
    vertex 0.1747233896233416 0.2358971699155071 0.4047520998640827
    vertex 0.05935548295327261 0.2756236749206594 0.4129267688908221
  endloop
endfacet
facet normal -0.276986 -0.777704 -0.564318
  outer loop
    vertex -0.1485227141871298 -0.4276187478348564 -0.2123280713203924
    vertex -0.1885956425145465 -0.3368565656731553 -0.3177409916699648
    vertex -0.06041648066245146 -0.3947764065916521 -0.3008345685970051
  endloop
endfacet
facet normal 0.0254213 0.870485 0.491539
  outer loop
    vertex 0.03617050959336825 0.4679834555335209 0.1722880715042719
    vertex -0.06855742348410665 0.4211807499277216 0.2605890549803327
    vertex 0.05461231536356304 0.3927390010716607 0.3045875441443147
  endloop
endfacet
facet normal -0.259976 0.163762 -0.951627
  outer loop
    vertex -0.06224719008183847 0.1362244673632892 -0.4770410693205603
    vertex -0.1274197731120945 -0.004596133265736694 -0.483469830474525
    vertex -0.1934022120499357 0.1307583712128892 -0.4421513685740936
  endloop
endfacet
facet normal 0.782696 0.556571 -0.278594
  outer loop
    vertex 0.4315716505508419 0.2368421293162485 -0.08747408885931561
    vertex 0.3831306575087815 0.2443395173925777 -0.2085883494283681
    vertex 0.345173889126785 0.3391662056826596 -0.1257826346834797
  endloop
endfacet
facet normal 0.705758 0.0617334 0.705758
  outer loop
    vertex 0.4045084971874738 -9.907600726170918e-17 0.2938926261462365
    vertex 0.3442052215379941 0.1142170343335933 0.3442052215379935
    vertex 0.293892626146237 -7.198293278059977e-17 0.4045084971874734
  endloop
endfacet
facet normal 0.565757 0.318007 0.760783
  outer loop
    vertex 0.3442052215379941 0.1142170343335933 0.3442052215379935
    vertex 0.2971089375228125 0.2265264300310939 0.3322830957804405
    vertex 0.2185763491210323 0.1349086139510531 0.428980239039896
  endloop
endfacet
facet normal -0.9873 0.147615 -0.0587315
  outer loop
    vertex -0.4971235646066958 0.03397477013216056 0.04139899162056068
    vertex -0.4784690577749881 0.1449855763668551 0.0068222721644544
    vertex -0.4937856961289981 0.008756065942995109 -0.0780962073829624
  endloop
endfacet
facet normal -0.984103 0.159429 -0.0782605
  outer loop
    vertex -0.4937856961289981 0.008756065942995109 -0.0780962073829624
    vertex -0.4784690577749881 0.1449855763668551 0.0068222721644544
    vertex -0.4732132024054627 0.1223790465211654 -0.1053215744362809
  endloop
endfacet
facet normal -0.743489 0.364989 -0.560364
  outer loop
    vertex -0.4195260832104634 0.1576895471118649 -0.2216571050919467
    vertex -0.3339894922475474 0.2521716008912942 -0.2736064742877026
    vertex -0.3333509396240036 0.149349003477501 -0.3414264579848365
  endloop
endfacet
facet normal -0.638362 0.130741 -0.758552
  outer loop
    vertex -0.3333509396240036 0.149349003477501 -0.3414264579848365
    vertex -0.2703372630276865 -0.002390652359607238 -0.420609140414227
    vertex -0.3784579474399253 0.01670210228620127 -0.3263290085156084
  endloop
endfacet
facet normal 0.569103 -0.335466 0.750723
  outer loop
    vertex 0.271731582908147 -0.2496002987189185 0.3374339012749897
    vertex 0.3525745830757647 -0.1259540316326772 0.3314011847963511
    vertex 0.2185763491474381 -0.1349086139656465 0.4289802390218521
  endloop
endfacet
facet normal -0.646585 -0.726815 0.231661
  outer loop
    vertex -0.2787957670160699 -0.4103613362459117 0.06226149699767126
    vertex -0.2922165196446821 -0.3565726113983099 0.1935600125215407
    vertex -0.3823782270018117 -0.308879764538757 0.09154333713292877
  endloop
endfacet
facet normal -0.598771 0.438392 -0.670288
  outer loop
    vertex -0.3333509396240036 0.149349003477501 -0.3414264579848365
    vertex -0.3339894922475474 0.2521716008912942 -0.2736064742877026
    vertex -0.2352524765222797 0.2564763891368584 -0.3589932229241286
  endloop
endfacet
facet normal -0.384969 -0.552167 0.739534
  outer loop
    vertex -0.2601540927398647 -0.2921115101858881 0.3114333213508434
    vertex -0.128417332186317 -0.3362393233459021 0.34706210716533
    vertex -0.1790243308191943 -0.2022236366441046 0.4207800966742282
  endloop
endfacet
facet normal -0.0538658 0.763074 0.644063
  outer loop
    vertex 0.05461231536356304 0.3927390010716607 0.3045875441443147
    vertex -0.06855742348410665 0.4211807499277216 0.2605890549803327
    vertex -0.07882091653248287 0.3317376268025061 0.3657012579694258
  endloop
endfacet
facet normal -0.461816 0.0423091 0.885966
  outer loop
    vertex -0.1701627066542102 0.0814903220205789 0.4630377745725456
    vertex -0.2811377442046264 0.08261384352920574 0.4051376576435051
    vertex -0.2251709220916496 -0.06657944589647857 0.4414354236222034
  endloop
endfacet
facet normal 0.534287 -0.785138 0.313204
  outer loop
    vertex 0.2976852889335752 -0.3425045629796536 0.2099383078207747
    vertex 0.1969881888304064 -0.4268861570890627 0.1701877267814816
    vertex 0.2792688518893907 -0.407027421409525 0.07960896045731572
  endloop
endfacet
facet normal -0.933028 0.106484 0.343685
  outer loop
    vertex -0.4707599527321975 0.1185144062311659 0.1197472438900093
    vertex -0.4786420120187589 -0.02413378991741831 0.1425460785670939
    vertex -0.4307045774495009 0.05791872635651251 0.2472629937966583
  endloop
endfacet
facet normal 0.281098 0.337584 0.898343
  outer loop
    vertex 0.2185763491210323 0.1349086139510531 0.428980239039896
    vertex 0.1747233896233416 0.2358971699155071 0.4047520998640827
    vertex 0.06582827951838 0.1332414531873846 0.4774027155014559
  endloop
endfacet
facet normal -0.424306 -0.886966 0.182363
  outer loop
    vertex -0.151188087944464 -0.4740030981835097 0.04963088731960262
    vertex -0.1896857947008039 -0.4314856302278604 0.1668515813397963
    vertex -0.2787957670160699 -0.4103613362459117 0.06226149699767126
  endloop
endfacet
facet normal -0.662458 -0.0673865 -0.746062
  outer loop
    vertex -0.3784579474399253 0.01670210228620127 -0.3263290085156084
    vertex -0.2703372630276865 -0.002390652359607238 -0.420609140414227
    vertex -0.3084475505716008 -0.1138108854146152 -0.3767057086208292
  endloop
endfacet
facet normal 0.259111 -0.843109 0.471198
  outer loop
    vertex 0.05397997714866068 -0.4580573937986576 0.193053324378037
    vertex 0.1969881888304064 -0.4268861570890627 0.1701877267814816
    vertex 0.173758504779318 -0.3639947715233672 0.2954924505304788
  endloop
endfacet
facet normal -0.828523 0.559873 -0.00953095
  outer loop
    vertex -0.3639762281963294 0.3426919315671456 -0.009140314368350368
    vertex -0.4365032703857942 0.2343727050133605 -0.06733743451622219
    vertex -0.4326527699845267 0.2423070282795176 0.06402253252617623
  endloop
endfacet
facet normal -0.441218 0.284277 0.851183
  outer loop
    vertex -0.2184472633314473 0.2222830661967427 0.3909872525098175
    vertex -0.2811377442046264 0.08261384352920574 0.4051376576435051
    vertex -0.1701627066542102 0.0814903220205789 0.4630377745725456
  endloop
endfacet
facet normal -0.982221 -0.136696 -0.128673
  outer loop
    vertex -0.4921521930442174 -0.08746619494208621 0.01165691314715592
    vertex -0.4937856961289981 0.008756065942995109 -0.0780962073829624
    vertex -0.4704795456494144 -0.1179623856466222 -0.1213831648050019
  endloop
endfacet
facet normal -0.500006 -0.323628 -0.80328
  outer loop
    vertex -0.3084475505716008 -0.1138108854146152 -0.3767057086208292
    vertex -0.2063563944557286 -0.108978509148306 -0.4421998677193881
    vertex -0.1962361787049928 -0.2205271179431197 -0.4035581152931552
  endloop
endfacet
facet normal -0.538182 0.599827 -0.592087
  outer loop
    vertex -0.2352524765222797 0.2564763891368584 -0.3589932229241286
    vertex -0.3339894922475474 0.2521716008912942 -0.2736064742877026
    vertex -0.2603385438889368 0.3563834941893916 -0.234977972659456
  endloop
endfacet
facet normal -0.100974 0.763321 -0.638079
  outer loop
    vertex -0.1265106434831314 0.3621934595130576 -0.3206414741911083
    vertex -0.04346640720593286 0.4274726720444274 -0.2556908017504841
    vertex 0.02571351787191016 0.3708067348262702 -0.3344266442826155
  endloop
endfacet
facet normal -0.781755 0.604881 -0.151586
  outer loop
    vertex -0.3633234388496651 0.3074165382187005 -0.1532682315813813
    vertex -0.4365032703857942 0.2343727050133605 -0.06733743451622219
    vertex -0.3639762281963294 0.3426919315671456 -0.009140314368350368
  endloop
endfacet
facet normal 0.985277 0.0698313 -0.156053
  outer loop
    vertex 0.475528258147577 -1.164708318489093e-16 -0.154508497187473
    vertex 0.4832331312318336 0.1166437257560867 -0.05366546488773119
    vertex 0.5 -1.224646799147353e-16 7.657137397853899e-16
  endloop
endfacet
facet normal 0.586594 -0.184433 0.788602
  outer loop
    vertex 0.2185763491474381 -0.1349086139656465 0.4289802390218521
    vertex 0.3525745830757647 -0.1259540316326772 0.3314011847963511
    vertex 0.293892626146237 -7.198293278059977e-17 0.4045084971874734
  endloop
endfacet
facet normal 0.947972 -0.317857 0.0177509
  outer loop
    vertex 0.4691171175989615 -0.1442989718626748 0.09543027137662922
    vertex 0.4394510316367483 -0.2384297946809617 -0.005832992524605016
    vertex 0.4766607763040919 -0.1312931054588749 -0.07454277156200488
  endloop
endfacet
facet normal 0.0124755 0.171721 -0.985067
  outer loop
    vertex 3.061616997868383e-17 -7.498798913309288e-33 -0.5
    vertex -0.06224719008183847 0.1362244673632892 -0.4770410693205603
    vertex 0.07531627702520581 0.1349086139510521 -0.4755282581475768
  endloop
endfacet
facet normal -0.518328 -0.808635 0.27829
  outer loop
    vertex -0.2787957670160699 -0.4103613362459117 0.06226149699767126
    vertex -0.1896857947008039 -0.4314856302278604 0.1668515813397963
    vertex -0.2922165196446821 -0.3565726113983099 0.1935600125215407
  endloop
endfacet
facet normal -0.402701 -0.0566704 -0.913576
  outer loop
    vertex -0.1274197731120945 -0.004596133265736694 -0.483469830474525
    vertex -0.2063563944557286 -0.108978509148306 -0.4421998677193881
    vertex -0.2703372630276865 -0.002390652359607238 -0.420609140414227
  endloop
endfacet
facet normal -0.502347 0.704376 0.5015
  outer loop
    vertex -0.3019709204237086 0.2925630932387544 0.2705926822606815
    vertex -0.1885510186105578 0.3512283338048301 0.3018065123777218
    vertex -0.2207863880449482 0.4034463596894066 0.196174426741692
  endloop
endfacet
facet normal 0.895663 -0.414477 -0.161234
  outer loop
    vertex 0.4766607763040919 -0.1312931054588749 -0.07454277156200488
    vertex 0.4394510316367483 -0.2384297946809617 -0.005832992524605016
    vertex 0.4076225471962073 -0.2595209948849996 -0.1284239550519131
  endloop
endfacet
facet normal 0.465023 0.517297 0.718441
  outer loop
    vertex 0.1890455023796871 0.3179736799914171 0.3363845074653818
    vertex 0.1747233896233416 0.2358971699155071 0.4047520998640827
    vertex 0.2971089375228125 0.2265264300310939 0.3322830957804405
  endloop
endfacet
facet normal -0.269837 -0.764031 0.586041
  outer loop
    vertex -0.128417332186317 -0.3362393233459021 0.34706210716533
    vertex -0.1985466093765675 -0.3769890334086671 0.261645776947895
    vertex -0.08724277706936402 -0.4201869428408209 0.2565767544328791
  endloop
endfacet
facet normal -0.690277 0.145636 0.708737
  outer loop
    vertex -0.3530787021761795 -0.009074131494020815 0.3539111332060831
    vertex -0.2811377442046264 0.08261384352920574 0.4051376576435051
    vertex -0.350210648457615 0.1491903233391608 0.3241832030331822
  endloop
endfacet
facet normal 0.890162 -0.0435233 0.45356
  outer loop
    vertex 0.4045084971874738 -9.907600726170918e-17 0.2938926261462365
    vertex 0.4361494024033818 -0.1025128188992611 0.2219567992752198
    vertex 0.4755282581475767 -1.164708318489092e-16 0.154508497187474
  endloop
endfacet
facet normal 0.48968 0.398668 0.775421
  outer loop
    vertex 0.2971089375228125 0.2265264300310939 0.3322830957804405
    vertex 0.1747233896233416 0.2358971699155071 0.4047520998640827
    vertex 0.2185763491210323 0.1349086139510531 0.428980239039896
  endloop
endfacet
facet normal 0.257796 0.591435 0.764033
  outer loop
    vertex 0.05935548295327261 0.2756236749206594 0.4129267688908221
    vertex 0.1747233896233416 0.2358971699155071 0.4047520998640827
    vertex 0.1890455023796871 0.3179736799914171 0.3363845074653818
  endloop
endfacet
facet normal -0.959229 -0.0842664 -0.269777
  outer loop
    vertex -0.4704795456494144 -0.1179623856466222 -0.1213831648050019
    vertex -0.4937856961289981 0.008756065942995109 -0.0780962073829624
    vertex -0.4608475416824387 0.004566914323047701 -0.1939038076439418
  endloop
endfacet
facet normal 0.566391 -0.308185 -0.764345
  outer loop
    vertex 0.3460817621023791 -0.1239418588298958 -0.3389186179157209
    vertex 0.2710573508747217 -0.2294295465181243 -0.3519801069964976
    vertex 0.2185763491207971 -0.1349086139510939 -0.428980239040003
  endloop
endfacet
facet normal 0.666935 0.623379 -0.408163
  outer loop
    vertex 0.345173889126785 0.3391662056826596 -0.1257826346834797
    vertex 0.3831306575087815 0.2443395173925777 -0.2085883494283681
    vertex 0.2830919267916435 0.3104767581194129 -0.2710408523692588
  endloop
endfacet
facet normal 0.988974 0.147616 0.0118595
  outer loop
    vertex 0.4832331312318336 0.1166437257560867 -0.05366546488773119
    vertex 0.4850845592353151 0.093755773634793 0.0768298464245603
    vertex 0.5 -1.224646799147353e-16 7.657137397853899e-16
  endloop
endfacet
facet normal -0.955312 0.106936 -0.275579
  outer loop
    vertex -0.4608475416824387 0.004566914323047701 -0.1939038076439418
    vertex -0.4937856961289981 0.008756065942995109 -0.0780962073829624
    vertex -0.4732132024054627 0.1223790465211654 -0.1053215744362809
  endloop
endfacet
facet normal 0.987275 0.0289245 0.156369
  outer loop
    vertex 0.5 -1.224646799147353e-16 7.657137397853899e-16
    vertex 0.4850845592353151 0.093755773634793 0.0768298464245603
    vertex 0.4755282581475767 -1.164708318489092e-16 0.154508497187474
  endloop
endfacet
facet normal 0.670815 -0.399748 -0.624667
  outer loop
    vertex 0.3483456479836189 -0.253997261016034 -0.2532601447666517
    vertex 0.2710573508747217 -0.2294295465181243 -0.3519801069964976
    vertex 0.3460817621023791 -0.1239418588298958 -0.3389186179157209
  endloop
endfacet
facet normal 0.860747 0.402929 0.311067
  outer loop
    vertex 0.4521901807551496 0.2027385741140608 0.06649143549978914
    vertex 0.3790911031904031 0.2748260956971346 0.1753868655451502
    vertex 0.4289802390399462 0.1349086139507819 0.2185763491211013
  endloop
endfacet
facet normal -0.243014 0.821841 -0.515287
  outer loop
    vertex -0.1413633930997064 0.4417416290049747 -0.1867638195565973
    vertex -0.04346640720593286 0.4274726720444274 -0.2556908017504841
    vertex -0.1265106434831314 0.3621934595130576 -0.3206414741911083
  endloop
endfacet
facet normal -0.226361 0.75262 0.618324
  outer loop
    vertex -0.06855742348410665 0.4211807499277216 0.2605890549803327
    vertex -0.1885510186105578 0.3512283338048301 0.3018065123777218
    vertex -0.07882091653248287 0.3317376268025061 0.3657012579694258
  endloop
endfacet
facet normal -0.987671 -0.0741913 0.137844
  outer loop
    vertex -0.4786420120187589 -0.02413378991741831 0.1425460785670939
    vertex -0.4971235646066958 0.03397477013216056 0.04139899162056068
    vertex -0.4921521930442174 -0.08746619494208621 0.01165691314715592
  endloop
endfacet
facet normal 0.29891 0.856365 -0.421061
  outer loop
    vertex 0.2169425865181329 0.4156330441870032 -0.1737385585719734
    vertex 0.1581441040297109 0.3861216137762531 -0.2755005294649396
    vertex 0.07396384093555339 0.4473323667628309 -0.2107678910091009
  endloop
endfacet
facet normal 0.0137705 0.373035 -0.927715
  outer loop
    vertex 0.07531627702520581 0.1349086139510521 -0.4755282581475768
    vertex -0.06224719008183847 0.1362244673632892 -0.4770410693205603
    vertex 0.06347804213296646 0.2436456790738891 -0.4319806954431978
  endloop
endfacet
facet normal 0.416592 -0.890442 0.183205
  outer loop
    vertex 0.2792688518893907 -0.407027421409525 0.07960896045731572
    vertex 0.1969881888304064 -0.4268861570890627 0.1701877267814816
    vertex 0.1388198398853275 -0.4762639630243082 0.0624635059742281
  endloop
endfacet
facet normal -0.157481 -0.977517 0.140217
  outer loop
    vertex -0.005297910338769455 -0.497493193513992 0.04972378257224781
    vertex -0.07931461723109903 -0.4719091298459994 0.1449515942012227
    vertex -0.151188087944464 -0.4740030981835097 0.04963088731960262
  endloop
endfacet
facet normal 0.567965 0.318203 -0.759054
  outer loop
    vertex 0.2226645853075735 0.1438923421850888 -0.4239286217163163
    vertex 0.2554350995077285 0.2290811423751767 -0.363695944639971
    vertex 0.34388663879131 0.1437581401101839 -0.3332800276237324
  endloop
endfacet
facet normal -0.96927 0.0901396 0.228889
  outer loop
    vertex -0.4707599527321975 0.1185144062311659 0.1197472438900093
    vertex -0.4971235646066958 0.03397477013216056 0.04139899162056068
    vertex -0.4786420120187589 -0.02413378991741831 0.1425460785670939
  endloop
endfacet
facet normal -0.529012 -0.148294 -0.835557
  outer loop
    vertex -0.2703372630276865 -0.002390652359607238 -0.420609140414227
    vertex -0.2063563944557286 -0.108978509148306 -0.4421998677193881
    vertex -0.3084475505716008 -0.1138108854146152 -0.3767057086208292
  endloop
endfacet
facet normal -0.246485 -0.885897 0.392979
  outer loop
    vertex -0.08724277706936402 -0.4201869428408209 0.2565767544328791
    vertex -0.1896857947008039 -0.4314856302278604 0.1668515813397963
    vertex -0.07931461723109903 -0.4719091298459994 0.1449515942012227
  endloop
endfacet
facet normal -0.304516 -0.837794 0.453178
  outer loop
    vertex -0.08724277706936402 -0.4201869428408209 0.2565767544328791
    vertex -0.1985466093765675 -0.3769890334086671 0.261645776947895
    vertex -0.1896857947008039 -0.4314856302278604 0.1668515813397963
  endloop
endfacet
facet normal 0.570202 -0.572727 -0.588944
  outer loop
    vertex 0.3483456479836189 -0.253997261016034 -0.2532601447666517
    vertex 0.2266217760371787 -0.3431511892862694 -0.2844113779671512
    vertex 0.2710573508747217 -0.2294295465181243 -0.3519801069964976
  endloop
endfacet
facet normal -0.131685 0.10594 -0.985614
  outer loop
    vertex 3.061616997868383e-17 -7.498798913309288e-33 -0.5
    vertex -0.1274197731120945 -0.004596133265736694 -0.483469830474525
    vertex -0.06224719008183847 0.1362244673632892 -0.4770410693205603
  endloop
endfacet
facet normal -0.291483 -0.925947 0.240124
  outer loop
    vertex -0.07931461723109903 -0.4719091298459994 0.1449515942012227
    vertex -0.1896857947008039 -0.4314856302278604 0.1668515813397963
    vertex -0.151188087944464 -0.4740030981835097 0.04963088731960262
  endloop
endfacet
facet normal -0.1229 -0.13091 -0.983747
  outer loop
    vertex -0.09883963340049372 -0.1440752766327306 -0.4684794995861165
    vertex -0.1274197731120945 -0.004596133265736694 -0.483469830474525
    vertex 3.061616997868383e-17 -7.498798913309288e-33 -0.5
  endloop
endfacet
facet normal -0.522051 -0.680519 0.514156
  outer loop
    vertex -0.2922165196446821 -0.3565726113983099 0.1935600125215407
    vertex -0.1985466093765675 -0.3769890334086671 0.261645776947895
    vertex -0.2601540927398647 -0.2921115101858881 0.3114333213508434
  endloop
endfacet
facet normal -0.925327 0.350237 0.14527
  outer loop
    vertex -0.4326527699845267 0.2423070282795176 0.06402253252617623
    vertex -0.4784690577749881 0.1449855763668551 0.0068222721644544
    vertex -0.4707599527321975 0.1185144062311659 0.1197472438900093
  endloop
endfacet
facet normal -0.467187 -0.784684 0.40744
  outer loop
    vertex -0.1896857947008039 -0.4314856302278604 0.1668515813397963
    vertex -0.1985466093765675 -0.3769890334086671 0.261645776947895
    vertex -0.2922165196446821 -0.3565726113983099 0.1935600125215407
  endloop
endfacet
facet normal -0.394104 -0.660766 0.638804
  outer loop
    vertex -0.2601540927398647 -0.2921115101858881 0.3114333213508434
    vertex -0.1985466093765675 -0.3769890334086671 0.261645776947895
    vertex -0.128417332186317 -0.3362393233459021 0.34706210716533
  endloop
endfacet
facet normal -0.90494 0.425538 0.000823091
  outer loop
    vertex -0.4365032703857942 0.2343727050133605 -0.06733743451622219
    vertex -0.4784690577749881 0.1449855763668551 0.0068222721644544
    vertex -0.4326527699845267 0.2423070282795176 0.06402253252617623
  endloop
endfacet
facet normal -0.999148 -0.0359231 -0.0203279
  outer loop
    vertex -0.4921521930442174 -0.08746619494208621 0.01165691314715592
    vertex -0.4971235646066958 0.03397477013216056 0.04139899162056068
    vertex -0.4937856961289981 0.008756065942995109 -0.0780962073829624
  endloop
endfacet
facet normal -0.932186 0.343887 -0.113011
  outer loop
    vertex -0.4732132024054627 0.1223790465211654 -0.1053215744362809
    vertex -0.4784690577749881 0.1449855763668551 0.0068222721644544
    vertex -0.4365032703857942 0.2343727050133605 -0.06733743451622219
  endloop
endfacet
facet normal -0.973496 0.198804 0.11306
  outer loop
    vertex -0.4707599527321975 0.1185144062311659 0.1197472438900093
    vertex -0.4784690577749881 0.1449855763668551 0.0068222721644544
    vertex -0.4971235646066958 0.03397477013216056 0.04139899162056068
  endloop
endfacet
facet normal -0.283264 -0.159676 -0.945656
  outer loop
    vertex -0.09883963340049372 -0.1440752766327306 -0.4684794995861165
    vertex -0.2063563944557286 -0.108978509148306 -0.4421998677193881
    vertex -0.1274197731120945 -0.004596133265736694 -0.483469830474525
  endloop
endfacet
facet normal -0.109782 0.232364 0.966413
  outer loop
    vertex -0.1701627066542102 0.0814903220205789 0.4630377745725456
    vertex 0.06582827951838 0.1332414531873846 0.4774027155014559
    vertex -0.07857685624841433 0.227220034121789 0.4384024791852905
  endloop
endfacet
endsolid Created by Gmsh
