# Watertight tapered and gently bent low-poly tree trunk for LSDEM examples.
o irregular_tree_trunk
v 0.280 0.000 -1.000
v 0.190 0.170 -1.000
v 0.000 0.230 -1.000
v -0.180 0.160 -1.000
v -0.260 0.000 -1.000
v -0.170 -0.150 -1.000
v 0.000 -0.210 -1.000
v 0.200 -0.160 -1.000
v 0.220 -0.010 -0.650
v 0.158 0.117 -0.650
v 0.010 0.170 -0.650
v -0.139 0.117 -0.650
v -0.200 -0.010 -0.650
v -0.139 -0.137 -0.650
v 0.010 -0.190 -0.650
v 0.158 -0.137 -0.650
v 0.170 0.015 -0.200
v 0.114 0.128 -0.200
v -0.020 0.175 -0.200
v -0.154 0.128 -0.200
v -0.210 0.015 -0.200
v -0.154 -0.098 -0.200
v -0.020 -0.145 -0.200
v 0.114 -0.098 -0.200
v 0.195 0.000 0.250
v 0.145 0.103 0.250
v 0.025 0.145 0.250
v -0.095 0.103 0.250
v -0.145 0.000 0.250
v -0.095 -0.103 0.250
v 0.025 -0.145 0.250
v 0.145 -0.103 0.250
v 0.220 -0.015 0.700
v 0.176 0.077 0.700
v 0.070 0.115 0.700
v -0.036 0.077 0.700
v -0.080 -0.015 0.700
v -0.036 -0.107 0.700
v 0.070 -0.145 0.700
v 0.176 -0.107 0.700
v 0.240 0.010 1.000
v 0.205 0.084 1.000
v 0.120 0.115 1.000
v 0.035 0.084 1.000
v 0.000 0.010 1.000
v 0.035 -0.064 1.000
v 0.120 -0.095 1.000
v 0.205 -0.064 1.000
v 0.000 0.000 -1.000
v 0.120 0.010 1.000
f 1 2 10 9
f 2 3 11 10
f 3 4 12 11
f 4 5 13 12
f 5 6 14 13
f 6 7 15 14
f 7 8 16 15
f 8 1 9 16
f 9 10 18 17
f 10 11 19 18
f 11 12 20 19
f 12 13 21 20
f 13 14 22 21
f 14 15 23 22
f 15 16 24 23
f 16 9 17 24
f 17 18 26 25
f 18 19 27 26
f 19 20 28 27
f 20 21 29 28
f 21 22 30 29
f 22 23 31 30
f 23 24 32 31
f 24 17 25 32
f 25 26 34 33
f 26 27 35 34
f 27 28 36 35
f 28 29 37 36
f 29 30 38 37
f 30 31 39 38
f 31 32 40 39
f 32 25 33 40
f 33 34 42 41
f 34 35 43 42
f 35 36 44 43
f 36 37 45 44
f 37 38 46 45
f 38 39 47 46
f 39 40 48 47
f 40 33 41 48
f 49 2 1
f 49 3 2
f 49 4 3
f 49 5 4
f 49 6 5
f 49 7 6
f 49 8 7
f 49 1 8
f 50 41 42
f 50 42 43
f 50 43 44
f 50 44 45
f 50 45 46
f 50 46 47
f 50 47 48
f 50 48 41
