# Rhino

mtllib cone.mtl
usemtl diffuse_0
v 0 0 0
v 0.5 0 0.5
v 1 0 1
v 0 0 0
v 0.48156476020812988 -0.13451902568340302 0.5
v 0.96312952041625977 -0.26903805136680603 1
v 0 0 0
v 0.42968368530273438 -0.25567933917045593 0.5
v 0.85936737060546875 -0.51135867834091187 1
v 0 0 0
v 0.35004496574401855 -0.35702735185623169 0.5
v 0.70008993148803711 -0.71405470371246338 1
v 0 0 0
v 0.24714401364326477 -0.43464910984039307 0.5
v 0.49428802728652954 -0.86929821968078613 1
v 0 0 0
v 0.12781912088394165 -0.48338624835014343 0.5
v 0.2556382417678833 -0.96677249670028687 1
v 0 0 0
v 0 -0.5 0.5
v 0 -1 1
v 0 0 0
v -0.13451902568340302 -0.48156476020812988 0.5
v -0.26903805136680603 -0.96312952041625977 1
v 0 0 0
v -0.25567933917045593 -0.42968368530273438 0.5
v -0.51135867834091187 -0.85936737060546875 1
v 0 0 0
v -0.35702735185623169 -0.35004496574401855 0.5
v -0.71405470371246338 -0.70008993148803711 1
v 0 0 0
v -0.43464910984039307 -0.24714401364326477 0.5
v -0.86929821968078613 -0.49428802728652954 1
v 0 0 0
v -0.48338624835014343 -0.12781912088394165 0.5
v -0.96677249670028687 -0.2556382417678833 1
v 0 0 0
v -0.5 0 0.5
v -1 0 1
v 0 0 0
v -0.48156476020812988 0.13451902568340302 0.5
v -0.96312952041625977 0.26903805136680603 1
v 0 0 0
v -0.42968368530273438 0.25567933917045593 0.5
v -0.85936737060546875 0.51135867834091187 1
v 0 0 0
v -0.35004496574401855 0.35702735185623169 0.5
v -0.70008993148803711 0.71405470371246338 1
v 0 0 0
v -0.24714401364326477 0.43464910984039307 0.5
v -0.49428802728652954 0.86929821968078613 1
v 0 0 0
v -0.12781912088394165 0.48338624835014343 0.5
v -0.2556382417678833 0.96677249670028687 1
v 0 0 0
v 0 0.5 0.5
v 0 1 1
v 0 0 0
v 0.13451902568340302 0.48156476020812988 0.5
v 0.26903805136680603 0.96312952041625977 1
v 0 0 0
v 0.25567933917045593 0.42968368530273438 0.5
v 0.51135867834091187 0.85936737060546875 1
v 0 0 0
v 0.35702735185623169 0.35004496574401855 0.5
v 0.71405470371246338 0.70008993148803711 1
v 0 0 0
v 0.43464910984039307 0.24714401364326477 0.5
v 0.86929821968078613 0.49428802728652954 1
v 0 0 0
v 0.48338624835014343 0.12781912088394165 0.5
v 0.96677249670028687 0.2556382417678833 1
v 0.5 0 0.5
v 1 0 1
v 1 0 1
v 0.96312952041625977 -0.26903805136680603 1
v 0.85936737060546875 -0.51135867834091187 1
v 0.70008993148803711 -0.71405470371246338 1
v 0.49428802728652954 -0.86929821968078613 1
v 0.2556382417678833 -0.96677249670028687 1
v 0 -1 1
v -0.26903805136680603 -0.96312952041625977 1
v -0.51135867834091187 -0.85936737060546875 1
v -0.71405470371246338 -0.70008993148803711 1
v -0.86929821968078613 -0.49428802728652954 1
v -0.96677249670028687 -0.2556382417678833 1
v -1 0 1
v -0.96312952041625977 0.26903805136680603 1
v -0.85936737060546875 0.51135867834091187 1
v -0.70008993148803711 0.71405470371246338 1
v -0.49428802728652954 0.86929821968078613 1
v -0.2556382417678833 0.96677249670028687 1
v 0 1 1
v 0.26903805136680603 0.96312952041625977 1
v 0.51135867834091187 0.85936737060546875 1
v 0.71405470371246338 0.70008993148803711 1
v 0.86929821968078613 0.49428802728652954 1
v 0.96677249670028687 0.2556382417678833 1
v 0 0 1
v 0 -0.5 1
v 0.5 0 1
v 0.5 -0.5 1
v 0 0.5 1
v 0.5 0.5 1
v -0.5 0 1
v -0.5 -0.5 1
v -0.5 0.5 1
vt 0.54191112518310547 0
vt 0.43010672926902771 0
vt 0.31830227375030518 0
vt 0.54191112518310547 0.043289367109537125
vt 0.43010672926902771 0.043289367109537125
vt 0.31830227375030518 0.043289367109537125
vt 0.54191112518310547 0.08530367910861969
vt 0.43010672926902771 0.08530367910861969
vt 0.31830227375030518 0.08530367910861969
vt 0.54191112518310547 0.12638621032238007
vt 0.43010672926902771 0.12638621032238007
vt 0.31830227375030518 0.12638621032238007
vt 0.54191112518310547 0.16746872663497925
vt 0.43010672926902771 0.16746872663497925
vt 0.31830227375030518 0.16746872663497925
vt 0.54191112518310547 0.20855127274990082
vt 0.43010672926902771 0.20855127274990082
vt 0.31830227375030518 0.20855127274990082
vt 0.54191112518310547 0.2496337890625
vt 0.43010672926902771 0.2496337890625
vt 0.31830227375030518 0.2496337890625
vt 0.54191112518310547 0.29292315244674683
vt 0.43010672926902771 0.29292315244674683
vt 0.31830227375030518 0.29292315244674683
vt 0.54191112518310547 0.3349374532699585
vt 0.43010672926902771 0.3349374532699585
vt 0.31830227375030518 0.3349374532699585
vt 0.54191112518310547 0.37602001428604126
vt 0.43010672926902771 0.37602001428604126
vt 0.31830227375030518 0.37602001428604126
vt 0.54191112518310547 0.41710254549980164
vt 0.43010672926902771 0.41710254549980164
vt 0.31830227375030518 0.41710254549980164
vt 0.54191112518310547 0.45818504691123962
vt 0.43010672926902771 0.45818504691123962
vt 0.31830227375030518 0.45818504691123962
vt 0.54191112518310547 0.499267578125
vt 0.43010672926902771 0.499267578125
vt 0.31830227375030518 0.499267578125
vt 0.54191112518310547 0.54255694150924683
vt 0.43010672926902771 0.54255694150924683
vt 0.31830227375030518 0.54255694150924683
vt 0.54191112518310547 0.58457130193710327
vt 0.43010672926902771 0.58457130193710327
vt 0.31830227375030518 0.58457130193710327
vt 0.54191112518310547 0.62565374374389648
vt 0.43010672926902771 0.62565374374389648
vt 0.31830227375030518 0.62565374374389648
vt 0.54191112518310547 0.66673630475997925
vt 0.43010672926902771 0.66673630475997925
vt 0.31830227375030518 0.66673630475997925
vt 0.54191112518310547 0.70781880617141724
vt 0.43010672926902771 0.70781880617141724
vt 0.31830227375030518 0.70781880617141724
vt 0.54191112518310547 0.7489013671875
vt 0.43010672926902771 0.7489013671875
vt 0.31830227375030518 0.7489013671875
vt 0.54191112518310547 0.79219073057174683
vt 0.43010672926902771 0.79219073057174683
vt 0.31830227375030518 0.79219073057174683
vt 0.54191112518310547 0.83420509099960327
vt 0.43010672926902771 0.83420509099960327
vt 0.31830227375030518 0.83420509099960327
vt 0.54191112518310547 0.87528753280639648
vt 0.43010672926902771 0.87528753280639648
vt 0.31830227375030518 0.87528753280639648
vt 0.54191112518310547 0.91637009382247925
vt 0.43010672926902771 0.91637009382247925
vt 0.31830227375030518 0.91637009382247925
vt 0.54191112518310547 0.95745259523391724
vt 0.43010672926902771 0.95745259523391724
vt 0.31830227375030518 0.95745259523391724
vt 0.43010672926902771 0.99853515625
vt 0.31830227375030518 0.99853515625
vt 0.31683743000030518 0.15915113687515259
vt 0.31099647283554077 0.20196886360645294
vt 0.29455861449241638 0.2405344694852829
vt 0.26932606101036072 0.27279376983642578
vt 0.23672318458557129 0.29750093817710876
vt 0.19891659915447235 0.31301409006118774
vt 0.15841871500015259 0.31830227375030518
vt 0.11579804867506027 0.31243431568145752
vt 0.077409930527210236 0.29592043161392212
vt 0.045299094170331955 0.2705712616443634
vt 0.020705614238977432 0.23781764507293701
vt 0.0052638556808233261 0.19983625411987305
vt 0 0.15915113687515259
vt 0.0058409702032804489 0.11633342504501343
vt 0.022278841584920883 0.077767819166183472
vt 0.047511368989944458 0.045508526265621185
vt 0.080114245414733887 0.020801343023777008
vt 0.11792083829641342 0.0052881920710206032
vt 0.15841871500015259 0
vt 0.2010393887758255 0.0058679748326539993
vt 0.23942752182483673 0.022381843999028206
vt 0.27153834700584412 0.047731030732393265
vt 0.29613181948661804 0.080484636127948761
vt 0.31157359480857849 0.11846602708101273
vt 0.15841871500015259 0.15915113687515259
vt 0.15841871500015259 0.23872672021389008
vt 0.23762808740139008 0.15915113687515259
vt 0.23762808740139008 0.23872672021389008
vt 0.15841871500015259 0.079575568437576294
vt 0.23762808740139008 0.079575568437576294
vt 0.079209357500076294 0.15915113687515259
vt 0.079209357500076294 0.23872672021389008
vt 0.079209357500076294 0.079575568437576294
vn 0.70710676908493042 0 -0.70710676908493042
vn 0.70710676908493042 0 -0.70710676908493042
vn 0.70710676908493042 0 -0.70710676908493042
vn 0.68103545904159546 -0.19023863971233368 -0.70710676908493042
vn 0.68103545904159546 -0.19023863971233368 -0.70710676908493042
vn 0.68103545904159546 -0.19023863971233368 -0.70710676908493042
vn 0.60766452550888062 -0.36158519983291626 -0.70710676908493042
vn 0.60766452550888062 -0.36158519983291626 -0.70710676908493042
vn 0.60766452550888062 -0.36158519983291626 -0.70710676908493042
vn 0.49503833055496216 -0.50491291284561157 -0.70710676908493042
vn 0.49503833055496216 -0.50491291284561157 -0.70710676908493042
vn 0.49503833055496216 -0.50491291284561157 -0.70710676908493042
vn 0.3495144248008728 -0.61468666791915894 -0.70710676908493042
vn 0.3495144248008728 -0.61468666791915894 -0.70710676908493042
vn 0.3495144248008728 -0.61468666791915894 -0.70710676908493042
vn 0.18076352775096893 -0.68361139297485352 -0.70710676908493042
vn 0.18076352775096893 -0.68361139297485352 -0.70710676908493042
vn 0.18076352775096893 -0.68361139297485352 -0.70710676908493042
vn 0 -0.70710676908493042 -0.70710676908493042
vn 0 -0.70710676908493042 -0.70710676908493042
vn 0 -0.70710676908493042 -0.70710676908493042
vn -0.19023863971233368 -0.68103545904159546 -0.70710676908493042
vn -0.19023863971233368 -0.68103545904159546 -0.70710676908493042
vn -0.19023863971233368 -0.68103545904159546 -0.70710676908493042
vn -0.36158519983291626 -0.60766452550888062 -0.70710676908493042
vn -0.36158519983291626 -0.60766452550888062 -0.70710676908493042
vn -0.36158519983291626 -0.60766452550888062 -0.70710676908493042
vn -0.50491291284561157 -0.49503833055496216 -0.70710676908493042
vn -0.50491291284561157 -0.49503833055496216 -0.70710676908493042
vn -0.50491291284561157 -0.49503833055496216 -0.70710676908493042
vn -0.61468666791915894 -0.3495144248008728 -0.70710676908493042
vn -0.61468666791915894 -0.3495144248008728 -0.70710676908493042
vn -0.61468666791915894 -0.3495144248008728 -0.70710676908493042
vn -0.68361139297485352 -0.18076352775096893 -0.70710676908493042
vn -0.68361139297485352 -0.18076352775096893 -0.70710676908493042
vn -0.68361139297485352 -0.18076352775096893 -0.70710676908493042
vn -0.70710676908493042 0 -0.70710676908493042
vn -0.70710676908493042 0 -0.70710676908493042
vn -0.70710676908493042 0 -0.70710676908493042
vn -0.68103545904159546 0.19023863971233368 -0.70710676908493042
vn -0.68103545904159546 0.19023863971233368 -0.70710676908493042
vn -0.68103545904159546 0.19023863971233368 -0.70710676908493042
vn -0.60766452550888062 0.36158519983291626 -0.70710676908493042
vn -0.60766452550888062 0.36158519983291626 -0.70710676908493042
vn -0.60766452550888062 0.36158519983291626 -0.70710676908493042
vn -0.49503833055496216 0.50491291284561157 -0.70710676908493042
vn -0.49503833055496216 0.50491291284561157 -0.70710676908493042
vn -0.49503833055496216 0.50491291284561157 -0.70710676908493042
vn -0.3495144248008728 0.61468666791915894 -0.70710676908493042
vn -0.3495144248008728 0.61468666791915894 -0.70710676908493042
vn -0.3495144248008728 0.61468666791915894 -0.70710676908493042
vn -0.18076352775096893 0.68361139297485352 -0.70710676908493042
vn -0.18076352775096893 0.68361139297485352 -0.70710676908493042
vn -0.18076352775096893 0.68361139297485352 -0.70710676908493042
vn 0 0.70710676908493042 -0.70710676908493042
vn 0 0.70710676908493042 -0.70710676908493042
vn 0 0.70710676908493042 -0.70710676908493042
vn 0.19023863971233368 0.68103545904159546 -0.70710676908493042
vn 0.19023863971233368 0.68103545904159546 -0.70710676908493042
vn 0.19023863971233368 0.68103545904159546 -0.70710676908493042
vn 0.36158519983291626 0.60766452550888062 -0.70710676908493042
vn 0.36158519983291626 0.60766452550888062 -0.70710676908493042
vn 0.36158519983291626 0.60766452550888062 -0.70710676908493042
vn 0.50491291284561157 0.49503833055496216 -0.70710676908493042
vn 0.50491291284561157 0.49503833055496216 -0.70710676908493042
vn 0.50491291284561157 0.49503833055496216 -0.70710676908493042
vn 0.61468666791915894 0.3495144248008728 -0.70710676908493042
vn 0.61468666791915894 0.3495144248008728 -0.70710676908493042
vn 0.61468666791915894 0.3495144248008728 -0.70710676908493042
vn 0.68361139297485352 0.18076352775096893 -0.70710676908493042
vn 0.68361139297485352 0.18076352775096893 -0.70710676908493042
vn 0.68361139297485352 0.18076352775096893 -0.70710676908493042
vn 0.70710676908493042 0 -0.70710676908493042
vn 0.70710676908493042 0 -0.70710676908493042
vn 0 0 1
vn 0 0 1
vn 0 0 1
vn 0 0 1
vn 0 0 1
vn 0 0 1
vn 0 0 1
vn 0 0 1
vn 0 0 1
vn 0 0 1
vn 0 0 1
vn 0 0 1
vn 0 0 1
vn 0 0 1
vn 0 0 1
vn 0 0 1
vn 0 0 1
vn 0 0 1
vn 0 0 1
vn 0 0 1
vn 0 0 1
vn 0 0 1
vn 0 0 1
vn 0 0 1
vn 0 0 1
vn 0 0 1
vn 0 0 1
vn 0 0 1
vn 0 0 1
vn 0 0 1
vn 0 0 1
vn 0 0 1
vn 0 0 1
f 5/5/5 1/1/1 2/2/2
f 8/8/8 4/4/4 5/5/5
f 11/11/11 7/7/7 8/8/8
f 14/14/14 10/10/10 11/11/11
f 17/17/17 13/13/13 14/14/14
f 20/20/20 16/16/16 17/17/17
f 23/23/23 19/19/19 20/20/20
f 26/26/26 22/22/22 23/23/23
f 29/29/29 25/25/25 26/26/26
f 32/32/32 28/28/28 29/29/29
f 35/35/35 31/31/31 32/32/32
f 38/38/38 34/34/34 35/35/35
f 41/41/41 37/37/37 38/38/38
f 44/44/44 40/40/40 41/41/41
f 47/47/47 43/43/43 44/44/44
f 50/50/50 46/46/46 47/47/47
f 53/53/53 49/49/49 50/50/50
f 56/56/56 52/52/52 53/53/53
f 59/59/59 55/55/55 56/56/56
f 62/62/62 58/58/58 59/59/59
f 65/65/65 61/61/61 62/62/62
f 68/68/68 64/64/64 65/65/65
f 71/71/71 67/67/67 68/68/68
f 73/73/73 70/70/70 71/71/71
f 5/5/5 2/2/2 6/6/6
f 8/8/8 5/5/5 6/6/6
f 14/14/14 11/11/11 12/12/12
f 17/17/17 14/14/14 18/18/18
f 11/11/11 8/8/8 9/9/9
f 23/23/23 20/20/20 24/24/24
f 26/26/26 23/23/23 24/24/24
f 32/32/32 29/29/29 30/30/30
f 35/35/35 32/32/32 36/36/36
f 29/29/29 26/26/26 27/27/27
f 20/20/20 17/17/17 18/18/18
f 38/38/38 35/35/35 36/36/36
f 44/44/44 41/41/41 42/42/42
f 47/47/47 44/44/44 45/45/45
f 53/53/53 50/50/50 54/54/54
f 56/56/56 53/53/53 54/54/54
f 50/50/50 47/47/47 48/48/48
f 62/62/62 59/59/59 60/60/60
f 65/65/65 62/62/62 63/63/63
f 71/71/71 68/68/68 72/72/72
f 73/73/73 71/71/71 72/72/72
f 68/68/68 65/65/65 66/66/66
f 59/59/59 56/56/56 60/60/60
f 41/41/41 38/38/38 42/42/42
f 102/102/102 101/101/101 99/99/99
f 100/100/100 99/99/99 105/105/105
f 99/99/99 103/103/103 107/107/107
f 101/101/101 104/104/104 103/103/103
f 107/107/107 90/90/90 89/89/89
f 107/107/107 88/88/88 105/105/105
f 89/89/89 88/88/88 107/107/107
f 107/107/107 91/91/91 90/90/90
f 103/103/103 93/93/93 92/92/92
f 91/91/91 107/107/107 92/92/92
f 103/103/103 92/92/92 107/107/107
f 103/103/103 94/94/94 93/93/93
f 106/106/106 86/86/86 85/85/85
f 85/85/85 84/84/84 106/106/106
f 87/87/87 86/86/86 105/105/105
f 84/84/84 83/83/83 106/106/106
f 106/106/106 83/83/83 82/82/82
f 82/82/82 100/100/100 106/106/106
f 105/105/105 86/86/86 106/106/106
f 105/105/105 88/88/88 87/87/87
f 104/104/104 95/95/95 94/94/94
f 104/104/104 101/101/101 98/98/98
f 96/96/96 95/95/95 104/104/104
f 97/97/97 104/104/104 98/98/98
f 98/98/98 101/101/101 75/75/75
f 96/96/96 104/104/104 97/97/97
f 76/76/76 75/75/75 101/101/101
f 79/79/79 102/102/102 80/80/80
f 100/100/100 80/80/80 102/102/102
f 100/100/100 81/81/81 80/80/80
f 82/82/82 81/81/81 100/100/100
f 77/77/77 76/76/76 102/102/102
f 102/102/102 78/78/78 77/77/77
f 79/79/79 78/78/78 102/102/102
f 102/102/102 76/76/76 101/101/101
f 94/94/94 103/103/103 104/104/104
f 2/2/2 3/3/3 6/6/6
f 8/8/8 6/6/6 9/9/9
f 14/14/14 12/12/12 15/15/15
f 14/14/14 15/15/15 18/18/18
f 11/11/11 9/9/9 12/12/12
f 20/20/20 21/21/21 24/24/24
f 26/26/26 24/24/24 27/27/27
f 32/32/32 30/30/30 33/33/33
f 32/32/32 33/33/33 36/36/36
f 29/29/29 27/27/27 30/30/30
f 20/20/20 18/18/18 21/21/21
f 38/38/38 36/36/36 39/39/39
f 44/44/44 42/42/42 45/45/45
f 47/47/47 45/45/45 48/48/48
f 50/50/50 51/51/51 54/54/54
f 56/56/56 54/54/54 57/57/57
f 50/50/50 48/48/48 51/51/51
f 62/62/62 60/60/60 63/63/63
f 65/65/65 63/63/63 66/66/66
f 68/68/68 69/69/69 72/72/72
f 73/73/73 72/72/72 74/74/74
f 68/68/68 66/66/66 69/69/69
f 56/56/56 57/57/57 60/60/60
f 38/38/38 39/39/39 42/42/42
f 102/102/102 99/99/99 100/100/100
f 100/100/100 105/105/105 106/106/106
f 99/99/99 107/107/107 105/105/105
f 101/101/101 103/103/103 99/99/99
